%TF.GenerationSoftware,KiCad,Pcbnew,(5.1.8)-1*%
%TF.CreationDate,2022-11-15T12:17:50-08:00*%
%TF.ProjectId,RetroClock,52657472-6f43-46c6-9f63-6b2e6b696361,rev?*%
%TF.SameCoordinates,Original*%
%TF.FileFunction,Legend,Top*%
%TF.FilePolarity,Positive*%
%FSLAX46Y46*%
G04 Gerber Fmt 4.6, Leading zero omitted, Abs format (unit mm)*
G04 Created by KiCad (PCBNEW (5.1.8)-1) date 2022-11-15 12:17:50*
%MOMM*%
%LPD*%
G01*
G04 APERTURE LIST*
%ADD10C,0.150000*%
%ADD11C,0.300000*%
%ADD12C,0.120000*%
%ADD13C,0.100000*%
G04 APERTURE END LIST*
D10*
X153985714Y-83952380D02*
X153985714Y-82952380D01*
X154223809Y-82952380D01*
X154366666Y-83000000D01*
X154461904Y-83095238D01*
X154509523Y-83190476D01*
X154557142Y-83380952D01*
X154557142Y-83523809D01*
X154509523Y-83714285D01*
X154461904Y-83809523D01*
X154366666Y-83904761D01*
X154223809Y-83952380D01*
X153985714Y-83952380D01*
X154890476Y-82952380D02*
X155509523Y-82952380D01*
X155176190Y-83333333D01*
X155319047Y-83333333D01*
X155414285Y-83380952D01*
X155461904Y-83428571D01*
X155509523Y-83523809D01*
X155509523Y-83761904D01*
X155461904Y-83857142D01*
X155414285Y-83904761D01*
X155319047Y-83952380D01*
X155033333Y-83952380D01*
X154938095Y-83904761D01*
X154890476Y-83857142D01*
X156366666Y-82952380D02*
X156176190Y-82952380D01*
X156080952Y-83000000D01*
X156033333Y-83047619D01*
X155938095Y-83190476D01*
X155890476Y-83380952D01*
X155890476Y-83761904D01*
X155938095Y-83857142D01*
X155985714Y-83904761D01*
X156080952Y-83952380D01*
X156271428Y-83952380D01*
X156366666Y-83904761D01*
X156414285Y-83857142D01*
X156461904Y-83761904D01*
X156461904Y-83523809D01*
X156414285Y-83428571D01*
X156366666Y-83380952D01*
X156271428Y-83333333D01*
X156080952Y-83333333D01*
X155985714Y-83380952D01*
X155938095Y-83428571D01*
X155890476Y-83523809D01*
X153985714Y-86452380D02*
X153985714Y-85452380D01*
X154223809Y-85452380D01*
X154366666Y-85500000D01*
X154461904Y-85595238D01*
X154509523Y-85690476D01*
X154557142Y-85880952D01*
X154557142Y-86023809D01*
X154509523Y-86214285D01*
X154461904Y-86309523D01*
X154366666Y-86404761D01*
X154223809Y-86452380D01*
X153985714Y-86452380D01*
X154890476Y-85452380D02*
X155509523Y-85452380D01*
X155176190Y-85833333D01*
X155319047Y-85833333D01*
X155414285Y-85880952D01*
X155461904Y-85928571D01*
X155509523Y-86023809D01*
X155509523Y-86261904D01*
X155461904Y-86357142D01*
X155414285Y-86404761D01*
X155319047Y-86452380D01*
X155033333Y-86452380D01*
X154938095Y-86404761D01*
X154890476Y-86357142D01*
X155985714Y-86452380D02*
X156176190Y-86452380D01*
X156271428Y-86404761D01*
X156319047Y-86357142D01*
X156414285Y-86214285D01*
X156461904Y-86023809D01*
X156461904Y-85642857D01*
X156414285Y-85547619D01*
X156366666Y-85500000D01*
X156271428Y-85452380D01*
X156080952Y-85452380D01*
X155985714Y-85500000D01*
X155938095Y-85547619D01*
X155890476Y-85642857D01*
X155890476Y-85880952D01*
X155938095Y-85976190D01*
X155985714Y-86023809D01*
X156080952Y-86071428D01*
X156271428Y-86071428D01*
X156366666Y-86023809D01*
X156414285Y-85976190D01*
X156461904Y-85880952D01*
X153885714Y-89052380D02*
X153885714Y-88052380D01*
X154123809Y-88052380D01*
X154266666Y-88100000D01*
X154361904Y-88195238D01*
X154409523Y-88290476D01*
X154457142Y-88480952D01*
X154457142Y-88623809D01*
X154409523Y-88814285D01*
X154361904Y-88909523D01*
X154266666Y-89004761D01*
X154123809Y-89052380D01*
X153885714Y-89052380D01*
X154790476Y-88052380D02*
X155409523Y-88052380D01*
X155076190Y-88433333D01*
X155219047Y-88433333D01*
X155314285Y-88480952D01*
X155361904Y-88528571D01*
X155409523Y-88623809D01*
X155409523Y-88861904D01*
X155361904Y-88957142D01*
X155314285Y-89004761D01*
X155219047Y-89052380D01*
X154933333Y-89052380D01*
X154838095Y-89004761D01*
X154790476Y-88957142D01*
X156266666Y-88385714D02*
X156266666Y-89052380D01*
X156028571Y-88004761D02*
X155790476Y-88719047D01*
X156409523Y-88719047D01*
X153885714Y-94052380D02*
X153885714Y-93052380D01*
X154123809Y-93052380D01*
X154266666Y-93100000D01*
X154361904Y-93195238D01*
X154409523Y-93290476D01*
X154457142Y-93480952D01*
X154457142Y-93623809D01*
X154409523Y-93814285D01*
X154361904Y-93909523D01*
X154266666Y-94004761D01*
X154123809Y-94052380D01*
X153885714Y-94052380D01*
X154790476Y-93052380D02*
X155409523Y-93052380D01*
X155076190Y-93433333D01*
X155219047Y-93433333D01*
X155314285Y-93480952D01*
X155361904Y-93528571D01*
X155409523Y-93623809D01*
X155409523Y-93861904D01*
X155361904Y-93957142D01*
X155314285Y-94004761D01*
X155219047Y-94052380D01*
X154933333Y-94052380D01*
X154838095Y-94004761D01*
X154790476Y-93957142D01*
X155790476Y-93147619D02*
X155838095Y-93100000D01*
X155933333Y-93052380D01*
X156171428Y-93052380D01*
X156266666Y-93100000D01*
X156314285Y-93147619D01*
X156361904Y-93242857D01*
X156361904Y-93338095D01*
X156314285Y-93480952D01*
X155742857Y-94052380D01*
X156361904Y-94052380D01*
X153885714Y-96652380D02*
X153885714Y-95652380D01*
X154123809Y-95652380D01*
X154266666Y-95700000D01*
X154361904Y-95795238D01*
X154409523Y-95890476D01*
X154457142Y-96080952D01*
X154457142Y-96223809D01*
X154409523Y-96414285D01*
X154361904Y-96509523D01*
X154266666Y-96604761D01*
X154123809Y-96652380D01*
X153885714Y-96652380D01*
X154790476Y-95652380D02*
X155409523Y-95652380D01*
X155076190Y-96033333D01*
X155219047Y-96033333D01*
X155314285Y-96080952D01*
X155361904Y-96128571D01*
X155409523Y-96223809D01*
X155409523Y-96461904D01*
X155361904Y-96557142D01*
X155314285Y-96604761D01*
X155219047Y-96652380D01*
X154933333Y-96652380D01*
X154838095Y-96604761D01*
X154790476Y-96557142D01*
X155742857Y-95652380D02*
X156361904Y-95652380D01*
X156028571Y-96033333D01*
X156171428Y-96033333D01*
X156266666Y-96080952D01*
X156314285Y-96128571D01*
X156361904Y-96223809D01*
X156361904Y-96461904D01*
X156314285Y-96557142D01*
X156266666Y-96604761D01*
X156171428Y-96652380D01*
X155885714Y-96652380D01*
X155790476Y-96604761D01*
X155742857Y-96557142D01*
X153885714Y-99352380D02*
X153885714Y-98352380D01*
X154123809Y-98352380D01*
X154266666Y-98400000D01*
X154361904Y-98495238D01*
X154409523Y-98590476D01*
X154457142Y-98780952D01*
X154457142Y-98923809D01*
X154409523Y-99114285D01*
X154361904Y-99209523D01*
X154266666Y-99304761D01*
X154123809Y-99352380D01*
X153885714Y-99352380D01*
X154838095Y-98447619D02*
X154885714Y-98400000D01*
X154980952Y-98352380D01*
X155219047Y-98352380D01*
X155314285Y-98400000D01*
X155361904Y-98447619D01*
X155409523Y-98542857D01*
X155409523Y-98638095D01*
X155361904Y-98780952D01*
X154790476Y-99352380D01*
X155409523Y-99352380D01*
X156314285Y-98352380D02*
X155838095Y-98352380D01*
X155790476Y-98828571D01*
X155838095Y-98780952D01*
X155933333Y-98733333D01*
X156171428Y-98733333D01*
X156266666Y-98780952D01*
X156314285Y-98828571D01*
X156361904Y-98923809D01*
X156361904Y-99161904D01*
X156314285Y-99257142D01*
X156266666Y-99304761D01*
X156171428Y-99352380D01*
X155933333Y-99352380D01*
X155838095Y-99304761D01*
X155790476Y-99257142D01*
X153885714Y-101852380D02*
X153885714Y-100852380D01*
X154123809Y-100852380D01*
X154266666Y-100900000D01*
X154361904Y-100995238D01*
X154409523Y-101090476D01*
X154457142Y-101280952D01*
X154457142Y-101423809D01*
X154409523Y-101614285D01*
X154361904Y-101709523D01*
X154266666Y-101804761D01*
X154123809Y-101852380D01*
X153885714Y-101852380D01*
X154838095Y-100947619D02*
X154885714Y-100900000D01*
X154980952Y-100852380D01*
X155219047Y-100852380D01*
X155314285Y-100900000D01*
X155361904Y-100947619D01*
X155409523Y-101042857D01*
X155409523Y-101138095D01*
X155361904Y-101280952D01*
X154790476Y-101852380D01*
X155409523Y-101852380D01*
X156266666Y-100852380D02*
X156076190Y-100852380D01*
X155980952Y-100900000D01*
X155933333Y-100947619D01*
X155838095Y-101090476D01*
X155790476Y-101280952D01*
X155790476Y-101661904D01*
X155838095Y-101757142D01*
X155885714Y-101804761D01*
X155980952Y-101852380D01*
X156171428Y-101852380D01*
X156266666Y-101804761D01*
X156314285Y-101757142D01*
X156361904Y-101661904D01*
X156361904Y-101423809D01*
X156314285Y-101328571D01*
X156266666Y-101280952D01*
X156171428Y-101233333D01*
X155980952Y-101233333D01*
X155885714Y-101280952D01*
X155838095Y-101328571D01*
X155790476Y-101423809D01*
X153885714Y-104352380D02*
X153885714Y-103352380D01*
X154123809Y-103352380D01*
X154266666Y-103400000D01*
X154361904Y-103495238D01*
X154409523Y-103590476D01*
X154457142Y-103780952D01*
X154457142Y-103923809D01*
X154409523Y-104114285D01*
X154361904Y-104209523D01*
X154266666Y-104304761D01*
X154123809Y-104352380D01*
X153885714Y-104352380D01*
X154838095Y-103447619D02*
X154885714Y-103400000D01*
X154980952Y-103352380D01*
X155219047Y-103352380D01*
X155314285Y-103400000D01*
X155361904Y-103447619D01*
X155409523Y-103542857D01*
X155409523Y-103638095D01*
X155361904Y-103780952D01*
X154790476Y-104352380D01*
X155409523Y-104352380D01*
X155742857Y-103352380D02*
X156409523Y-103352380D01*
X155980952Y-104352380D01*
X153885714Y-106752380D02*
X153885714Y-105752380D01*
X154123809Y-105752380D01*
X154266666Y-105800000D01*
X154361904Y-105895238D01*
X154409523Y-105990476D01*
X154457142Y-106180952D01*
X154457142Y-106323809D01*
X154409523Y-106514285D01*
X154361904Y-106609523D01*
X154266666Y-106704761D01*
X154123809Y-106752380D01*
X153885714Y-106752380D01*
X155409523Y-106752380D02*
X154838095Y-106752380D01*
X155123809Y-106752380D02*
X155123809Y-105752380D01*
X155028571Y-105895238D01*
X154933333Y-105990476D01*
X154838095Y-106038095D01*
X156266666Y-106085714D02*
X156266666Y-106752380D01*
X156028571Y-105704761D02*
X155790476Y-106419047D01*
X156409523Y-106419047D01*
X167090476Y-64078571D02*
X167423809Y-64078571D01*
X167566666Y-64602380D02*
X167090476Y-64602380D01*
X167090476Y-63602380D01*
X167566666Y-63602380D01*
X167947619Y-64554761D02*
X168090476Y-64602380D01*
X168328571Y-64602380D01*
X168423809Y-64554761D01*
X168471428Y-64507142D01*
X168519047Y-64411904D01*
X168519047Y-64316666D01*
X168471428Y-64221428D01*
X168423809Y-64173809D01*
X168328571Y-64126190D01*
X168138095Y-64078571D01*
X168042857Y-64030952D01*
X167995238Y-63983333D01*
X167947619Y-63888095D01*
X167947619Y-63792857D01*
X167995238Y-63697619D01*
X168042857Y-63650000D01*
X168138095Y-63602380D01*
X168376190Y-63602380D01*
X168519047Y-63650000D01*
X168947619Y-64602380D02*
X168947619Y-63602380D01*
X169328571Y-63602380D01*
X169423809Y-63650000D01*
X169471428Y-63697619D01*
X169519047Y-63792857D01*
X169519047Y-63935714D01*
X169471428Y-64030952D01*
X169423809Y-64078571D01*
X169328571Y-64126190D01*
X168947619Y-64126190D01*
X169852380Y-63602380D02*
X170471428Y-63602380D01*
X170138095Y-63983333D01*
X170280952Y-63983333D01*
X170376190Y-64030952D01*
X170423809Y-64078571D01*
X170471428Y-64173809D01*
X170471428Y-64411904D01*
X170423809Y-64507142D01*
X170376190Y-64554761D01*
X170280952Y-64602380D01*
X169995238Y-64602380D01*
X169900000Y-64554761D01*
X169852380Y-64507142D01*
X170852380Y-63697619D02*
X170900000Y-63650000D01*
X170995238Y-63602380D01*
X171233333Y-63602380D01*
X171328571Y-63650000D01*
X171376190Y-63697619D01*
X171423809Y-63792857D01*
X171423809Y-63888095D01*
X171376190Y-64030952D01*
X170804761Y-64602380D01*
X171423809Y-64602380D01*
X173185714Y-64602380D02*
X172852380Y-64126190D01*
X172614285Y-64602380D02*
X172614285Y-63602380D01*
X172995238Y-63602380D01*
X173090476Y-63650000D01*
X173138095Y-63697619D01*
X173185714Y-63792857D01*
X173185714Y-63935714D01*
X173138095Y-64030952D01*
X173090476Y-64078571D01*
X172995238Y-64126190D01*
X172614285Y-64126190D01*
X173995238Y-64554761D02*
X173900000Y-64602380D01*
X173709523Y-64602380D01*
X173614285Y-64554761D01*
X173566666Y-64459523D01*
X173566666Y-64078571D01*
X173614285Y-63983333D01*
X173709523Y-63935714D01*
X173900000Y-63935714D01*
X173995238Y-63983333D01*
X174042857Y-64078571D01*
X174042857Y-64173809D01*
X173566666Y-64269047D01*
X174328571Y-63935714D02*
X174709523Y-63935714D01*
X174471428Y-63602380D02*
X174471428Y-64459523D01*
X174519047Y-64554761D01*
X174614285Y-64602380D01*
X174709523Y-64602380D01*
X175042857Y-64602380D02*
X175042857Y-63935714D01*
X175042857Y-64126190D02*
X175090476Y-64030952D01*
X175138095Y-63983333D01*
X175233333Y-63935714D01*
X175328571Y-63935714D01*
X175804761Y-64602380D02*
X175709523Y-64554761D01*
X175661904Y-64507142D01*
X175614285Y-64411904D01*
X175614285Y-64126190D01*
X175661904Y-64030952D01*
X175709523Y-63983333D01*
X175804761Y-63935714D01*
X175947619Y-63935714D01*
X176042857Y-63983333D01*
X176090476Y-64030952D01*
X176138095Y-64126190D01*
X176138095Y-64411904D01*
X176090476Y-64507142D01*
X176042857Y-64554761D01*
X175947619Y-64602380D01*
X175804761Y-64602380D01*
X177900000Y-64507142D02*
X177852380Y-64554761D01*
X177709523Y-64602380D01*
X177614285Y-64602380D01*
X177471428Y-64554761D01*
X177376190Y-64459523D01*
X177328571Y-64364285D01*
X177280952Y-64173809D01*
X177280952Y-64030952D01*
X177328571Y-63840476D01*
X177376190Y-63745238D01*
X177471428Y-63650000D01*
X177614285Y-63602380D01*
X177709523Y-63602380D01*
X177852380Y-63650000D01*
X177900000Y-63697619D01*
X178471428Y-64602380D02*
X178376190Y-64554761D01*
X178328571Y-64459523D01*
X178328571Y-63602380D01*
X178995238Y-64602380D02*
X178900000Y-64554761D01*
X178852380Y-64507142D01*
X178804761Y-64411904D01*
X178804761Y-64126190D01*
X178852380Y-64030952D01*
X178900000Y-63983333D01*
X178995238Y-63935714D01*
X179138095Y-63935714D01*
X179233333Y-63983333D01*
X179280952Y-64030952D01*
X179328571Y-64126190D01*
X179328571Y-64411904D01*
X179280952Y-64507142D01*
X179233333Y-64554761D01*
X179138095Y-64602380D01*
X178995238Y-64602380D01*
X180185714Y-64554761D02*
X180090476Y-64602380D01*
X179900000Y-64602380D01*
X179804761Y-64554761D01*
X179757142Y-64507142D01*
X179709523Y-64411904D01*
X179709523Y-64126190D01*
X179757142Y-64030952D01*
X179804761Y-63983333D01*
X179900000Y-63935714D01*
X180090476Y-63935714D01*
X180185714Y-63983333D01*
X180614285Y-64602380D02*
X180614285Y-63602380D01*
X180709523Y-64221428D02*
X180995238Y-64602380D01*
X180995238Y-63935714D02*
X180614285Y-64316666D01*
X168019047Y-65585714D02*
X168019047Y-66252380D01*
X167590476Y-65585714D02*
X167590476Y-66109523D01*
X167638095Y-66204761D01*
X167733333Y-66252380D01*
X167876190Y-66252380D01*
X167971428Y-66204761D01*
X168019047Y-66157142D01*
X168447619Y-66204761D02*
X168542857Y-66252380D01*
X168733333Y-66252380D01*
X168828571Y-66204761D01*
X168876190Y-66109523D01*
X168876190Y-66061904D01*
X168828571Y-65966666D01*
X168733333Y-65919047D01*
X168590476Y-65919047D01*
X168495238Y-65871428D01*
X168447619Y-65776190D01*
X168447619Y-65728571D01*
X168495238Y-65633333D01*
X168590476Y-65585714D01*
X168733333Y-65585714D01*
X168828571Y-65633333D01*
X169304761Y-66252380D02*
X169304761Y-65585714D01*
X169304761Y-65252380D02*
X169257142Y-65300000D01*
X169304761Y-65347619D01*
X169352380Y-65300000D01*
X169304761Y-65252380D01*
X169304761Y-65347619D01*
X169780952Y-65585714D02*
X169780952Y-66252380D01*
X169780952Y-65680952D02*
X169828571Y-65633333D01*
X169923809Y-65585714D01*
X170066666Y-65585714D01*
X170161904Y-65633333D01*
X170209523Y-65728571D01*
X170209523Y-66252380D01*
X171114285Y-65585714D02*
X171114285Y-66395238D01*
X171066666Y-66490476D01*
X171019047Y-66538095D01*
X170923809Y-66585714D01*
X170780952Y-66585714D01*
X170685714Y-66538095D01*
X171114285Y-66204761D02*
X171019047Y-66252380D01*
X170828571Y-66252380D01*
X170733333Y-66204761D01*
X170685714Y-66157142D01*
X170638095Y-66061904D01*
X170638095Y-65776190D01*
X170685714Y-65680952D01*
X170733333Y-65633333D01*
X170828571Y-65585714D01*
X171019047Y-65585714D01*
X171114285Y-65633333D01*
X172209523Y-65252380D02*
X172780952Y-65252380D01*
X172495238Y-66252380D02*
X172495238Y-65252380D01*
X173447619Y-65728571D02*
X173114285Y-65728571D01*
X173114285Y-66252380D02*
X173114285Y-65252380D01*
X173590476Y-65252380D01*
X173828571Y-65252380D02*
X174400000Y-65252380D01*
X174114285Y-66252380D02*
X174114285Y-65252380D01*
X175400000Y-65585714D02*
X175590476Y-66252380D01*
X175780952Y-65776190D01*
X175971428Y-66252380D01*
X176161904Y-65585714D01*
X176542857Y-66252380D02*
X176542857Y-65585714D01*
X176542857Y-65252380D02*
X176495238Y-65300000D01*
X176542857Y-65347619D01*
X176590476Y-65300000D01*
X176542857Y-65252380D01*
X176542857Y-65347619D01*
X176876190Y-65585714D02*
X177257142Y-65585714D01*
X177019047Y-65252380D02*
X177019047Y-66109523D01*
X177066666Y-66204761D01*
X177161904Y-66252380D01*
X177257142Y-66252380D01*
X177590476Y-66252380D02*
X177590476Y-65252380D01*
X178019047Y-66252380D02*
X178019047Y-65728571D01*
X177971428Y-65633333D01*
X177876190Y-65585714D01*
X177733333Y-65585714D01*
X177638095Y-65633333D01*
X177590476Y-65680952D01*
X179209523Y-66204761D02*
X179352380Y-66252380D01*
X179590476Y-66252380D01*
X179685714Y-66204761D01*
X179733333Y-66157142D01*
X179780952Y-66061904D01*
X179780952Y-65966666D01*
X179733333Y-65871428D01*
X179685714Y-65823809D01*
X179590476Y-65776190D01*
X179400000Y-65728571D01*
X179304761Y-65680952D01*
X179257142Y-65633333D01*
X179209523Y-65538095D01*
X179209523Y-65442857D01*
X179257142Y-65347619D01*
X179304761Y-65300000D01*
X179400000Y-65252380D01*
X179638095Y-65252380D01*
X179780952Y-65300000D01*
X180209523Y-66252380D02*
X180209523Y-65252380D01*
X180590476Y-65252380D01*
X180685714Y-65300000D01*
X180733333Y-65347619D01*
X180780952Y-65442857D01*
X180780952Y-65585714D01*
X180733333Y-65680952D01*
X180685714Y-65728571D01*
X180590476Y-65776190D01*
X180209523Y-65776190D01*
X181209523Y-66252380D02*
X181209523Y-65252380D01*
X172876190Y-66902380D02*
X173209523Y-67902380D01*
X173542857Y-66902380D01*
X174400000Y-67902380D02*
X173828571Y-67902380D01*
X174114285Y-67902380D02*
X174114285Y-66902380D01*
X174019047Y-67045238D01*
X173923809Y-67140476D01*
X173828571Y-67188095D01*
X174828571Y-67807142D02*
X174876190Y-67854761D01*
X174828571Y-67902380D01*
X174780952Y-67854761D01*
X174828571Y-67807142D01*
X174828571Y-67902380D01*
X175209523Y-66902380D02*
X175828571Y-66902380D01*
X175495238Y-67283333D01*
X175638095Y-67283333D01*
X175733333Y-67330952D01*
X175780952Y-67378571D01*
X175828571Y-67473809D01*
X175828571Y-67711904D01*
X175780952Y-67807142D01*
X175733333Y-67854761D01*
X175638095Y-67902380D01*
X175352380Y-67902380D01*
X175257142Y-67854761D01*
X175209523Y-67807142D01*
X164271428Y-59321428D02*
X164342857Y-59250000D01*
X164485714Y-59178571D01*
X164842857Y-59178571D01*
X164985714Y-59250000D01*
X165057142Y-59321428D01*
X165128571Y-59464285D01*
X165128571Y-59607142D01*
X165057142Y-59821428D01*
X164200000Y-60678571D01*
X165128571Y-60678571D01*
D11*
X166028571Y-61130952D02*
X166028571Y-59464285D01*
X166028571Y-59702380D02*
X166147619Y-59583333D01*
X166385714Y-59464285D01*
X166742857Y-59464285D01*
X166980952Y-59583333D01*
X167100000Y-59821428D01*
X167100000Y-61130952D01*
X167100000Y-59821428D02*
X167219047Y-59583333D01*
X167457142Y-59464285D01*
X167814285Y-59464285D01*
X168052380Y-59583333D01*
X168171428Y-59821428D01*
X168171428Y-61130952D01*
X163435714Y-59464285D02*
X163435714Y-61488095D01*
X163316666Y-61726190D01*
X163197619Y-61845238D01*
X162959523Y-61964285D01*
X162602380Y-61964285D01*
X162364285Y-61845238D01*
X163435714Y-61011904D02*
X163197619Y-61130952D01*
X162721428Y-61130952D01*
X162483333Y-61011904D01*
X162364285Y-60892857D01*
X162245238Y-60654761D01*
X162245238Y-59940476D01*
X162364285Y-59702380D01*
X162483333Y-59583333D01*
X162721428Y-59464285D01*
X163197619Y-59464285D01*
X163435714Y-59583333D01*
D12*
%TO.C,U2*%
X150776000Y-74550000D02*
X150776000Y-126366000D01*
X150776000Y-126366000D02*
X179224000Y-126366000D01*
X179224000Y-126366000D02*
X179224000Y-74550000D01*
X179224000Y-74550000D02*
X150776000Y-74550000D01*
D13*
G36*
X175668000Y-79122000D02*
G01*
X154840000Y-79122000D01*
X154840000Y-75058000D01*
X175668000Y-75058000D01*
X175668000Y-79122000D01*
G37*
X175668000Y-79122000D02*
X154840000Y-79122000D01*
X154840000Y-75058000D01*
X175668000Y-75058000D01*
X175668000Y-79122000D01*
G36*
X168810000Y-126366000D02*
G01*
X161190000Y-126366000D01*
X161190000Y-120778000D01*
X168810000Y-120778000D01*
X168810000Y-126366000D01*
G37*
X168810000Y-126366000D02*
X161190000Y-126366000D01*
X161190000Y-120778000D01*
X168810000Y-120778000D01*
X168810000Y-126366000D01*
D12*
%TO.C,BT1*%
X194700000Y-141700000D02*
X189000000Y-141700000D01*
X194700000Y-135700000D02*
X194700000Y-141700000D01*
X194700000Y-135700000D02*
X189000000Y-135700000D01*
X188248246Y-142226384D02*
G75*
G02*
X189000000Y-141700000I751754J-273616D01*
G01*
X165804329Y-138654719D02*
G75*
G03*
X188250000Y-142200000I11495671J-45281D01*
G01*
X188248246Y-135173616D02*
G75*
G03*
X189000000Y-135700000I751754J273616D01*
G01*
X165804329Y-138745281D02*
G75*
G02*
X188250000Y-135200000I11495671J45281D01*
G01*
%TO.C,C2*%
X146435000Y-122761252D02*
X146435000Y-122238748D01*
X144965000Y-122761252D02*
X144965000Y-122238748D01*
%TO.C,C6*%
X155135000Y-136961252D02*
X155135000Y-136438748D01*
X153665000Y-136961252D02*
X153665000Y-136438748D01*
%TO.C,C1*%
X144861252Y-117865000D02*
X144338748Y-117865000D01*
X144861252Y-119335000D02*
X144338748Y-119335000D01*
%TO.C,R11*%
X186472936Y-125135000D02*
X186927064Y-125135000D01*
X186472936Y-123665000D02*
X186927064Y-123665000D01*
%TO.C,R10*%
X144372936Y-114835000D02*
X144827064Y-114835000D01*
X144372936Y-113365000D02*
X144827064Y-113365000D01*
%TO.C,R9*%
X146472936Y-104035000D02*
X146927064Y-104035000D01*
X146472936Y-102565000D02*
X146927064Y-102565000D01*
%TO.C,R8*%
X146827064Y-97965000D02*
X146372936Y-97965000D01*
X146827064Y-99435000D02*
X146372936Y-99435000D01*
%TO.C,R7*%
X161027064Y-87765000D02*
X160572936Y-87765000D01*
X161027064Y-89235000D02*
X160572936Y-89235000D01*
%TO.C,R6*%
X182627064Y-123665000D02*
X182172936Y-123665000D01*
X182627064Y-125135000D02*
X182172936Y-125135000D01*
%TO.C,R5*%
X158272936Y-136435000D02*
X158727064Y-136435000D01*
X158272936Y-134965000D02*
X158727064Y-134965000D01*
%TO.C,R4*%
X139327064Y-98665000D02*
X138872936Y-98665000D01*
X139327064Y-100135000D02*
X138872936Y-100135000D01*
%TO.C,R3*%
X146372936Y-94335000D02*
X146827064Y-94335000D01*
X146372936Y-92865000D02*
X146827064Y-92865000D01*
%TO.C,R2*%
X156935000Y-64227064D02*
X156935000Y-63772936D01*
X155465000Y-64227064D02*
X155465000Y-63772936D01*
%TO.C,R1*%
X161027064Y-85265000D02*
X160572936Y-85265000D01*
X161027064Y-86735000D02*
X160572936Y-86735000D01*
%TO.C,Q1*%
X138170000Y-107950000D02*
X141770000Y-107950000D01*
X141808478Y-107938478D02*
G75*
G03*
X139970000Y-103500000I-1838478J1838478D01*
G01*
X138131522Y-107938478D02*
G75*
G02*
X139970000Y-103500000I1838478J1838478D01*
G01*
%TO.C,SW1*%
X145104226Y-90327700D02*
X147525800Y-90327700D01*
X143495774Y-83876100D02*
X141074200Y-83876100D01*
X147525800Y-90327700D02*
X147525800Y-83876100D01*
X141074200Y-90327700D02*
X143495774Y-90327700D01*
X141074200Y-83876100D02*
X141074200Y-90327700D01*
X147525800Y-83876100D02*
X145104226Y-83876100D01*
%TO.C,C7*%
X156920000Y-143450000D02*
G75*
G03*
X156920000Y-143450000I-4120000J0D01*
G01*
X155115000Y-139040302D02*
X155115000Y-139840302D01*
X155515000Y-139440302D02*
X154715000Y-139440302D01*
%TO.C,J4*%
X145750000Y-67950000D02*
X147000000Y-67950000D01*
X145750000Y-66700000D02*
X145750000Y-67950000D01*
X151250000Y-60800000D02*
X151250000Y-63850000D01*
X148300000Y-60800000D02*
X151250000Y-60800000D01*
X148300000Y-60050000D02*
X148300000Y-60800000D01*
X151250000Y-66900000D02*
X151250000Y-63850000D01*
X148300000Y-66900000D02*
X151250000Y-66900000D01*
X148300000Y-67650000D02*
X148300000Y-66900000D01*
X146050000Y-60050000D02*
X146050000Y-61850000D01*
X146800000Y-60050000D02*
X146050000Y-60050000D01*
X146800000Y-61850000D02*
X146800000Y-60050000D01*
X146050000Y-61850000D02*
X146800000Y-61850000D01*
X146050000Y-65850000D02*
X146050000Y-67650000D01*
X146800000Y-65850000D02*
X146050000Y-65850000D01*
X146800000Y-67650000D02*
X146800000Y-65850000D01*
X146050000Y-67650000D02*
X146800000Y-67650000D01*
X146050000Y-63350000D02*
X146050000Y-64350000D01*
X146800000Y-63350000D02*
X146050000Y-63350000D01*
X146800000Y-64350000D02*
X146800000Y-63350000D01*
X146050000Y-64350000D02*
X146800000Y-64350000D01*
X146040000Y-60040000D02*
X146040000Y-67660000D01*
X152010000Y-60040000D02*
X146040000Y-60040000D01*
X152010000Y-67660000D02*
X152010000Y-60040000D01*
X146040000Y-67660000D02*
X152010000Y-67660000D01*
%TO.C,J3*%
X168150000Y-155650000D02*
X168150000Y-154400000D01*
X166900000Y-155650000D02*
X168150000Y-155650000D01*
X161000000Y-150150000D02*
X164050000Y-150150000D01*
X161000000Y-153100000D02*
X161000000Y-150150000D01*
X160250000Y-153100000D02*
X161000000Y-153100000D01*
X167100000Y-150150000D02*
X164050000Y-150150000D01*
X167100000Y-153100000D02*
X167100000Y-150150000D01*
X167850000Y-153100000D02*
X167100000Y-153100000D01*
X160250000Y-155350000D02*
X162050000Y-155350000D01*
X160250000Y-154600000D02*
X160250000Y-155350000D01*
X162050000Y-154600000D02*
X160250000Y-154600000D01*
X162050000Y-155350000D02*
X162050000Y-154600000D01*
X166050000Y-155350000D02*
X167850000Y-155350000D01*
X166050000Y-154600000D02*
X166050000Y-155350000D01*
X167850000Y-154600000D02*
X166050000Y-154600000D01*
X167850000Y-155350000D02*
X167850000Y-154600000D01*
X163550000Y-155350000D02*
X164550000Y-155350000D01*
X163550000Y-154600000D02*
X163550000Y-155350000D01*
X164550000Y-154600000D02*
X163550000Y-154600000D01*
X164550000Y-155350000D02*
X164550000Y-154600000D01*
X160240000Y-155360000D02*
X167860000Y-155360000D01*
X160240000Y-149390000D02*
X160240000Y-155360000D01*
X167860000Y-149390000D02*
X160240000Y-149390000D01*
X167860000Y-155360000D02*
X167860000Y-149390000D01*
%TO.C,J2*%
X159450000Y-155650000D02*
X159450000Y-154400000D01*
X158200000Y-155650000D02*
X159450000Y-155650000D01*
X147300000Y-150150000D02*
X152850000Y-150150000D01*
X147300000Y-153100000D02*
X147300000Y-150150000D01*
X146550000Y-153100000D02*
X147300000Y-153100000D01*
X158400000Y-150150000D02*
X152850000Y-150150000D01*
X158400000Y-153100000D02*
X158400000Y-150150000D01*
X159150000Y-153100000D02*
X158400000Y-153100000D01*
X146550000Y-155350000D02*
X148350000Y-155350000D01*
X146550000Y-154600000D02*
X146550000Y-155350000D01*
X148350000Y-154600000D02*
X146550000Y-154600000D01*
X148350000Y-155350000D02*
X148350000Y-154600000D01*
X157350000Y-155350000D02*
X159150000Y-155350000D01*
X157350000Y-154600000D02*
X157350000Y-155350000D01*
X159150000Y-154600000D02*
X157350000Y-154600000D01*
X159150000Y-155350000D02*
X159150000Y-154600000D01*
X149850000Y-155350000D02*
X155850000Y-155350000D01*
X149850000Y-154600000D02*
X149850000Y-155350000D01*
X155850000Y-154600000D02*
X149850000Y-154600000D01*
X155850000Y-155350000D02*
X155850000Y-154600000D01*
X146540000Y-155360000D02*
X159160000Y-155360000D01*
X146540000Y-149390000D02*
X146540000Y-155360000D01*
X159160000Y-149390000D02*
X146540000Y-149390000D01*
X159160000Y-155360000D02*
X159160000Y-149390000D01*
%TO.C,U1*%
X146210000Y-126770000D02*
X144960000Y-126770000D01*
X144960000Y-126770000D02*
X144960000Y-137050000D01*
X144960000Y-137050000D02*
X149460000Y-137050000D01*
X149460000Y-137050000D02*
X149460000Y-126770000D01*
X149460000Y-126770000D02*
X148210000Y-126770000D01*
X148210000Y-126770000D02*
G75*
G02*
X146210000Y-126770000I-1000000J0D01*
G01*
%TO.C,J1*%
X149770000Y-73330000D02*
X149770000Y-70670000D01*
X149770000Y-73330000D02*
X182850000Y-73330000D01*
X182850000Y-73330000D02*
X182850000Y-70670000D01*
X149770000Y-70670000D02*
X182850000Y-70670000D01*
X147170000Y-70670000D02*
X148500000Y-70670000D01*
X147170000Y-72000000D02*
X147170000Y-70670000D01*
%TO.C,C5*%
X154562712Y-129265000D02*
X155012712Y-129265000D01*
X154787712Y-129040000D02*
X154787712Y-129490000D01*
X159219740Y-131660000D02*
G75*
G02*
X154980259Y-131660000I-2119740J1060000D01*
G01*
X159219740Y-129540000D02*
G75*
G03*
X154980259Y-129540000I-2119740J-1060000D01*
G01*
%TO.C,C3*%
X147670000Y-143300000D02*
G75*
G03*
X147670000Y-143300000I-4120000J0D01*
G01*
X147959698Y-145615000D02*
X147159698Y-145615000D01*
X147559698Y-146015000D02*
X147559698Y-145215000D01*
%TO.C,U2*%
D10*
X148538095Y-76452380D02*
X148538095Y-77261904D01*
X148585714Y-77357142D01*
X148633333Y-77404761D01*
X148728571Y-77452380D01*
X148919047Y-77452380D01*
X149014285Y-77404761D01*
X149061904Y-77357142D01*
X149109523Y-77261904D01*
X149109523Y-76452380D01*
X149538095Y-76547619D02*
X149585714Y-76500000D01*
X149680952Y-76452380D01*
X149919047Y-76452380D01*
X150014285Y-76500000D01*
X150061904Y-76547619D01*
X150109523Y-76642857D01*
X150109523Y-76738095D01*
X150061904Y-76880952D01*
X149490476Y-77452380D01*
X150109523Y-77452380D01*
X158552380Y-117128571D02*
X158885714Y-117128571D01*
X159028571Y-117652380D02*
X158552380Y-117652380D01*
X158552380Y-116652380D01*
X159028571Y-116652380D01*
X159409523Y-117604761D02*
X159552380Y-117652380D01*
X159790476Y-117652380D01*
X159885714Y-117604761D01*
X159933333Y-117557142D01*
X159980952Y-117461904D01*
X159980952Y-117366666D01*
X159933333Y-117271428D01*
X159885714Y-117223809D01*
X159790476Y-117176190D01*
X159600000Y-117128571D01*
X159504761Y-117080952D01*
X159457142Y-117033333D01*
X159409523Y-116938095D01*
X159409523Y-116842857D01*
X159457142Y-116747619D01*
X159504761Y-116700000D01*
X159600000Y-116652380D01*
X159838095Y-116652380D01*
X159980952Y-116700000D01*
X160409523Y-117652380D02*
X160409523Y-116652380D01*
X160790476Y-116652380D01*
X160885714Y-116700000D01*
X160933333Y-116747619D01*
X160980952Y-116842857D01*
X160980952Y-116985714D01*
X160933333Y-117080952D01*
X160885714Y-117128571D01*
X160790476Y-117176190D01*
X160409523Y-117176190D01*
X161409523Y-117271428D02*
X162171428Y-117271428D01*
X162552380Y-116652380D02*
X162790476Y-117652380D01*
X162980952Y-116938095D01*
X163171428Y-117652380D01*
X163409523Y-116652380D01*
X164361904Y-117652380D02*
X164028571Y-117176190D01*
X163790476Y-117652380D02*
X163790476Y-116652380D01*
X164171428Y-116652380D01*
X164266666Y-116700000D01*
X164314285Y-116747619D01*
X164361904Y-116842857D01*
X164361904Y-116985714D01*
X164314285Y-117080952D01*
X164266666Y-117128571D01*
X164171428Y-117176190D01*
X163790476Y-117176190D01*
X164980952Y-116652380D02*
X165171428Y-116652380D01*
X165266666Y-116700000D01*
X165361904Y-116795238D01*
X165409523Y-116985714D01*
X165409523Y-117319047D01*
X165361904Y-117509523D01*
X165266666Y-117604761D01*
X165171428Y-117652380D01*
X164980952Y-117652380D01*
X164885714Y-117604761D01*
X164790476Y-117509523D01*
X164742857Y-117319047D01*
X164742857Y-116985714D01*
X164790476Y-116795238D01*
X164885714Y-116700000D01*
X164980952Y-116652380D01*
X166028571Y-116652380D02*
X166219047Y-116652380D01*
X166314285Y-116700000D01*
X166409523Y-116795238D01*
X166457142Y-116985714D01*
X166457142Y-117319047D01*
X166409523Y-117509523D01*
X166314285Y-117604761D01*
X166219047Y-117652380D01*
X166028571Y-117652380D01*
X165933333Y-117604761D01*
X165838095Y-117509523D01*
X165790476Y-117319047D01*
X165790476Y-116985714D01*
X165838095Y-116795238D01*
X165933333Y-116700000D01*
X166028571Y-116652380D01*
X166885714Y-117652380D02*
X166885714Y-116652380D01*
X167219047Y-117366666D01*
X167552380Y-116652380D01*
X167552380Y-117652380D01*
X168028571Y-117271428D02*
X168790476Y-117271428D01*
X169171428Y-116652380D02*
X169790476Y-116652380D01*
X169457142Y-117033333D01*
X169600000Y-117033333D01*
X169695238Y-117080952D01*
X169742857Y-117128571D01*
X169790476Y-117223809D01*
X169790476Y-117461904D01*
X169742857Y-117557142D01*
X169695238Y-117604761D01*
X169600000Y-117652380D01*
X169314285Y-117652380D01*
X169219047Y-117604761D01*
X169171428Y-117557142D01*
X170171428Y-116747619D02*
X170219047Y-116700000D01*
X170314285Y-116652380D01*
X170552380Y-116652380D01*
X170647619Y-116700000D01*
X170695238Y-116747619D01*
X170742857Y-116842857D01*
X170742857Y-116938095D01*
X170695238Y-117080952D01*
X170123809Y-117652380D01*
X170742857Y-117652380D01*
X171123809Y-117604761D02*
X171266666Y-117652380D01*
X171504761Y-117652380D01*
X171600000Y-117604761D01*
X171647619Y-117557142D01*
X171695238Y-117461904D01*
X171695238Y-117366666D01*
X171647619Y-117271428D01*
X171600000Y-117223809D01*
X171504761Y-117176190D01*
X171314285Y-117128571D01*
X171219047Y-117080952D01*
X171171428Y-117033333D01*
X171123809Y-116938095D01*
X171123809Y-116842857D01*
X171171428Y-116747619D01*
X171219047Y-116700000D01*
X171314285Y-116652380D01*
X171552380Y-116652380D01*
X171695238Y-116700000D01*
X163857142Y-80558666D02*
X164333333Y-80558666D01*
X163761904Y-80844380D02*
X164095238Y-79844380D01*
X164428571Y-80844380D01*
X164761904Y-80844380D02*
X164761904Y-79844380D01*
X165333333Y-80844380D01*
X165333333Y-79844380D01*
X165666666Y-79844380D02*
X166238095Y-79844380D01*
X165952380Y-80844380D02*
X165952380Y-79844380D01*
X163738095Y-119214380D02*
X163738095Y-120023904D01*
X163785714Y-120119142D01*
X163833333Y-120166761D01*
X163928571Y-120214380D01*
X164119047Y-120214380D01*
X164214285Y-120166761D01*
X164261904Y-120119142D01*
X164309523Y-120023904D01*
X164309523Y-119214380D01*
X164738095Y-120166761D02*
X164880952Y-120214380D01*
X165119047Y-120214380D01*
X165214285Y-120166761D01*
X165261904Y-120119142D01*
X165309523Y-120023904D01*
X165309523Y-119928666D01*
X165261904Y-119833428D01*
X165214285Y-119785809D01*
X165119047Y-119738190D01*
X164928571Y-119690571D01*
X164833333Y-119642952D01*
X164785714Y-119595333D01*
X164738095Y-119500095D01*
X164738095Y-119404857D01*
X164785714Y-119309619D01*
X164833333Y-119262000D01*
X164928571Y-119214380D01*
X165166666Y-119214380D01*
X165309523Y-119262000D01*
X166071428Y-119690571D02*
X166214285Y-119738190D01*
X166261904Y-119785809D01*
X166309523Y-119881047D01*
X166309523Y-120023904D01*
X166261904Y-120119142D01*
X166214285Y-120166761D01*
X166119047Y-120214380D01*
X165738095Y-120214380D01*
X165738095Y-119214380D01*
X166071428Y-119214380D01*
X166166666Y-119262000D01*
X166214285Y-119309619D01*
X166261904Y-119404857D01*
X166261904Y-119500095D01*
X166214285Y-119595333D01*
X166166666Y-119642952D01*
X166071428Y-119690571D01*
X165738095Y-119690571D01*
X173183714Y-81352380D02*
X173183714Y-80352380D01*
X173421809Y-80352380D01*
X173564666Y-80400000D01*
X173659904Y-80495238D01*
X173707523Y-80590476D01*
X173755142Y-80780952D01*
X173755142Y-80923809D01*
X173707523Y-81114285D01*
X173659904Y-81209523D01*
X173564666Y-81304761D01*
X173421809Y-81352380D01*
X173183714Y-81352380D01*
X174136095Y-80447619D02*
X174183714Y-80400000D01*
X174278952Y-80352380D01*
X174517047Y-80352380D01*
X174612285Y-80400000D01*
X174659904Y-80447619D01*
X174707523Y-80542857D01*
X174707523Y-80638095D01*
X174659904Y-80780952D01*
X174088476Y-81352380D01*
X174707523Y-81352380D01*
X175040857Y-80352380D02*
X175659904Y-80352380D01*
X175326571Y-80733333D01*
X175469428Y-80733333D01*
X175564666Y-80780952D01*
X175612285Y-80828571D01*
X175659904Y-80923809D01*
X175659904Y-81161904D01*
X175612285Y-81257142D01*
X175564666Y-81304761D01*
X175469428Y-81352380D01*
X175183714Y-81352380D01*
X175088476Y-81304761D01*
X175040857Y-81257142D01*
X173183714Y-83892380D02*
X173183714Y-82892380D01*
X173421809Y-82892380D01*
X173564666Y-82940000D01*
X173659904Y-83035238D01*
X173707523Y-83130476D01*
X173755142Y-83320952D01*
X173755142Y-83463809D01*
X173707523Y-83654285D01*
X173659904Y-83749523D01*
X173564666Y-83844761D01*
X173421809Y-83892380D01*
X173183714Y-83892380D01*
X174136095Y-82987619D02*
X174183714Y-82940000D01*
X174278952Y-82892380D01*
X174517047Y-82892380D01*
X174612285Y-82940000D01*
X174659904Y-82987619D01*
X174707523Y-83082857D01*
X174707523Y-83178095D01*
X174659904Y-83320952D01*
X174088476Y-83892380D01*
X174707523Y-83892380D01*
X175088476Y-82987619D02*
X175136095Y-82940000D01*
X175231333Y-82892380D01*
X175469428Y-82892380D01*
X175564666Y-82940000D01*
X175612285Y-82987619D01*
X175659904Y-83082857D01*
X175659904Y-83178095D01*
X175612285Y-83320952D01*
X175040857Y-83892380D01*
X175659904Y-83892380D01*
X170389904Y-85432380D02*
X170961333Y-85432380D01*
X170675619Y-86432380D02*
X170675619Y-85432380D01*
X171199428Y-85432380D02*
X171866095Y-86432380D01*
X171866095Y-85432380D02*
X171199428Y-86432380D01*
X172437523Y-85432380D02*
X172532761Y-85432380D01*
X172628000Y-85480000D01*
X172675619Y-85527619D01*
X172723238Y-85622857D01*
X172770857Y-85813333D01*
X172770857Y-86051428D01*
X172723238Y-86241904D01*
X172675619Y-86337142D01*
X172628000Y-86384761D01*
X172532761Y-86432380D01*
X172437523Y-86432380D01*
X172342285Y-86384761D01*
X172294666Y-86337142D01*
X172247047Y-86241904D01*
X172199428Y-86051428D01*
X172199428Y-85813333D01*
X172247047Y-85622857D01*
X172294666Y-85527619D01*
X172342285Y-85480000D01*
X172437523Y-85432380D01*
X173913714Y-85384761D02*
X173056571Y-86670476D01*
X174247047Y-86432380D02*
X174247047Y-85432380D01*
X174485142Y-85432380D01*
X174628000Y-85480000D01*
X174723238Y-85575238D01*
X174770857Y-85670476D01*
X174818476Y-85860952D01*
X174818476Y-86003809D01*
X174770857Y-86194285D01*
X174723238Y-86289523D01*
X174628000Y-86384761D01*
X174485142Y-86432380D01*
X174247047Y-86432380D01*
X175770857Y-86432380D02*
X175199428Y-86432380D01*
X175485142Y-86432380D02*
X175485142Y-85432380D01*
X175389904Y-85575238D01*
X175294666Y-85670476D01*
X175199428Y-85718095D01*
X170731142Y-88972380D02*
X170397809Y-88496190D01*
X170159714Y-88972380D02*
X170159714Y-87972380D01*
X170540666Y-87972380D01*
X170635904Y-88020000D01*
X170683523Y-88067619D01*
X170731142Y-88162857D01*
X170731142Y-88305714D01*
X170683523Y-88400952D01*
X170635904Y-88448571D01*
X170540666Y-88496190D01*
X170159714Y-88496190D01*
X171064476Y-87972380D02*
X171731142Y-88972380D01*
X171731142Y-87972380D02*
X171064476Y-88972380D01*
X172302571Y-87972380D02*
X172397809Y-87972380D01*
X172493047Y-88020000D01*
X172540666Y-88067619D01*
X172588285Y-88162857D01*
X172635904Y-88353333D01*
X172635904Y-88591428D01*
X172588285Y-88781904D01*
X172540666Y-88877142D01*
X172493047Y-88924761D01*
X172397809Y-88972380D01*
X172302571Y-88972380D01*
X172207333Y-88924761D01*
X172159714Y-88877142D01*
X172112095Y-88781904D01*
X172064476Y-88591428D01*
X172064476Y-88353333D01*
X172112095Y-88162857D01*
X172159714Y-88067619D01*
X172207333Y-88020000D01*
X172302571Y-87972380D01*
X173778761Y-87924761D02*
X172921619Y-89210476D01*
X174112095Y-88972380D02*
X174112095Y-87972380D01*
X174350190Y-87972380D01*
X174493047Y-88020000D01*
X174588285Y-88115238D01*
X174635904Y-88210476D01*
X174683523Y-88400952D01*
X174683523Y-88543809D01*
X174635904Y-88734285D01*
X174588285Y-88829523D01*
X174493047Y-88924761D01*
X174350190Y-88972380D01*
X174112095Y-88972380D01*
X175016857Y-87972380D02*
X175635904Y-87972380D01*
X175302571Y-88353333D01*
X175445428Y-88353333D01*
X175540666Y-88400952D01*
X175588285Y-88448571D01*
X175635904Y-88543809D01*
X175635904Y-88781904D01*
X175588285Y-88877142D01*
X175540666Y-88924761D01*
X175445428Y-88972380D01*
X175159714Y-88972380D01*
X175064476Y-88924761D01*
X175016857Y-88877142D01*
X173183714Y-91512380D02*
X173183714Y-90512380D01*
X173421809Y-90512380D01*
X173564666Y-90560000D01*
X173659904Y-90655238D01*
X173707523Y-90750476D01*
X173755142Y-90940952D01*
X173755142Y-91083809D01*
X173707523Y-91274285D01*
X173659904Y-91369523D01*
X173564666Y-91464761D01*
X173421809Y-91512380D01*
X173183714Y-91512380D01*
X174136095Y-90607619D02*
X174183714Y-90560000D01*
X174278952Y-90512380D01*
X174517047Y-90512380D01*
X174612285Y-90560000D01*
X174659904Y-90607619D01*
X174707523Y-90702857D01*
X174707523Y-90798095D01*
X174659904Y-90940952D01*
X174088476Y-91512380D01*
X174707523Y-91512380D01*
X175659904Y-91512380D02*
X175088476Y-91512380D01*
X175374190Y-91512380D02*
X175374190Y-90512380D01*
X175278952Y-90655238D01*
X175183714Y-90750476D01*
X175088476Y-90798095D01*
X173183714Y-94052380D02*
X173183714Y-93052380D01*
X173421809Y-93052380D01*
X173564666Y-93100000D01*
X173659904Y-93195238D01*
X173707523Y-93290476D01*
X173755142Y-93480952D01*
X173755142Y-93623809D01*
X173707523Y-93814285D01*
X173659904Y-93909523D01*
X173564666Y-94004761D01*
X173421809Y-94052380D01*
X173183714Y-94052380D01*
X174707523Y-94052380D02*
X174136095Y-94052380D01*
X174421809Y-94052380D02*
X174421809Y-93052380D01*
X174326571Y-93195238D01*
X174231333Y-93290476D01*
X174136095Y-93338095D01*
X175183714Y-94052380D02*
X175374190Y-94052380D01*
X175469428Y-94004761D01*
X175517047Y-93957142D01*
X175612285Y-93814285D01*
X175659904Y-93623809D01*
X175659904Y-93242857D01*
X175612285Y-93147619D01*
X175564666Y-93100000D01*
X175469428Y-93052380D01*
X175278952Y-93052380D01*
X175183714Y-93100000D01*
X175136095Y-93147619D01*
X175088476Y-93242857D01*
X175088476Y-93480952D01*
X175136095Y-93576190D01*
X175183714Y-93623809D01*
X175278952Y-93671428D01*
X175469428Y-93671428D01*
X175564666Y-93623809D01*
X175612285Y-93576190D01*
X175659904Y-93480952D01*
X173183714Y-96592380D02*
X173183714Y-95592380D01*
X173421809Y-95592380D01*
X173564666Y-95640000D01*
X173659904Y-95735238D01*
X173707523Y-95830476D01*
X173755142Y-96020952D01*
X173755142Y-96163809D01*
X173707523Y-96354285D01*
X173659904Y-96449523D01*
X173564666Y-96544761D01*
X173421809Y-96592380D01*
X173183714Y-96592380D01*
X174707523Y-96592380D02*
X174136095Y-96592380D01*
X174421809Y-96592380D02*
X174421809Y-95592380D01*
X174326571Y-95735238D01*
X174231333Y-95830476D01*
X174136095Y-95878095D01*
X175278952Y-96020952D02*
X175183714Y-95973333D01*
X175136095Y-95925714D01*
X175088476Y-95830476D01*
X175088476Y-95782857D01*
X175136095Y-95687619D01*
X175183714Y-95640000D01*
X175278952Y-95592380D01*
X175469428Y-95592380D01*
X175564666Y-95640000D01*
X175612285Y-95687619D01*
X175659904Y-95782857D01*
X175659904Y-95830476D01*
X175612285Y-95925714D01*
X175564666Y-95973333D01*
X175469428Y-96020952D01*
X175278952Y-96020952D01*
X175183714Y-96068571D01*
X175136095Y-96116190D01*
X175088476Y-96211428D01*
X175088476Y-96401904D01*
X175136095Y-96497142D01*
X175183714Y-96544761D01*
X175278952Y-96592380D01*
X175469428Y-96592380D01*
X175564666Y-96544761D01*
X175612285Y-96497142D01*
X175659904Y-96401904D01*
X175659904Y-96211428D01*
X175612285Y-96116190D01*
X175564666Y-96068571D01*
X175469428Y-96020952D01*
X174167904Y-99132380D02*
X174167904Y-98132380D01*
X174406000Y-98132380D01*
X174548857Y-98180000D01*
X174644095Y-98275238D01*
X174691714Y-98370476D01*
X174739333Y-98560952D01*
X174739333Y-98703809D01*
X174691714Y-98894285D01*
X174644095Y-98989523D01*
X174548857Y-99084761D01*
X174406000Y-99132380D01*
X174167904Y-99132380D01*
X175644095Y-98132380D02*
X175167904Y-98132380D01*
X175120285Y-98608571D01*
X175167904Y-98560952D01*
X175263142Y-98513333D01*
X175501238Y-98513333D01*
X175596476Y-98560952D01*
X175644095Y-98608571D01*
X175691714Y-98703809D01*
X175691714Y-98941904D01*
X175644095Y-99037142D01*
X175596476Y-99084761D01*
X175501238Y-99132380D01*
X175263142Y-99132380D01*
X175167904Y-99084761D01*
X175120285Y-99037142D01*
X169405714Y-100672380D02*
X169977142Y-100672380D01*
X169691428Y-101672380D02*
X169691428Y-100672380D01*
X170215238Y-100672380D02*
X170881904Y-101672380D01*
X170881904Y-100672380D02*
X170215238Y-101672380D01*
X171215238Y-100767619D02*
X171262857Y-100720000D01*
X171358095Y-100672380D01*
X171596190Y-100672380D01*
X171691428Y-100720000D01*
X171739047Y-100767619D01*
X171786666Y-100862857D01*
X171786666Y-100958095D01*
X171739047Y-101100952D01*
X171167619Y-101672380D01*
X171786666Y-101672380D01*
X172929523Y-100624761D02*
X172072380Y-101910476D01*
X173262857Y-101672380D02*
X173262857Y-100672380D01*
X173500952Y-100672380D01*
X173643809Y-100720000D01*
X173739047Y-100815238D01*
X173786666Y-100910476D01*
X173834285Y-101100952D01*
X173834285Y-101243809D01*
X173786666Y-101434285D01*
X173739047Y-101529523D01*
X173643809Y-101624761D01*
X173500952Y-101672380D01*
X173262857Y-101672380D01*
X174786666Y-101672380D02*
X174215238Y-101672380D01*
X174500952Y-101672380D02*
X174500952Y-100672380D01*
X174405714Y-100815238D01*
X174310476Y-100910476D01*
X174215238Y-100958095D01*
X175120000Y-100672380D02*
X175786666Y-100672380D01*
X175358095Y-101672380D01*
X170000952Y-104212380D02*
X169667619Y-103736190D01*
X169429523Y-104212380D02*
X169429523Y-103212380D01*
X169810476Y-103212380D01*
X169905714Y-103260000D01*
X169953333Y-103307619D01*
X170000952Y-103402857D01*
X170000952Y-103545714D01*
X169953333Y-103640952D01*
X169905714Y-103688571D01*
X169810476Y-103736190D01*
X169429523Y-103736190D01*
X170334285Y-103212380D02*
X171000952Y-104212380D01*
X171000952Y-103212380D02*
X170334285Y-104212380D01*
X171334285Y-103307619D02*
X171381904Y-103260000D01*
X171477142Y-103212380D01*
X171715238Y-103212380D01*
X171810476Y-103260000D01*
X171858095Y-103307619D01*
X171905714Y-103402857D01*
X171905714Y-103498095D01*
X171858095Y-103640952D01*
X171286666Y-104212380D01*
X171905714Y-104212380D01*
X173048571Y-103164761D02*
X172191428Y-104450476D01*
X173381904Y-104212380D02*
X173381904Y-103212380D01*
X173620000Y-103212380D01*
X173762857Y-103260000D01*
X173858095Y-103355238D01*
X173905714Y-103450476D01*
X173953333Y-103640952D01*
X173953333Y-103783809D01*
X173905714Y-103974285D01*
X173858095Y-104069523D01*
X173762857Y-104164761D01*
X173620000Y-104212380D01*
X173381904Y-104212380D01*
X174905714Y-104212380D02*
X174334285Y-104212380D01*
X174620000Y-104212380D02*
X174620000Y-103212380D01*
X174524761Y-103355238D01*
X174429523Y-103450476D01*
X174334285Y-103498095D01*
X175762857Y-103212380D02*
X175572380Y-103212380D01*
X175477142Y-103260000D01*
X175429523Y-103307619D01*
X175334285Y-103450476D01*
X175286666Y-103640952D01*
X175286666Y-104021904D01*
X175334285Y-104117142D01*
X175381904Y-104164761D01*
X175477142Y-104212380D01*
X175667619Y-104212380D01*
X175762857Y-104164761D01*
X175810476Y-104117142D01*
X175858095Y-104021904D01*
X175858095Y-103783809D01*
X175810476Y-103688571D01*
X175762857Y-103640952D01*
X175667619Y-103593333D01*
X175477142Y-103593333D01*
X175381904Y-103640952D01*
X175334285Y-103688571D01*
X175286666Y-103783809D01*
X174167904Y-106752380D02*
X174167904Y-105752380D01*
X174406000Y-105752380D01*
X174548857Y-105800000D01*
X174644095Y-105895238D01*
X174691714Y-105990476D01*
X174739333Y-106180952D01*
X174739333Y-106323809D01*
X174691714Y-106514285D01*
X174644095Y-106609523D01*
X174548857Y-106704761D01*
X174406000Y-106752380D01*
X174167904Y-106752380D01*
X175596476Y-106085714D02*
X175596476Y-106752380D01*
X175358380Y-105704761D02*
X175120285Y-106419047D01*
X175739333Y-106419047D01*
X174167904Y-109292380D02*
X174167904Y-108292380D01*
X174406000Y-108292380D01*
X174548857Y-108340000D01*
X174644095Y-108435238D01*
X174691714Y-108530476D01*
X174739333Y-108720952D01*
X174739333Y-108863809D01*
X174691714Y-109054285D01*
X174644095Y-109149523D01*
X174548857Y-109244761D01*
X174406000Y-109292380D01*
X174167904Y-109292380D01*
X175120285Y-108387619D02*
X175167904Y-108340000D01*
X175263142Y-108292380D01*
X175501238Y-108292380D01*
X175596476Y-108340000D01*
X175644095Y-108387619D01*
X175691714Y-108482857D01*
X175691714Y-108578095D01*
X175644095Y-108720952D01*
X175072666Y-109292380D01*
X175691714Y-109292380D01*
X173183714Y-111832380D02*
X173183714Y-110832380D01*
X173421809Y-110832380D01*
X173564666Y-110880000D01*
X173659904Y-110975238D01*
X173707523Y-111070476D01*
X173755142Y-111260952D01*
X173755142Y-111403809D01*
X173707523Y-111594285D01*
X173659904Y-111689523D01*
X173564666Y-111784761D01*
X173421809Y-111832380D01*
X173183714Y-111832380D01*
X174707523Y-111832380D02*
X174136095Y-111832380D01*
X174421809Y-111832380D02*
X174421809Y-110832380D01*
X174326571Y-110975238D01*
X174231333Y-111070476D01*
X174136095Y-111118095D01*
X175612285Y-110832380D02*
X175136095Y-110832380D01*
X175088476Y-111308571D01*
X175136095Y-111260952D01*
X175231333Y-111213333D01*
X175469428Y-111213333D01*
X175564666Y-111260952D01*
X175612285Y-111308571D01*
X175659904Y-111403809D01*
X175659904Y-111641904D01*
X175612285Y-111737142D01*
X175564666Y-111784761D01*
X175469428Y-111832380D01*
X175231333Y-111832380D01*
X175136095Y-111784761D01*
X175088476Y-111737142D01*
X173636095Y-113420000D02*
X173540857Y-113372380D01*
X173398000Y-113372380D01*
X173255142Y-113420000D01*
X173159904Y-113515238D01*
X173112285Y-113610476D01*
X173064666Y-113800952D01*
X173064666Y-113943809D01*
X173112285Y-114134285D01*
X173159904Y-114229523D01*
X173255142Y-114324761D01*
X173398000Y-114372380D01*
X173493238Y-114372380D01*
X173636095Y-114324761D01*
X173683714Y-114277142D01*
X173683714Y-113943809D01*
X173493238Y-113943809D01*
X174112285Y-114372380D02*
X174112285Y-113372380D01*
X174683714Y-114372380D01*
X174683714Y-113372380D01*
X175159904Y-114372380D02*
X175159904Y-113372380D01*
X175398000Y-113372380D01*
X175540857Y-113420000D01*
X175636095Y-113515238D01*
X175683714Y-113610476D01*
X175731333Y-113800952D01*
X175731333Y-113943809D01*
X175683714Y-114134285D01*
X175636095Y-114229523D01*
X175540857Y-114324761D01*
X175398000Y-114372380D01*
X175159904Y-114372380D01*
X173205452Y-115912380D02*
X173824500Y-115912380D01*
X173491166Y-116293333D01*
X173634023Y-116293333D01*
X173729261Y-116340952D01*
X173776880Y-116388571D01*
X173824500Y-116483809D01*
X173824500Y-116721904D01*
X173776880Y-116817142D01*
X173729261Y-116864761D01*
X173634023Y-116912380D01*
X173348309Y-116912380D01*
X173253071Y-116864761D01*
X173205452Y-116817142D01*
X174110214Y-115912380D02*
X174443547Y-116912380D01*
X174776880Y-115912380D01*
X175014976Y-115912380D02*
X175634023Y-115912380D01*
X175300690Y-116293333D01*
X175443547Y-116293333D01*
X175538785Y-116340952D01*
X175586404Y-116388571D01*
X175634023Y-116483809D01*
X175634023Y-116721904D01*
X175586404Y-116817142D01*
X175538785Y-116864761D01*
X175443547Y-116912380D01*
X175157833Y-116912380D01*
X175062595Y-116864761D01*
X175014976Y-116817142D01*
X153744761Y-115912380D02*
X154078095Y-116912380D01*
X154411428Y-115912380D01*
X154744761Y-116912380D02*
X154744761Y-115912380D01*
X155220952Y-116912380D02*
X155220952Y-115912380D01*
X155792380Y-116912380D01*
X155792380Y-115912380D01*
X154332095Y-113420000D02*
X154236857Y-113372380D01*
X154094000Y-113372380D01*
X153951142Y-113420000D01*
X153855904Y-113515238D01*
X153808285Y-113610476D01*
X153760666Y-113800952D01*
X153760666Y-113943809D01*
X153808285Y-114134285D01*
X153855904Y-114229523D01*
X153951142Y-114324761D01*
X154094000Y-114372380D01*
X154189238Y-114372380D01*
X154332095Y-114324761D01*
X154379714Y-114277142D01*
X154379714Y-113943809D01*
X154189238Y-113943809D01*
X154808285Y-114372380D02*
X154808285Y-113372380D01*
X155379714Y-114372380D01*
X155379714Y-113372380D01*
X155855904Y-114372380D02*
X155855904Y-113372380D01*
X156094000Y-113372380D01*
X156236857Y-113420000D01*
X156332095Y-113515238D01*
X156379714Y-113610476D01*
X156427333Y-113800952D01*
X156427333Y-113943809D01*
X156379714Y-114134285D01*
X156332095Y-114229523D01*
X156236857Y-114324761D01*
X156094000Y-114372380D01*
X155855904Y-114372380D01*
X153879714Y-111832380D02*
X153879714Y-110832380D01*
X154117809Y-110832380D01*
X154260666Y-110880000D01*
X154355904Y-110975238D01*
X154403523Y-111070476D01*
X154451142Y-111260952D01*
X154451142Y-111403809D01*
X154403523Y-111594285D01*
X154355904Y-111689523D01*
X154260666Y-111784761D01*
X154117809Y-111832380D01*
X153879714Y-111832380D01*
X155403523Y-111832380D02*
X154832095Y-111832380D01*
X155117809Y-111832380D02*
X155117809Y-110832380D01*
X155022571Y-110975238D01*
X154927333Y-111070476D01*
X154832095Y-111118095D01*
X155736857Y-110832380D02*
X156355904Y-110832380D01*
X156022571Y-111213333D01*
X156165428Y-111213333D01*
X156260666Y-111260952D01*
X156308285Y-111308571D01*
X156355904Y-111403809D01*
X156355904Y-111641904D01*
X156308285Y-111737142D01*
X156260666Y-111784761D01*
X156165428Y-111832380D01*
X155879714Y-111832380D01*
X155784476Y-111784761D01*
X155736857Y-111737142D01*
X153879714Y-109292380D02*
X153879714Y-108292380D01*
X154117809Y-108292380D01*
X154260666Y-108340000D01*
X154355904Y-108435238D01*
X154403523Y-108530476D01*
X154451142Y-108720952D01*
X154451142Y-108863809D01*
X154403523Y-109054285D01*
X154355904Y-109149523D01*
X154260666Y-109244761D01*
X154117809Y-109292380D01*
X153879714Y-109292380D01*
X155403523Y-109292380D02*
X154832095Y-109292380D01*
X155117809Y-109292380D02*
X155117809Y-108292380D01*
X155022571Y-108435238D01*
X154927333Y-108530476D01*
X154832095Y-108578095D01*
X155784476Y-108387619D02*
X155832095Y-108340000D01*
X155927333Y-108292380D01*
X156165428Y-108292380D01*
X156260666Y-108340000D01*
X156308285Y-108387619D01*
X156355904Y-108482857D01*
X156355904Y-108578095D01*
X156308285Y-108720952D01*
X155736857Y-109292380D01*
X156355904Y-109292380D01*
X153879714Y-91512380D02*
X153879714Y-90512380D01*
X154117809Y-90512380D01*
X154260666Y-90560000D01*
X154355904Y-90655238D01*
X154403523Y-90750476D01*
X154451142Y-90940952D01*
X154451142Y-91083809D01*
X154403523Y-91274285D01*
X154355904Y-91369523D01*
X154260666Y-91464761D01*
X154117809Y-91512380D01*
X153879714Y-91512380D01*
X154784476Y-90512380D02*
X155403523Y-90512380D01*
X155070190Y-90893333D01*
X155213047Y-90893333D01*
X155308285Y-90940952D01*
X155355904Y-90988571D01*
X155403523Y-91083809D01*
X155403523Y-91321904D01*
X155355904Y-91417142D01*
X155308285Y-91464761D01*
X155213047Y-91512380D01*
X154927333Y-91512380D01*
X154832095Y-91464761D01*
X154784476Y-91417142D01*
X156308285Y-90512380D02*
X155832095Y-90512380D01*
X155784476Y-90988571D01*
X155832095Y-90940952D01*
X155927333Y-90893333D01*
X156165428Y-90893333D01*
X156260666Y-90940952D01*
X156308285Y-90988571D01*
X156355904Y-91083809D01*
X156355904Y-91321904D01*
X156308285Y-91417142D01*
X156260666Y-91464761D01*
X156165428Y-91512380D01*
X155927333Y-91512380D01*
X155832095Y-91464761D01*
X155784476Y-91417142D01*
X153847904Y-80828571D02*
X154181238Y-80828571D01*
X154324095Y-81352380D02*
X153847904Y-81352380D01*
X153847904Y-80352380D01*
X154324095Y-80352380D01*
X154752666Y-81352380D02*
X154752666Y-80352380D01*
X155324095Y-81352380D01*
X155324095Y-80352380D01*
%TO.C,BT1*%
X191714285Y-142928571D02*
X191857142Y-142976190D01*
X191904761Y-143023809D01*
X191952380Y-143119047D01*
X191952380Y-143261904D01*
X191904761Y-143357142D01*
X191857142Y-143404761D01*
X191761904Y-143452380D01*
X191380952Y-143452380D01*
X191380952Y-142452380D01*
X191714285Y-142452380D01*
X191809523Y-142500000D01*
X191857142Y-142547619D01*
X191904761Y-142642857D01*
X191904761Y-142738095D01*
X191857142Y-142833333D01*
X191809523Y-142880952D01*
X191714285Y-142928571D01*
X191380952Y-142928571D01*
X192238095Y-142452380D02*
X192809523Y-142452380D01*
X192523809Y-143452380D02*
X192523809Y-142452380D01*
X193666666Y-143452380D02*
X193095238Y-143452380D01*
X193380952Y-143452380D02*
X193380952Y-142452380D01*
X193285714Y-142595238D01*
X193190476Y-142690476D01*
X193095238Y-142738095D01*
X189178571Y-138807142D02*
X190321428Y-138807142D01*
X189750000Y-139378571D02*
X189750000Y-138235714D01*
%TO.C,C2*%
X143333333Y-123157142D02*
X143285714Y-123204761D01*
X143142857Y-123252380D01*
X143047619Y-123252380D01*
X142904761Y-123204761D01*
X142809523Y-123109523D01*
X142761904Y-123014285D01*
X142714285Y-122823809D01*
X142714285Y-122680952D01*
X142761904Y-122490476D01*
X142809523Y-122395238D01*
X142904761Y-122300000D01*
X143047619Y-122252380D01*
X143142857Y-122252380D01*
X143285714Y-122300000D01*
X143333333Y-122347619D01*
X143714285Y-122347619D02*
X143761904Y-122300000D01*
X143857142Y-122252380D01*
X144095238Y-122252380D01*
X144190476Y-122300000D01*
X144238095Y-122347619D01*
X144285714Y-122442857D01*
X144285714Y-122538095D01*
X144238095Y-122680952D01*
X143666666Y-123252380D01*
X144285714Y-123252380D01*
%TO.C,C6*%
X153933333Y-134557142D02*
X153885714Y-134604761D01*
X153742857Y-134652380D01*
X153647619Y-134652380D01*
X153504761Y-134604761D01*
X153409523Y-134509523D01*
X153361904Y-134414285D01*
X153314285Y-134223809D01*
X153314285Y-134080952D01*
X153361904Y-133890476D01*
X153409523Y-133795238D01*
X153504761Y-133700000D01*
X153647619Y-133652380D01*
X153742857Y-133652380D01*
X153885714Y-133700000D01*
X153933333Y-133747619D01*
X154790476Y-133652380D02*
X154600000Y-133652380D01*
X154504761Y-133700000D01*
X154457142Y-133747619D01*
X154361904Y-133890476D01*
X154314285Y-134080952D01*
X154314285Y-134461904D01*
X154361904Y-134557142D01*
X154409523Y-134604761D01*
X154504761Y-134652380D01*
X154695238Y-134652380D01*
X154790476Y-134604761D01*
X154838095Y-134557142D01*
X154885714Y-134461904D01*
X154885714Y-134223809D01*
X154838095Y-134128571D01*
X154790476Y-134080952D01*
X154695238Y-134033333D01*
X154504761Y-134033333D01*
X154409523Y-134080952D01*
X154361904Y-134128571D01*
X154314285Y-134223809D01*
%TO.C,C1*%
X144333333Y-117157142D02*
X144285714Y-117204761D01*
X144142857Y-117252380D01*
X144047619Y-117252380D01*
X143904761Y-117204761D01*
X143809523Y-117109523D01*
X143761904Y-117014285D01*
X143714285Y-116823809D01*
X143714285Y-116680952D01*
X143761904Y-116490476D01*
X143809523Y-116395238D01*
X143904761Y-116300000D01*
X144047619Y-116252380D01*
X144142857Y-116252380D01*
X144285714Y-116300000D01*
X144333333Y-116347619D01*
X145285714Y-117252380D02*
X144714285Y-117252380D01*
X145000000Y-117252380D02*
X145000000Y-116252380D01*
X144904761Y-116395238D01*
X144809523Y-116490476D01*
X144714285Y-116538095D01*
%TO.C,R11*%
X185957142Y-122852380D02*
X185623809Y-122376190D01*
X185385714Y-122852380D02*
X185385714Y-121852380D01*
X185766666Y-121852380D01*
X185861904Y-121900000D01*
X185909523Y-121947619D01*
X185957142Y-122042857D01*
X185957142Y-122185714D01*
X185909523Y-122280952D01*
X185861904Y-122328571D01*
X185766666Y-122376190D01*
X185385714Y-122376190D01*
X186909523Y-122852380D02*
X186338095Y-122852380D01*
X186623809Y-122852380D02*
X186623809Y-121852380D01*
X186528571Y-121995238D01*
X186433333Y-122090476D01*
X186338095Y-122138095D01*
X187861904Y-122852380D02*
X187290476Y-122852380D01*
X187576190Y-122852380D02*
X187576190Y-121852380D01*
X187480952Y-121995238D01*
X187385714Y-122090476D01*
X187290476Y-122138095D01*
%TO.C,R10*%
X143957142Y-112902380D02*
X143623809Y-112426190D01*
X143385714Y-112902380D02*
X143385714Y-111902380D01*
X143766666Y-111902380D01*
X143861904Y-111950000D01*
X143909523Y-111997619D01*
X143957142Y-112092857D01*
X143957142Y-112235714D01*
X143909523Y-112330952D01*
X143861904Y-112378571D01*
X143766666Y-112426190D01*
X143385714Y-112426190D01*
X144909523Y-112902380D02*
X144338095Y-112902380D01*
X144623809Y-112902380D02*
X144623809Y-111902380D01*
X144528571Y-112045238D01*
X144433333Y-112140476D01*
X144338095Y-112188095D01*
X145528571Y-111902380D02*
X145623809Y-111902380D01*
X145719047Y-111950000D01*
X145766666Y-111997619D01*
X145814285Y-112092857D01*
X145861904Y-112283333D01*
X145861904Y-112521428D01*
X145814285Y-112711904D01*
X145766666Y-112807142D01*
X145719047Y-112854761D01*
X145623809Y-112902380D01*
X145528571Y-112902380D01*
X145433333Y-112854761D01*
X145385714Y-112807142D01*
X145338095Y-112711904D01*
X145290476Y-112521428D01*
X145290476Y-112283333D01*
X145338095Y-112092857D01*
X145385714Y-111997619D01*
X145433333Y-111950000D01*
X145528571Y-111902380D01*
%TO.C,R9*%
X146533333Y-105552380D02*
X146200000Y-105076190D01*
X145961904Y-105552380D02*
X145961904Y-104552380D01*
X146342857Y-104552380D01*
X146438095Y-104600000D01*
X146485714Y-104647619D01*
X146533333Y-104742857D01*
X146533333Y-104885714D01*
X146485714Y-104980952D01*
X146438095Y-105028571D01*
X146342857Y-105076190D01*
X145961904Y-105076190D01*
X147009523Y-105552380D02*
X147200000Y-105552380D01*
X147295238Y-105504761D01*
X147342857Y-105457142D01*
X147438095Y-105314285D01*
X147485714Y-105123809D01*
X147485714Y-104742857D01*
X147438095Y-104647619D01*
X147390476Y-104600000D01*
X147295238Y-104552380D01*
X147104761Y-104552380D01*
X147009523Y-104600000D01*
X146961904Y-104647619D01*
X146914285Y-104742857D01*
X146914285Y-104980952D01*
X146961904Y-105076190D01*
X147009523Y-105123809D01*
X147104761Y-105171428D01*
X147295238Y-105171428D01*
X147390476Y-105123809D01*
X147438095Y-105076190D01*
X147485714Y-104980952D01*
%TO.C,R8*%
X146433333Y-100802380D02*
X146100000Y-100326190D01*
X145861904Y-100802380D02*
X145861904Y-99802380D01*
X146242857Y-99802380D01*
X146338095Y-99850000D01*
X146385714Y-99897619D01*
X146433333Y-99992857D01*
X146433333Y-100135714D01*
X146385714Y-100230952D01*
X146338095Y-100278571D01*
X146242857Y-100326190D01*
X145861904Y-100326190D01*
X147004761Y-100230952D02*
X146909523Y-100183333D01*
X146861904Y-100135714D01*
X146814285Y-100040476D01*
X146814285Y-99992857D01*
X146861904Y-99897619D01*
X146909523Y-99850000D01*
X147004761Y-99802380D01*
X147195238Y-99802380D01*
X147290476Y-99850000D01*
X147338095Y-99897619D01*
X147385714Y-99992857D01*
X147385714Y-100040476D01*
X147338095Y-100135714D01*
X147290476Y-100183333D01*
X147195238Y-100230952D01*
X147004761Y-100230952D01*
X146909523Y-100278571D01*
X146861904Y-100326190D01*
X146814285Y-100421428D01*
X146814285Y-100611904D01*
X146861904Y-100707142D01*
X146909523Y-100754761D01*
X147004761Y-100802380D01*
X147195238Y-100802380D01*
X147290476Y-100754761D01*
X147338095Y-100707142D01*
X147385714Y-100611904D01*
X147385714Y-100421428D01*
X147338095Y-100326190D01*
X147290476Y-100278571D01*
X147195238Y-100230952D01*
%TO.C,R7*%
X163833333Y-88952380D02*
X163500000Y-88476190D01*
X163261904Y-88952380D02*
X163261904Y-87952380D01*
X163642857Y-87952380D01*
X163738095Y-88000000D01*
X163785714Y-88047619D01*
X163833333Y-88142857D01*
X163833333Y-88285714D01*
X163785714Y-88380952D01*
X163738095Y-88428571D01*
X163642857Y-88476190D01*
X163261904Y-88476190D01*
X164166666Y-87952380D02*
X164833333Y-87952380D01*
X164404761Y-88952380D01*
%TO.C,R6*%
X182033333Y-122852380D02*
X181700000Y-122376190D01*
X181461904Y-122852380D02*
X181461904Y-121852380D01*
X181842857Y-121852380D01*
X181938095Y-121900000D01*
X181985714Y-121947619D01*
X182033333Y-122042857D01*
X182033333Y-122185714D01*
X181985714Y-122280952D01*
X181938095Y-122328571D01*
X181842857Y-122376190D01*
X181461904Y-122376190D01*
X182890476Y-121852380D02*
X182700000Y-121852380D01*
X182604761Y-121900000D01*
X182557142Y-121947619D01*
X182461904Y-122090476D01*
X182414285Y-122280952D01*
X182414285Y-122661904D01*
X182461904Y-122757142D01*
X182509523Y-122804761D01*
X182604761Y-122852380D01*
X182795238Y-122852380D01*
X182890476Y-122804761D01*
X182938095Y-122757142D01*
X182985714Y-122661904D01*
X182985714Y-122423809D01*
X182938095Y-122328571D01*
X182890476Y-122280952D01*
X182795238Y-122233333D01*
X182604761Y-122233333D01*
X182509523Y-122280952D01*
X182461904Y-122328571D01*
X182414285Y-122423809D01*
%TO.C,R5*%
X158333333Y-137952380D02*
X158000000Y-137476190D01*
X157761904Y-137952380D02*
X157761904Y-136952380D01*
X158142857Y-136952380D01*
X158238095Y-137000000D01*
X158285714Y-137047619D01*
X158333333Y-137142857D01*
X158333333Y-137285714D01*
X158285714Y-137380952D01*
X158238095Y-137428571D01*
X158142857Y-137476190D01*
X157761904Y-137476190D01*
X159238095Y-136952380D02*
X158761904Y-136952380D01*
X158714285Y-137428571D01*
X158761904Y-137380952D01*
X158857142Y-137333333D01*
X159095238Y-137333333D01*
X159190476Y-137380952D01*
X159238095Y-137428571D01*
X159285714Y-137523809D01*
X159285714Y-137761904D01*
X159238095Y-137857142D01*
X159190476Y-137904761D01*
X159095238Y-137952380D01*
X158857142Y-137952380D01*
X158761904Y-137904761D01*
X158714285Y-137857142D01*
%TO.C,R4*%
X138933333Y-101502380D02*
X138600000Y-101026190D01*
X138361904Y-101502380D02*
X138361904Y-100502380D01*
X138742857Y-100502380D01*
X138838095Y-100550000D01*
X138885714Y-100597619D01*
X138933333Y-100692857D01*
X138933333Y-100835714D01*
X138885714Y-100930952D01*
X138838095Y-100978571D01*
X138742857Y-101026190D01*
X138361904Y-101026190D01*
X139790476Y-100835714D02*
X139790476Y-101502380D01*
X139552380Y-100454761D02*
X139314285Y-101169047D01*
X139933333Y-101169047D01*
%TO.C,R3*%
X146333333Y-96052380D02*
X146000000Y-95576190D01*
X145761904Y-96052380D02*
X145761904Y-95052380D01*
X146142857Y-95052380D01*
X146238095Y-95100000D01*
X146285714Y-95147619D01*
X146333333Y-95242857D01*
X146333333Y-95385714D01*
X146285714Y-95480952D01*
X146238095Y-95528571D01*
X146142857Y-95576190D01*
X145761904Y-95576190D01*
X146666666Y-95052380D02*
X147285714Y-95052380D01*
X146952380Y-95433333D01*
X147095238Y-95433333D01*
X147190476Y-95480952D01*
X147238095Y-95528571D01*
X147285714Y-95623809D01*
X147285714Y-95861904D01*
X147238095Y-95957142D01*
X147190476Y-96004761D01*
X147095238Y-96052380D01*
X146809523Y-96052380D01*
X146714285Y-96004761D01*
X146666666Y-95957142D01*
%TO.C,R2*%
X156133333Y-61552380D02*
X155800000Y-61076190D01*
X155561904Y-61552380D02*
X155561904Y-60552380D01*
X155942857Y-60552380D01*
X156038095Y-60600000D01*
X156085714Y-60647619D01*
X156133333Y-60742857D01*
X156133333Y-60885714D01*
X156085714Y-60980952D01*
X156038095Y-61028571D01*
X155942857Y-61076190D01*
X155561904Y-61076190D01*
X156514285Y-60647619D02*
X156561904Y-60600000D01*
X156657142Y-60552380D01*
X156895238Y-60552380D01*
X156990476Y-60600000D01*
X157038095Y-60647619D01*
X157085714Y-60742857D01*
X157085714Y-60838095D01*
X157038095Y-60980952D01*
X156466666Y-61552380D01*
X157085714Y-61552380D01*
%TO.C,R1*%
X163633333Y-86552380D02*
X163300000Y-86076190D01*
X163061904Y-86552380D02*
X163061904Y-85552380D01*
X163442857Y-85552380D01*
X163538095Y-85600000D01*
X163585714Y-85647619D01*
X163633333Y-85742857D01*
X163633333Y-85885714D01*
X163585714Y-85980952D01*
X163538095Y-86028571D01*
X163442857Y-86076190D01*
X163061904Y-86076190D01*
X164585714Y-86552380D02*
X164014285Y-86552380D01*
X164300000Y-86552380D02*
X164300000Y-85552380D01*
X164204761Y-85695238D01*
X164109523Y-85790476D01*
X164014285Y-85838095D01*
%TO.C,Q1*%
X139874761Y-109447619D02*
X139779523Y-109400000D01*
X139684285Y-109304761D01*
X139541428Y-109161904D01*
X139446190Y-109114285D01*
X139350952Y-109114285D01*
X139398571Y-109352380D02*
X139303333Y-109304761D01*
X139208095Y-109209523D01*
X139160476Y-109019047D01*
X139160476Y-108685714D01*
X139208095Y-108495238D01*
X139303333Y-108400000D01*
X139398571Y-108352380D01*
X139589047Y-108352380D01*
X139684285Y-108400000D01*
X139779523Y-108495238D01*
X139827142Y-108685714D01*
X139827142Y-109019047D01*
X139779523Y-109209523D01*
X139684285Y-109304761D01*
X139589047Y-109352380D01*
X139398571Y-109352380D01*
X140779523Y-109352380D02*
X140208095Y-109352380D01*
X140493809Y-109352380D02*
X140493809Y-108352380D01*
X140398571Y-108495238D01*
X140303333Y-108590476D01*
X140208095Y-108638095D01*
%TO.C,SW1*%
X142966666Y-87506661D02*
X143109523Y-87554280D01*
X143347619Y-87554280D01*
X143442857Y-87506661D01*
X143490476Y-87459042D01*
X143538095Y-87363804D01*
X143538095Y-87268566D01*
X143490476Y-87173328D01*
X143442857Y-87125709D01*
X143347619Y-87078090D01*
X143157142Y-87030471D01*
X143061904Y-86982852D01*
X143014285Y-86935233D01*
X142966666Y-86839995D01*
X142966666Y-86744757D01*
X143014285Y-86649519D01*
X143061904Y-86601900D01*
X143157142Y-86554280D01*
X143395238Y-86554280D01*
X143538095Y-86601900D01*
X143871428Y-86554280D02*
X144109523Y-87554280D01*
X144300000Y-86839995D01*
X144490476Y-87554280D01*
X144728571Y-86554280D01*
X145633333Y-87554280D02*
X145061904Y-87554280D01*
X145347619Y-87554280D02*
X145347619Y-86554280D01*
X145252380Y-86697138D01*
X145157142Y-86792376D01*
X145061904Y-86839995D01*
X139290476Y-82852380D02*
X138957142Y-82376190D01*
X138719047Y-82852380D02*
X138719047Y-81852380D01*
X139100000Y-81852380D01*
X139195238Y-81900000D01*
X139242857Y-81947619D01*
X139290476Y-82042857D01*
X139290476Y-82185714D01*
X139242857Y-82280952D01*
X139195238Y-82328571D01*
X139100000Y-82376190D01*
X138719047Y-82376190D01*
X140100000Y-82804761D02*
X140004761Y-82852380D01*
X139814285Y-82852380D01*
X139719047Y-82804761D01*
X139671428Y-82709523D01*
X139671428Y-82328571D01*
X139719047Y-82233333D01*
X139814285Y-82185714D01*
X140004761Y-82185714D01*
X140100000Y-82233333D01*
X140147619Y-82328571D01*
X140147619Y-82423809D01*
X139671428Y-82519047D01*
X141004761Y-82804761D02*
X140909523Y-82852380D01*
X140719047Y-82852380D01*
X140623809Y-82804761D01*
X140576190Y-82757142D01*
X140528571Y-82661904D01*
X140528571Y-82376190D01*
X140576190Y-82280952D01*
X140623809Y-82233333D01*
X140719047Y-82185714D01*
X140909523Y-82185714D01*
X141004761Y-82233333D01*
X141861904Y-82852380D02*
X141861904Y-82328571D01*
X141814285Y-82233333D01*
X141719047Y-82185714D01*
X141528571Y-82185714D01*
X141433333Y-82233333D01*
X141861904Y-82804761D02*
X141766666Y-82852380D01*
X141528571Y-82852380D01*
X141433333Y-82804761D01*
X141385714Y-82709523D01*
X141385714Y-82614285D01*
X141433333Y-82519047D01*
X141528571Y-82471428D01*
X141766666Y-82471428D01*
X141861904Y-82423809D01*
X142480952Y-82852380D02*
X142385714Y-82804761D01*
X142338095Y-82709523D01*
X142338095Y-81852380D01*
X143480952Y-81852380D02*
X144052380Y-81852380D01*
X143766666Y-82852380D02*
X143766666Y-81852380D01*
X144528571Y-82852380D02*
X144433333Y-82804761D01*
X144385714Y-82757142D01*
X144338095Y-82661904D01*
X144338095Y-82376190D01*
X144385714Y-82280952D01*
X144433333Y-82233333D01*
X144528571Y-82185714D01*
X144671428Y-82185714D01*
X144766666Y-82233333D01*
X144814285Y-82280952D01*
X144861904Y-82376190D01*
X144861904Y-82661904D01*
X144814285Y-82757142D01*
X144766666Y-82804761D01*
X144671428Y-82852380D01*
X144528571Y-82852380D01*
X145719047Y-82185714D02*
X145719047Y-82852380D01*
X145290476Y-82185714D02*
X145290476Y-82709523D01*
X145338095Y-82804761D01*
X145433333Y-82852380D01*
X145576190Y-82852380D01*
X145671428Y-82804761D01*
X145719047Y-82757142D01*
X146623809Y-82804761D02*
X146528571Y-82852380D01*
X146338095Y-82852380D01*
X146242857Y-82804761D01*
X146195238Y-82757142D01*
X146147619Y-82661904D01*
X146147619Y-82376190D01*
X146195238Y-82280952D01*
X146242857Y-82233333D01*
X146338095Y-82185714D01*
X146528571Y-82185714D01*
X146623809Y-82233333D01*
X147052380Y-82852380D02*
X147052380Y-81852380D01*
X147480952Y-82852380D02*
X147480952Y-82328571D01*
X147433333Y-82233333D01*
X147338095Y-82185714D01*
X147195238Y-82185714D01*
X147100000Y-82233333D01*
X147052380Y-82280952D01*
%TO.C,C7*%
X157133333Y-147657142D02*
X157085714Y-147704761D01*
X156942857Y-147752380D01*
X156847619Y-147752380D01*
X156704761Y-147704761D01*
X156609523Y-147609523D01*
X156561904Y-147514285D01*
X156514285Y-147323809D01*
X156514285Y-147180952D01*
X156561904Y-146990476D01*
X156609523Y-146895238D01*
X156704761Y-146800000D01*
X156847619Y-146752380D01*
X156942857Y-146752380D01*
X157085714Y-146800000D01*
X157133333Y-146847619D01*
X157466666Y-146752380D02*
X158133333Y-146752380D01*
X157704761Y-147752380D01*
X157695238Y-145185714D02*
X157695238Y-145852380D01*
X157457142Y-144804761D02*
X157219047Y-145519047D01*
X157838095Y-145519047D01*
X158123809Y-144852380D02*
X158790476Y-144852380D01*
X158361904Y-145852380D01*
X159361904Y-144852380D02*
X159457142Y-144852380D01*
X159552380Y-144900000D01*
X159600000Y-144947619D01*
X159647619Y-145042857D01*
X159695238Y-145233333D01*
X159695238Y-145471428D01*
X159647619Y-145661904D01*
X159600000Y-145757142D01*
X159552380Y-145804761D01*
X159457142Y-145852380D01*
X159361904Y-145852380D01*
X159266666Y-145804761D01*
X159219047Y-145757142D01*
X159171428Y-145661904D01*
X159123809Y-145471428D01*
X159123809Y-145233333D01*
X159171428Y-145042857D01*
X159219047Y-144947619D01*
X159266666Y-144900000D01*
X159361904Y-144852380D01*
X160552380Y-145185714D02*
X160552380Y-145852380D01*
X160123809Y-145185714D02*
X160123809Y-145709523D01*
X160171428Y-145804761D01*
X160266666Y-145852380D01*
X160409523Y-145852380D01*
X160504761Y-145804761D01*
X160552380Y-145757142D01*
X161361904Y-145328571D02*
X161028571Y-145328571D01*
X161028571Y-145852380D02*
X161028571Y-144852380D01*
X161504761Y-144852380D01*
X163171428Y-145852380D02*
X162600000Y-145852380D01*
X162885714Y-145852380D02*
X162885714Y-144852380D01*
X162790476Y-144995238D01*
X162695238Y-145090476D01*
X162600000Y-145138095D01*
X164028571Y-144852380D02*
X163838095Y-144852380D01*
X163742857Y-144900000D01*
X163695238Y-144947619D01*
X163600000Y-145090476D01*
X163552380Y-145280952D01*
X163552380Y-145661904D01*
X163600000Y-145757142D01*
X163647619Y-145804761D01*
X163742857Y-145852380D01*
X163933333Y-145852380D01*
X164028571Y-145804761D01*
X164076190Y-145757142D01*
X164123809Y-145661904D01*
X164123809Y-145423809D01*
X164076190Y-145328571D01*
X164028571Y-145280952D01*
X163933333Y-145233333D01*
X163742857Y-145233333D01*
X163647619Y-145280952D01*
X163600000Y-145328571D01*
X163552380Y-145423809D01*
X164409523Y-144852380D02*
X164742857Y-145852380D01*
X165076190Y-144852380D01*
%TO.C,J4*%
X144016666Y-59652380D02*
X144016666Y-60366666D01*
X143969047Y-60509523D01*
X143873809Y-60604761D01*
X143730952Y-60652380D01*
X143635714Y-60652380D01*
X144921428Y-59985714D02*
X144921428Y-60652380D01*
X144683333Y-59604761D02*
X144445238Y-60319047D01*
X145064285Y-60319047D01*
X148009523Y-58952380D02*
X147533333Y-58952380D01*
X147533333Y-57952380D01*
X148342857Y-58952380D02*
X148342857Y-57952380D01*
X148580952Y-57952380D01*
X148723809Y-58000000D01*
X148819047Y-58095238D01*
X148866666Y-58190476D01*
X148914285Y-58380952D01*
X148914285Y-58523809D01*
X148866666Y-58714285D01*
X148819047Y-58809523D01*
X148723809Y-58904761D01*
X148580952Y-58952380D01*
X148342857Y-58952380D01*
X149914285Y-58952380D02*
X149580952Y-58476190D01*
X149342857Y-58952380D02*
X149342857Y-57952380D01*
X149723809Y-57952380D01*
X149819047Y-58000000D01*
X149866666Y-58047619D01*
X149914285Y-58142857D01*
X149914285Y-58285714D01*
X149866666Y-58380952D01*
X149819047Y-58428571D01*
X149723809Y-58476190D01*
X149342857Y-58476190D01*
%TO.C,J3*%
X169066666Y-149952380D02*
X169066666Y-150666666D01*
X169019047Y-150809523D01*
X168923809Y-150904761D01*
X168780952Y-150952380D01*
X168685714Y-150952380D01*
X169447619Y-149952380D02*
X170066666Y-149952380D01*
X169733333Y-150333333D01*
X169876190Y-150333333D01*
X169971428Y-150380952D01*
X170019047Y-150428571D01*
X170066666Y-150523809D01*
X170066666Y-150761904D01*
X170019047Y-150857142D01*
X169971428Y-150904761D01*
X169876190Y-150952380D01*
X169590476Y-150952380D01*
X169495238Y-150904761D01*
X169447619Y-150857142D01*
X161238095Y-148404761D02*
X161380952Y-148452380D01*
X161619047Y-148452380D01*
X161714285Y-148404761D01*
X161761904Y-148357142D01*
X161809523Y-148261904D01*
X161809523Y-148166666D01*
X161761904Y-148071428D01*
X161714285Y-148023809D01*
X161619047Y-147976190D01*
X161428571Y-147928571D01*
X161333333Y-147880952D01*
X161285714Y-147833333D01*
X161238095Y-147738095D01*
X161238095Y-147642857D01*
X161285714Y-147547619D01*
X161333333Y-147500000D01*
X161428571Y-147452380D01*
X161666666Y-147452380D01*
X161809523Y-147500000D01*
X162238095Y-147785714D02*
X162238095Y-148785714D01*
X162238095Y-147833333D02*
X162333333Y-147785714D01*
X162523809Y-147785714D01*
X162619047Y-147833333D01*
X162666666Y-147880952D01*
X162714285Y-147976190D01*
X162714285Y-148261904D01*
X162666666Y-148357142D01*
X162619047Y-148404761D01*
X162523809Y-148452380D01*
X162333333Y-148452380D01*
X162238095Y-148404761D01*
X163523809Y-148404761D02*
X163428571Y-148452380D01*
X163238095Y-148452380D01*
X163142857Y-148404761D01*
X163095238Y-148309523D01*
X163095238Y-147928571D01*
X163142857Y-147833333D01*
X163238095Y-147785714D01*
X163428571Y-147785714D01*
X163523809Y-147833333D01*
X163571428Y-147928571D01*
X163571428Y-148023809D01*
X163095238Y-148119047D01*
X164428571Y-148452380D02*
X164428571Y-147928571D01*
X164380952Y-147833333D01*
X164285714Y-147785714D01*
X164095238Y-147785714D01*
X164000000Y-147833333D01*
X164428571Y-148404761D02*
X164333333Y-148452380D01*
X164095238Y-148452380D01*
X164000000Y-148404761D01*
X163952380Y-148309523D01*
X163952380Y-148214285D01*
X164000000Y-148119047D01*
X164095238Y-148071428D01*
X164333333Y-148071428D01*
X164428571Y-148023809D01*
X164904761Y-148452380D02*
X164904761Y-147452380D01*
X165000000Y-148071428D02*
X165285714Y-148452380D01*
X165285714Y-147785714D02*
X164904761Y-148166666D01*
X166095238Y-148404761D02*
X166000000Y-148452380D01*
X165809523Y-148452380D01*
X165714285Y-148404761D01*
X165666666Y-148309523D01*
X165666666Y-147928571D01*
X165714285Y-147833333D01*
X165809523Y-147785714D01*
X166000000Y-147785714D01*
X166095238Y-147833333D01*
X166142857Y-147928571D01*
X166142857Y-148023809D01*
X165666666Y-148119047D01*
X166571428Y-148452380D02*
X166571428Y-147785714D01*
X166571428Y-147976190D02*
X166619047Y-147880952D01*
X166666666Y-147833333D01*
X166761904Y-147785714D01*
X166857142Y-147785714D01*
%TO.C,J2*%
X144466666Y-148352380D02*
X144466666Y-149066666D01*
X144419047Y-149209523D01*
X144323809Y-149304761D01*
X144180952Y-149352380D01*
X144085714Y-149352380D01*
X144895238Y-148447619D02*
X144942857Y-148400000D01*
X145038095Y-148352380D01*
X145276190Y-148352380D01*
X145371428Y-148400000D01*
X145419047Y-148447619D01*
X145466666Y-148542857D01*
X145466666Y-148638095D01*
X145419047Y-148780952D01*
X144847619Y-149352380D01*
X145466666Y-149352380D01*
X146323809Y-148752380D02*
X146323809Y-147752380D01*
X146704761Y-147752380D01*
X146800000Y-147800000D01*
X146847619Y-147847619D01*
X146895238Y-147942857D01*
X146895238Y-148085714D01*
X146847619Y-148180952D01*
X146800000Y-148228571D01*
X146704761Y-148276190D01*
X146323809Y-148276190D01*
X147466666Y-148752380D02*
X147371428Y-148704761D01*
X147323809Y-148657142D01*
X147276190Y-148561904D01*
X147276190Y-148276190D01*
X147323809Y-148180952D01*
X147371428Y-148133333D01*
X147466666Y-148085714D01*
X147609523Y-148085714D01*
X147704761Y-148133333D01*
X147752380Y-148180952D01*
X147800000Y-148276190D01*
X147800000Y-148561904D01*
X147752380Y-148657142D01*
X147704761Y-148704761D01*
X147609523Y-148752380D01*
X147466666Y-148752380D01*
X148133333Y-148085714D02*
X148323809Y-148752380D01*
X148514285Y-148276190D01*
X148704761Y-148752380D01*
X148895238Y-148085714D01*
X149657142Y-148704761D02*
X149561904Y-148752380D01*
X149371428Y-148752380D01*
X149276190Y-148704761D01*
X149228571Y-148609523D01*
X149228571Y-148228571D01*
X149276190Y-148133333D01*
X149371428Y-148085714D01*
X149561904Y-148085714D01*
X149657142Y-148133333D01*
X149704761Y-148228571D01*
X149704761Y-148323809D01*
X149228571Y-148419047D01*
X150133333Y-148752380D02*
X150133333Y-148085714D01*
X150133333Y-148276190D02*
X150180952Y-148180952D01*
X150228571Y-148133333D01*
X150323809Y-148085714D01*
X150419047Y-148085714D01*
%TO.C,H8*%
X192238095Y-129102380D02*
X192238095Y-128102380D01*
X192238095Y-128578571D02*
X192809523Y-128578571D01*
X192809523Y-129102380D02*
X192809523Y-128102380D01*
X193428571Y-128530952D02*
X193333333Y-128483333D01*
X193285714Y-128435714D01*
X193238095Y-128340476D01*
X193238095Y-128292857D01*
X193285714Y-128197619D01*
X193333333Y-128150000D01*
X193428571Y-128102380D01*
X193619047Y-128102380D01*
X193714285Y-128150000D01*
X193761904Y-128197619D01*
X193809523Y-128292857D01*
X193809523Y-128340476D01*
X193761904Y-128435714D01*
X193714285Y-128483333D01*
X193619047Y-128530952D01*
X193428571Y-128530952D01*
X193333333Y-128578571D01*
X193285714Y-128626190D01*
X193238095Y-128721428D01*
X193238095Y-128911904D01*
X193285714Y-129007142D01*
X193333333Y-129054761D01*
X193428571Y-129102380D01*
X193619047Y-129102380D01*
X193714285Y-129054761D01*
X193761904Y-129007142D01*
X193809523Y-128911904D01*
X193809523Y-128721428D01*
X193761904Y-128626190D01*
X193714285Y-128578571D01*
X193619047Y-128530952D01*
%TO.C,H7*%
X192238095Y-91102380D02*
X192238095Y-90102380D01*
X192238095Y-90578571D02*
X192809523Y-90578571D01*
X192809523Y-91102380D02*
X192809523Y-90102380D01*
X193190476Y-90102380D02*
X193857142Y-90102380D01*
X193428571Y-91102380D01*
%TO.C,H6*%
X136238095Y-129102380D02*
X136238095Y-128102380D01*
X136238095Y-128578571D02*
X136809523Y-128578571D01*
X136809523Y-129102380D02*
X136809523Y-128102380D01*
X137714285Y-128102380D02*
X137523809Y-128102380D01*
X137428571Y-128150000D01*
X137380952Y-128197619D01*
X137285714Y-128340476D01*
X137238095Y-128530952D01*
X137238095Y-128911904D01*
X137285714Y-129007142D01*
X137333333Y-129054761D01*
X137428571Y-129102380D01*
X137619047Y-129102380D01*
X137714285Y-129054761D01*
X137761904Y-129007142D01*
X137809523Y-128911904D01*
X137809523Y-128673809D01*
X137761904Y-128578571D01*
X137714285Y-128530952D01*
X137619047Y-128483333D01*
X137428571Y-128483333D01*
X137333333Y-128530952D01*
X137285714Y-128578571D01*
X137238095Y-128673809D01*
%TO.C,H5*%
X136238095Y-91102380D02*
X136238095Y-90102380D01*
X136238095Y-90578571D02*
X136809523Y-90578571D01*
X136809523Y-91102380D02*
X136809523Y-90102380D01*
X137761904Y-90102380D02*
X137285714Y-90102380D01*
X137238095Y-90578571D01*
X137285714Y-90530952D01*
X137380952Y-90483333D01*
X137619047Y-90483333D01*
X137714285Y-90530952D01*
X137761904Y-90578571D01*
X137809523Y-90673809D01*
X137809523Y-90911904D01*
X137761904Y-91007142D01*
X137714285Y-91054761D01*
X137619047Y-91102380D01*
X137380952Y-91102380D01*
X137285714Y-91054761D01*
X137238095Y-91007142D01*
%TO.C,U1*%
X143638095Y-125152380D02*
X143638095Y-125961904D01*
X143685714Y-126057142D01*
X143733333Y-126104761D01*
X143828571Y-126152380D01*
X144019047Y-126152380D01*
X144114285Y-126104761D01*
X144161904Y-126057142D01*
X144209523Y-125961904D01*
X144209523Y-125152380D01*
X145209523Y-126152380D02*
X144638095Y-126152380D01*
X144923809Y-126152380D02*
X144923809Y-125152380D01*
X144828571Y-125295238D01*
X144733333Y-125390476D01*
X144638095Y-125438095D01*
X145359523Y-139052380D02*
X144883333Y-139052380D01*
X144883333Y-138052380D01*
X145692857Y-139052380D02*
X145692857Y-138052380D01*
X146026190Y-138766666D01*
X146359523Y-138052380D01*
X146359523Y-139052380D01*
X146740476Y-138052380D02*
X147359523Y-138052380D01*
X147026190Y-138433333D01*
X147169047Y-138433333D01*
X147264285Y-138480952D01*
X147311904Y-138528571D01*
X147359523Y-138623809D01*
X147359523Y-138861904D01*
X147311904Y-138957142D01*
X147264285Y-139004761D01*
X147169047Y-139052380D01*
X146883333Y-139052380D01*
X146788095Y-139004761D01*
X146740476Y-138957142D01*
X147930952Y-138480952D02*
X147835714Y-138433333D01*
X147788095Y-138385714D01*
X147740476Y-138290476D01*
X147740476Y-138242857D01*
X147788095Y-138147619D01*
X147835714Y-138100000D01*
X147930952Y-138052380D01*
X148121428Y-138052380D01*
X148216666Y-138100000D01*
X148264285Y-138147619D01*
X148311904Y-138242857D01*
X148311904Y-138290476D01*
X148264285Y-138385714D01*
X148216666Y-138433333D01*
X148121428Y-138480952D01*
X147930952Y-138480952D01*
X147835714Y-138528571D01*
X147788095Y-138576190D01*
X147740476Y-138671428D01*
X147740476Y-138861904D01*
X147788095Y-138957142D01*
X147835714Y-139004761D01*
X147930952Y-139052380D01*
X148121428Y-139052380D01*
X148216666Y-139004761D01*
X148264285Y-138957142D01*
X148311904Y-138861904D01*
X148311904Y-138671428D01*
X148264285Y-138576190D01*
X148216666Y-138528571D01*
X148121428Y-138480952D01*
X149169047Y-138052380D02*
X148978571Y-138052380D01*
X148883333Y-138100000D01*
X148835714Y-138147619D01*
X148740476Y-138290476D01*
X148692857Y-138480952D01*
X148692857Y-138861904D01*
X148740476Y-138957142D01*
X148788095Y-139004761D01*
X148883333Y-139052380D01*
X149073809Y-139052380D01*
X149169047Y-139004761D01*
X149216666Y-138957142D01*
X149264285Y-138861904D01*
X149264285Y-138623809D01*
X149216666Y-138528571D01*
X149169047Y-138480952D01*
X149073809Y-138433333D01*
X148883333Y-138433333D01*
X148788095Y-138480952D01*
X148740476Y-138528571D01*
X148692857Y-138623809D01*
%TO.C,J1*%
X145396666Y-71452380D02*
X145396666Y-72166666D01*
X145349047Y-72309523D01*
X145253809Y-72404761D01*
X145110952Y-72452380D01*
X145015714Y-72452380D01*
X146396666Y-72452380D02*
X145825238Y-72452380D01*
X146110952Y-72452380D02*
X146110952Y-71452380D01*
X146015714Y-71595238D01*
X145920476Y-71690476D01*
X145825238Y-71738095D01*
X183504761Y-71252380D02*
X184076190Y-71252380D01*
X183790476Y-72252380D02*
X183790476Y-71252380D01*
X184742857Y-71728571D02*
X184409523Y-71728571D01*
X184409523Y-72252380D02*
X184409523Y-71252380D01*
X184885714Y-71252380D01*
X185123809Y-71252380D02*
X185695238Y-71252380D01*
X185409523Y-72252380D02*
X185409523Y-71252380D01*
%TO.C,C5*%
X161233333Y-128357142D02*
X161185714Y-128404761D01*
X161042857Y-128452380D01*
X160947619Y-128452380D01*
X160804761Y-128404761D01*
X160709523Y-128309523D01*
X160661904Y-128214285D01*
X160614285Y-128023809D01*
X160614285Y-127880952D01*
X160661904Y-127690476D01*
X160709523Y-127595238D01*
X160804761Y-127500000D01*
X160947619Y-127452380D01*
X161042857Y-127452380D01*
X161185714Y-127500000D01*
X161233333Y-127547619D01*
X162138095Y-127452380D02*
X161661904Y-127452380D01*
X161614285Y-127928571D01*
X161661904Y-127880952D01*
X161757142Y-127833333D01*
X161995238Y-127833333D01*
X162090476Y-127880952D01*
X162138095Y-127928571D01*
X162185714Y-128023809D01*
X162185714Y-128261904D01*
X162138095Y-128357142D01*
X162090476Y-128404761D01*
X161995238Y-128452380D01*
X161757142Y-128452380D01*
X161661904Y-128404761D01*
X161614285Y-128357142D01*
X161728571Y-130152380D02*
X161157142Y-130152380D01*
X161442857Y-130152380D02*
X161442857Y-129152380D01*
X161347619Y-129295238D01*
X161252380Y-129390476D01*
X161157142Y-129438095D01*
X162347619Y-129152380D02*
X162442857Y-129152380D01*
X162538095Y-129200000D01*
X162585714Y-129247619D01*
X162633333Y-129342857D01*
X162680952Y-129533333D01*
X162680952Y-129771428D01*
X162633333Y-129961904D01*
X162585714Y-130057142D01*
X162538095Y-130104761D01*
X162442857Y-130152380D01*
X162347619Y-130152380D01*
X162252380Y-130104761D01*
X162204761Y-130057142D01*
X162157142Y-129961904D01*
X162109523Y-129771428D01*
X162109523Y-129533333D01*
X162157142Y-129342857D01*
X162204761Y-129247619D01*
X162252380Y-129200000D01*
X162347619Y-129152380D01*
X163538095Y-129485714D02*
X163538095Y-130152380D01*
X163109523Y-129485714D02*
X163109523Y-130009523D01*
X163157142Y-130104761D01*
X163252380Y-130152380D01*
X163395238Y-130152380D01*
X163490476Y-130104761D01*
X163538095Y-130057142D01*
X164347619Y-129628571D02*
X164014285Y-129628571D01*
X164014285Y-130152380D02*
X164014285Y-129152380D01*
X164490476Y-129152380D01*
%TO.C,C3*%
X139533333Y-147757142D02*
X139485714Y-147804761D01*
X139342857Y-147852380D01*
X139247619Y-147852380D01*
X139104761Y-147804761D01*
X139009523Y-147709523D01*
X138961904Y-147614285D01*
X138914285Y-147423809D01*
X138914285Y-147280952D01*
X138961904Y-147090476D01*
X139009523Y-146995238D01*
X139104761Y-146900000D01*
X139247619Y-146852380D01*
X139342857Y-146852380D01*
X139485714Y-146900000D01*
X139533333Y-146947619D01*
X139866666Y-146852380D02*
X140485714Y-146852380D01*
X140152380Y-147233333D01*
X140295238Y-147233333D01*
X140390476Y-147280952D01*
X140438095Y-147328571D01*
X140485714Y-147423809D01*
X140485714Y-147661904D01*
X140438095Y-147757142D01*
X140390476Y-147804761D01*
X140295238Y-147852380D01*
X140009523Y-147852380D01*
X139914285Y-147804761D01*
X139866666Y-147757142D01*
X138852380Y-145485714D02*
X138852380Y-146057142D01*
X138852380Y-145771428D02*
X137852380Y-145771428D01*
X137995238Y-145866666D01*
X138090476Y-145961904D01*
X138138095Y-146057142D01*
X137852380Y-144866666D02*
X137852380Y-144771428D01*
X137900000Y-144676190D01*
X137947619Y-144628571D01*
X138042857Y-144580952D01*
X138233333Y-144533333D01*
X138471428Y-144533333D01*
X138661904Y-144580952D01*
X138757142Y-144628571D01*
X138804761Y-144676190D01*
X138852380Y-144771428D01*
X138852380Y-144866666D01*
X138804761Y-144961904D01*
X138757142Y-145009523D01*
X138661904Y-145057142D01*
X138471428Y-145104761D01*
X138233333Y-145104761D01*
X138042857Y-145057142D01*
X137947619Y-145009523D01*
X137900000Y-144961904D01*
X137852380Y-144866666D01*
X137852380Y-143914285D02*
X137852380Y-143819047D01*
X137900000Y-143723809D01*
X137947619Y-143676190D01*
X138042857Y-143628571D01*
X138233333Y-143580952D01*
X138471428Y-143580952D01*
X138661904Y-143628571D01*
X138757142Y-143676190D01*
X138804761Y-143723809D01*
X138852380Y-143819047D01*
X138852380Y-143914285D01*
X138804761Y-144009523D01*
X138757142Y-144057142D01*
X138661904Y-144104761D01*
X138471428Y-144152380D01*
X138233333Y-144152380D01*
X138042857Y-144104761D01*
X137947619Y-144057142D01*
X137900000Y-144009523D01*
X137852380Y-143914285D01*
X137852380Y-142961904D02*
X137852380Y-142866666D01*
X137900000Y-142771428D01*
X137947619Y-142723809D01*
X138042857Y-142676190D01*
X138233333Y-142628571D01*
X138471428Y-142628571D01*
X138661904Y-142676190D01*
X138757142Y-142723809D01*
X138804761Y-142771428D01*
X138852380Y-142866666D01*
X138852380Y-142961904D01*
X138804761Y-143057142D01*
X138757142Y-143104761D01*
X138661904Y-143152380D01*
X138471428Y-143200000D01*
X138233333Y-143200000D01*
X138042857Y-143152380D01*
X137947619Y-143104761D01*
X137900000Y-143057142D01*
X137852380Y-142961904D01*
X138185714Y-141771428D02*
X138852380Y-141771428D01*
X138185714Y-142200000D02*
X138709523Y-142200000D01*
X138804761Y-142152380D01*
X138852380Y-142057142D01*
X138852380Y-141914285D01*
X138804761Y-141819047D01*
X138757142Y-141771428D01*
X138328571Y-140961904D02*
X138328571Y-141295238D01*
X138852380Y-141295238D02*
X137852380Y-141295238D01*
X137852380Y-140819047D01*
X138852380Y-139152380D02*
X138852380Y-139723809D01*
X138852380Y-139438095D02*
X137852380Y-139438095D01*
X137995238Y-139533333D01*
X138090476Y-139628571D01*
X138138095Y-139723809D01*
X137852380Y-138295238D02*
X137852380Y-138485714D01*
X137900000Y-138580952D01*
X137947619Y-138628571D01*
X138090476Y-138723809D01*
X138280952Y-138771428D01*
X138661904Y-138771428D01*
X138757142Y-138723809D01*
X138804761Y-138676190D01*
X138852380Y-138580952D01*
X138852380Y-138390476D01*
X138804761Y-138295238D01*
X138757142Y-138247619D01*
X138661904Y-138200000D01*
X138423809Y-138200000D01*
X138328571Y-138247619D01*
X138280952Y-138295238D01*
X138233333Y-138390476D01*
X138233333Y-138580952D01*
X138280952Y-138676190D01*
X138328571Y-138723809D01*
X138423809Y-138771428D01*
X137852380Y-137914285D02*
X138852380Y-137580952D01*
X137852380Y-137247619D01*
%TD*%
M02*
