%TF.GenerationSoftware,KiCad,Pcbnew,(5.1.8)-1*%
%TF.CreationDate,2022-11-15T12:17:50-08:00*%
%TF.ProjectId,RetroClock,52657472-6f43-46c6-9f63-6b2e6b696361,rev?*%
%TF.SameCoordinates,Original*%
%TF.FileFunction,Copper,L2,Bot*%
%TF.FilePolarity,Positive*%
%FSLAX46Y46*%
G04 Gerber Fmt 4.6, Leading zero omitted, Abs format (unit mm)*
G04 Created by KiCad (PCBNEW (5.1.8)-1) date 2022-11-15 12:17:50*
%MOMM*%
%LPD*%
G01*
G04 APERTURE LIST*
%TA.AperFunction,ComponentPad*%
%ADD10C,1.524000*%
%TD*%
%TA.AperFunction,ComponentPad*%
%ADD11R,3.000000X3.000000*%
%TD*%
%TA.AperFunction,ComponentPad*%
%ADD12C,3.000000*%
%TD*%
%TA.AperFunction,SMDPad,CuDef*%
%ADD13R,0.900000X1.200000*%
%TD*%
%TA.AperFunction,ComponentPad*%
%ADD14R,1.300000X1.300000*%
%TD*%
%TA.AperFunction,ComponentPad*%
%ADD15C,1.300000*%
%TD*%
%TA.AperFunction,ComponentPad*%
%ADD16C,1.498600*%
%TD*%
%TA.AperFunction,ComponentPad*%
%ADD17C,1.600000*%
%TD*%
%TA.AperFunction,ComponentPad*%
%ADD18R,1.600000X1.600000*%
%TD*%
%TA.AperFunction,ComponentPad*%
%ADD19O,2.000000X1.700000*%
%TD*%
%TA.AperFunction,ComponentPad*%
%ADD20O,1.700000X2.000000*%
%TD*%
%TA.AperFunction,ComponentPad*%
%ADD21O,1.700000X1.950000*%
%TD*%
%TA.AperFunction,ComponentPad*%
%ADD22O,2.400000X1.600000*%
%TD*%
%TA.AperFunction,ComponentPad*%
%ADD23R,2.400000X1.600000*%
%TD*%
%TA.AperFunction,ComponentPad*%
%ADD24O,1.700000X1.700000*%
%TD*%
%TA.AperFunction,ComponentPad*%
%ADD25R,1.700000X1.700000*%
%TD*%
%TA.AperFunction,ViaPad*%
%ADD26C,0.800000*%
%TD*%
%TA.AperFunction,Conductor*%
%ADD27C,0.750000*%
%TD*%
%TA.AperFunction,Conductor*%
%ADD28C,0.250000*%
%TD*%
%TA.AperFunction,Conductor*%
%ADD29C,0.254000*%
%TD*%
%TA.AperFunction,Conductor*%
%ADD30C,0.100000*%
%TD*%
G04 APERTURE END LIST*
D10*
%TO.P,U2,30*%
%TO.N,/MOSI*%
X177700000Y-80900000D03*
%TO.P,U2,29*%
%TO.N,SCL*%
X177700000Y-83440000D03*
%TO.P,U2,28*%
%TO.N,Net-(U2-Pad28)*%
X177700000Y-85980000D03*
%TO.P,U2,27*%
%TO.N,Net-(U2-Pad27)*%
X177700000Y-88520000D03*
%TO.P,U2,26*%
%TO.N,SDA*%
X177700000Y-91060000D03*
%TO.P,U2,25*%
%TO.N,/MISO*%
X177700000Y-93600000D03*
%TO.P,U2,24*%
%TO.N,/SCK*%
X177700000Y-96140000D03*
%TO.P,U2,23*%
%TO.N,/TOUCH_CS*%
X177700000Y-98680000D03*
%TO.P,U2,22*%
%TO.N,Net-(U2-Pad22)*%
X177700000Y-101220000D03*
%TO.P,U2,21*%
%TO.N,Net-(U2-Pad21)*%
X177700000Y-103760000D03*
%TO.P,U2,20*%
%TO.N,/TFT_DC*%
X177700000Y-106300000D03*
%TO.P,U2,19*%
%TO.N,/TFT_RESET*%
X177700000Y-108840000D03*
%TO.P,U2,18*%
%TO.N,/TFT_CS*%
X177700000Y-111380000D03*
%TO.P,U2,17*%
%TO.N,GND*%
X177700000Y-113920000D03*
%TO.P,U2,16*%
%TO.N,+3V3*%
X177700000Y-116460000D03*
%TO.P,U2,1*%
%TO.N,Net-(U2-Pad1)*%
X152300000Y-80900000D03*
%TO.P,U2,15*%
%TO.N,+5V*%
X152300000Y-116460000D03*
%TO.P,U2,14*%
%TO.N,GND*%
X152300000Y-113920000D03*
%TO.P,U2,13*%
%TO.N,Net-(U2-Pad13)*%
X152300000Y-111380000D03*
%TO.P,U2,12*%
%TO.N,Net-(U2-Pad12)*%
X152300000Y-108840000D03*
%TO.P,U2,11*%
%TO.N,Net-(U2-Pad11)*%
X152300000Y-106300000D03*
%TO.P,U2,10*%
%TO.N,Net-(U2-Pad10)*%
X152300000Y-103760000D03*
%TO.P,U2,9*%
%TO.N,TFT_LED*%
X152300000Y-101220000D03*
%TO.P,U2,8*%
%TO.N,AudioOut*%
X152300000Y-98680000D03*
%TO.P,U2,7*%
%TO.N,TouchInt*%
X152300000Y-96140000D03*
%TO.P,U2,6*%
%TO.N,AudioMute*%
X152300000Y-93600000D03*
%TO.P,U2,5*%
%TO.N,RTC_INT*%
X152300000Y-91060000D03*
%TO.P,U2,4*%
%TO.N,Net-(R7-Pad2)*%
X152300000Y-88520000D03*
%TO.P,U2,3*%
%TO.N,Net-(J4-Pad1)*%
X152300000Y-85980000D03*
%TO.P,U2,2*%
%TO.N,Net-(U2-Pad2)*%
X152300000Y-83440000D03*
%TD*%
D11*
%TO.P,BT1,1*%
%TO.N,Net-(BT1-Pad1)*%
X192500000Y-138700000D03*
D12*
%TO.P,BT1,2*%
%TO.N,GND*%
X172010000Y-138700000D03*
%TD*%
D13*
%TO.P,D1,2*%
%TO.N,Net-(D1-Pad2)*%
X184550000Y-132900000D03*
%TO.P,D1,1*%
%TO.N,Net-(BT1-Pad1)*%
X187850000Y-132900000D03*
%TD*%
%TO.P,C4,2*%
%TO.N,GND*%
%TA.AperFunction,SMDPad,CuDef*%
G36*
G01*
X174950000Y-133225000D02*
X174950000Y-134175000D01*
G75*
G02*
X174700000Y-134425000I-250000J0D01*
G01*
X174025000Y-134425000D01*
G75*
G02*
X173775000Y-134175000I0J250000D01*
G01*
X173775000Y-133225000D01*
G75*
G02*
X174025000Y-132975000I250000J0D01*
G01*
X174700000Y-132975000D01*
G75*
G02*
X174950000Y-133225000I0J-250000D01*
G01*
G37*
%TD.AperFunction*%
%TO.P,C4,1*%
%TO.N,+3V3*%
%TA.AperFunction,SMDPad,CuDef*%
G36*
G01*
X177025000Y-133225000D02*
X177025000Y-134175000D01*
G75*
G02*
X176775000Y-134425000I-250000J0D01*
G01*
X176100000Y-134425000D01*
G75*
G02*
X175850000Y-134175000I0J250000D01*
G01*
X175850000Y-133225000D01*
G75*
G02*
X176100000Y-132975000I250000J0D01*
G01*
X176775000Y-132975000D01*
G75*
G02*
X177025000Y-133225000I0J-250000D01*
G01*
G37*
%TD.AperFunction*%
%TD*%
%TO.P,C8,2*%
%TO.N,GND*%
%TA.AperFunction,SMDPad,CuDef*%
G36*
G01*
X174850000Y-129625000D02*
X174850000Y-130575000D01*
G75*
G02*
X174600000Y-130825000I-250000J0D01*
G01*
X173925000Y-130825000D01*
G75*
G02*
X173675000Y-130575000I0J250000D01*
G01*
X173675000Y-129625000D01*
G75*
G02*
X173925000Y-129375000I250000J0D01*
G01*
X174600000Y-129375000D01*
G75*
G02*
X174850000Y-129625000I0J-250000D01*
G01*
G37*
%TD.AperFunction*%
%TO.P,C8,1*%
%TO.N,+3V3*%
%TA.AperFunction,SMDPad,CuDef*%
G36*
G01*
X176925000Y-129625000D02*
X176925000Y-130575000D01*
G75*
G02*
X176675000Y-130825000I-250000J0D01*
G01*
X176000000Y-130825000D01*
G75*
G02*
X175750000Y-130575000I0J250000D01*
G01*
X175750000Y-129625000D01*
G75*
G02*
X176000000Y-129375000I250000J0D01*
G01*
X176675000Y-129375000D01*
G75*
G02*
X176925000Y-129625000I0J-250000D01*
G01*
G37*
%TD.AperFunction*%
%TD*%
%TO.P,R12,2*%
%TO.N,+3V3*%
%TA.AperFunction,SMDPad,CuDef*%
G36*
G01*
X181800000Y-129449999D02*
X181800000Y-130350001D01*
G75*
G02*
X181550001Y-130600000I-249999J0D01*
G01*
X180849999Y-130600000D01*
G75*
G02*
X180600000Y-130350001I0J249999D01*
G01*
X180600000Y-129449999D01*
G75*
G02*
X180849999Y-129200000I249999J0D01*
G01*
X181550001Y-129200000D01*
G75*
G02*
X181800000Y-129449999I0J-249999D01*
G01*
G37*
%TD.AperFunction*%
%TO.P,R12,1*%
%TO.N,Net-(D1-Pad2)*%
%TA.AperFunction,SMDPad,CuDef*%
G36*
G01*
X183800000Y-129449999D02*
X183800000Y-130350001D01*
G75*
G02*
X183550001Y-130600000I-249999J0D01*
G01*
X182849999Y-130600000D01*
G75*
G02*
X182600000Y-130350001I0J249999D01*
G01*
X182600000Y-129449999D01*
G75*
G02*
X182849999Y-129200000I249999J0D01*
G01*
X183550001Y-129200000D01*
G75*
G02*
X183800000Y-129449999I0J-249999D01*
G01*
G37*
%TD.AperFunction*%
%TD*%
%TO.P,U3,16*%
%TO.N,SCL*%
%TA.AperFunction,SMDPad,CuDef*%
G36*
G01*
X177505000Y-145325000D02*
X177805000Y-145325000D01*
G75*
G02*
X177955000Y-145475000I0J-150000D01*
G01*
X177955000Y-147225000D01*
G75*
G02*
X177805000Y-147375000I-150000J0D01*
G01*
X177505000Y-147375000D01*
G75*
G02*
X177355000Y-147225000I0J150000D01*
G01*
X177355000Y-145475000D01*
G75*
G02*
X177505000Y-145325000I150000J0D01*
G01*
G37*
%TD.AperFunction*%
%TO.P,U3,15*%
%TO.N,SDA*%
%TA.AperFunction,SMDPad,CuDef*%
G36*
G01*
X178775000Y-145325000D02*
X179075000Y-145325000D01*
G75*
G02*
X179225000Y-145475000I0J-150000D01*
G01*
X179225000Y-147225000D01*
G75*
G02*
X179075000Y-147375000I-150000J0D01*
G01*
X178775000Y-147375000D01*
G75*
G02*
X178625000Y-147225000I0J150000D01*
G01*
X178625000Y-145475000D01*
G75*
G02*
X178775000Y-145325000I150000J0D01*
G01*
G37*
%TD.AperFunction*%
%TO.P,U3,14*%
%TO.N,Net-(BT1-Pad1)*%
%TA.AperFunction,SMDPad,CuDef*%
G36*
G01*
X180045000Y-145325000D02*
X180345000Y-145325000D01*
G75*
G02*
X180495000Y-145475000I0J-150000D01*
G01*
X180495000Y-147225000D01*
G75*
G02*
X180345000Y-147375000I-150000J0D01*
G01*
X180045000Y-147375000D01*
G75*
G02*
X179895000Y-147225000I0J150000D01*
G01*
X179895000Y-145475000D01*
G75*
G02*
X180045000Y-145325000I150000J0D01*
G01*
G37*
%TD.AperFunction*%
%TO.P,U3,13*%
%TO.N,GND*%
%TA.AperFunction,SMDPad,CuDef*%
G36*
G01*
X181315000Y-145325000D02*
X181615000Y-145325000D01*
G75*
G02*
X181765000Y-145475000I0J-150000D01*
G01*
X181765000Y-147225000D01*
G75*
G02*
X181615000Y-147375000I-150000J0D01*
G01*
X181315000Y-147375000D01*
G75*
G02*
X181165000Y-147225000I0J150000D01*
G01*
X181165000Y-145475000D01*
G75*
G02*
X181315000Y-145325000I150000J0D01*
G01*
G37*
%TD.AperFunction*%
%TO.P,U3,12*%
%TA.AperFunction,SMDPad,CuDef*%
G36*
G01*
X182585000Y-145325000D02*
X182885000Y-145325000D01*
G75*
G02*
X183035000Y-145475000I0J-150000D01*
G01*
X183035000Y-147225000D01*
G75*
G02*
X182885000Y-147375000I-150000J0D01*
G01*
X182585000Y-147375000D01*
G75*
G02*
X182435000Y-147225000I0J150000D01*
G01*
X182435000Y-145475000D01*
G75*
G02*
X182585000Y-145325000I150000J0D01*
G01*
G37*
%TD.AperFunction*%
%TO.P,U3,11*%
%TA.AperFunction,SMDPad,CuDef*%
G36*
G01*
X183855000Y-145325000D02*
X184155000Y-145325000D01*
G75*
G02*
X184305000Y-145475000I0J-150000D01*
G01*
X184305000Y-147225000D01*
G75*
G02*
X184155000Y-147375000I-150000J0D01*
G01*
X183855000Y-147375000D01*
G75*
G02*
X183705000Y-147225000I0J150000D01*
G01*
X183705000Y-145475000D01*
G75*
G02*
X183855000Y-145325000I150000J0D01*
G01*
G37*
%TD.AperFunction*%
%TO.P,U3,10*%
%TA.AperFunction,SMDPad,CuDef*%
G36*
G01*
X185125000Y-145325000D02*
X185425000Y-145325000D01*
G75*
G02*
X185575000Y-145475000I0J-150000D01*
G01*
X185575000Y-147225000D01*
G75*
G02*
X185425000Y-147375000I-150000J0D01*
G01*
X185125000Y-147375000D01*
G75*
G02*
X184975000Y-147225000I0J150000D01*
G01*
X184975000Y-145475000D01*
G75*
G02*
X185125000Y-145325000I150000J0D01*
G01*
G37*
%TD.AperFunction*%
%TO.P,U3,9*%
%TA.AperFunction,SMDPad,CuDef*%
G36*
G01*
X186395000Y-145325000D02*
X186695000Y-145325000D01*
G75*
G02*
X186845000Y-145475000I0J-150000D01*
G01*
X186845000Y-147225000D01*
G75*
G02*
X186695000Y-147375000I-150000J0D01*
G01*
X186395000Y-147375000D01*
G75*
G02*
X186245000Y-147225000I0J150000D01*
G01*
X186245000Y-145475000D01*
G75*
G02*
X186395000Y-145325000I150000J0D01*
G01*
G37*
%TD.AperFunction*%
%TO.P,U3,8*%
%TA.AperFunction,SMDPad,CuDef*%
G36*
G01*
X186395000Y-136025000D02*
X186695000Y-136025000D01*
G75*
G02*
X186845000Y-136175000I0J-150000D01*
G01*
X186845000Y-137925000D01*
G75*
G02*
X186695000Y-138075000I-150000J0D01*
G01*
X186395000Y-138075000D01*
G75*
G02*
X186245000Y-137925000I0J150000D01*
G01*
X186245000Y-136175000D01*
G75*
G02*
X186395000Y-136025000I150000J0D01*
G01*
G37*
%TD.AperFunction*%
%TO.P,U3,7*%
%TA.AperFunction,SMDPad,CuDef*%
G36*
G01*
X185125000Y-136025000D02*
X185425000Y-136025000D01*
G75*
G02*
X185575000Y-136175000I0J-150000D01*
G01*
X185575000Y-137925000D01*
G75*
G02*
X185425000Y-138075000I-150000J0D01*
G01*
X185125000Y-138075000D01*
G75*
G02*
X184975000Y-137925000I0J150000D01*
G01*
X184975000Y-136175000D01*
G75*
G02*
X185125000Y-136025000I150000J0D01*
G01*
G37*
%TD.AperFunction*%
%TO.P,U3,6*%
%TA.AperFunction,SMDPad,CuDef*%
G36*
G01*
X183855000Y-136025000D02*
X184155000Y-136025000D01*
G75*
G02*
X184305000Y-136175000I0J-150000D01*
G01*
X184305000Y-137925000D01*
G75*
G02*
X184155000Y-138075000I-150000J0D01*
G01*
X183855000Y-138075000D01*
G75*
G02*
X183705000Y-137925000I0J150000D01*
G01*
X183705000Y-136175000D01*
G75*
G02*
X183855000Y-136025000I150000J0D01*
G01*
G37*
%TD.AperFunction*%
%TO.P,U3,5*%
%TA.AperFunction,SMDPad,CuDef*%
G36*
G01*
X182585000Y-136025000D02*
X182885000Y-136025000D01*
G75*
G02*
X183035000Y-136175000I0J-150000D01*
G01*
X183035000Y-137925000D01*
G75*
G02*
X182885000Y-138075000I-150000J0D01*
G01*
X182585000Y-138075000D01*
G75*
G02*
X182435000Y-137925000I0J150000D01*
G01*
X182435000Y-136175000D01*
G75*
G02*
X182585000Y-136025000I150000J0D01*
G01*
G37*
%TD.AperFunction*%
%TO.P,U3,4*%
%TO.N,Net-(U3-Pad4)*%
%TA.AperFunction,SMDPad,CuDef*%
G36*
G01*
X181315000Y-136025000D02*
X181615000Y-136025000D01*
G75*
G02*
X181765000Y-136175000I0J-150000D01*
G01*
X181765000Y-137925000D01*
G75*
G02*
X181615000Y-138075000I-150000J0D01*
G01*
X181315000Y-138075000D01*
G75*
G02*
X181165000Y-137925000I0J150000D01*
G01*
X181165000Y-136175000D01*
G75*
G02*
X181315000Y-136025000I150000J0D01*
G01*
G37*
%TD.AperFunction*%
%TO.P,U3,3*%
%TO.N,RTC_INT*%
%TA.AperFunction,SMDPad,CuDef*%
G36*
G01*
X180045000Y-136025000D02*
X180345000Y-136025000D01*
G75*
G02*
X180495000Y-136175000I0J-150000D01*
G01*
X180495000Y-137925000D01*
G75*
G02*
X180345000Y-138075000I-150000J0D01*
G01*
X180045000Y-138075000D01*
G75*
G02*
X179895000Y-137925000I0J150000D01*
G01*
X179895000Y-136175000D01*
G75*
G02*
X180045000Y-136025000I150000J0D01*
G01*
G37*
%TD.AperFunction*%
%TO.P,U3,2*%
%TO.N,+3V3*%
%TA.AperFunction,SMDPad,CuDef*%
G36*
G01*
X178775000Y-136025000D02*
X179075000Y-136025000D01*
G75*
G02*
X179225000Y-136175000I0J-150000D01*
G01*
X179225000Y-137925000D01*
G75*
G02*
X179075000Y-138075000I-150000J0D01*
G01*
X178775000Y-138075000D01*
G75*
G02*
X178625000Y-137925000I0J150000D01*
G01*
X178625000Y-136175000D01*
G75*
G02*
X178775000Y-136025000I150000J0D01*
G01*
G37*
%TD.AperFunction*%
%TO.P,U3,1*%
%TO.N,Net-(U3-Pad1)*%
%TA.AperFunction,SMDPad,CuDef*%
G36*
G01*
X177505000Y-136025000D02*
X177805000Y-136025000D01*
G75*
G02*
X177955000Y-136175000I0J-150000D01*
G01*
X177955000Y-137925000D01*
G75*
G02*
X177805000Y-138075000I-150000J0D01*
G01*
X177505000Y-138075000D01*
G75*
G02*
X177355000Y-137925000I0J150000D01*
G01*
X177355000Y-136175000D01*
G75*
G02*
X177505000Y-136025000I150000J0D01*
G01*
G37*
%TD.AperFunction*%
%TD*%
D14*
%TO.P,Q1,1*%
%TO.N,GND*%
X138700000Y-106100000D03*
D15*
%TO.P,Q1,3*%
%TO.N,Net-(Q1-Pad3)*%
X141240000Y-106100000D03*
%TO.P,Q1,2*%
%TO.N,Net-(Q1-Pad2)*%
X139970000Y-104830000D03*
%TD*%
D16*
%TO.P,SW1,2*%
%TO.N,Net-(R7-Pad2)*%
X144300000Y-89603800D03*
%TO.P,SW1,1*%
%TO.N,GND*%
X144300000Y-84600000D03*
%TD*%
D17*
%TO.P,C7,2*%
%TO.N,Net-(C7-Pad2)*%
X152800000Y-144700000D03*
D18*
%TO.P,C7,1*%
%TO.N,Net-(C6-Pad1)*%
X152800000Y-142200000D03*
%TD*%
D19*
%TO.P,J4,2*%
%TO.N,GND*%
X148500000Y-62600000D03*
%TO.P,J4,1*%
%TO.N,Net-(J4-Pad1)*%
%TA.AperFunction,ComponentPad*%
G36*
G01*
X149250000Y-65950000D02*
X147750000Y-65950000D01*
G75*
G02*
X147500000Y-65700000I0J250000D01*
G01*
X147500000Y-64500000D01*
G75*
G02*
X147750000Y-64250000I250000J0D01*
G01*
X149250000Y-64250000D01*
G75*
G02*
X149500000Y-64500000I0J-250000D01*
G01*
X149500000Y-65700000D01*
G75*
G02*
X149250000Y-65950000I-250000J0D01*
G01*
G37*
%TD.AperFunction*%
%TD*%
D20*
%TO.P,J3,2*%
%TO.N,GND*%
X162800000Y-152900000D03*
%TO.P,J3,1*%
%TO.N,Net-(C7-Pad2)*%
%TA.AperFunction,ComponentPad*%
G36*
G01*
X166150000Y-152150000D02*
X166150000Y-153650000D01*
G75*
G02*
X165900000Y-153900000I-250000J0D01*
G01*
X164700000Y-153900000D01*
G75*
G02*
X164450000Y-153650000I0J250000D01*
G01*
X164450000Y-152150000D01*
G75*
G02*
X164700000Y-151900000I250000J0D01*
G01*
X165900000Y-151900000D01*
G75*
G02*
X166150000Y-152150000I0J-250000D01*
G01*
G37*
%TD.AperFunction*%
%TD*%
D21*
%TO.P,J2,4*%
%TO.N,GND*%
X149100000Y-152900000D03*
%TO.P,J2,3*%
%TO.N,Net-(J2-Pad3)*%
X151600000Y-152900000D03*
%TO.P,J2,2*%
%TO.N,Net-(J2-Pad2)*%
X154100000Y-152900000D03*
%TO.P,J2,1*%
%TO.N,+5V*%
%TA.AperFunction,ComponentPad*%
G36*
G01*
X157450000Y-152175000D02*
X157450000Y-153625000D01*
G75*
G02*
X157200000Y-153875000I-250000J0D01*
G01*
X156000000Y-153875000D01*
G75*
G02*
X155750000Y-153625000I0J250000D01*
G01*
X155750000Y-152175000D01*
G75*
G02*
X156000000Y-151925000I250000J0D01*
G01*
X157200000Y-151925000D01*
G75*
G02*
X157450000Y-152175000I0J-250000D01*
G01*
G37*
%TD.AperFunction*%
%TD*%
D22*
%TO.P,U1,8*%
%TO.N,Net-(U1-Pad8)*%
X151020000Y-128100000D03*
%TO.P,U1,4*%
%TO.N,GND*%
X143400000Y-135720000D03*
%TO.P,U1,7*%
%TO.N,Net-(C5-Pad1)*%
X151020000Y-130640000D03*
%TO.P,U1,3*%
%TO.N,Net-(C2-Pad1)*%
X143400000Y-133180000D03*
%TO.P,U1,6*%
%TO.N,+5V*%
X151020000Y-133180000D03*
%TO.P,U1,2*%
%TO.N,GND*%
X143400000Y-130640000D03*
%TO.P,U1,5*%
%TO.N,Net-(C6-Pad1)*%
X151020000Y-135720000D03*
D23*
%TO.P,U1,1*%
%TO.N,Net-(Q1-Pad3)*%
X143400000Y-128100000D03*
%TD*%
D24*
%TO.P,J1,14*%
%TO.N,TouchInt*%
X181520000Y-72000000D03*
%TO.P,J1,13*%
%TO.N,/MISO*%
X178980000Y-72000000D03*
%TO.P,J1,12*%
%TO.N,/MOSI*%
X176440000Y-72000000D03*
%TO.P,J1,11*%
%TO.N,/TOUCH_CS*%
X173900000Y-72000000D03*
%TO.P,J1,10*%
%TO.N,/SCK*%
X171360000Y-72000000D03*
%TO.P,J1,9*%
%TO.N,Net-(J1-Pad9)*%
X168820000Y-72000000D03*
%TO.P,J1,8*%
%TO.N,TFT_LED*%
X166280000Y-72000000D03*
%TO.P,J1,7*%
%TO.N,/SCK*%
X163740000Y-72000000D03*
%TO.P,J1,6*%
%TO.N,/MOSI*%
X161200000Y-72000000D03*
%TO.P,J1,5*%
%TO.N,/TFT_DC*%
X158660000Y-72000000D03*
%TO.P,J1,4*%
%TO.N,/TFT_RESET*%
X156120000Y-72000000D03*
%TO.P,J1,3*%
%TO.N,/TFT_CS*%
X153580000Y-72000000D03*
%TO.P,J1,2*%
%TO.N,GND*%
X151040000Y-72000000D03*
D25*
%TO.P,J1,1*%
%TO.N,+5V*%
X148500000Y-72000000D03*
%TD*%
D17*
%TO.P,C5,2*%
%TO.N,GND*%
X159600000Y-130600000D03*
D18*
%TO.P,C5,1*%
%TO.N,Net-(C5-Pad1)*%
X154600000Y-130600000D03*
%TD*%
D17*
%TO.P,C3,2*%
%TO.N,GND*%
X142300000Y-143300000D03*
D18*
%TO.P,C3,1*%
%TO.N,+5V*%
X144800000Y-143300000D03*
%TD*%
D26*
%TO.N,GND*%
X147000000Y-75700000D03*
X147000000Y-77000000D03*
X147000000Y-78200000D03*
X151000000Y-75700000D03*
X151000000Y-77000000D03*
X151000000Y-78200000D03*
X142500000Y-120800000D03*
X147700000Y-106300000D03*
%TO.N,/TOUCH_CS*%
X173900000Y-93600000D03*
%TO.N,TFT_LED*%
X166400000Y-96200000D03*
%TO.N,+3V3*%
X178925000Y-130024998D03*
X184000000Y-127300000D03*
%TO.N,TouchInt*%
X168000000Y-92700000D03*
X169600000Y-78900000D03*
%TO.N,SDA*%
X180500000Y-142300000D03*
%TO.N,SCL*%
X181600000Y-140800000D03*
%TO.N,RTC_INT*%
X180195000Y-134895000D03*
X159800000Y-102400000D03*
%TD*%
D27*
%TO.N,+5V*%
X148500000Y-72000000D02*
X148500000Y-77400000D01*
X148500000Y-77400000D02*
X149100000Y-78000000D01*
X149100000Y-78000000D02*
X149100000Y-114200000D01*
X151360000Y-116460000D02*
X152300000Y-116460000D01*
X149100000Y-114200000D02*
X151360000Y-116460000D01*
D28*
%TO.N,/MISO*%
X178980000Y-72000000D02*
X178980000Y-75580000D01*
X177700000Y-93600000D02*
X181300000Y-93600000D01*
X181300000Y-93600000D02*
X182400000Y-92500000D01*
X182400000Y-79000000D02*
X180150000Y-76750000D01*
X182400000Y-92500000D02*
X182400000Y-79000000D01*
X180150000Y-76750000D02*
X180300000Y-76900000D01*
X178980000Y-75580000D02*
X180150000Y-76750000D01*
%TO.N,/MOSI*%
X177700000Y-80900000D02*
X177700000Y-79100000D01*
X176440000Y-77840000D02*
X176440000Y-72000000D01*
X177700000Y-79100000D02*
X176440000Y-77840000D01*
%TO.N,/TOUCH_CS*%
X173900000Y-72000000D02*
X173900000Y-93600000D01*
%TO.N,/SCK*%
X177700000Y-96140000D02*
X173840000Y-96140000D01*
X171360000Y-93660000D02*
X171360000Y-72000000D01*
X173840000Y-96140000D02*
X171360000Y-93660000D01*
%TO.N,TFT_LED*%
X166280000Y-96080000D02*
X166400000Y-96200000D01*
X166280000Y-72000000D02*
X166280000Y-96080000D01*
%TO.N,/TFT_DC*%
X177700000Y-106300000D02*
X174000000Y-106300000D01*
X174000000Y-106300000D02*
X163900000Y-96200000D01*
X163900000Y-96200000D02*
X163900000Y-84000000D01*
X163900000Y-84000000D02*
X158660000Y-78760000D01*
X158660000Y-78760000D02*
X158660000Y-72000000D01*
%TO.N,/TFT_RESET*%
X177700000Y-108840000D02*
X174040000Y-108840000D01*
X174040000Y-108840000D02*
X162400000Y-97200000D01*
X162400000Y-97200000D02*
X162400000Y-84000000D01*
X162400000Y-84000000D02*
X156120000Y-77720000D01*
X156120000Y-77720000D02*
X156120000Y-72000000D01*
%TO.N,/TFT_CS*%
X177700000Y-111380000D02*
X173080000Y-111380000D01*
X173080000Y-111380000D02*
X160900000Y-99200000D01*
X160900000Y-99200000D02*
X160900000Y-84400000D01*
X160900000Y-84400000D02*
X153580000Y-77080000D01*
X153580000Y-77080000D02*
X153580000Y-72000000D01*
D27*
%TO.N,+3V3*%
X179049998Y-129900000D02*
X178925000Y-130024998D01*
X181200000Y-129900000D02*
X179049998Y-129900000D01*
X183800000Y-127300000D02*
X181200000Y-129900000D01*
X184000000Y-127300000D02*
X183800000Y-127300000D01*
X178700000Y-133700000D02*
X178925000Y-133475000D01*
X176437500Y-133700000D02*
X178700000Y-133700000D01*
X178925000Y-133475000D02*
X178925000Y-130024998D01*
X178925000Y-137050000D02*
X178925000Y-133475000D01*
X178849998Y-130100000D02*
X178925000Y-130024998D01*
X176337500Y-130100000D02*
X178849998Y-130100000D01*
D28*
%TO.N,Net-(BT1-Pad1)*%
X180195000Y-146350000D02*
X180195000Y-144405000D01*
X180195000Y-144405000D02*
X182300000Y-142300000D01*
X188900000Y-142300000D02*
X192500000Y-138700000D01*
X182300000Y-142300000D02*
X188900000Y-142300000D01*
X187850000Y-134050000D02*
X192500000Y-138700000D01*
X187850000Y-132900000D02*
X187850000Y-134050000D01*
%TO.N,Net-(D1-Pad2)*%
X183200000Y-131550000D02*
X184550000Y-132900000D01*
X183200000Y-129900000D02*
X183200000Y-131550000D01*
%TO.N,TouchInt*%
X168000000Y-92700000D02*
X169600000Y-91100000D01*
X169600000Y-91100000D02*
X169600000Y-78900000D01*
%TO.N,SDA*%
X178925000Y-146350000D02*
X178925000Y-143875000D01*
X178925000Y-143875000D02*
X180500000Y-142300000D01*
%TO.N,SCL*%
X177655000Y-146350000D02*
X177655000Y-142845000D01*
X177655000Y-142845000D02*
X179700000Y-140800000D01*
X179700000Y-140800000D02*
X181600000Y-140800000D01*
%TO.N,RTC_INT*%
X180195000Y-137050000D02*
X180195000Y-134895000D01*
X152300000Y-91060000D02*
X157660000Y-91060000D01*
X157660000Y-91060000D02*
X159800000Y-93200000D01*
X159800000Y-93200000D02*
X159800000Y-102400000D01*
%TD*%
D29*
%TO.N,GND*%
X147490001Y-77350382D02*
X147485114Y-77400000D01*
X147504615Y-77597994D01*
X147562368Y-77788379D01*
X147609915Y-77877333D01*
X147656154Y-77963840D01*
X147782368Y-78117633D01*
X147820902Y-78149257D01*
X148090000Y-78418355D01*
X148090001Y-114150382D01*
X148085114Y-114200000D01*
X148104615Y-114397994D01*
X148162368Y-114588379D01*
X148256154Y-114763840D01*
X148382368Y-114917633D01*
X148420901Y-114949256D01*
X150610744Y-117139100D01*
X150642367Y-117177633D01*
X150796160Y-117303847D01*
X150971620Y-117397632D01*
X151162005Y-117455385D01*
X151336962Y-117472617D01*
X151409465Y-117545120D01*
X151638273Y-117698005D01*
X151892510Y-117803314D01*
X152162408Y-117857000D01*
X152437592Y-117857000D01*
X152707490Y-117803314D01*
X152961727Y-117698005D01*
X153190535Y-117545120D01*
X153385120Y-117350535D01*
X153538005Y-117121727D01*
X153643314Y-116867490D01*
X153697000Y-116597592D01*
X153697000Y-116322408D01*
X176303000Y-116322408D01*
X176303000Y-116597592D01*
X176356686Y-116867490D01*
X176461995Y-117121727D01*
X176614880Y-117350535D01*
X176809465Y-117545120D01*
X177038273Y-117698005D01*
X177292510Y-117803314D01*
X177562408Y-117857000D01*
X177837592Y-117857000D01*
X178107490Y-117803314D01*
X178361727Y-117698005D01*
X178590535Y-117545120D01*
X178785120Y-117350535D01*
X178938005Y-117121727D01*
X179043314Y-116867490D01*
X179097000Y-116597592D01*
X179097000Y-116322408D01*
X179043314Y-116052510D01*
X178938005Y-115798273D01*
X178785120Y-115569465D01*
X178590535Y-115374880D01*
X178361727Y-115221995D01*
X178290057Y-115192308D01*
X178303023Y-115187636D01*
X178418980Y-115125656D01*
X178485960Y-114885565D01*
X177700000Y-114099605D01*
X176914040Y-114885565D01*
X176981020Y-115125656D01*
X177116760Y-115189485D01*
X177038273Y-115221995D01*
X176809465Y-115374880D01*
X176614880Y-115569465D01*
X176461995Y-115798273D01*
X176356686Y-116052510D01*
X176303000Y-116322408D01*
X153697000Y-116322408D01*
X153643314Y-116052510D01*
X153538005Y-115798273D01*
X153385120Y-115569465D01*
X153190535Y-115374880D01*
X152961727Y-115221995D01*
X152890057Y-115192308D01*
X152903023Y-115187636D01*
X153018980Y-115125656D01*
X153085960Y-114885565D01*
X152300000Y-114099605D01*
X151514040Y-114885565D01*
X151581020Y-115125656D01*
X151716760Y-115189485D01*
X151638273Y-115221995D01*
X151585568Y-115257212D01*
X150320373Y-113992017D01*
X150898090Y-113992017D01*
X150939078Y-114264133D01*
X151032364Y-114523023D01*
X151094344Y-114638980D01*
X151334435Y-114705960D01*
X152120395Y-113920000D01*
X152479605Y-113920000D01*
X153265565Y-114705960D01*
X153505656Y-114638980D01*
X153622756Y-114389952D01*
X153689023Y-114122865D01*
X153695157Y-113992017D01*
X176298090Y-113992017D01*
X176339078Y-114264133D01*
X176432364Y-114523023D01*
X176494344Y-114638980D01*
X176734435Y-114705960D01*
X177520395Y-113920000D01*
X177879605Y-113920000D01*
X178665565Y-114705960D01*
X178905656Y-114638980D01*
X179022756Y-114389952D01*
X179089023Y-114122865D01*
X179101910Y-113847983D01*
X179060922Y-113575867D01*
X178967636Y-113316977D01*
X178905656Y-113201020D01*
X178665565Y-113134040D01*
X177879605Y-113920000D01*
X177520395Y-113920000D01*
X176734435Y-113134040D01*
X176494344Y-113201020D01*
X176377244Y-113450048D01*
X176310977Y-113717135D01*
X176298090Y-113992017D01*
X153695157Y-113992017D01*
X153701910Y-113847983D01*
X153660922Y-113575867D01*
X153567636Y-113316977D01*
X153505656Y-113201020D01*
X153265565Y-113134040D01*
X152479605Y-113920000D01*
X152120395Y-113920000D01*
X151334435Y-113134040D01*
X151094344Y-113201020D01*
X150977244Y-113450048D01*
X150910977Y-113717135D01*
X150898090Y-113992017D01*
X150320373Y-113992017D01*
X150110000Y-113781645D01*
X150110000Y-79527000D01*
X152041752Y-79527000D01*
X151892510Y-79556686D01*
X151638273Y-79661995D01*
X151409465Y-79814880D01*
X151214880Y-80009465D01*
X151061995Y-80238273D01*
X150956686Y-80492510D01*
X150903000Y-80762408D01*
X150903000Y-81037592D01*
X150956686Y-81307490D01*
X151061995Y-81561727D01*
X151214880Y-81790535D01*
X151409465Y-81985120D01*
X151638273Y-82138005D01*
X151715515Y-82170000D01*
X151638273Y-82201995D01*
X151409465Y-82354880D01*
X151214880Y-82549465D01*
X151061995Y-82778273D01*
X150956686Y-83032510D01*
X150903000Y-83302408D01*
X150903000Y-83577592D01*
X150956686Y-83847490D01*
X151061995Y-84101727D01*
X151214880Y-84330535D01*
X151409465Y-84525120D01*
X151638273Y-84678005D01*
X151715515Y-84710000D01*
X151638273Y-84741995D01*
X151409465Y-84894880D01*
X151214880Y-85089465D01*
X151061995Y-85318273D01*
X150956686Y-85572510D01*
X150903000Y-85842408D01*
X150903000Y-86117592D01*
X150956686Y-86387490D01*
X151061995Y-86641727D01*
X151214880Y-86870535D01*
X151409465Y-87065120D01*
X151638273Y-87218005D01*
X151715515Y-87250000D01*
X151638273Y-87281995D01*
X151409465Y-87434880D01*
X151214880Y-87629465D01*
X151061995Y-87858273D01*
X150956686Y-88112510D01*
X150903000Y-88382408D01*
X150903000Y-88657592D01*
X150956686Y-88927490D01*
X151061995Y-89181727D01*
X151214880Y-89410535D01*
X151409465Y-89605120D01*
X151638273Y-89758005D01*
X151715515Y-89790000D01*
X151638273Y-89821995D01*
X151409465Y-89974880D01*
X151214880Y-90169465D01*
X151061995Y-90398273D01*
X150956686Y-90652510D01*
X150903000Y-90922408D01*
X150903000Y-91197592D01*
X150956686Y-91467490D01*
X151061995Y-91721727D01*
X151214880Y-91950535D01*
X151409465Y-92145120D01*
X151638273Y-92298005D01*
X151715515Y-92330000D01*
X151638273Y-92361995D01*
X151409465Y-92514880D01*
X151214880Y-92709465D01*
X151061995Y-92938273D01*
X150956686Y-93192510D01*
X150903000Y-93462408D01*
X150903000Y-93737592D01*
X150956686Y-94007490D01*
X151061995Y-94261727D01*
X151214880Y-94490535D01*
X151409465Y-94685120D01*
X151638273Y-94838005D01*
X151715515Y-94870000D01*
X151638273Y-94901995D01*
X151409465Y-95054880D01*
X151214880Y-95249465D01*
X151061995Y-95478273D01*
X150956686Y-95732510D01*
X150903000Y-96002408D01*
X150903000Y-96277592D01*
X150956686Y-96547490D01*
X151061995Y-96801727D01*
X151214880Y-97030535D01*
X151409465Y-97225120D01*
X151638273Y-97378005D01*
X151715515Y-97410000D01*
X151638273Y-97441995D01*
X151409465Y-97594880D01*
X151214880Y-97789465D01*
X151061995Y-98018273D01*
X150956686Y-98272510D01*
X150903000Y-98542408D01*
X150903000Y-98817592D01*
X150956686Y-99087490D01*
X151061995Y-99341727D01*
X151214880Y-99570535D01*
X151409465Y-99765120D01*
X151638273Y-99918005D01*
X151715515Y-99950000D01*
X151638273Y-99981995D01*
X151409465Y-100134880D01*
X151214880Y-100329465D01*
X151061995Y-100558273D01*
X150956686Y-100812510D01*
X150903000Y-101082408D01*
X150903000Y-101357592D01*
X150956686Y-101627490D01*
X151061995Y-101881727D01*
X151214880Y-102110535D01*
X151409465Y-102305120D01*
X151638273Y-102458005D01*
X151715515Y-102490000D01*
X151638273Y-102521995D01*
X151409465Y-102674880D01*
X151214880Y-102869465D01*
X151061995Y-103098273D01*
X150956686Y-103352510D01*
X150903000Y-103622408D01*
X150903000Y-103897592D01*
X150956686Y-104167490D01*
X151061995Y-104421727D01*
X151214880Y-104650535D01*
X151409465Y-104845120D01*
X151638273Y-104998005D01*
X151715515Y-105030000D01*
X151638273Y-105061995D01*
X151409465Y-105214880D01*
X151214880Y-105409465D01*
X151061995Y-105638273D01*
X150956686Y-105892510D01*
X150903000Y-106162408D01*
X150903000Y-106437592D01*
X150956686Y-106707490D01*
X151061995Y-106961727D01*
X151214880Y-107190535D01*
X151409465Y-107385120D01*
X151638273Y-107538005D01*
X151715515Y-107570000D01*
X151638273Y-107601995D01*
X151409465Y-107754880D01*
X151214880Y-107949465D01*
X151061995Y-108178273D01*
X150956686Y-108432510D01*
X150903000Y-108702408D01*
X150903000Y-108977592D01*
X150956686Y-109247490D01*
X151061995Y-109501727D01*
X151214880Y-109730535D01*
X151409465Y-109925120D01*
X151638273Y-110078005D01*
X151715515Y-110110000D01*
X151638273Y-110141995D01*
X151409465Y-110294880D01*
X151214880Y-110489465D01*
X151061995Y-110718273D01*
X150956686Y-110972510D01*
X150903000Y-111242408D01*
X150903000Y-111517592D01*
X150956686Y-111787490D01*
X151061995Y-112041727D01*
X151214880Y-112270535D01*
X151409465Y-112465120D01*
X151638273Y-112618005D01*
X151709943Y-112647692D01*
X151696977Y-112652364D01*
X151581020Y-112714344D01*
X151514040Y-112954435D01*
X152300000Y-113740395D01*
X153085960Y-112954435D01*
X153018980Y-112714344D01*
X152883240Y-112650515D01*
X152961727Y-112618005D01*
X153190535Y-112465120D01*
X153385120Y-112270535D01*
X153538005Y-112041727D01*
X153643314Y-111787490D01*
X153697000Y-111517592D01*
X153697000Y-111242408D01*
X153643314Y-110972510D01*
X153538005Y-110718273D01*
X153385120Y-110489465D01*
X153190535Y-110294880D01*
X152961727Y-110141995D01*
X152884485Y-110110000D01*
X152961727Y-110078005D01*
X153190535Y-109925120D01*
X153385120Y-109730535D01*
X153538005Y-109501727D01*
X153643314Y-109247490D01*
X153697000Y-108977592D01*
X153697000Y-108702408D01*
X153643314Y-108432510D01*
X153538005Y-108178273D01*
X153385120Y-107949465D01*
X153190535Y-107754880D01*
X152961727Y-107601995D01*
X152884485Y-107570000D01*
X152961727Y-107538005D01*
X153190535Y-107385120D01*
X153385120Y-107190535D01*
X153538005Y-106961727D01*
X153643314Y-106707490D01*
X153697000Y-106437592D01*
X153697000Y-106162408D01*
X153643314Y-105892510D01*
X153538005Y-105638273D01*
X153385120Y-105409465D01*
X153190535Y-105214880D01*
X152961727Y-105061995D01*
X152884485Y-105030000D01*
X152961727Y-104998005D01*
X153190535Y-104845120D01*
X153385120Y-104650535D01*
X153538005Y-104421727D01*
X153643314Y-104167490D01*
X153697000Y-103897592D01*
X153697000Y-103622408D01*
X153643314Y-103352510D01*
X153538005Y-103098273D01*
X153385120Y-102869465D01*
X153190535Y-102674880D01*
X152961727Y-102521995D01*
X152884485Y-102490000D01*
X152961727Y-102458005D01*
X153190535Y-102305120D01*
X153385120Y-102110535D01*
X153538005Y-101881727D01*
X153643314Y-101627490D01*
X153697000Y-101357592D01*
X153697000Y-101082408D01*
X153643314Y-100812510D01*
X153538005Y-100558273D01*
X153385120Y-100329465D01*
X153190535Y-100134880D01*
X152961727Y-99981995D01*
X152884485Y-99950000D01*
X152961727Y-99918005D01*
X153190535Y-99765120D01*
X153385120Y-99570535D01*
X153538005Y-99341727D01*
X153643314Y-99087490D01*
X153697000Y-98817592D01*
X153697000Y-98542408D01*
X153643314Y-98272510D01*
X153538005Y-98018273D01*
X153385120Y-97789465D01*
X153190535Y-97594880D01*
X152961727Y-97441995D01*
X152884485Y-97410000D01*
X152961727Y-97378005D01*
X153190535Y-97225120D01*
X153385120Y-97030535D01*
X153538005Y-96801727D01*
X153643314Y-96547490D01*
X153697000Y-96277592D01*
X153697000Y-96002408D01*
X153643314Y-95732510D01*
X153538005Y-95478273D01*
X153385120Y-95249465D01*
X153190535Y-95054880D01*
X152961727Y-94901995D01*
X152884485Y-94870000D01*
X152961727Y-94838005D01*
X153190535Y-94685120D01*
X153385120Y-94490535D01*
X153538005Y-94261727D01*
X153643314Y-94007490D01*
X153697000Y-93737592D01*
X153697000Y-93462408D01*
X153643314Y-93192510D01*
X153538005Y-92938273D01*
X153385120Y-92709465D01*
X153190535Y-92514880D01*
X152961727Y-92361995D01*
X152884485Y-92330000D01*
X152961727Y-92298005D01*
X153190535Y-92145120D01*
X153385120Y-91950535D01*
X153472341Y-91820000D01*
X157345199Y-91820000D01*
X159040000Y-93514802D01*
X159040001Y-101696288D01*
X158996063Y-101740226D01*
X158882795Y-101909744D01*
X158804774Y-102098102D01*
X158765000Y-102298061D01*
X158765000Y-102501939D01*
X158804774Y-102701898D01*
X158882795Y-102890256D01*
X158996063Y-103059774D01*
X159140226Y-103203937D01*
X159309744Y-103317205D01*
X159498102Y-103395226D01*
X159698061Y-103435000D01*
X159901939Y-103435000D01*
X160101898Y-103395226D01*
X160290256Y-103317205D01*
X160459774Y-103203937D01*
X160603937Y-103059774D01*
X160717205Y-102890256D01*
X160795226Y-102701898D01*
X160835000Y-102501939D01*
X160835000Y-102298061D01*
X160795226Y-102098102D01*
X160717205Y-101909744D01*
X160603937Y-101740226D01*
X160560000Y-101696289D01*
X160560000Y-99934801D01*
X172516201Y-111891003D01*
X172539999Y-111920001D01*
X172655724Y-112014974D01*
X172787753Y-112085546D01*
X172931014Y-112129003D01*
X173042667Y-112140000D01*
X173042676Y-112140000D01*
X173079999Y-112143676D01*
X173117322Y-112140000D01*
X176527659Y-112140000D01*
X176614880Y-112270535D01*
X176809465Y-112465120D01*
X177038273Y-112618005D01*
X177109943Y-112647692D01*
X177096977Y-112652364D01*
X176981020Y-112714344D01*
X176914040Y-112954435D01*
X177700000Y-113740395D01*
X178485960Y-112954435D01*
X178418980Y-112714344D01*
X178283240Y-112650515D01*
X178361727Y-112618005D01*
X178590535Y-112465120D01*
X178785120Y-112270535D01*
X178938005Y-112041727D01*
X179043314Y-111787490D01*
X179097000Y-111517592D01*
X179097000Y-111242408D01*
X179043314Y-110972510D01*
X178938005Y-110718273D01*
X178785120Y-110489465D01*
X178590535Y-110294880D01*
X178361727Y-110141995D01*
X178284485Y-110110000D01*
X178361727Y-110078005D01*
X178590535Y-109925120D01*
X178785120Y-109730535D01*
X178938005Y-109501727D01*
X179043314Y-109247490D01*
X179097000Y-108977592D01*
X179097000Y-108702408D01*
X179043314Y-108432510D01*
X178938005Y-108178273D01*
X178785120Y-107949465D01*
X178590535Y-107754880D01*
X178361727Y-107601995D01*
X178284485Y-107570000D01*
X178361727Y-107538005D01*
X178590535Y-107385120D01*
X178785120Y-107190535D01*
X178938005Y-106961727D01*
X179043314Y-106707490D01*
X179097000Y-106437592D01*
X179097000Y-106162408D01*
X179043314Y-105892510D01*
X178938005Y-105638273D01*
X178785120Y-105409465D01*
X178590535Y-105214880D01*
X178361727Y-105061995D01*
X178284485Y-105030000D01*
X178361727Y-104998005D01*
X178590535Y-104845120D01*
X178785120Y-104650535D01*
X178938005Y-104421727D01*
X179043314Y-104167490D01*
X179097000Y-103897592D01*
X179097000Y-103622408D01*
X179043314Y-103352510D01*
X178938005Y-103098273D01*
X178785120Y-102869465D01*
X178590535Y-102674880D01*
X178361727Y-102521995D01*
X178284485Y-102490000D01*
X178361727Y-102458005D01*
X178590535Y-102305120D01*
X178785120Y-102110535D01*
X178938005Y-101881727D01*
X179043314Y-101627490D01*
X179097000Y-101357592D01*
X179097000Y-101082408D01*
X179043314Y-100812510D01*
X178938005Y-100558273D01*
X178785120Y-100329465D01*
X178590535Y-100134880D01*
X178361727Y-99981995D01*
X178284485Y-99950000D01*
X178361727Y-99918005D01*
X178590535Y-99765120D01*
X178785120Y-99570535D01*
X178938005Y-99341727D01*
X179043314Y-99087490D01*
X179097000Y-98817592D01*
X179097000Y-98542408D01*
X179043314Y-98272510D01*
X178938005Y-98018273D01*
X178785120Y-97789465D01*
X178590535Y-97594880D01*
X178361727Y-97441995D01*
X178284485Y-97410000D01*
X178361727Y-97378005D01*
X178590535Y-97225120D01*
X178785120Y-97030535D01*
X178938005Y-96801727D01*
X179043314Y-96547490D01*
X179097000Y-96277592D01*
X179097000Y-96002408D01*
X179043314Y-95732510D01*
X178938005Y-95478273D01*
X178785120Y-95249465D01*
X178590535Y-95054880D01*
X178361727Y-94901995D01*
X178284485Y-94870000D01*
X178361727Y-94838005D01*
X178590535Y-94685120D01*
X178785120Y-94490535D01*
X178872341Y-94360000D01*
X181262678Y-94360000D01*
X181300000Y-94363676D01*
X181337322Y-94360000D01*
X181337333Y-94360000D01*
X181448986Y-94349003D01*
X181592247Y-94305546D01*
X181724276Y-94234974D01*
X181840001Y-94140001D01*
X181863804Y-94110998D01*
X182079561Y-93895241D01*
X182086771Y-99000179D01*
X182089246Y-99024952D01*
X182096507Y-99048766D01*
X182108274Y-99070706D01*
X182124095Y-99089929D01*
X182143363Y-99105696D01*
X182165336Y-99117401D01*
X182189170Y-99124595D01*
X182213771Y-99127000D01*
X194672529Y-99127000D01*
X194573471Y-125872571D01*
X189566083Y-125855605D01*
X189541299Y-125857961D01*
X189517450Y-125865107D01*
X189495454Y-125876769D01*
X189476155Y-125892498D01*
X189460296Y-125911689D01*
X189448486Y-125933606D01*
X189441178Y-125957406D01*
X189438653Y-125982783D01*
X189450790Y-134575989D01*
X188784902Y-133910101D01*
X188830537Y-133854494D01*
X188889502Y-133744180D01*
X188925812Y-133624482D01*
X188938072Y-133500000D01*
X188938072Y-132300000D01*
X188925812Y-132175518D01*
X188889502Y-132055820D01*
X188830537Y-131945506D01*
X188751185Y-131848815D01*
X188654494Y-131769463D01*
X188544180Y-131710498D01*
X188424482Y-131674188D01*
X188300000Y-131661928D01*
X187400000Y-131661928D01*
X187275518Y-131674188D01*
X187155820Y-131710498D01*
X187045506Y-131769463D01*
X186948815Y-131848815D01*
X186869463Y-131945506D01*
X186810498Y-132055820D01*
X186774188Y-132175518D01*
X186761928Y-132300000D01*
X186761928Y-133500000D01*
X186774188Y-133624482D01*
X186810498Y-133744180D01*
X186869463Y-133854494D01*
X186948815Y-133951185D01*
X187045506Y-134030537D01*
X187086569Y-134052486D01*
X187100998Y-134198985D01*
X187144454Y-134342246D01*
X187215026Y-134474276D01*
X187272122Y-134543847D01*
X187310000Y-134590001D01*
X187338998Y-134613799D01*
X189453831Y-136728632D01*
X189459392Y-140665807D01*
X188585199Y-141540000D01*
X182337333Y-141540000D01*
X182324932Y-141538779D01*
X182403937Y-141459774D01*
X182517205Y-141290256D01*
X182595226Y-141101898D01*
X182635000Y-140901939D01*
X182635000Y-140698061D01*
X182595226Y-140498102D01*
X182517205Y-140309744D01*
X182403937Y-140140226D01*
X182259774Y-139996063D01*
X182090256Y-139882795D01*
X181901898Y-139804774D01*
X181701939Y-139765000D01*
X181498061Y-139765000D01*
X181298102Y-139804774D01*
X181109744Y-139882795D01*
X180940226Y-139996063D01*
X180896289Y-140040000D01*
X179737325Y-140040000D01*
X179700000Y-140036324D01*
X179662675Y-140040000D01*
X179662667Y-140040000D01*
X179551014Y-140050997D01*
X179407753Y-140094454D01*
X179275724Y-140165026D01*
X179159999Y-140259999D01*
X179136201Y-140288997D01*
X177143998Y-142281201D01*
X177115000Y-142304999D01*
X177091202Y-142333997D01*
X177091201Y-142333998D01*
X177020026Y-142420724D01*
X176949454Y-142552754D01*
X176905998Y-142696015D01*
X176891324Y-142845000D01*
X176895001Y-142882332D01*
X176895000Y-144982023D01*
X176849742Y-145037171D01*
X176776916Y-145173418D01*
X176732071Y-145321255D01*
X176716928Y-145475000D01*
X176716928Y-147225000D01*
X176732071Y-147378745D01*
X176776916Y-147526582D01*
X176849742Y-147662829D01*
X176947749Y-147782251D01*
X177067171Y-147880258D01*
X177203418Y-147953084D01*
X177351255Y-147997929D01*
X177505000Y-148013072D01*
X177805000Y-148013072D01*
X177958745Y-147997929D01*
X178106582Y-147953084D01*
X178242829Y-147880258D01*
X178290000Y-147841546D01*
X178337171Y-147880258D01*
X178473418Y-147953084D01*
X178621255Y-147997929D01*
X178775000Y-148013072D01*
X179075000Y-148013072D01*
X179228745Y-147997929D01*
X179376582Y-147953084D01*
X179512829Y-147880258D01*
X179560000Y-147841546D01*
X179607171Y-147880258D01*
X179743418Y-147953084D01*
X179891255Y-147997929D01*
X180045000Y-148013072D01*
X180345000Y-148013072D01*
X180498745Y-147997929D01*
X180646582Y-147953084D01*
X180780936Y-147881270D01*
X180810506Y-147905537D01*
X180920820Y-147964502D01*
X181040518Y-148000812D01*
X181165000Y-148013072D01*
X181179250Y-148010000D01*
X181338000Y-147851250D01*
X181338000Y-146477000D01*
X181592000Y-146477000D01*
X181592000Y-147851250D01*
X181750750Y-148010000D01*
X181765000Y-148013072D01*
X181889482Y-148000812D01*
X182009180Y-147964502D01*
X182100000Y-147915957D01*
X182190820Y-147964502D01*
X182310518Y-148000812D01*
X182435000Y-148013072D01*
X182449250Y-148010000D01*
X182608000Y-147851250D01*
X182608000Y-146477000D01*
X182862000Y-146477000D01*
X182862000Y-147851250D01*
X183020750Y-148010000D01*
X183035000Y-148013072D01*
X183159482Y-148000812D01*
X183279180Y-147964502D01*
X183370000Y-147915957D01*
X183460820Y-147964502D01*
X183580518Y-148000812D01*
X183705000Y-148013072D01*
X183719250Y-148010000D01*
X183878000Y-147851250D01*
X183878000Y-146477000D01*
X184132000Y-146477000D01*
X184132000Y-147851250D01*
X184290750Y-148010000D01*
X184305000Y-148013072D01*
X184429482Y-148000812D01*
X184549180Y-147964502D01*
X184640000Y-147915957D01*
X184730820Y-147964502D01*
X184850518Y-148000812D01*
X184975000Y-148013072D01*
X184989250Y-148010000D01*
X185148000Y-147851250D01*
X185148000Y-146477000D01*
X185402000Y-146477000D01*
X185402000Y-147851250D01*
X185560750Y-148010000D01*
X185575000Y-148013072D01*
X185699482Y-148000812D01*
X185819180Y-147964502D01*
X185910000Y-147915957D01*
X186000820Y-147964502D01*
X186120518Y-148000812D01*
X186245000Y-148013072D01*
X186259250Y-148010000D01*
X186418000Y-147851250D01*
X186418000Y-146477000D01*
X186672000Y-146477000D01*
X186672000Y-147851250D01*
X186830750Y-148010000D01*
X186845000Y-148013072D01*
X186969482Y-148000812D01*
X187089180Y-147964502D01*
X187199494Y-147905537D01*
X187296185Y-147826185D01*
X187375537Y-147729494D01*
X187434502Y-147619180D01*
X187470812Y-147499482D01*
X187483072Y-147375000D01*
X187480000Y-146635750D01*
X187321250Y-146477000D01*
X186672000Y-146477000D01*
X186418000Y-146477000D01*
X185402000Y-146477000D01*
X185148000Y-146477000D01*
X184132000Y-146477000D01*
X183878000Y-146477000D01*
X182862000Y-146477000D01*
X182608000Y-146477000D01*
X181592000Y-146477000D01*
X181338000Y-146477000D01*
X181318000Y-146477000D01*
X181318000Y-146223000D01*
X181338000Y-146223000D01*
X181338000Y-144848750D01*
X181592000Y-144848750D01*
X181592000Y-146223000D01*
X182608000Y-146223000D01*
X182608000Y-144848750D01*
X182862000Y-144848750D01*
X182862000Y-146223000D01*
X183878000Y-146223000D01*
X183878000Y-144848750D01*
X184132000Y-144848750D01*
X184132000Y-146223000D01*
X185148000Y-146223000D01*
X185148000Y-144848750D01*
X185402000Y-144848750D01*
X185402000Y-146223000D01*
X186418000Y-146223000D01*
X186418000Y-144848750D01*
X186672000Y-144848750D01*
X186672000Y-146223000D01*
X187321250Y-146223000D01*
X187480000Y-146064250D01*
X187483072Y-145325000D01*
X187470812Y-145200518D01*
X187434502Y-145080820D01*
X187375537Y-144970506D01*
X187296185Y-144873815D01*
X187199494Y-144794463D01*
X187089180Y-144735498D01*
X186969482Y-144699188D01*
X186845000Y-144686928D01*
X186830750Y-144690000D01*
X186672000Y-144848750D01*
X186418000Y-144848750D01*
X186259250Y-144690000D01*
X186245000Y-144686928D01*
X186120518Y-144699188D01*
X186000820Y-144735498D01*
X185910000Y-144784043D01*
X185819180Y-144735498D01*
X185699482Y-144699188D01*
X185575000Y-144686928D01*
X185560750Y-144690000D01*
X185402000Y-144848750D01*
X185148000Y-144848750D01*
X184989250Y-144690000D01*
X184975000Y-144686928D01*
X184850518Y-144699188D01*
X184730820Y-144735498D01*
X184640000Y-144784043D01*
X184549180Y-144735498D01*
X184429482Y-144699188D01*
X184305000Y-144686928D01*
X184290750Y-144690000D01*
X184132000Y-144848750D01*
X183878000Y-144848750D01*
X183719250Y-144690000D01*
X183705000Y-144686928D01*
X183580518Y-144699188D01*
X183460820Y-144735498D01*
X183370000Y-144784043D01*
X183279180Y-144735498D01*
X183159482Y-144699188D01*
X183035000Y-144686928D01*
X183020750Y-144690000D01*
X182862000Y-144848750D01*
X182608000Y-144848750D01*
X182449250Y-144690000D01*
X182435000Y-144686928D01*
X182310518Y-144699188D01*
X182190820Y-144735498D01*
X182100000Y-144784043D01*
X182009180Y-144735498D01*
X181889482Y-144699188D01*
X181765000Y-144686928D01*
X181750750Y-144690000D01*
X181592000Y-144848750D01*
X181338000Y-144848750D01*
X181179250Y-144690000D01*
X181165000Y-144686928D01*
X181040518Y-144699188D01*
X180955000Y-144725130D01*
X180955000Y-144719801D01*
X182614802Y-143060000D01*
X188862678Y-143060000D01*
X188900000Y-143063676D01*
X188937322Y-143060000D01*
X188937333Y-143060000D01*
X189048986Y-143049003D01*
X189192247Y-143005546D01*
X189324276Y-142934974D01*
X189440001Y-142840001D01*
X189462424Y-142812678D01*
X189472820Y-150173000D01*
X183800000Y-150173000D01*
X183775224Y-150175440D01*
X183751399Y-150182667D01*
X183729443Y-150194403D01*
X183710197Y-150210197D01*
X183694403Y-150229443D01*
X183682667Y-150251399D01*
X183675440Y-150275224D01*
X183673000Y-150300000D01*
X183673000Y-155340000D01*
X155227000Y-155340000D01*
X155227000Y-154053663D01*
X155261595Y-154118386D01*
X155372038Y-154252962D01*
X155506614Y-154363405D01*
X155660150Y-154445472D01*
X155826746Y-154496008D01*
X156000000Y-154513072D01*
X157200000Y-154513072D01*
X157373254Y-154496008D01*
X157539850Y-154445472D01*
X157693386Y-154363405D01*
X157827962Y-154252962D01*
X157938405Y-154118386D01*
X158020472Y-153964850D01*
X158071008Y-153798254D01*
X158088072Y-153625000D01*
X158088072Y-153259742D01*
X161328715Y-153259742D01*
X161397904Y-153542745D01*
X161520975Y-153806812D01*
X161693198Y-154041795D01*
X161907954Y-154238664D01*
X162156991Y-154389854D01*
X162430739Y-154489554D01*
X162443110Y-154491476D01*
X162673000Y-154370155D01*
X162673000Y-153027000D01*
X161472768Y-153027000D01*
X161328715Y-153259742D01*
X158088072Y-153259742D01*
X158088072Y-152540258D01*
X161328715Y-152540258D01*
X161472768Y-152773000D01*
X162673000Y-152773000D01*
X162673000Y-151429845D01*
X162927000Y-151429845D01*
X162927000Y-152773000D01*
X162947000Y-152773000D01*
X162947000Y-153027000D01*
X162927000Y-153027000D01*
X162927000Y-154370155D01*
X163156890Y-154491476D01*
X163169261Y-154489554D01*
X163443009Y-154389854D01*
X163692046Y-154238664D01*
X163906802Y-154041795D01*
X163907086Y-154041407D01*
X163961595Y-154143386D01*
X164072038Y-154277962D01*
X164206614Y-154388405D01*
X164360150Y-154470472D01*
X164526746Y-154521008D01*
X164700000Y-154538072D01*
X165900000Y-154538072D01*
X166073254Y-154521008D01*
X166239850Y-154470472D01*
X166393386Y-154388405D01*
X166527962Y-154277962D01*
X166638405Y-154143386D01*
X166720472Y-153989850D01*
X166771008Y-153823254D01*
X166788072Y-153650000D01*
X166788072Y-152150000D01*
X166771008Y-151976746D01*
X166720472Y-151810150D01*
X166638405Y-151656614D01*
X166527962Y-151522038D01*
X166393386Y-151411595D01*
X166239850Y-151329528D01*
X166073254Y-151278992D01*
X165900000Y-151261928D01*
X164700000Y-151261928D01*
X164526746Y-151278992D01*
X164360150Y-151329528D01*
X164206614Y-151411595D01*
X164072038Y-151522038D01*
X163961595Y-151656614D01*
X163907086Y-151758593D01*
X163906802Y-151758205D01*
X163692046Y-151561336D01*
X163443009Y-151410146D01*
X163169261Y-151310446D01*
X163156890Y-151308524D01*
X162927000Y-151429845D01*
X162673000Y-151429845D01*
X162443110Y-151308524D01*
X162430739Y-151310446D01*
X162156991Y-151410146D01*
X161907954Y-151561336D01*
X161693198Y-151758205D01*
X161520975Y-151993188D01*
X161397904Y-152257255D01*
X161328715Y-152540258D01*
X158088072Y-152540258D01*
X158088072Y-152175000D01*
X158071008Y-152001746D01*
X158020472Y-151835150D01*
X157938405Y-151681614D01*
X157827962Y-151547038D01*
X157693386Y-151436595D01*
X157539850Y-151354528D01*
X157373254Y-151303992D01*
X157200000Y-151286928D01*
X156000000Y-151286928D01*
X155826746Y-151303992D01*
X155660150Y-151354528D01*
X155506614Y-151436595D01*
X155372038Y-151547038D01*
X155261595Y-151681614D01*
X155227000Y-151746337D01*
X155227000Y-150300000D01*
X155224560Y-150275224D01*
X155217333Y-150251399D01*
X155205597Y-150229443D01*
X155189803Y-150210197D01*
X155170557Y-150194403D01*
X155148601Y-150182667D01*
X155124776Y-150175440D01*
X155100000Y-150173000D01*
X140426851Y-150173000D01*
X140419959Y-144292702D01*
X141486903Y-144292702D01*
X141558486Y-144536671D01*
X141813996Y-144657571D01*
X142088184Y-144726300D01*
X142370512Y-144740217D01*
X142650130Y-144698787D01*
X142916292Y-144603603D01*
X143041514Y-144536671D01*
X143113097Y-144292702D01*
X142300000Y-143479605D01*
X141486903Y-144292702D01*
X140419959Y-144292702D01*
X140418878Y-143370512D01*
X140859783Y-143370512D01*
X140901213Y-143650130D01*
X140996397Y-143916292D01*
X141063329Y-144041514D01*
X141307298Y-144113097D01*
X142120395Y-143300000D01*
X142479605Y-143300000D01*
X143292702Y-144113097D01*
X143361928Y-144092785D01*
X143361928Y-144100000D01*
X143374188Y-144224482D01*
X143410498Y-144344180D01*
X143469463Y-144454494D01*
X143548815Y-144551185D01*
X143645506Y-144630537D01*
X143755820Y-144689502D01*
X143875518Y-144725812D01*
X144000000Y-144738072D01*
X145600000Y-144738072D01*
X145724482Y-144725812D01*
X145844180Y-144689502D01*
X145954494Y-144630537D01*
X146051185Y-144551185D01*
X146130537Y-144454494D01*
X146189502Y-144344180D01*
X146225812Y-144224482D01*
X146238072Y-144100000D01*
X146238072Y-142500000D01*
X146225812Y-142375518D01*
X146189502Y-142255820D01*
X146130537Y-142145506D01*
X146051185Y-142048815D01*
X145954494Y-141969463D01*
X145844180Y-141910498D01*
X145724482Y-141874188D01*
X145600000Y-141861928D01*
X144000000Y-141861928D01*
X143875518Y-141874188D01*
X143755820Y-141910498D01*
X143645506Y-141969463D01*
X143548815Y-142048815D01*
X143469463Y-142145506D01*
X143410498Y-142255820D01*
X143374188Y-142375518D01*
X143361928Y-142500000D01*
X143361928Y-142507215D01*
X143292702Y-142486903D01*
X142479605Y-143300000D01*
X142120395Y-143300000D01*
X141307298Y-142486903D01*
X141063329Y-142558486D01*
X140942429Y-142813996D01*
X140873700Y-143088184D01*
X140859783Y-143370512D01*
X140418878Y-143370512D01*
X140417632Y-142307298D01*
X141486903Y-142307298D01*
X142300000Y-143120395D01*
X143113097Y-142307298D01*
X143041514Y-142063329D01*
X142786004Y-141942429D01*
X142511816Y-141873700D01*
X142229488Y-141859783D01*
X141949870Y-141901213D01*
X141683708Y-141996397D01*
X141558486Y-142063329D01*
X141486903Y-142307298D01*
X140417632Y-142307298D01*
X140416569Y-141400000D01*
X151361928Y-141400000D01*
X151361928Y-143000000D01*
X151374188Y-143124482D01*
X151410498Y-143244180D01*
X151469463Y-143354494D01*
X151548815Y-143451185D01*
X151645506Y-143530537D01*
X151755820Y-143589502D01*
X151851943Y-143618661D01*
X151685363Y-143785241D01*
X151528320Y-144020273D01*
X151420147Y-144281426D01*
X151365000Y-144558665D01*
X151365000Y-144841335D01*
X151420147Y-145118574D01*
X151528320Y-145379727D01*
X151685363Y-145614759D01*
X151885241Y-145814637D01*
X152120273Y-145971680D01*
X152381426Y-146079853D01*
X152658665Y-146135000D01*
X152941335Y-146135000D01*
X153218574Y-146079853D01*
X153479727Y-145971680D01*
X153714759Y-145814637D01*
X153914637Y-145614759D01*
X154071680Y-145379727D01*
X154179853Y-145118574D01*
X154235000Y-144841335D01*
X154235000Y-144558665D01*
X154179853Y-144281426D01*
X154071680Y-144020273D01*
X153914637Y-143785241D01*
X153748057Y-143618661D01*
X153844180Y-143589502D01*
X153954494Y-143530537D01*
X154051185Y-143451185D01*
X154130537Y-143354494D01*
X154189502Y-143244180D01*
X154225812Y-143124482D01*
X154238072Y-143000000D01*
X154238072Y-141400000D01*
X154225812Y-141275518D01*
X154189502Y-141155820D01*
X154130537Y-141045506D01*
X154051185Y-140948815D01*
X153954494Y-140869463D01*
X153844180Y-140810498D01*
X153724482Y-140774188D01*
X153600000Y-140761928D01*
X152000000Y-140761928D01*
X151875518Y-140774188D01*
X151755820Y-140810498D01*
X151645506Y-140869463D01*
X151548815Y-140948815D01*
X151469463Y-141045506D01*
X151410498Y-141155820D01*
X151374188Y-141275518D01*
X151361928Y-141400000D01*
X140416569Y-141400000D01*
X140415153Y-140191653D01*
X170697952Y-140191653D01*
X170853962Y-140507214D01*
X171228745Y-140698020D01*
X171633551Y-140812044D01*
X172052824Y-140844902D01*
X172470451Y-140795334D01*
X172870383Y-140665243D01*
X173166038Y-140507214D01*
X173322048Y-140191653D01*
X172010000Y-138879605D01*
X170697952Y-140191653D01*
X140415153Y-140191653D01*
X140413455Y-138742824D01*
X169865098Y-138742824D01*
X169914666Y-139160451D01*
X170044757Y-139560383D01*
X170202786Y-139856038D01*
X170518347Y-140012048D01*
X171830395Y-138700000D01*
X172189605Y-138700000D01*
X173501653Y-140012048D01*
X173817214Y-139856038D01*
X174008020Y-139481255D01*
X174122044Y-139076449D01*
X174154902Y-138657176D01*
X174105334Y-138239549D01*
X173975243Y-137839617D01*
X173817214Y-137543962D01*
X173501653Y-137387952D01*
X172189605Y-138700000D01*
X171830395Y-138700000D01*
X170518347Y-137387952D01*
X170202786Y-137543962D01*
X170011980Y-137918745D01*
X169897956Y-138323551D01*
X169865098Y-138742824D01*
X140413455Y-138742824D01*
X140411656Y-137208347D01*
X170697952Y-137208347D01*
X172010000Y-138520395D01*
X173322048Y-137208347D01*
X173166038Y-136892786D01*
X172791255Y-136701980D01*
X172386449Y-136587956D01*
X171967176Y-136555098D01*
X171549549Y-136604666D01*
X171149617Y-136734757D01*
X170853962Y-136892786D01*
X170697952Y-137208347D01*
X140411656Y-137208347D01*
X140410320Y-136069039D01*
X141608096Y-136069039D01*
X141625633Y-136151818D01*
X141736285Y-136411646D01*
X141895500Y-136644895D01*
X142097161Y-136842601D01*
X142333517Y-136997166D01*
X142595486Y-137102650D01*
X142873000Y-137155000D01*
X143273000Y-137155000D01*
X143273000Y-135847000D01*
X143527000Y-135847000D01*
X143527000Y-137155000D01*
X143927000Y-137155000D01*
X144204514Y-137102650D01*
X144466483Y-136997166D01*
X144702839Y-136842601D01*
X144904500Y-136644895D01*
X145063715Y-136411646D01*
X145174367Y-136151818D01*
X145191904Y-136069039D01*
X145069915Y-135847000D01*
X143527000Y-135847000D01*
X143273000Y-135847000D01*
X141730085Y-135847000D01*
X141608096Y-136069039D01*
X140410320Y-136069039D01*
X140406933Y-133180000D01*
X141558057Y-133180000D01*
X141585764Y-133461309D01*
X141667818Y-133731808D01*
X141801068Y-133981101D01*
X141980392Y-134199608D01*
X142198899Y-134378932D01*
X142326741Y-134447265D01*
X142097161Y-134597399D01*
X141895500Y-134795105D01*
X141736285Y-135028354D01*
X141625633Y-135288182D01*
X141608096Y-135370961D01*
X141730085Y-135593000D01*
X143273000Y-135593000D01*
X143273000Y-135573000D01*
X143527000Y-135573000D01*
X143527000Y-135593000D01*
X145069915Y-135593000D01*
X145191904Y-135370961D01*
X145174367Y-135288182D01*
X145063715Y-135028354D01*
X144904500Y-134795105D01*
X144702839Y-134597399D01*
X144473259Y-134447265D01*
X144601101Y-134378932D01*
X144819608Y-134199608D01*
X144998932Y-133981101D01*
X145132182Y-133731808D01*
X145214236Y-133461309D01*
X145241943Y-133180000D01*
X145214236Y-132898691D01*
X145132182Y-132628192D01*
X144998932Y-132378899D01*
X144819608Y-132160392D01*
X144601101Y-131981068D01*
X144473259Y-131912735D01*
X144702839Y-131762601D01*
X144904500Y-131564895D01*
X145063715Y-131331646D01*
X145174367Y-131071818D01*
X145191904Y-130989039D01*
X145069915Y-130767000D01*
X143527000Y-130767000D01*
X143527000Y-130787000D01*
X143273000Y-130787000D01*
X143273000Y-130767000D01*
X141730085Y-130767000D01*
X141608096Y-130989039D01*
X141625633Y-131071818D01*
X141736285Y-131331646D01*
X141895500Y-131564895D01*
X142097161Y-131762601D01*
X142326741Y-131912735D01*
X142198899Y-131981068D01*
X141980392Y-132160392D01*
X141801068Y-132378899D01*
X141667818Y-132628192D01*
X141585764Y-132898691D01*
X141558057Y-133180000D01*
X140406933Y-133180000D01*
X140403148Y-129951534D01*
X140400679Y-129926761D01*
X140393424Y-129902945D01*
X140381662Y-129881002D01*
X140367661Y-129863624D01*
X137900778Y-127300000D01*
X141561928Y-127300000D01*
X141561928Y-128900000D01*
X141574188Y-129024482D01*
X141610498Y-129144180D01*
X141669463Y-129254494D01*
X141748815Y-129351185D01*
X141845506Y-129430537D01*
X141955820Y-129489502D01*
X142075518Y-129525812D01*
X142087387Y-129526981D01*
X141895500Y-129715105D01*
X141736285Y-129948354D01*
X141625633Y-130208182D01*
X141608096Y-130290961D01*
X141730085Y-130513000D01*
X143273000Y-130513000D01*
X143273000Y-130493000D01*
X143527000Y-130493000D01*
X143527000Y-130513000D01*
X145069915Y-130513000D01*
X145191904Y-130290961D01*
X145174367Y-130208182D01*
X145063715Y-129948354D01*
X144904500Y-129715105D01*
X144712613Y-129526981D01*
X144724482Y-129525812D01*
X144844180Y-129489502D01*
X144954494Y-129430537D01*
X145051185Y-129351185D01*
X145130537Y-129254494D01*
X145189502Y-129144180D01*
X145225812Y-129024482D01*
X145238072Y-128900000D01*
X145238072Y-128100000D01*
X149178057Y-128100000D01*
X149205764Y-128381309D01*
X149287818Y-128651808D01*
X149421068Y-128901101D01*
X149600392Y-129119608D01*
X149818899Y-129298932D01*
X149951858Y-129370000D01*
X149818899Y-129441068D01*
X149600392Y-129620392D01*
X149421068Y-129838899D01*
X149287818Y-130088192D01*
X149205764Y-130358691D01*
X149178057Y-130640000D01*
X149205764Y-130921309D01*
X149287818Y-131191808D01*
X149421068Y-131441101D01*
X149600392Y-131659608D01*
X149818899Y-131838932D01*
X149951858Y-131910000D01*
X149818899Y-131981068D01*
X149600392Y-132160392D01*
X149421068Y-132378899D01*
X149287818Y-132628192D01*
X149205764Y-132898691D01*
X149178057Y-133180000D01*
X149205764Y-133461309D01*
X149287818Y-133731808D01*
X149421068Y-133981101D01*
X149600392Y-134199608D01*
X149818899Y-134378932D01*
X149951858Y-134450000D01*
X149818899Y-134521068D01*
X149600392Y-134700392D01*
X149421068Y-134918899D01*
X149287818Y-135168192D01*
X149205764Y-135438691D01*
X149178057Y-135720000D01*
X149205764Y-136001309D01*
X149287818Y-136271808D01*
X149421068Y-136521101D01*
X149600392Y-136739608D01*
X149818899Y-136918932D01*
X150068192Y-137052182D01*
X150338691Y-137134236D01*
X150549508Y-137155000D01*
X151490492Y-137155000D01*
X151701309Y-137134236D01*
X151971808Y-137052182D01*
X152221101Y-136918932D01*
X152439608Y-136739608D01*
X152618932Y-136521101D01*
X152752182Y-136271808D01*
X152834236Y-136001309D01*
X152861943Y-135720000D01*
X152834236Y-135438691D01*
X152752182Y-135168192D01*
X152618932Y-134918899D01*
X152439608Y-134700392D01*
X152221101Y-134521068D01*
X152088142Y-134450000D01*
X152134913Y-134425000D01*
X173136928Y-134425000D01*
X173149188Y-134549482D01*
X173185498Y-134669180D01*
X173244463Y-134779494D01*
X173323815Y-134876185D01*
X173420506Y-134955537D01*
X173530820Y-135014502D01*
X173650518Y-135050812D01*
X173775000Y-135063072D01*
X174076750Y-135060000D01*
X174235500Y-134901250D01*
X174235500Y-133827000D01*
X173298750Y-133827000D01*
X173140000Y-133985750D01*
X173136928Y-134425000D01*
X152134913Y-134425000D01*
X152221101Y-134378932D01*
X152439608Y-134199608D01*
X152618932Y-133981101D01*
X152752182Y-133731808D01*
X152834236Y-133461309D01*
X152861943Y-133180000D01*
X152841752Y-132975000D01*
X173136928Y-132975000D01*
X173140000Y-133414250D01*
X173298750Y-133573000D01*
X174235500Y-133573000D01*
X174235500Y-132498750D01*
X174076750Y-132340000D01*
X173775000Y-132336928D01*
X173650518Y-132349188D01*
X173530820Y-132385498D01*
X173420506Y-132444463D01*
X173323815Y-132523815D01*
X173244463Y-132620506D01*
X173185498Y-132730820D01*
X173149188Y-132850518D01*
X173136928Y-132975000D01*
X152841752Y-132975000D01*
X152834236Y-132898691D01*
X152752182Y-132628192D01*
X152618932Y-132378899D01*
X152439608Y-132160392D01*
X152221101Y-131981068D01*
X152088142Y-131910000D01*
X152221101Y-131838932D01*
X152439608Y-131659608D01*
X152618932Y-131441101D01*
X152752182Y-131191808D01*
X152834236Y-130921309D01*
X152861943Y-130640000D01*
X152834236Y-130358691D01*
X152752182Y-130088192D01*
X152618932Y-129838899D01*
X152587009Y-129800000D01*
X153161928Y-129800000D01*
X153161928Y-131400000D01*
X153174188Y-131524482D01*
X153210498Y-131644180D01*
X153269463Y-131754494D01*
X153348815Y-131851185D01*
X153445506Y-131930537D01*
X153555820Y-131989502D01*
X153675518Y-132025812D01*
X153800000Y-132038072D01*
X155400000Y-132038072D01*
X155524482Y-132025812D01*
X155644180Y-131989502D01*
X155754494Y-131930537D01*
X155851185Y-131851185D01*
X155930537Y-131754494D01*
X155989502Y-131644180D01*
X156005117Y-131592702D01*
X158786903Y-131592702D01*
X158858486Y-131836671D01*
X159113996Y-131957571D01*
X159388184Y-132026300D01*
X159670512Y-132040217D01*
X159950130Y-131998787D01*
X160216292Y-131903603D01*
X160341514Y-131836671D01*
X160413097Y-131592702D01*
X159600000Y-130779605D01*
X158786903Y-131592702D01*
X156005117Y-131592702D01*
X156025812Y-131524482D01*
X156038072Y-131400000D01*
X156038072Y-130670512D01*
X158159783Y-130670512D01*
X158201213Y-130950130D01*
X158296397Y-131216292D01*
X158363329Y-131341514D01*
X158607298Y-131413097D01*
X159420395Y-130600000D01*
X159779605Y-130600000D01*
X160592702Y-131413097D01*
X160836671Y-131341514D01*
X160957571Y-131086004D01*
X161022995Y-130825000D01*
X173036928Y-130825000D01*
X173049188Y-130949482D01*
X173085498Y-131069180D01*
X173144463Y-131179494D01*
X173223815Y-131276185D01*
X173320506Y-131355537D01*
X173430820Y-131414502D01*
X173550518Y-131450812D01*
X173675000Y-131463072D01*
X173976750Y-131460000D01*
X174135500Y-131301250D01*
X174135500Y-130227000D01*
X173198750Y-130227000D01*
X173040000Y-130385750D01*
X173036928Y-130825000D01*
X161022995Y-130825000D01*
X161026300Y-130811816D01*
X161040217Y-130529488D01*
X160998787Y-130249870D01*
X160903603Y-129983708D01*
X160836671Y-129858486D01*
X160592702Y-129786903D01*
X159779605Y-130600000D01*
X159420395Y-130600000D01*
X158607298Y-129786903D01*
X158363329Y-129858486D01*
X158242429Y-130113996D01*
X158173700Y-130388184D01*
X158159783Y-130670512D01*
X156038072Y-130670512D01*
X156038072Y-129800000D01*
X156025812Y-129675518D01*
X156005118Y-129607298D01*
X158786903Y-129607298D01*
X159600000Y-130420395D01*
X160413097Y-129607298D01*
X160344939Y-129375000D01*
X173036928Y-129375000D01*
X173040000Y-129814250D01*
X173198750Y-129973000D01*
X174135500Y-129973000D01*
X174135500Y-128898750D01*
X174389500Y-128898750D01*
X174389500Y-129973000D01*
X174409500Y-129973000D01*
X174409500Y-130227000D01*
X174389500Y-130227000D01*
X174389500Y-131301250D01*
X174548250Y-131460000D01*
X174850000Y-131463072D01*
X174974482Y-131450812D01*
X175094180Y-131414502D01*
X175204494Y-131355537D01*
X175301185Y-131276185D01*
X175366658Y-131196406D01*
X175372038Y-131202962D01*
X175506614Y-131313405D01*
X175660150Y-131395472D01*
X175826746Y-131446008D01*
X176000000Y-131463072D01*
X176675000Y-131463072D01*
X176848254Y-131446008D01*
X177014850Y-131395472D01*
X177168386Y-131313405D01*
X177302962Y-131202962D01*
X177379253Y-131110000D01*
X177915001Y-131110000D01*
X177915000Y-132690000D01*
X177479253Y-132690000D01*
X177402962Y-132597038D01*
X177268386Y-132486595D01*
X177114850Y-132404528D01*
X176948254Y-132353992D01*
X176775000Y-132336928D01*
X176100000Y-132336928D01*
X175926746Y-132353992D01*
X175760150Y-132404528D01*
X175606614Y-132486595D01*
X175472038Y-132597038D01*
X175466658Y-132603594D01*
X175401185Y-132523815D01*
X175304494Y-132444463D01*
X175194180Y-132385498D01*
X175074482Y-132349188D01*
X174950000Y-132336928D01*
X174648250Y-132340000D01*
X174489500Y-132498750D01*
X174489500Y-133573000D01*
X174509500Y-133573000D01*
X174509500Y-133827000D01*
X174489500Y-133827000D01*
X174489500Y-134901250D01*
X174648250Y-135060000D01*
X174950000Y-135063072D01*
X175074482Y-135050812D01*
X175194180Y-135014502D01*
X175304494Y-134955537D01*
X175401185Y-134876185D01*
X175466658Y-134796406D01*
X175472038Y-134802962D01*
X175606614Y-134913405D01*
X175760150Y-134995472D01*
X175926746Y-135046008D01*
X176100000Y-135063072D01*
X176775000Y-135063072D01*
X176948254Y-135046008D01*
X177114850Y-134995472D01*
X177268386Y-134913405D01*
X177402962Y-134802962D01*
X177479253Y-134710000D01*
X177915001Y-134710000D01*
X177915000Y-135397762D01*
X177805000Y-135386928D01*
X177505000Y-135386928D01*
X177351255Y-135402071D01*
X177203418Y-135446916D01*
X177067171Y-135519742D01*
X176947749Y-135617749D01*
X176849742Y-135737171D01*
X176776916Y-135873418D01*
X176732071Y-136021255D01*
X176716928Y-136175000D01*
X176716928Y-137925000D01*
X176732071Y-138078745D01*
X176776916Y-138226582D01*
X176849742Y-138362829D01*
X176947749Y-138482251D01*
X177067171Y-138580258D01*
X177203418Y-138653084D01*
X177351255Y-138697929D01*
X177505000Y-138713072D01*
X177805000Y-138713072D01*
X177958745Y-138697929D01*
X178106582Y-138653084D01*
X178242829Y-138580258D01*
X178290000Y-138541546D01*
X178337171Y-138580258D01*
X178473418Y-138653084D01*
X178621255Y-138697929D01*
X178775000Y-138713072D01*
X179075000Y-138713072D01*
X179228745Y-138697929D01*
X179376582Y-138653084D01*
X179512829Y-138580258D01*
X179560000Y-138541546D01*
X179607171Y-138580258D01*
X179743418Y-138653084D01*
X179891255Y-138697929D01*
X180045000Y-138713072D01*
X180345000Y-138713072D01*
X180498745Y-138697929D01*
X180646582Y-138653084D01*
X180782829Y-138580258D01*
X180830000Y-138541546D01*
X180877171Y-138580258D01*
X181013418Y-138653084D01*
X181161255Y-138697929D01*
X181315000Y-138713072D01*
X181615000Y-138713072D01*
X181768745Y-138697929D01*
X181916582Y-138653084D01*
X182050936Y-138581270D01*
X182080506Y-138605537D01*
X182190820Y-138664502D01*
X182310518Y-138700812D01*
X182435000Y-138713072D01*
X182449250Y-138710000D01*
X182608000Y-138551250D01*
X182608000Y-137177000D01*
X182862000Y-137177000D01*
X182862000Y-138551250D01*
X183020750Y-138710000D01*
X183035000Y-138713072D01*
X183159482Y-138700812D01*
X183279180Y-138664502D01*
X183370000Y-138615957D01*
X183460820Y-138664502D01*
X183580518Y-138700812D01*
X183705000Y-138713072D01*
X183719250Y-138710000D01*
X183878000Y-138551250D01*
X183878000Y-137177000D01*
X184132000Y-137177000D01*
X184132000Y-138551250D01*
X184290750Y-138710000D01*
X184305000Y-138713072D01*
X184429482Y-138700812D01*
X184549180Y-138664502D01*
X184640000Y-138615957D01*
X184730820Y-138664502D01*
X184850518Y-138700812D01*
X184975000Y-138713072D01*
X184989250Y-138710000D01*
X185148000Y-138551250D01*
X185148000Y-137177000D01*
X185402000Y-137177000D01*
X185402000Y-138551250D01*
X185560750Y-138710000D01*
X185575000Y-138713072D01*
X185699482Y-138700812D01*
X185819180Y-138664502D01*
X185910000Y-138615957D01*
X186000820Y-138664502D01*
X186120518Y-138700812D01*
X186245000Y-138713072D01*
X186259250Y-138710000D01*
X186418000Y-138551250D01*
X186418000Y-137177000D01*
X186672000Y-137177000D01*
X186672000Y-138551250D01*
X186830750Y-138710000D01*
X186845000Y-138713072D01*
X186969482Y-138700812D01*
X187089180Y-138664502D01*
X187199494Y-138605537D01*
X187296185Y-138526185D01*
X187375537Y-138429494D01*
X187434502Y-138319180D01*
X187470812Y-138199482D01*
X187483072Y-138075000D01*
X187480000Y-137335750D01*
X187321250Y-137177000D01*
X186672000Y-137177000D01*
X186418000Y-137177000D01*
X185402000Y-137177000D01*
X185148000Y-137177000D01*
X184132000Y-137177000D01*
X183878000Y-137177000D01*
X182862000Y-137177000D01*
X182608000Y-137177000D01*
X182588000Y-137177000D01*
X182588000Y-136923000D01*
X182608000Y-136923000D01*
X182608000Y-135548750D01*
X182862000Y-135548750D01*
X182862000Y-136923000D01*
X183878000Y-136923000D01*
X183878000Y-135548750D01*
X184132000Y-135548750D01*
X184132000Y-136923000D01*
X185148000Y-136923000D01*
X185148000Y-135548750D01*
X185402000Y-135548750D01*
X185402000Y-136923000D01*
X186418000Y-136923000D01*
X186418000Y-135548750D01*
X186672000Y-135548750D01*
X186672000Y-136923000D01*
X187321250Y-136923000D01*
X187480000Y-136764250D01*
X187483072Y-136025000D01*
X187470812Y-135900518D01*
X187434502Y-135780820D01*
X187375537Y-135670506D01*
X187296185Y-135573815D01*
X187199494Y-135494463D01*
X187089180Y-135435498D01*
X186969482Y-135399188D01*
X186845000Y-135386928D01*
X186830750Y-135390000D01*
X186672000Y-135548750D01*
X186418000Y-135548750D01*
X186259250Y-135390000D01*
X186245000Y-135386928D01*
X186120518Y-135399188D01*
X186000820Y-135435498D01*
X185910000Y-135484043D01*
X185819180Y-135435498D01*
X185699482Y-135399188D01*
X185575000Y-135386928D01*
X185560750Y-135390000D01*
X185402000Y-135548750D01*
X185148000Y-135548750D01*
X184989250Y-135390000D01*
X184975000Y-135386928D01*
X184850518Y-135399188D01*
X184730820Y-135435498D01*
X184640000Y-135484043D01*
X184549180Y-135435498D01*
X184429482Y-135399188D01*
X184305000Y-135386928D01*
X184290750Y-135390000D01*
X184132000Y-135548750D01*
X183878000Y-135548750D01*
X183719250Y-135390000D01*
X183705000Y-135386928D01*
X183580518Y-135399188D01*
X183460820Y-135435498D01*
X183370000Y-135484043D01*
X183279180Y-135435498D01*
X183159482Y-135399188D01*
X183035000Y-135386928D01*
X183020750Y-135390000D01*
X182862000Y-135548750D01*
X182608000Y-135548750D01*
X182449250Y-135390000D01*
X182435000Y-135386928D01*
X182310518Y-135399188D01*
X182190820Y-135435498D01*
X182080506Y-135494463D01*
X182050936Y-135518730D01*
X181916582Y-135446916D01*
X181768745Y-135402071D01*
X181615000Y-135386928D01*
X181315000Y-135386928D01*
X181161255Y-135402071D01*
X181085644Y-135425007D01*
X181112205Y-135385256D01*
X181190226Y-135196898D01*
X181230000Y-134996939D01*
X181230000Y-134793061D01*
X181190226Y-134593102D01*
X181112205Y-134404744D01*
X180998937Y-134235226D01*
X180854774Y-134091063D01*
X180685256Y-133977795D01*
X180496898Y-133899774D01*
X180296939Y-133860000D01*
X180093061Y-133860000D01*
X179935000Y-133891440D01*
X179935000Y-133524606D01*
X179939886Y-133475001D01*
X179935000Y-133425392D01*
X179935000Y-130910000D01*
X180166263Y-130910000D01*
X180222038Y-130977962D01*
X180356613Y-131088405D01*
X180510149Y-131170472D01*
X180676745Y-131221008D01*
X180849999Y-131238072D01*
X181550001Y-131238072D01*
X181723255Y-131221008D01*
X181889851Y-131170472D01*
X182043387Y-131088405D01*
X182177962Y-130977962D01*
X182200000Y-130951109D01*
X182222038Y-130977962D01*
X182356613Y-131088405D01*
X182440001Y-131132977D01*
X182440001Y-131512668D01*
X182436324Y-131550000D01*
X182450998Y-131698985D01*
X182494454Y-131842246D01*
X182565026Y-131974276D01*
X182617383Y-132038072D01*
X182660000Y-132090001D01*
X182688998Y-132113799D01*
X183461928Y-132886730D01*
X183461928Y-133500000D01*
X183474188Y-133624482D01*
X183510498Y-133744180D01*
X183569463Y-133854494D01*
X183648815Y-133951185D01*
X183745506Y-134030537D01*
X183855820Y-134089502D01*
X183975518Y-134125812D01*
X184100000Y-134138072D01*
X185000000Y-134138072D01*
X185124482Y-134125812D01*
X185244180Y-134089502D01*
X185354494Y-134030537D01*
X185451185Y-133951185D01*
X185530537Y-133854494D01*
X185589502Y-133744180D01*
X185625812Y-133624482D01*
X185638072Y-133500000D01*
X185638072Y-132300000D01*
X185625812Y-132175518D01*
X185589502Y-132055820D01*
X185530537Y-131945506D01*
X185451185Y-131848815D01*
X185354494Y-131769463D01*
X185244180Y-131710498D01*
X185124482Y-131674188D01*
X185000000Y-131661928D01*
X184386729Y-131661928D01*
X183960000Y-131235199D01*
X183960000Y-131132976D01*
X184043387Y-131088405D01*
X184177962Y-130977962D01*
X184288405Y-130843387D01*
X184370472Y-130689851D01*
X184421008Y-130523255D01*
X184438072Y-130350001D01*
X184438072Y-129449999D01*
X184421008Y-129276745D01*
X184370472Y-129110149D01*
X184288405Y-128956613D01*
X184177962Y-128822038D01*
X184043387Y-128711595D01*
X183895700Y-128632655D01*
X184216054Y-128312301D01*
X184301898Y-128295226D01*
X184490256Y-128217205D01*
X184659774Y-128103937D01*
X184803937Y-127959774D01*
X184917205Y-127790256D01*
X184995226Y-127601898D01*
X185035000Y-127401939D01*
X185035000Y-127198061D01*
X184995226Y-126998102D01*
X184917205Y-126809744D01*
X184803937Y-126640226D01*
X184659774Y-126496063D01*
X184490256Y-126382795D01*
X184301898Y-126304774D01*
X184101939Y-126265000D01*
X183898061Y-126265000D01*
X183793940Y-126285711D01*
X183750394Y-126290000D01*
X183750392Y-126290000D01*
X183602006Y-126304615D01*
X183411620Y-126362368D01*
X183236160Y-126456153D01*
X183082367Y-126582367D01*
X183050739Y-126620906D01*
X181109717Y-128561928D01*
X180849999Y-128561928D01*
X180676745Y-128578992D01*
X180510149Y-128629528D01*
X180356613Y-128711595D01*
X180222038Y-128822038D01*
X180166263Y-128890000D01*
X179099606Y-128890000D01*
X179049998Y-128885114D01*
X179000390Y-128890000D01*
X178852004Y-128904615D01*
X178661618Y-128962368D01*
X178486158Y-129056153D01*
X178444915Y-129090000D01*
X177379253Y-129090000D01*
X177302962Y-128997038D01*
X177168386Y-128886595D01*
X177014850Y-128804528D01*
X176848254Y-128753992D01*
X176675000Y-128736928D01*
X176000000Y-128736928D01*
X175826746Y-128753992D01*
X175660150Y-128804528D01*
X175506614Y-128886595D01*
X175372038Y-128997038D01*
X175366658Y-129003594D01*
X175301185Y-128923815D01*
X175204494Y-128844463D01*
X175094180Y-128785498D01*
X174974482Y-128749188D01*
X174850000Y-128736928D01*
X174548250Y-128740000D01*
X174389500Y-128898750D01*
X174135500Y-128898750D01*
X173976750Y-128740000D01*
X173675000Y-128736928D01*
X173550518Y-128749188D01*
X173430820Y-128785498D01*
X173320506Y-128844463D01*
X173223815Y-128923815D01*
X173144463Y-129020506D01*
X173085498Y-129130820D01*
X173049188Y-129250518D01*
X173036928Y-129375000D01*
X160344939Y-129375000D01*
X160341514Y-129363329D01*
X160086004Y-129242429D01*
X159811816Y-129173700D01*
X159529488Y-129159783D01*
X159249870Y-129201213D01*
X158983708Y-129296397D01*
X158858486Y-129363329D01*
X158786903Y-129607298D01*
X156005118Y-129607298D01*
X155989502Y-129555820D01*
X155930537Y-129445506D01*
X155851185Y-129348815D01*
X155754494Y-129269463D01*
X155644180Y-129210498D01*
X155524482Y-129174188D01*
X155400000Y-129161928D01*
X153800000Y-129161928D01*
X153675518Y-129174188D01*
X153555820Y-129210498D01*
X153445506Y-129269463D01*
X153348815Y-129348815D01*
X153269463Y-129445506D01*
X153210498Y-129555820D01*
X153174188Y-129675518D01*
X153161928Y-129800000D01*
X152587009Y-129800000D01*
X152439608Y-129620392D01*
X152221101Y-129441068D01*
X152088142Y-129370000D01*
X152221101Y-129298932D01*
X152439608Y-129119608D01*
X152618932Y-128901101D01*
X152752182Y-128651808D01*
X152834236Y-128381309D01*
X152861943Y-128100000D01*
X152834236Y-127818691D01*
X152752182Y-127548192D01*
X152618932Y-127298899D01*
X152439608Y-127080392D01*
X152221101Y-126901068D01*
X151971808Y-126767818D01*
X151701309Y-126685764D01*
X151490492Y-126665000D01*
X150549508Y-126665000D01*
X150338691Y-126685764D01*
X150068192Y-126767818D01*
X149818899Y-126901068D01*
X149600392Y-127080392D01*
X149421068Y-127298899D01*
X149287818Y-127548192D01*
X149205764Y-127818691D01*
X149178057Y-128100000D01*
X145238072Y-128100000D01*
X145238072Y-127300000D01*
X145225812Y-127175518D01*
X145189502Y-127055820D01*
X145130537Y-126945506D01*
X145051185Y-126848815D01*
X144954494Y-126769463D01*
X144844180Y-126710498D01*
X144724482Y-126674188D01*
X144600000Y-126661928D01*
X142200000Y-126661928D01*
X142075518Y-126674188D01*
X141955820Y-126710498D01*
X141845506Y-126769463D01*
X141748815Y-126848815D01*
X141669463Y-126945506D01*
X141610498Y-127055820D01*
X141574188Y-127175518D01*
X141561928Y-127300000D01*
X137900778Y-127300000D01*
X136468872Y-125811941D01*
X136449934Y-125795780D01*
X136428207Y-125783623D01*
X136404526Y-125775940D01*
X136377359Y-125773000D01*
X134727471Y-125773000D01*
X134797926Y-106750000D01*
X137411928Y-106750000D01*
X137424188Y-106874482D01*
X137460498Y-106994180D01*
X137519463Y-107104494D01*
X137598815Y-107201185D01*
X137695506Y-107280537D01*
X137805820Y-107339502D01*
X137925518Y-107375812D01*
X138050000Y-107388072D01*
X138414250Y-107385000D01*
X138573000Y-107226250D01*
X138573000Y-106227000D01*
X137573750Y-106227000D01*
X137415000Y-106385750D01*
X137411928Y-106750000D01*
X134797926Y-106750000D01*
X134802741Y-105450000D01*
X137411928Y-105450000D01*
X137415000Y-105814250D01*
X137573750Y-105973000D01*
X138573000Y-105973000D01*
X138573000Y-105953000D01*
X138827000Y-105953000D01*
X138827000Y-105973000D01*
X138847000Y-105973000D01*
X138847000Y-106227000D01*
X138827000Y-106227000D01*
X138827000Y-107226250D01*
X138985750Y-107385000D01*
X139350000Y-107388072D01*
X139474482Y-107375812D01*
X139594180Y-107339502D01*
X139704494Y-107280537D01*
X139801185Y-107201185D01*
X139880537Y-107104494D01*
X139939502Y-106994180D01*
X139975812Y-106874482D01*
X139988072Y-106750000D01*
X139985000Y-106385750D01*
X139826252Y-106227002D01*
X139955088Y-106227002D01*
X140004381Y-106474821D01*
X140101247Y-106708676D01*
X140241875Y-106919140D01*
X140420860Y-107098125D01*
X140631324Y-107238753D01*
X140865179Y-107335619D01*
X141113439Y-107385000D01*
X141366561Y-107385000D01*
X141614821Y-107335619D01*
X141848676Y-107238753D01*
X142059140Y-107098125D01*
X142238125Y-106919140D01*
X142378753Y-106708676D01*
X142475619Y-106474821D01*
X142525000Y-106226561D01*
X142525000Y-105973439D01*
X142475619Y-105725179D01*
X142378753Y-105491324D01*
X142238125Y-105280860D01*
X142059140Y-105101875D01*
X141848676Y-104961247D01*
X141614821Y-104864381D01*
X141366561Y-104815000D01*
X141255000Y-104815000D01*
X141255000Y-104703439D01*
X141205619Y-104455179D01*
X141108753Y-104221324D01*
X140968125Y-104010860D01*
X140789140Y-103831875D01*
X140578676Y-103691247D01*
X140344821Y-103594381D01*
X140096561Y-103545000D01*
X139843439Y-103545000D01*
X139595179Y-103594381D01*
X139361324Y-103691247D01*
X139150860Y-103831875D01*
X138971875Y-104010860D01*
X138831247Y-104221324D01*
X138734381Y-104455179D01*
X138685000Y-104703439D01*
X138685000Y-104815000D01*
X138572998Y-104815000D01*
X138572998Y-104973748D01*
X138414250Y-104815000D01*
X138050000Y-104811928D01*
X137925518Y-104824188D01*
X137805820Y-104860498D01*
X137695506Y-104919463D01*
X137598815Y-104998815D01*
X137519463Y-105095506D01*
X137460498Y-105205820D01*
X137424188Y-105325518D01*
X137411928Y-105450000D01*
X134802741Y-105450000D01*
X134826530Y-99027000D01*
X140372599Y-99027000D01*
X140397375Y-99024560D01*
X140421200Y-99017333D01*
X140443156Y-99005597D01*
X140462402Y-98989803D01*
X140478196Y-98970557D01*
X140489932Y-98948601D01*
X140497159Y-98924776D01*
X140499599Y-98900179D01*
X140512921Y-89467458D01*
X142915700Y-89467458D01*
X142915700Y-89740142D01*
X142968898Y-90007585D01*
X143073249Y-90259512D01*
X143224744Y-90486240D01*
X143417560Y-90679056D01*
X143644288Y-90830551D01*
X143896215Y-90934902D01*
X144163658Y-90988100D01*
X144436342Y-90988100D01*
X144703785Y-90934902D01*
X144955712Y-90830551D01*
X145182440Y-90679056D01*
X145375256Y-90486240D01*
X145526751Y-90259512D01*
X145631102Y-90007585D01*
X145684300Y-89740142D01*
X145684300Y-89467458D01*
X145631102Y-89200015D01*
X145526751Y-88948088D01*
X145375256Y-88721360D01*
X145182440Y-88528544D01*
X144955712Y-88377049D01*
X144703785Y-88272698D01*
X144436342Y-88219500D01*
X144163658Y-88219500D01*
X143896215Y-88272698D01*
X143644288Y-88377049D01*
X143417560Y-88528544D01*
X143224744Y-88721360D01*
X143073249Y-88948088D01*
X142968898Y-89200015D01*
X142915700Y-89467458D01*
X140512921Y-89467458D01*
X140518445Y-85556493D01*
X143523112Y-85556493D01*
X143588552Y-85795290D01*
X143835412Y-85911120D01*
X144100126Y-85976564D01*
X144372521Y-85989107D01*
X144642129Y-85948268D01*
X144898589Y-85855615D01*
X145011448Y-85795290D01*
X145076888Y-85556493D01*
X144300000Y-84779605D01*
X143523112Y-85556493D01*
X140518445Y-85556493D01*
X140519694Y-84672521D01*
X142910893Y-84672521D01*
X142951732Y-84942129D01*
X143044385Y-85198589D01*
X143104710Y-85311448D01*
X143343507Y-85376888D01*
X144120395Y-84600000D01*
X144479605Y-84600000D01*
X145256493Y-85376888D01*
X145495290Y-85311448D01*
X145611120Y-85064588D01*
X145676564Y-84799874D01*
X145689107Y-84527479D01*
X145648268Y-84257871D01*
X145555615Y-84001411D01*
X145495290Y-83888552D01*
X145256493Y-83823112D01*
X144479605Y-84600000D01*
X144120395Y-84600000D01*
X143343507Y-83823112D01*
X143104710Y-83888552D01*
X142988880Y-84135412D01*
X142923436Y-84400126D01*
X142910893Y-84672521D01*
X140519694Y-84672521D01*
X140521147Y-83643507D01*
X143523112Y-83643507D01*
X144300000Y-84420395D01*
X145076888Y-83643507D01*
X145011448Y-83404710D01*
X144764588Y-83288880D01*
X144499874Y-83223436D01*
X144227479Y-83210893D01*
X143957871Y-83251732D01*
X143701411Y-83344385D01*
X143588552Y-83404710D01*
X143523112Y-83643507D01*
X140521147Y-83643507D01*
X140526821Y-79627000D01*
X145787719Y-79627000D01*
X145812495Y-79624560D01*
X145836320Y-79617333D01*
X145858276Y-79605597D01*
X145877522Y-79589803D01*
X145893316Y-79570557D01*
X145905052Y-79548601D01*
X145912279Y-79524776D01*
X145914699Y-79497772D01*
X145829247Y-74627000D01*
X147490000Y-74627000D01*
X147490001Y-77350382D01*
%TA.AperFunction,Conductor*%
D30*
G36*
X147490001Y-77350382D02*
G01*
X147485114Y-77400000D01*
X147504615Y-77597994D01*
X147562368Y-77788379D01*
X147609915Y-77877333D01*
X147656154Y-77963840D01*
X147782368Y-78117633D01*
X147820902Y-78149257D01*
X148090000Y-78418355D01*
X148090001Y-114150382D01*
X148085114Y-114200000D01*
X148104615Y-114397994D01*
X148162368Y-114588379D01*
X148256154Y-114763840D01*
X148382368Y-114917633D01*
X148420901Y-114949256D01*
X150610744Y-117139100D01*
X150642367Y-117177633D01*
X150796160Y-117303847D01*
X150971620Y-117397632D01*
X151162005Y-117455385D01*
X151336962Y-117472617D01*
X151409465Y-117545120D01*
X151638273Y-117698005D01*
X151892510Y-117803314D01*
X152162408Y-117857000D01*
X152437592Y-117857000D01*
X152707490Y-117803314D01*
X152961727Y-117698005D01*
X153190535Y-117545120D01*
X153385120Y-117350535D01*
X153538005Y-117121727D01*
X153643314Y-116867490D01*
X153697000Y-116597592D01*
X153697000Y-116322408D01*
X176303000Y-116322408D01*
X176303000Y-116597592D01*
X176356686Y-116867490D01*
X176461995Y-117121727D01*
X176614880Y-117350535D01*
X176809465Y-117545120D01*
X177038273Y-117698005D01*
X177292510Y-117803314D01*
X177562408Y-117857000D01*
X177837592Y-117857000D01*
X178107490Y-117803314D01*
X178361727Y-117698005D01*
X178590535Y-117545120D01*
X178785120Y-117350535D01*
X178938005Y-117121727D01*
X179043314Y-116867490D01*
X179097000Y-116597592D01*
X179097000Y-116322408D01*
X179043314Y-116052510D01*
X178938005Y-115798273D01*
X178785120Y-115569465D01*
X178590535Y-115374880D01*
X178361727Y-115221995D01*
X178290057Y-115192308D01*
X178303023Y-115187636D01*
X178418980Y-115125656D01*
X178485960Y-114885565D01*
X177700000Y-114099605D01*
X176914040Y-114885565D01*
X176981020Y-115125656D01*
X177116760Y-115189485D01*
X177038273Y-115221995D01*
X176809465Y-115374880D01*
X176614880Y-115569465D01*
X176461995Y-115798273D01*
X176356686Y-116052510D01*
X176303000Y-116322408D01*
X153697000Y-116322408D01*
X153643314Y-116052510D01*
X153538005Y-115798273D01*
X153385120Y-115569465D01*
X153190535Y-115374880D01*
X152961727Y-115221995D01*
X152890057Y-115192308D01*
X152903023Y-115187636D01*
X153018980Y-115125656D01*
X153085960Y-114885565D01*
X152300000Y-114099605D01*
X151514040Y-114885565D01*
X151581020Y-115125656D01*
X151716760Y-115189485D01*
X151638273Y-115221995D01*
X151585568Y-115257212D01*
X150320373Y-113992017D01*
X150898090Y-113992017D01*
X150939078Y-114264133D01*
X151032364Y-114523023D01*
X151094344Y-114638980D01*
X151334435Y-114705960D01*
X152120395Y-113920000D01*
X152479605Y-113920000D01*
X153265565Y-114705960D01*
X153505656Y-114638980D01*
X153622756Y-114389952D01*
X153689023Y-114122865D01*
X153695157Y-113992017D01*
X176298090Y-113992017D01*
X176339078Y-114264133D01*
X176432364Y-114523023D01*
X176494344Y-114638980D01*
X176734435Y-114705960D01*
X177520395Y-113920000D01*
X177879605Y-113920000D01*
X178665565Y-114705960D01*
X178905656Y-114638980D01*
X179022756Y-114389952D01*
X179089023Y-114122865D01*
X179101910Y-113847983D01*
X179060922Y-113575867D01*
X178967636Y-113316977D01*
X178905656Y-113201020D01*
X178665565Y-113134040D01*
X177879605Y-113920000D01*
X177520395Y-113920000D01*
X176734435Y-113134040D01*
X176494344Y-113201020D01*
X176377244Y-113450048D01*
X176310977Y-113717135D01*
X176298090Y-113992017D01*
X153695157Y-113992017D01*
X153701910Y-113847983D01*
X153660922Y-113575867D01*
X153567636Y-113316977D01*
X153505656Y-113201020D01*
X153265565Y-113134040D01*
X152479605Y-113920000D01*
X152120395Y-113920000D01*
X151334435Y-113134040D01*
X151094344Y-113201020D01*
X150977244Y-113450048D01*
X150910977Y-113717135D01*
X150898090Y-113992017D01*
X150320373Y-113992017D01*
X150110000Y-113781645D01*
X150110000Y-79527000D01*
X152041752Y-79527000D01*
X151892510Y-79556686D01*
X151638273Y-79661995D01*
X151409465Y-79814880D01*
X151214880Y-80009465D01*
X151061995Y-80238273D01*
X150956686Y-80492510D01*
X150903000Y-80762408D01*
X150903000Y-81037592D01*
X150956686Y-81307490D01*
X151061995Y-81561727D01*
X151214880Y-81790535D01*
X151409465Y-81985120D01*
X151638273Y-82138005D01*
X151715515Y-82170000D01*
X151638273Y-82201995D01*
X151409465Y-82354880D01*
X151214880Y-82549465D01*
X151061995Y-82778273D01*
X150956686Y-83032510D01*
X150903000Y-83302408D01*
X150903000Y-83577592D01*
X150956686Y-83847490D01*
X151061995Y-84101727D01*
X151214880Y-84330535D01*
X151409465Y-84525120D01*
X151638273Y-84678005D01*
X151715515Y-84710000D01*
X151638273Y-84741995D01*
X151409465Y-84894880D01*
X151214880Y-85089465D01*
X151061995Y-85318273D01*
X150956686Y-85572510D01*
X150903000Y-85842408D01*
X150903000Y-86117592D01*
X150956686Y-86387490D01*
X151061995Y-86641727D01*
X151214880Y-86870535D01*
X151409465Y-87065120D01*
X151638273Y-87218005D01*
X151715515Y-87250000D01*
X151638273Y-87281995D01*
X151409465Y-87434880D01*
X151214880Y-87629465D01*
X151061995Y-87858273D01*
X150956686Y-88112510D01*
X150903000Y-88382408D01*
X150903000Y-88657592D01*
X150956686Y-88927490D01*
X151061995Y-89181727D01*
X151214880Y-89410535D01*
X151409465Y-89605120D01*
X151638273Y-89758005D01*
X151715515Y-89790000D01*
X151638273Y-89821995D01*
X151409465Y-89974880D01*
X151214880Y-90169465D01*
X151061995Y-90398273D01*
X150956686Y-90652510D01*
X150903000Y-90922408D01*
X150903000Y-91197592D01*
X150956686Y-91467490D01*
X151061995Y-91721727D01*
X151214880Y-91950535D01*
X151409465Y-92145120D01*
X151638273Y-92298005D01*
X151715515Y-92330000D01*
X151638273Y-92361995D01*
X151409465Y-92514880D01*
X151214880Y-92709465D01*
X151061995Y-92938273D01*
X150956686Y-93192510D01*
X150903000Y-93462408D01*
X150903000Y-93737592D01*
X150956686Y-94007490D01*
X151061995Y-94261727D01*
X151214880Y-94490535D01*
X151409465Y-94685120D01*
X151638273Y-94838005D01*
X151715515Y-94870000D01*
X151638273Y-94901995D01*
X151409465Y-95054880D01*
X151214880Y-95249465D01*
X151061995Y-95478273D01*
X150956686Y-95732510D01*
X150903000Y-96002408D01*
X150903000Y-96277592D01*
X150956686Y-96547490D01*
X151061995Y-96801727D01*
X151214880Y-97030535D01*
X151409465Y-97225120D01*
X151638273Y-97378005D01*
X151715515Y-97410000D01*
X151638273Y-97441995D01*
X151409465Y-97594880D01*
X151214880Y-97789465D01*
X151061995Y-98018273D01*
X150956686Y-98272510D01*
X150903000Y-98542408D01*
X150903000Y-98817592D01*
X150956686Y-99087490D01*
X151061995Y-99341727D01*
X151214880Y-99570535D01*
X151409465Y-99765120D01*
X151638273Y-99918005D01*
X151715515Y-99950000D01*
X151638273Y-99981995D01*
X151409465Y-100134880D01*
X151214880Y-100329465D01*
X151061995Y-100558273D01*
X150956686Y-100812510D01*
X150903000Y-101082408D01*
X150903000Y-101357592D01*
X150956686Y-101627490D01*
X151061995Y-101881727D01*
X151214880Y-102110535D01*
X151409465Y-102305120D01*
X151638273Y-102458005D01*
X151715515Y-102490000D01*
X151638273Y-102521995D01*
X151409465Y-102674880D01*
X151214880Y-102869465D01*
X151061995Y-103098273D01*
X150956686Y-103352510D01*
X150903000Y-103622408D01*
X150903000Y-103897592D01*
X150956686Y-104167490D01*
X151061995Y-104421727D01*
X151214880Y-104650535D01*
X151409465Y-104845120D01*
X151638273Y-104998005D01*
X151715515Y-105030000D01*
X151638273Y-105061995D01*
X151409465Y-105214880D01*
X151214880Y-105409465D01*
X151061995Y-105638273D01*
X150956686Y-105892510D01*
X150903000Y-106162408D01*
X150903000Y-106437592D01*
X150956686Y-106707490D01*
X151061995Y-106961727D01*
X151214880Y-107190535D01*
X151409465Y-107385120D01*
X151638273Y-107538005D01*
X151715515Y-107570000D01*
X151638273Y-107601995D01*
X151409465Y-107754880D01*
X151214880Y-107949465D01*
X151061995Y-108178273D01*
X150956686Y-108432510D01*
X150903000Y-108702408D01*
X150903000Y-108977592D01*
X150956686Y-109247490D01*
X151061995Y-109501727D01*
X151214880Y-109730535D01*
X151409465Y-109925120D01*
X151638273Y-110078005D01*
X151715515Y-110110000D01*
X151638273Y-110141995D01*
X151409465Y-110294880D01*
X151214880Y-110489465D01*
X151061995Y-110718273D01*
X150956686Y-110972510D01*
X150903000Y-111242408D01*
X150903000Y-111517592D01*
X150956686Y-111787490D01*
X151061995Y-112041727D01*
X151214880Y-112270535D01*
X151409465Y-112465120D01*
X151638273Y-112618005D01*
X151709943Y-112647692D01*
X151696977Y-112652364D01*
X151581020Y-112714344D01*
X151514040Y-112954435D01*
X152300000Y-113740395D01*
X153085960Y-112954435D01*
X153018980Y-112714344D01*
X152883240Y-112650515D01*
X152961727Y-112618005D01*
X153190535Y-112465120D01*
X153385120Y-112270535D01*
X153538005Y-112041727D01*
X153643314Y-111787490D01*
X153697000Y-111517592D01*
X153697000Y-111242408D01*
X153643314Y-110972510D01*
X153538005Y-110718273D01*
X153385120Y-110489465D01*
X153190535Y-110294880D01*
X152961727Y-110141995D01*
X152884485Y-110110000D01*
X152961727Y-110078005D01*
X153190535Y-109925120D01*
X153385120Y-109730535D01*
X153538005Y-109501727D01*
X153643314Y-109247490D01*
X153697000Y-108977592D01*
X153697000Y-108702408D01*
X153643314Y-108432510D01*
X153538005Y-108178273D01*
X153385120Y-107949465D01*
X153190535Y-107754880D01*
X152961727Y-107601995D01*
X152884485Y-107570000D01*
X152961727Y-107538005D01*
X153190535Y-107385120D01*
X153385120Y-107190535D01*
X153538005Y-106961727D01*
X153643314Y-106707490D01*
X153697000Y-106437592D01*
X153697000Y-106162408D01*
X153643314Y-105892510D01*
X153538005Y-105638273D01*
X153385120Y-105409465D01*
X153190535Y-105214880D01*
X152961727Y-105061995D01*
X152884485Y-105030000D01*
X152961727Y-104998005D01*
X153190535Y-104845120D01*
X153385120Y-104650535D01*
X153538005Y-104421727D01*
X153643314Y-104167490D01*
X153697000Y-103897592D01*
X153697000Y-103622408D01*
X153643314Y-103352510D01*
X153538005Y-103098273D01*
X153385120Y-102869465D01*
X153190535Y-102674880D01*
X152961727Y-102521995D01*
X152884485Y-102490000D01*
X152961727Y-102458005D01*
X153190535Y-102305120D01*
X153385120Y-102110535D01*
X153538005Y-101881727D01*
X153643314Y-101627490D01*
X153697000Y-101357592D01*
X153697000Y-101082408D01*
X153643314Y-100812510D01*
X153538005Y-100558273D01*
X153385120Y-100329465D01*
X153190535Y-100134880D01*
X152961727Y-99981995D01*
X152884485Y-99950000D01*
X152961727Y-99918005D01*
X153190535Y-99765120D01*
X153385120Y-99570535D01*
X153538005Y-99341727D01*
X153643314Y-99087490D01*
X153697000Y-98817592D01*
X153697000Y-98542408D01*
X153643314Y-98272510D01*
X153538005Y-98018273D01*
X153385120Y-97789465D01*
X153190535Y-97594880D01*
X152961727Y-97441995D01*
X152884485Y-97410000D01*
X152961727Y-97378005D01*
X153190535Y-97225120D01*
X153385120Y-97030535D01*
X153538005Y-96801727D01*
X153643314Y-96547490D01*
X153697000Y-96277592D01*
X153697000Y-96002408D01*
X153643314Y-95732510D01*
X153538005Y-95478273D01*
X153385120Y-95249465D01*
X153190535Y-95054880D01*
X152961727Y-94901995D01*
X152884485Y-94870000D01*
X152961727Y-94838005D01*
X153190535Y-94685120D01*
X153385120Y-94490535D01*
X153538005Y-94261727D01*
X153643314Y-94007490D01*
X153697000Y-93737592D01*
X153697000Y-93462408D01*
X153643314Y-93192510D01*
X153538005Y-92938273D01*
X153385120Y-92709465D01*
X153190535Y-92514880D01*
X152961727Y-92361995D01*
X152884485Y-92330000D01*
X152961727Y-92298005D01*
X153190535Y-92145120D01*
X153385120Y-91950535D01*
X153472341Y-91820000D01*
X157345199Y-91820000D01*
X159040000Y-93514802D01*
X159040001Y-101696288D01*
X158996063Y-101740226D01*
X158882795Y-101909744D01*
X158804774Y-102098102D01*
X158765000Y-102298061D01*
X158765000Y-102501939D01*
X158804774Y-102701898D01*
X158882795Y-102890256D01*
X158996063Y-103059774D01*
X159140226Y-103203937D01*
X159309744Y-103317205D01*
X159498102Y-103395226D01*
X159698061Y-103435000D01*
X159901939Y-103435000D01*
X160101898Y-103395226D01*
X160290256Y-103317205D01*
X160459774Y-103203937D01*
X160603937Y-103059774D01*
X160717205Y-102890256D01*
X160795226Y-102701898D01*
X160835000Y-102501939D01*
X160835000Y-102298061D01*
X160795226Y-102098102D01*
X160717205Y-101909744D01*
X160603937Y-101740226D01*
X160560000Y-101696289D01*
X160560000Y-99934801D01*
X172516201Y-111891003D01*
X172539999Y-111920001D01*
X172655724Y-112014974D01*
X172787753Y-112085546D01*
X172931014Y-112129003D01*
X173042667Y-112140000D01*
X173042676Y-112140000D01*
X173079999Y-112143676D01*
X173117322Y-112140000D01*
X176527659Y-112140000D01*
X176614880Y-112270535D01*
X176809465Y-112465120D01*
X177038273Y-112618005D01*
X177109943Y-112647692D01*
X177096977Y-112652364D01*
X176981020Y-112714344D01*
X176914040Y-112954435D01*
X177700000Y-113740395D01*
X178485960Y-112954435D01*
X178418980Y-112714344D01*
X178283240Y-112650515D01*
X178361727Y-112618005D01*
X178590535Y-112465120D01*
X178785120Y-112270535D01*
X178938005Y-112041727D01*
X179043314Y-111787490D01*
X179097000Y-111517592D01*
X179097000Y-111242408D01*
X179043314Y-110972510D01*
X178938005Y-110718273D01*
X178785120Y-110489465D01*
X178590535Y-110294880D01*
X178361727Y-110141995D01*
X178284485Y-110110000D01*
X178361727Y-110078005D01*
X178590535Y-109925120D01*
X178785120Y-109730535D01*
X178938005Y-109501727D01*
X179043314Y-109247490D01*
X179097000Y-108977592D01*
X179097000Y-108702408D01*
X179043314Y-108432510D01*
X178938005Y-108178273D01*
X178785120Y-107949465D01*
X178590535Y-107754880D01*
X178361727Y-107601995D01*
X178284485Y-107570000D01*
X178361727Y-107538005D01*
X178590535Y-107385120D01*
X178785120Y-107190535D01*
X178938005Y-106961727D01*
X179043314Y-106707490D01*
X179097000Y-106437592D01*
X179097000Y-106162408D01*
X179043314Y-105892510D01*
X178938005Y-105638273D01*
X178785120Y-105409465D01*
X178590535Y-105214880D01*
X178361727Y-105061995D01*
X178284485Y-105030000D01*
X178361727Y-104998005D01*
X178590535Y-104845120D01*
X178785120Y-104650535D01*
X178938005Y-104421727D01*
X179043314Y-104167490D01*
X179097000Y-103897592D01*
X179097000Y-103622408D01*
X179043314Y-103352510D01*
X178938005Y-103098273D01*
X178785120Y-102869465D01*
X178590535Y-102674880D01*
X178361727Y-102521995D01*
X178284485Y-102490000D01*
X178361727Y-102458005D01*
X178590535Y-102305120D01*
X178785120Y-102110535D01*
X178938005Y-101881727D01*
X179043314Y-101627490D01*
X179097000Y-101357592D01*
X179097000Y-101082408D01*
X179043314Y-100812510D01*
X178938005Y-100558273D01*
X178785120Y-100329465D01*
X178590535Y-100134880D01*
X178361727Y-99981995D01*
X178284485Y-99950000D01*
X178361727Y-99918005D01*
X178590535Y-99765120D01*
X178785120Y-99570535D01*
X178938005Y-99341727D01*
X179043314Y-99087490D01*
X179097000Y-98817592D01*
X179097000Y-98542408D01*
X179043314Y-98272510D01*
X178938005Y-98018273D01*
X178785120Y-97789465D01*
X178590535Y-97594880D01*
X178361727Y-97441995D01*
X178284485Y-97410000D01*
X178361727Y-97378005D01*
X178590535Y-97225120D01*
X178785120Y-97030535D01*
X178938005Y-96801727D01*
X179043314Y-96547490D01*
X179097000Y-96277592D01*
X179097000Y-96002408D01*
X179043314Y-95732510D01*
X178938005Y-95478273D01*
X178785120Y-95249465D01*
X178590535Y-95054880D01*
X178361727Y-94901995D01*
X178284485Y-94870000D01*
X178361727Y-94838005D01*
X178590535Y-94685120D01*
X178785120Y-94490535D01*
X178872341Y-94360000D01*
X181262678Y-94360000D01*
X181300000Y-94363676D01*
X181337322Y-94360000D01*
X181337333Y-94360000D01*
X181448986Y-94349003D01*
X181592247Y-94305546D01*
X181724276Y-94234974D01*
X181840001Y-94140001D01*
X181863804Y-94110998D01*
X182079561Y-93895241D01*
X182086771Y-99000179D01*
X182089246Y-99024952D01*
X182096507Y-99048766D01*
X182108274Y-99070706D01*
X182124095Y-99089929D01*
X182143363Y-99105696D01*
X182165336Y-99117401D01*
X182189170Y-99124595D01*
X182213771Y-99127000D01*
X194672529Y-99127000D01*
X194573471Y-125872571D01*
X189566083Y-125855605D01*
X189541299Y-125857961D01*
X189517450Y-125865107D01*
X189495454Y-125876769D01*
X189476155Y-125892498D01*
X189460296Y-125911689D01*
X189448486Y-125933606D01*
X189441178Y-125957406D01*
X189438653Y-125982783D01*
X189450790Y-134575989D01*
X188784902Y-133910101D01*
X188830537Y-133854494D01*
X188889502Y-133744180D01*
X188925812Y-133624482D01*
X188938072Y-133500000D01*
X188938072Y-132300000D01*
X188925812Y-132175518D01*
X188889502Y-132055820D01*
X188830537Y-131945506D01*
X188751185Y-131848815D01*
X188654494Y-131769463D01*
X188544180Y-131710498D01*
X188424482Y-131674188D01*
X188300000Y-131661928D01*
X187400000Y-131661928D01*
X187275518Y-131674188D01*
X187155820Y-131710498D01*
X187045506Y-131769463D01*
X186948815Y-131848815D01*
X186869463Y-131945506D01*
X186810498Y-132055820D01*
X186774188Y-132175518D01*
X186761928Y-132300000D01*
X186761928Y-133500000D01*
X186774188Y-133624482D01*
X186810498Y-133744180D01*
X186869463Y-133854494D01*
X186948815Y-133951185D01*
X187045506Y-134030537D01*
X187086569Y-134052486D01*
X187100998Y-134198985D01*
X187144454Y-134342246D01*
X187215026Y-134474276D01*
X187272122Y-134543847D01*
X187310000Y-134590001D01*
X187338998Y-134613799D01*
X189453831Y-136728632D01*
X189459392Y-140665807D01*
X188585199Y-141540000D01*
X182337333Y-141540000D01*
X182324932Y-141538779D01*
X182403937Y-141459774D01*
X182517205Y-141290256D01*
X182595226Y-141101898D01*
X182635000Y-140901939D01*
X182635000Y-140698061D01*
X182595226Y-140498102D01*
X182517205Y-140309744D01*
X182403937Y-140140226D01*
X182259774Y-139996063D01*
X182090256Y-139882795D01*
X181901898Y-139804774D01*
X181701939Y-139765000D01*
X181498061Y-139765000D01*
X181298102Y-139804774D01*
X181109744Y-139882795D01*
X180940226Y-139996063D01*
X180896289Y-140040000D01*
X179737325Y-140040000D01*
X179700000Y-140036324D01*
X179662675Y-140040000D01*
X179662667Y-140040000D01*
X179551014Y-140050997D01*
X179407753Y-140094454D01*
X179275724Y-140165026D01*
X179159999Y-140259999D01*
X179136201Y-140288997D01*
X177143998Y-142281201D01*
X177115000Y-142304999D01*
X177091202Y-142333997D01*
X177091201Y-142333998D01*
X177020026Y-142420724D01*
X176949454Y-142552754D01*
X176905998Y-142696015D01*
X176891324Y-142845000D01*
X176895001Y-142882332D01*
X176895000Y-144982023D01*
X176849742Y-145037171D01*
X176776916Y-145173418D01*
X176732071Y-145321255D01*
X176716928Y-145475000D01*
X176716928Y-147225000D01*
X176732071Y-147378745D01*
X176776916Y-147526582D01*
X176849742Y-147662829D01*
X176947749Y-147782251D01*
X177067171Y-147880258D01*
X177203418Y-147953084D01*
X177351255Y-147997929D01*
X177505000Y-148013072D01*
X177805000Y-148013072D01*
X177958745Y-147997929D01*
X178106582Y-147953084D01*
X178242829Y-147880258D01*
X178290000Y-147841546D01*
X178337171Y-147880258D01*
X178473418Y-147953084D01*
X178621255Y-147997929D01*
X178775000Y-148013072D01*
X179075000Y-148013072D01*
X179228745Y-147997929D01*
X179376582Y-147953084D01*
X179512829Y-147880258D01*
X179560000Y-147841546D01*
X179607171Y-147880258D01*
X179743418Y-147953084D01*
X179891255Y-147997929D01*
X180045000Y-148013072D01*
X180345000Y-148013072D01*
X180498745Y-147997929D01*
X180646582Y-147953084D01*
X180780936Y-147881270D01*
X180810506Y-147905537D01*
X180920820Y-147964502D01*
X181040518Y-148000812D01*
X181165000Y-148013072D01*
X181179250Y-148010000D01*
X181338000Y-147851250D01*
X181338000Y-146477000D01*
X181592000Y-146477000D01*
X181592000Y-147851250D01*
X181750750Y-148010000D01*
X181765000Y-148013072D01*
X181889482Y-148000812D01*
X182009180Y-147964502D01*
X182100000Y-147915957D01*
X182190820Y-147964502D01*
X182310518Y-148000812D01*
X182435000Y-148013072D01*
X182449250Y-148010000D01*
X182608000Y-147851250D01*
X182608000Y-146477000D01*
X182862000Y-146477000D01*
X182862000Y-147851250D01*
X183020750Y-148010000D01*
X183035000Y-148013072D01*
X183159482Y-148000812D01*
X183279180Y-147964502D01*
X183370000Y-147915957D01*
X183460820Y-147964502D01*
X183580518Y-148000812D01*
X183705000Y-148013072D01*
X183719250Y-148010000D01*
X183878000Y-147851250D01*
X183878000Y-146477000D01*
X184132000Y-146477000D01*
X184132000Y-147851250D01*
X184290750Y-148010000D01*
X184305000Y-148013072D01*
X184429482Y-148000812D01*
X184549180Y-147964502D01*
X184640000Y-147915957D01*
X184730820Y-147964502D01*
X184850518Y-148000812D01*
X184975000Y-148013072D01*
X184989250Y-148010000D01*
X185148000Y-147851250D01*
X185148000Y-146477000D01*
X185402000Y-146477000D01*
X185402000Y-147851250D01*
X185560750Y-148010000D01*
X185575000Y-148013072D01*
X185699482Y-148000812D01*
X185819180Y-147964502D01*
X185910000Y-147915957D01*
X186000820Y-147964502D01*
X186120518Y-148000812D01*
X186245000Y-148013072D01*
X186259250Y-148010000D01*
X186418000Y-147851250D01*
X186418000Y-146477000D01*
X186672000Y-146477000D01*
X186672000Y-147851250D01*
X186830750Y-148010000D01*
X186845000Y-148013072D01*
X186969482Y-148000812D01*
X187089180Y-147964502D01*
X187199494Y-147905537D01*
X187296185Y-147826185D01*
X187375537Y-147729494D01*
X187434502Y-147619180D01*
X187470812Y-147499482D01*
X187483072Y-147375000D01*
X187480000Y-146635750D01*
X187321250Y-146477000D01*
X186672000Y-146477000D01*
X186418000Y-146477000D01*
X185402000Y-146477000D01*
X185148000Y-146477000D01*
X184132000Y-146477000D01*
X183878000Y-146477000D01*
X182862000Y-146477000D01*
X182608000Y-146477000D01*
X181592000Y-146477000D01*
X181338000Y-146477000D01*
X181318000Y-146477000D01*
X181318000Y-146223000D01*
X181338000Y-146223000D01*
X181338000Y-144848750D01*
X181592000Y-144848750D01*
X181592000Y-146223000D01*
X182608000Y-146223000D01*
X182608000Y-144848750D01*
X182862000Y-144848750D01*
X182862000Y-146223000D01*
X183878000Y-146223000D01*
X183878000Y-144848750D01*
X184132000Y-144848750D01*
X184132000Y-146223000D01*
X185148000Y-146223000D01*
X185148000Y-144848750D01*
X185402000Y-144848750D01*
X185402000Y-146223000D01*
X186418000Y-146223000D01*
X186418000Y-144848750D01*
X186672000Y-144848750D01*
X186672000Y-146223000D01*
X187321250Y-146223000D01*
X187480000Y-146064250D01*
X187483072Y-145325000D01*
X187470812Y-145200518D01*
X187434502Y-145080820D01*
X187375537Y-144970506D01*
X187296185Y-144873815D01*
X187199494Y-144794463D01*
X187089180Y-144735498D01*
X186969482Y-144699188D01*
X186845000Y-144686928D01*
X186830750Y-144690000D01*
X186672000Y-144848750D01*
X186418000Y-144848750D01*
X186259250Y-144690000D01*
X186245000Y-144686928D01*
X186120518Y-144699188D01*
X186000820Y-144735498D01*
X185910000Y-144784043D01*
X185819180Y-144735498D01*
X185699482Y-144699188D01*
X185575000Y-144686928D01*
X185560750Y-144690000D01*
X185402000Y-144848750D01*
X185148000Y-144848750D01*
X184989250Y-144690000D01*
X184975000Y-144686928D01*
X184850518Y-144699188D01*
X184730820Y-144735498D01*
X184640000Y-144784043D01*
X184549180Y-144735498D01*
X184429482Y-144699188D01*
X184305000Y-144686928D01*
X184290750Y-144690000D01*
X184132000Y-144848750D01*
X183878000Y-144848750D01*
X183719250Y-144690000D01*
X183705000Y-144686928D01*
X183580518Y-144699188D01*
X183460820Y-144735498D01*
X183370000Y-144784043D01*
X183279180Y-144735498D01*
X183159482Y-144699188D01*
X183035000Y-144686928D01*
X183020750Y-144690000D01*
X182862000Y-144848750D01*
X182608000Y-144848750D01*
X182449250Y-144690000D01*
X182435000Y-144686928D01*
X182310518Y-144699188D01*
X182190820Y-144735498D01*
X182100000Y-144784043D01*
X182009180Y-144735498D01*
X181889482Y-144699188D01*
X181765000Y-144686928D01*
X181750750Y-144690000D01*
X181592000Y-144848750D01*
X181338000Y-144848750D01*
X181179250Y-144690000D01*
X181165000Y-144686928D01*
X181040518Y-144699188D01*
X180955000Y-144725130D01*
X180955000Y-144719801D01*
X182614802Y-143060000D01*
X188862678Y-143060000D01*
X188900000Y-143063676D01*
X188937322Y-143060000D01*
X188937333Y-143060000D01*
X189048986Y-143049003D01*
X189192247Y-143005546D01*
X189324276Y-142934974D01*
X189440001Y-142840001D01*
X189462424Y-142812678D01*
X189472820Y-150173000D01*
X183800000Y-150173000D01*
X183775224Y-150175440D01*
X183751399Y-150182667D01*
X183729443Y-150194403D01*
X183710197Y-150210197D01*
X183694403Y-150229443D01*
X183682667Y-150251399D01*
X183675440Y-150275224D01*
X183673000Y-150300000D01*
X183673000Y-155340000D01*
X155227000Y-155340000D01*
X155227000Y-154053663D01*
X155261595Y-154118386D01*
X155372038Y-154252962D01*
X155506614Y-154363405D01*
X155660150Y-154445472D01*
X155826746Y-154496008D01*
X156000000Y-154513072D01*
X157200000Y-154513072D01*
X157373254Y-154496008D01*
X157539850Y-154445472D01*
X157693386Y-154363405D01*
X157827962Y-154252962D01*
X157938405Y-154118386D01*
X158020472Y-153964850D01*
X158071008Y-153798254D01*
X158088072Y-153625000D01*
X158088072Y-153259742D01*
X161328715Y-153259742D01*
X161397904Y-153542745D01*
X161520975Y-153806812D01*
X161693198Y-154041795D01*
X161907954Y-154238664D01*
X162156991Y-154389854D01*
X162430739Y-154489554D01*
X162443110Y-154491476D01*
X162673000Y-154370155D01*
X162673000Y-153027000D01*
X161472768Y-153027000D01*
X161328715Y-153259742D01*
X158088072Y-153259742D01*
X158088072Y-152540258D01*
X161328715Y-152540258D01*
X161472768Y-152773000D01*
X162673000Y-152773000D01*
X162673000Y-151429845D01*
X162927000Y-151429845D01*
X162927000Y-152773000D01*
X162947000Y-152773000D01*
X162947000Y-153027000D01*
X162927000Y-153027000D01*
X162927000Y-154370155D01*
X163156890Y-154491476D01*
X163169261Y-154489554D01*
X163443009Y-154389854D01*
X163692046Y-154238664D01*
X163906802Y-154041795D01*
X163907086Y-154041407D01*
X163961595Y-154143386D01*
X164072038Y-154277962D01*
X164206614Y-154388405D01*
X164360150Y-154470472D01*
X164526746Y-154521008D01*
X164700000Y-154538072D01*
X165900000Y-154538072D01*
X166073254Y-154521008D01*
X166239850Y-154470472D01*
X166393386Y-154388405D01*
X166527962Y-154277962D01*
X166638405Y-154143386D01*
X166720472Y-153989850D01*
X166771008Y-153823254D01*
X166788072Y-153650000D01*
X166788072Y-152150000D01*
X166771008Y-151976746D01*
X166720472Y-151810150D01*
X166638405Y-151656614D01*
X166527962Y-151522038D01*
X166393386Y-151411595D01*
X166239850Y-151329528D01*
X166073254Y-151278992D01*
X165900000Y-151261928D01*
X164700000Y-151261928D01*
X164526746Y-151278992D01*
X164360150Y-151329528D01*
X164206614Y-151411595D01*
X164072038Y-151522038D01*
X163961595Y-151656614D01*
X163907086Y-151758593D01*
X163906802Y-151758205D01*
X163692046Y-151561336D01*
X163443009Y-151410146D01*
X163169261Y-151310446D01*
X163156890Y-151308524D01*
X162927000Y-151429845D01*
X162673000Y-151429845D01*
X162443110Y-151308524D01*
X162430739Y-151310446D01*
X162156991Y-151410146D01*
X161907954Y-151561336D01*
X161693198Y-151758205D01*
X161520975Y-151993188D01*
X161397904Y-152257255D01*
X161328715Y-152540258D01*
X158088072Y-152540258D01*
X158088072Y-152175000D01*
X158071008Y-152001746D01*
X158020472Y-151835150D01*
X157938405Y-151681614D01*
X157827962Y-151547038D01*
X157693386Y-151436595D01*
X157539850Y-151354528D01*
X157373254Y-151303992D01*
X157200000Y-151286928D01*
X156000000Y-151286928D01*
X155826746Y-151303992D01*
X155660150Y-151354528D01*
X155506614Y-151436595D01*
X155372038Y-151547038D01*
X155261595Y-151681614D01*
X155227000Y-151746337D01*
X155227000Y-150300000D01*
X155224560Y-150275224D01*
X155217333Y-150251399D01*
X155205597Y-150229443D01*
X155189803Y-150210197D01*
X155170557Y-150194403D01*
X155148601Y-150182667D01*
X155124776Y-150175440D01*
X155100000Y-150173000D01*
X140426851Y-150173000D01*
X140419959Y-144292702D01*
X141486903Y-144292702D01*
X141558486Y-144536671D01*
X141813996Y-144657571D01*
X142088184Y-144726300D01*
X142370512Y-144740217D01*
X142650130Y-144698787D01*
X142916292Y-144603603D01*
X143041514Y-144536671D01*
X143113097Y-144292702D01*
X142300000Y-143479605D01*
X141486903Y-144292702D01*
X140419959Y-144292702D01*
X140418878Y-143370512D01*
X140859783Y-143370512D01*
X140901213Y-143650130D01*
X140996397Y-143916292D01*
X141063329Y-144041514D01*
X141307298Y-144113097D01*
X142120395Y-143300000D01*
X142479605Y-143300000D01*
X143292702Y-144113097D01*
X143361928Y-144092785D01*
X143361928Y-144100000D01*
X143374188Y-144224482D01*
X143410498Y-144344180D01*
X143469463Y-144454494D01*
X143548815Y-144551185D01*
X143645506Y-144630537D01*
X143755820Y-144689502D01*
X143875518Y-144725812D01*
X144000000Y-144738072D01*
X145600000Y-144738072D01*
X145724482Y-144725812D01*
X145844180Y-144689502D01*
X145954494Y-144630537D01*
X146051185Y-144551185D01*
X146130537Y-144454494D01*
X146189502Y-144344180D01*
X146225812Y-144224482D01*
X146238072Y-144100000D01*
X146238072Y-142500000D01*
X146225812Y-142375518D01*
X146189502Y-142255820D01*
X146130537Y-142145506D01*
X146051185Y-142048815D01*
X145954494Y-141969463D01*
X145844180Y-141910498D01*
X145724482Y-141874188D01*
X145600000Y-141861928D01*
X144000000Y-141861928D01*
X143875518Y-141874188D01*
X143755820Y-141910498D01*
X143645506Y-141969463D01*
X143548815Y-142048815D01*
X143469463Y-142145506D01*
X143410498Y-142255820D01*
X143374188Y-142375518D01*
X143361928Y-142500000D01*
X143361928Y-142507215D01*
X143292702Y-142486903D01*
X142479605Y-143300000D01*
X142120395Y-143300000D01*
X141307298Y-142486903D01*
X141063329Y-142558486D01*
X140942429Y-142813996D01*
X140873700Y-143088184D01*
X140859783Y-143370512D01*
X140418878Y-143370512D01*
X140417632Y-142307298D01*
X141486903Y-142307298D01*
X142300000Y-143120395D01*
X143113097Y-142307298D01*
X143041514Y-142063329D01*
X142786004Y-141942429D01*
X142511816Y-141873700D01*
X142229488Y-141859783D01*
X141949870Y-141901213D01*
X141683708Y-141996397D01*
X141558486Y-142063329D01*
X141486903Y-142307298D01*
X140417632Y-142307298D01*
X140416569Y-141400000D01*
X151361928Y-141400000D01*
X151361928Y-143000000D01*
X151374188Y-143124482D01*
X151410498Y-143244180D01*
X151469463Y-143354494D01*
X151548815Y-143451185D01*
X151645506Y-143530537D01*
X151755820Y-143589502D01*
X151851943Y-143618661D01*
X151685363Y-143785241D01*
X151528320Y-144020273D01*
X151420147Y-144281426D01*
X151365000Y-144558665D01*
X151365000Y-144841335D01*
X151420147Y-145118574D01*
X151528320Y-145379727D01*
X151685363Y-145614759D01*
X151885241Y-145814637D01*
X152120273Y-145971680D01*
X152381426Y-146079853D01*
X152658665Y-146135000D01*
X152941335Y-146135000D01*
X153218574Y-146079853D01*
X153479727Y-145971680D01*
X153714759Y-145814637D01*
X153914637Y-145614759D01*
X154071680Y-145379727D01*
X154179853Y-145118574D01*
X154235000Y-144841335D01*
X154235000Y-144558665D01*
X154179853Y-144281426D01*
X154071680Y-144020273D01*
X153914637Y-143785241D01*
X153748057Y-143618661D01*
X153844180Y-143589502D01*
X153954494Y-143530537D01*
X154051185Y-143451185D01*
X154130537Y-143354494D01*
X154189502Y-143244180D01*
X154225812Y-143124482D01*
X154238072Y-143000000D01*
X154238072Y-141400000D01*
X154225812Y-141275518D01*
X154189502Y-141155820D01*
X154130537Y-141045506D01*
X154051185Y-140948815D01*
X153954494Y-140869463D01*
X153844180Y-140810498D01*
X153724482Y-140774188D01*
X153600000Y-140761928D01*
X152000000Y-140761928D01*
X151875518Y-140774188D01*
X151755820Y-140810498D01*
X151645506Y-140869463D01*
X151548815Y-140948815D01*
X151469463Y-141045506D01*
X151410498Y-141155820D01*
X151374188Y-141275518D01*
X151361928Y-141400000D01*
X140416569Y-141400000D01*
X140415153Y-140191653D01*
X170697952Y-140191653D01*
X170853962Y-140507214D01*
X171228745Y-140698020D01*
X171633551Y-140812044D01*
X172052824Y-140844902D01*
X172470451Y-140795334D01*
X172870383Y-140665243D01*
X173166038Y-140507214D01*
X173322048Y-140191653D01*
X172010000Y-138879605D01*
X170697952Y-140191653D01*
X140415153Y-140191653D01*
X140413455Y-138742824D01*
X169865098Y-138742824D01*
X169914666Y-139160451D01*
X170044757Y-139560383D01*
X170202786Y-139856038D01*
X170518347Y-140012048D01*
X171830395Y-138700000D01*
X172189605Y-138700000D01*
X173501653Y-140012048D01*
X173817214Y-139856038D01*
X174008020Y-139481255D01*
X174122044Y-139076449D01*
X174154902Y-138657176D01*
X174105334Y-138239549D01*
X173975243Y-137839617D01*
X173817214Y-137543962D01*
X173501653Y-137387952D01*
X172189605Y-138700000D01*
X171830395Y-138700000D01*
X170518347Y-137387952D01*
X170202786Y-137543962D01*
X170011980Y-137918745D01*
X169897956Y-138323551D01*
X169865098Y-138742824D01*
X140413455Y-138742824D01*
X140411656Y-137208347D01*
X170697952Y-137208347D01*
X172010000Y-138520395D01*
X173322048Y-137208347D01*
X173166038Y-136892786D01*
X172791255Y-136701980D01*
X172386449Y-136587956D01*
X171967176Y-136555098D01*
X171549549Y-136604666D01*
X171149617Y-136734757D01*
X170853962Y-136892786D01*
X170697952Y-137208347D01*
X140411656Y-137208347D01*
X140410320Y-136069039D01*
X141608096Y-136069039D01*
X141625633Y-136151818D01*
X141736285Y-136411646D01*
X141895500Y-136644895D01*
X142097161Y-136842601D01*
X142333517Y-136997166D01*
X142595486Y-137102650D01*
X142873000Y-137155000D01*
X143273000Y-137155000D01*
X143273000Y-135847000D01*
X143527000Y-135847000D01*
X143527000Y-137155000D01*
X143927000Y-137155000D01*
X144204514Y-137102650D01*
X144466483Y-136997166D01*
X144702839Y-136842601D01*
X144904500Y-136644895D01*
X145063715Y-136411646D01*
X145174367Y-136151818D01*
X145191904Y-136069039D01*
X145069915Y-135847000D01*
X143527000Y-135847000D01*
X143273000Y-135847000D01*
X141730085Y-135847000D01*
X141608096Y-136069039D01*
X140410320Y-136069039D01*
X140406933Y-133180000D01*
X141558057Y-133180000D01*
X141585764Y-133461309D01*
X141667818Y-133731808D01*
X141801068Y-133981101D01*
X141980392Y-134199608D01*
X142198899Y-134378932D01*
X142326741Y-134447265D01*
X142097161Y-134597399D01*
X141895500Y-134795105D01*
X141736285Y-135028354D01*
X141625633Y-135288182D01*
X141608096Y-135370961D01*
X141730085Y-135593000D01*
X143273000Y-135593000D01*
X143273000Y-135573000D01*
X143527000Y-135573000D01*
X143527000Y-135593000D01*
X145069915Y-135593000D01*
X145191904Y-135370961D01*
X145174367Y-135288182D01*
X145063715Y-135028354D01*
X144904500Y-134795105D01*
X144702839Y-134597399D01*
X144473259Y-134447265D01*
X144601101Y-134378932D01*
X144819608Y-134199608D01*
X144998932Y-133981101D01*
X145132182Y-133731808D01*
X145214236Y-133461309D01*
X145241943Y-133180000D01*
X145214236Y-132898691D01*
X145132182Y-132628192D01*
X144998932Y-132378899D01*
X144819608Y-132160392D01*
X144601101Y-131981068D01*
X144473259Y-131912735D01*
X144702839Y-131762601D01*
X144904500Y-131564895D01*
X145063715Y-131331646D01*
X145174367Y-131071818D01*
X145191904Y-130989039D01*
X145069915Y-130767000D01*
X143527000Y-130767000D01*
X143527000Y-130787000D01*
X143273000Y-130787000D01*
X143273000Y-130767000D01*
X141730085Y-130767000D01*
X141608096Y-130989039D01*
X141625633Y-131071818D01*
X141736285Y-131331646D01*
X141895500Y-131564895D01*
X142097161Y-131762601D01*
X142326741Y-131912735D01*
X142198899Y-131981068D01*
X141980392Y-132160392D01*
X141801068Y-132378899D01*
X141667818Y-132628192D01*
X141585764Y-132898691D01*
X141558057Y-133180000D01*
X140406933Y-133180000D01*
X140403148Y-129951534D01*
X140400679Y-129926761D01*
X140393424Y-129902945D01*
X140381662Y-129881002D01*
X140367661Y-129863624D01*
X137900778Y-127300000D01*
X141561928Y-127300000D01*
X141561928Y-128900000D01*
X141574188Y-129024482D01*
X141610498Y-129144180D01*
X141669463Y-129254494D01*
X141748815Y-129351185D01*
X141845506Y-129430537D01*
X141955820Y-129489502D01*
X142075518Y-129525812D01*
X142087387Y-129526981D01*
X141895500Y-129715105D01*
X141736285Y-129948354D01*
X141625633Y-130208182D01*
X141608096Y-130290961D01*
X141730085Y-130513000D01*
X143273000Y-130513000D01*
X143273000Y-130493000D01*
X143527000Y-130493000D01*
X143527000Y-130513000D01*
X145069915Y-130513000D01*
X145191904Y-130290961D01*
X145174367Y-130208182D01*
X145063715Y-129948354D01*
X144904500Y-129715105D01*
X144712613Y-129526981D01*
X144724482Y-129525812D01*
X144844180Y-129489502D01*
X144954494Y-129430537D01*
X145051185Y-129351185D01*
X145130537Y-129254494D01*
X145189502Y-129144180D01*
X145225812Y-129024482D01*
X145238072Y-128900000D01*
X145238072Y-128100000D01*
X149178057Y-128100000D01*
X149205764Y-128381309D01*
X149287818Y-128651808D01*
X149421068Y-128901101D01*
X149600392Y-129119608D01*
X149818899Y-129298932D01*
X149951858Y-129370000D01*
X149818899Y-129441068D01*
X149600392Y-129620392D01*
X149421068Y-129838899D01*
X149287818Y-130088192D01*
X149205764Y-130358691D01*
X149178057Y-130640000D01*
X149205764Y-130921309D01*
X149287818Y-131191808D01*
X149421068Y-131441101D01*
X149600392Y-131659608D01*
X149818899Y-131838932D01*
X149951858Y-131910000D01*
X149818899Y-131981068D01*
X149600392Y-132160392D01*
X149421068Y-132378899D01*
X149287818Y-132628192D01*
X149205764Y-132898691D01*
X149178057Y-133180000D01*
X149205764Y-133461309D01*
X149287818Y-133731808D01*
X149421068Y-133981101D01*
X149600392Y-134199608D01*
X149818899Y-134378932D01*
X149951858Y-134450000D01*
X149818899Y-134521068D01*
X149600392Y-134700392D01*
X149421068Y-134918899D01*
X149287818Y-135168192D01*
X149205764Y-135438691D01*
X149178057Y-135720000D01*
X149205764Y-136001309D01*
X149287818Y-136271808D01*
X149421068Y-136521101D01*
X149600392Y-136739608D01*
X149818899Y-136918932D01*
X150068192Y-137052182D01*
X150338691Y-137134236D01*
X150549508Y-137155000D01*
X151490492Y-137155000D01*
X151701309Y-137134236D01*
X151971808Y-137052182D01*
X152221101Y-136918932D01*
X152439608Y-136739608D01*
X152618932Y-136521101D01*
X152752182Y-136271808D01*
X152834236Y-136001309D01*
X152861943Y-135720000D01*
X152834236Y-135438691D01*
X152752182Y-135168192D01*
X152618932Y-134918899D01*
X152439608Y-134700392D01*
X152221101Y-134521068D01*
X152088142Y-134450000D01*
X152134913Y-134425000D01*
X173136928Y-134425000D01*
X173149188Y-134549482D01*
X173185498Y-134669180D01*
X173244463Y-134779494D01*
X173323815Y-134876185D01*
X173420506Y-134955537D01*
X173530820Y-135014502D01*
X173650518Y-135050812D01*
X173775000Y-135063072D01*
X174076750Y-135060000D01*
X174235500Y-134901250D01*
X174235500Y-133827000D01*
X173298750Y-133827000D01*
X173140000Y-133985750D01*
X173136928Y-134425000D01*
X152134913Y-134425000D01*
X152221101Y-134378932D01*
X152439608Y-134199608D01*
X152618932Y-133981101D01*
X152752182Y-133731808D01*
X152834236Y-133461309D01*
X152861943Y-133180000D01*
X152841752Y-132975000D01*
X173136928Y-132975000D01*
X173140000Y-133414250D01*
X173298750Y-133573000D01*
X174235500Y-133573000D01*
X174235500Y-132498750D01*
X174076750Y-132340000D01*
X173775000Y-132336928D01*
X173650518Y-132349188D01*
X173530820Y-132385498D01*
X173420506Y-132444463D01*
X173323815Y-132523815D01*
X173244463Y-132620506D01*
X173185498Y-132730820D01*
X173149188Y-132850518D01*
X173136928Y-132975000D01*
X152841752Y-132975000D01*
X152834236Y-132898691D01*
X152752182Y-132628192D01*
X152618932Y-132378899D01*
X152439608Y-132160392D01*
X152221101Y-131981068D01*
X152088142Y-131910000D01*
X152221101Y-131838932D01*
X152439608Y-131659608D01*
X152618932Y-131441101D01*
X152752182Y-131191808D01*
X152834236Y-130921309D01*
X152861943Y-130640000D01*
X152834236Y-130358691D01*
X152752182Y-130088192D01*
X152618932Y-129838899D01*
X152587009Y-129800000D01*
X153161928Y-129800000D01*
X153161928Y-131400000D01*
X153174188Y-131524482D01*
X153210498Y-131644180D01*
X153269463Y-131754494D01*
X153348815Y-131851185D01*
X153445506Y-131930537D01*
X153555820Y-131989502D01*
X153675518Y-132025812D01*
X153800000Y-132038072D01*
X155400000Y-132038072D01*
X155524482Y-132025812D01*
X155644180Y-131989502D01*
X155754494Y-131930537D01*
X155851185Y-131851185D01*
X155930537Y-131754494D01*
X155989502Y-131644180D01*
X156005117Y-131592702D01*
X158786903Y-131592702D01*
X158858486Y-131836671D01*
X159113996Y-131957571D01*
X159388184Y-132026300D01*
X159670512Y-132040217D01*
X159950130Y-131998787D01*
X160216292Y-131903603D01*
X160341514Y-131836671D01*
X160413097Y-131592702D01*
X159600000Y-130779605D01*
X158786903Y-131592702D01*
X156005117Y-131592702D01*
X156025812Y-131524482D01*
X156038072Y-131400000D01*
X156038072Y-130670512D01*
X158159783Y-130670512D01*
X158201213Y-130950130D01*
X158296397Y-131216292D01*
X158363329Y-131341514D01*
X158607298Y-131413097D01*
X159420395Y-130600000D01*
X159779605Y-130600000D01*
X160592702Y-131413097D01*
X160836671Y-131341514D01*
X160957571Y-131086004D01*
X161022995Y-130825000D01*
X173036928Y-130825000D01*
X173049188Y-130949482D01*
X173085498Y-131069180D01*
X173144463Y-131179494D01*
X173223815Y-131276185D01*
X173320506Y-131355537D01*
X173430820Y-131414502D01*
X173550518Y-131450812D01*
X173675000Y-131463072D01*
X173976750Y-131460000D01*
X174135500Y-131301250D01*
X174135500Y-130227000D01*
X173198750Y-130227000D01*
X173040000Y-130385750D01*
X173036928Y-130825000D01*
X161022995Y-130825000D01*
X161026300Y-130811816D01*
X161040217Y-130529488D01*
X160998787Y-130249870D01*
X160903603Y-129983708D01*
X160836671Y-129858486D01*
X160592702Y-129786903D01*
X159779605Y-130600000D01*
X159420395Y-130600000D01*
X158607298Y-129786903D01*
X158363329Y-129858486D01*
X158242429Y-130113996D01*
X158173700Y-130388184D01*
X158159783Y-130670512D01*
X156038072Y-130670512D01*
X156038072Y-129800000D01*
X156025812Y-129675518D01*
X156005118Y-129607298D01*
X158786903Y-129607298D01*
X159600000Y-130420395D01*
X160413097Y-129607298D01*
X160344939Y-129375000D01*
X173036928Y-129375000D01*
X173040000Y-129814250D01*
X173198750Y-129973000D01*
X174135500Y-129973000D01*
X174135500Y-128898750D01*
X174389500Y-128898750D01*
X174389500Y-129973000D01*
X174409500Y-129973000D01*
X174409500Y-130227000D01*
X174389500Y-130227000D01*
X174389500Y-131301250D01*
X174548250Y-131460000D01*
X174850000Y-131463072D01*
X174974482Y-131450812D01*
X175094180Y-131414502D01*
X175204494Y-131355537D01*
X175301185Y-131276185D01*
X175366658Y-131196406D01*
X175372038Y-131202962D01*
X175506614Y-131313405D01*
X175660150Y-131395472D01*
X175826746Y-131446008D01*
X176000000Y-131463072D01*
X176675000Y-131463072D01*
X176848254Y-131446008D01*
X177014850Y-131395472D01*
X177168386Y-131313405D01*
X177302962Y-131202962D01*
X177379253Y-131110000D01*
X177915001Y-131110000D01*
X177915000Y-132690000D01*
X177479253Y-132690000D01*
X177402962Y-132597038D01*
X177268386Y-132486595D01*
X177114850Y-132404528D01*
X176948254Y-132353992D01*
X176775000Y-132336928D01*
X176100000Y-132336928D01*
X175926746Y-132353992D01*
X175760150Y-132404528D01*
X175606614Y-132486595D01*
X175472038Y-132597038D01*
X175466658Y-132603594D01*
X175401185Y-132523815D01*
X175304494Y-132444463D01*
X175194180Y-132385498D01*
X175074482Y-132349188D01*
X174950000Y-132336928D01*
X174648250Y-132340000D01*
X174489500Y-132498750D01*
X174489500Y-133573000D01*
X174509500Y-133573000D01*
X174509500Y-133827000D01*
X174489500Y-133827000D01*
X174489500Y-134901250D01*
X174648250Y-135060000D01*
X174950000Y-135063072D01*
X175074482Y-135050812D01*
X175194180Y-135014502D01*
X175304494Y-134955537D01*
X175401185Y-134876185D01*
X175466658Y-134796406D01*
X175472038Y-134802962D01*
X175606614Y-134913405D01*
X175760150Y-134995472D01*
X175926746Y-135046008D01*
X176100000Y-135063072D01*
X176775000Y-135063072D01*
X176948254Y-135046008D01*
X177114850Y-134995472D01*
X177268386Y-134913405D01*
X177402962Y-134802962D01*
X177479253Y-134710000D01*
X177915001Y-134710000D01*
X177915000Y-135397762D01*
X177805000Y-135386928D01*
X177505000Y-135386928D01*
X177351255Y-135402071D01*
X177203418Y-135446916D01*
X177067171Y-135519742D01*
X176947749Y-135617749D01*
X176849742Y-135737171D01*
X176776916Y-135873418D01*
X176732071Y-136021255D01*
X176716928Y-136175000D01*
X176716928Y-137925000D01*
X176732071Y-138078745D01*
X176776916Y-138226582D01*
X176849742Y-138362829D01*
X176947749Y-138482251D01*
X177067171Y-138580258D01*
X177203418Y-138653084D01*
X177351255Y-138697929D01*
X177505000Y-138713072D01*
X177805000Y-138713072D01*
X177958745Y-138697929D01*
X178106582Y-138653084D01*
X178242829Y-138580258D01*
X178290000Y-138541546D01*
X178337171Y-138580258D01*
X178473418Y-138653084D01*
X178621255Y-138697929D01*
X178775000Y-138713072D01*
X179075000Y-138713072D01*
X179228745Y-138697929D01*
X179376582Y-138653084D01*
X179512829Y-138580258D01*
X179560000Y-138541546D01*
X179607171Y-138580258D01*
X179743418Y-138653084D01*
X179891255Y-138697929D01*
X180045000Y-138713072D01*
X180345000Y-138713072D01*
X180498745Y-138697929D01*
X180646582Y-138653084D01*
X180782829Y-138580258D01*
X180830000Y-138541546D01*
X180877171Y-138580258D01*
X181013418Y-138653084D01*
X181161255Y-138697929D01*
X181315000Y-138713072D01*
X181615000Y-138713072D01*
X181768745Y-138697929D01*
X181916582Y-138653084D01*
X182050936Y-138581270D01*
X182080506Y-138605537D01*
X182190820Y-138664502D01*
X182310518Y-138700812D01*
X182435000Y-138713072D01*
X182449250Y-138710000D01*
X182608000Y-138551250D01*
X182608000Y-137177000D01*
X182862000Y-137177000D01*
X182862000Y-138551250D01*
X183020750Y-138710000D01*
X183035000Y-138713072D01*
X183159482Y-138700812D01*
X183279180Y-138664502D01*
X183370000Y-138615957D01*
X183460820Y-138664502D01*
X183580518Y-138700812D01*
X183705000Y-138713072D01*
X183719250Y-138710000D01*
X183878000Y-138551250D01*
X183878000Y-137177000D01*
X184132000Y-137177000D01*
X184132000Y-138551250D01*
X184290750Y-138710000D01*
X184305000Y-138713072D01*
X184429482Y-138700812D01*
X184549180Y-138664502D01*
X184640000Y-138615957D01*
X184730820Y-138664502D01*
X184850518Y-138700812D01*
X184975000Y-138713072D01*
X184989250Y-138710000D01*
X185148000Y-138551250D01*
X185148000Y-137177000D01*
X185402000Y-137177000D01*
X185402000Y-138551250D01*
X185560750Y-138710000D01*
X185575000Y-138713072D01*
X185699482Y-138700812D01*
X185819180Y-138664502D01*
X185910000Y-138615957D01*
X186000820Y-138664502D01*
X186120518Y-138700812D01*
X186245000Y-138713072D01*
X186259250Y-138710000D01*
X186418000Y-138551250D01*
X186418000Y-137177000D01*
X186672000Y-137177000D01*
X186672000Y-138551250D01*
X186830750Y-138710000D01*
X186845000Y-138713072D01*
X186969482Y-138700812D01*
X187089180Y-138664502D01*
X187199494Y-138605537D01*
X187296185Y-138526185D01*
X187375537Y-138429494D01*
X187434502Y-138319180D01*
X187470812Y-138199482D01*
X187483072Y-138075000D01*
X187480000Y-137335750D01*
X187321250Y-137177000D01*
X186672000Y-137177000D01*
X186418000Y-137177000D01*
X185402000Y-137177000D01*
X185148000Y-137177000D01*
X184132000Y-137177000D01*
X183878000Y-137177000D01*
X182862000Y-137177000D01*
X182608000Y-137177000D01*
X182588000Y-137177000D01*
X182588000Y-136923000D01*
X182608000Y-136923000D01*
X182608000Y-135548750D01*
X182862000Y-135548750D01*
X182862000Y-136923000D01*
X183878000Y-136923000D01*
X183878000Y-135548750D01*
X184132000Y-135548750D01*
X184132000Y-136923000D01*
X185148000Y-136923000D01*
X185148000Y-135548750D01*
X185402000Y-135548750D01*
X185402000Y-136923000D01*
X186418000Y-136923000D01*
X186418000Y-135548750D01*
X186672000Y-135548750D01*
X186672000Y-136923000D01*
X187321250Y-136923000D01*
X187480000Y-136764250D01*
X187483072Y-136025000D01*
X187470812Y-135900518D01*
X187434502Y-135780820D01*
X187375537Y-135670506D01*
X187296185Y-135573815D01*
X187199494Y-135494463D01*
X187089180Y-135435498D01*
X186969482Y-135399188D01*
X186845000Y-135386928D01*
X186830750Y-135390000D01*
X186672000Y-135548750D01*
X186418000Y-135548750D01*
X186259250Y-135390000D01*
X186245000Y-135386928D01*
X186120518Y-135399188D01*
X186000820Y-135435498D01*
X185910000Y-135484043D01*
X185819180Y-135435498D01*
X185699482Y-135399188D01*
X185575000Y-135386928D01*
X185560750Y-135390000D01*
X185402000Y-135548750D01*
X185148000Y-135548750D01*
X184989250Y-135390000D01*
X184975000Y-135386928D01*
X184850518Y-135399188D01*
X184730820Y-135435498D01*
X184640000Y-135484043D01*
X184549180Y-135435498D01*
X184429482Y-135399188D01*
X184305000Y-135386928D01*
X184290750Y-135390000D01*
X184132000Y-135548750D01*
X183878000Y-135548750D01*
X183719250Y-135390000D01*
X183705000Y-135386928D01*
X183580518Y-135399188D01*
X183460820Y-135435498D01*
X183370000Y-135484043D01*
X183279180Y-135435498D01*
X183159482Y-135399188D01*
X183035000Y-135386928D01*
X183020750Y-135390000D01*
X182862000Y-135548750D01*
X182608000Y-135548750D01*
X182449250Y-135390000D01*
X182435000Y-135386928D01*
X182310518Y-135399188D01*
X182190820Y-135435498D01*
X182080506Y-135494463D01*
X182050936Y-135518730D01*
X181916582Y-135446916D01*
X181768745Y-135402071D01*
X181615000Y-135386928D01*
X181315000Y-135386928D01*
X181161255Y-135402071D01*
X181085644Y-135425007D01*
X181112205Y-135385256D01*
X181190226Y-135196898D01*
X181230000Y-134996939D01*
X181230000Y-134793061D01*
X181190226Y-134593102D01*
X181112205Y-134404744D01*
X180998937Y-134235226D01*
X180854774Y-134091063D01*
X180685256Y-133977795D01*
X180496898Y-133899774D01*
X180296939Y-133860000D01*
X180093061Y-133860000D01*
X179935000Y-133891440D01*
X179935000Y-133524606D01*
X179939886Y-133475001D01*
X179935000Y-133425392D01*
X179935000Y-130910000D01*
X180166263Y-130910000D01*
X180222038Y-130977962D01*
X180356613Y-131088405D01*
X180510149Y-131170472D01*
X180676745Y-131221008D01*
X180849999Y-131238072D01*
X181550001Y-131238072D01*
X181723255Y-131221008D01*
X181889851Y-131170472D01*
X182043387Y-131088405D01*
X182177962Y-130977962D01*
X182200000Y-130951109D01*
X182222038Y-130977962D01*
X182356613Y-131088405D01*
X182440001Y-131132977D01*
X182440001Y-131512668D01*
X182436324Y-131550000D01*
X182450998Y-131698985D01*
X182494454Y-131842246D01*
X182565026Y-131974276D01*
X182617383Y-132038072D01*
X182660000Y-132090001D01*
X182688998Y-132113799D01*
X183461928Y-132886730D01*
X183461928Y-133500000D01*
X183474188Y-133624482D01*
X183510498Y-133744180D01*
X183569463Y-133854494D01*
X183648815Y-133951185D01*
X183745506Y-134030537D01*
X183855820Y-134089502D01*
X183975518Y-134125812D01*
X184100000Y-134138072D01*
X185000000Y-134138072D01*
X185124482Y-134125812D01*
X185244180Y-134089502D01*
X185354494Y-134030537D01*
X185451185Y-133951185D01*
X185530537Y-133854494D01*
X185589502Y-133744180D01*
X185625812Y-133624482D01*
X185638072Y-133500000D01*
X185638072Y-132300000D01*
X185625812Y-132175518D01*
X185589502Y-132055820D01*
X185530537Y-131945506D01*
X185451185Y-131848815D01*
X185354494Y-131769463D01*
X185244180Y-131710498D01*
X185124482Y-131674188D01*
X185000000Y-131661928D01*
X184386729Y-131661928D01*
X183960000Y-131235199D01*
X183960000Y-131132976D01*
X184043387Y-131088405D01*
X184177962Y-130977962D01*
X184288405Y-130843387D01*
X184370472Y-130689851D01*
X184421008Y-130523255D01*
X184438072Y-130350001D01*
X184438072Y-129449999D01*
X184421008Y-129276745D01*
X184370472Y-129110149D01*
X184288405Y-128956613D01*
X184177962Y-128822038D01*
X184043387Y-128711595D01*
X183895700Y-128632655D01*
X184216054Y-128312301D01*
X184301898Y-128295226D01*
X184490256Y-128217205D01*
X184659774Y-128103937D01*
X184803937Y-127959774D01*
X184917205Y-127790256D01*
X184995226Y-127601898D01*
X185035000Y-127401939D01*
X185035000Y-127198061D01*
X184995226Y-126998102D01*
X184917205Y-126809744D01*
X184803937Y-126640226D01*
X184659774Y-126496063D01*
X184490256Y-126382795D01*
X184301898Y-126304774D01*
X184101939Y-126265000D01*
X183898061Y-126265000D01*
X183793940Y-126285711D01*
X183750394Y-126290000D01*
X183750392Y-126290000D01*
X183602006Y-126304615D01*
X183411620Y-126362368D01*
X183236160Y-126456153D01*
X183082367Y-126582367D01*
X183050739Y-126620906D01*
X181109717Y-128561928D01*
X180849999Y-128561928D01*
X180676745Y-128578992D01*
X180510149Y-128629528D01*
X180356613Y-128711595D01*
X180222038Y-128822038D01*
X180166263Y-128890000D01*
X179099606Y-128890000D01*
X179049998Y-128885114D01*
X179000390Y-128890000D01*
X178852004Y-128904615D01*
X178661618Y-128962368D01*
X178486158Y-129056153D01*
X178444915Y-129090000D01*
X177379253Y-129090000D01*
X177302962Y-128997038D01*
X177168386Y-128886595D01*
X177014850Y-128804528D01*
X176848254Y-128753992D01*
X176675000Y-128736928D01*
X176000000Y-128736928D01*
X175826746Y-128753992D01*
X175660150Y-128804528D01*
X175506614Y-128886595D01*
X175372038Y-128997038D01*
X175366658Y-129003594D01*
X175301185Y-128923815D01*
X175204494Y-128844463D01*
X175094180Y-128785498D01*
X174974482Y-128749188D01*
X174850000Y-128736928D01*
X174548250Y-128740000D01*
X174389500Y-128898750D01*
X174135500Y-128898750D01*
X173976750Y-128740000D01*
X173675000Y-128736928D01*
X173550518Y-128749188D01*
X173430820Y-128785498D01*
X173320506Y-128844463D01*
X173223815Y-128923815D01*
X173144463Y-129020506D01*
X173085498Y-129130820D01*
X173049188Y-129250518D01*
X173036928Y-129375000D01*
X160344939Y-129375000D01*
X160341514Y-129363329D01*
X160086004Y-129242429D01*
X159811816Y-129173700D01*
X159529488Y-129159783D01*
X159249870Y-129201213D01*
X158983708Y-129296397D01*
X158858486Y-129363329D01*
X158786903Y-129607298D01*
X156005118Y-129607298D01*
X155989502Y-129555820D01*
X155930537Y-129445506D01*
X155851185Y-129348815D01*
X155754494Y-129269463D01*
X155644180Y-129210498D01*
X155524482Y-129174188D01*
X155400000Y-129161928D01*
X153800000Y-129161928D01*
X153675518Y-129174188D01*
X153555820Y-129210498D01*
X153445506Y-129269463D01*
X153348815Y-129348815D01*
X153269463Y-129445506D01*
X153210498Y-129555820D01*
X153174188Y-129675518D01*
X153161928Y-129800000D01*
X152587009Y-129800000D01*
X152439608Y-129620392D01*
X152221101Y-129441068D01*
X152088142Y-129370000D01*
X152221101Y-129298932D01*
X152439608Y-129119608D01*
X152618932Y-128901101D01*
X152752182Y-128651808D01*
X152834236Y-128381309D01*
X152861943Y-128100000D01*
X152834236Y-127818691D01*
X152752182Y-127548192D01*
X152618932Y-127298899D01*
X152439608Y-127080392D01*
X152221101Y-126901068D01*
X151971808Y-126767818D01*
X151701309Y-126685764D01*
X151490492Y-126665000D01*
X150549508Y-126665000D01*
X150338691Y-126685764D01*
X150068192Y-126767818D01*
X149818899Y-126901068D01*
X149600392Y-127080392D01*
X149421068Y-127298899D01*
X149287818Y-127548192D01*
X149205764Y-127818691D01*
X149178057Y-128100000D01*
X145238072Y-128100000D01*
X145238072Y-127300000D01*
X145225812Y-127175518D01*
X145189502Y-127055820D01*
X145130537Y-126945506D01*
X145051185Y-126848815D01*
X144954494Y-126769463D01*
X144844180Y-126710498D01*
X144724482Y-126674188D01*
X144600000Y-126661928D01*
X142200000Y-126661928D01*
X142075518Y-126674188D01*
X141955820Y-126710498D01*
X141845506Y-126769463D01*
X141748815Y-126848815D01*
X141669463Y-126945506D01*
X141610498Y-127055820D01*
X141574188Y-127175518D01*
X141561928Y-127300000D01*
X137900778Y-127300000D01*
X136468872Y-125811941D01*
X136449934Y-125795780D01*
X136428207Y-125783623D01*
X136404526Y-125775940D01*
X136377359Y-125773000D01*
X134727471Y-125773000D01*
X134797926Y-106750000D01*
X137411928Y-106750000D01*
X137424188Y-106874482D01*
X137460498Y-106994180D01*
X137519463Y-107104494D01*
X137598815Y-107201185D01*
X137695506Y-107280537D01*
X137805820Y-107339502D01*
X137925518Y-107375812D01*
X138050000Y-107388072D01*
X138414250Y-107385000D01*
X138573000Y-107226250D01*
X138573000Y-106227000D01*
X137573750Y-106227000D01*
X137415000Y-106385750D01*
X137411928Y-106750000D01*
X134797926Y-106750000D01*
X134802741Y-105450000D01*
X137411928Y-105450000D01*
X137415000Y-105814250D01*
X137573750Y-105973000D01*
X138573000Y-105973000D01*
X138573000Y-105953000D01*
X138827000Y-105953000D01*
X138827000Y-105973000D01*
X138847000Y-105973000D01*
X138847000Y-106227000D01*
X138827000Y-106227000D01*
X138827000Y-107226250D01*
X138985750Y-107385000D01*
X139350000Y-107388072D01*
X139474482Y-107375812D01*
X139594180Y-107339502D01*
X139704494Y-107280537D01*
X139801185Y-107201185D01*
X139880537Y-107104494D01*
X139939502Y-106994180D01*
X139975812Y-106874482D01*
X139988072Y-106750000D01*
X139985000Y-106385750D01*
X139826252Y-106227002D01*
X139955088Y-106227002D01*
X140004381Y-106474821D01*
X140101247Y-106708676D01*
X140241875Y-106919140D01*
X140420860Y-107098125D01*
X140631324Y-107238753D01*
X140865179Y-107335619D01*
X141113439Y-107385000D01*
X141366561Y-107385000D01*
X141614821Y-107335619D01*
X141848676Y-107238753D01*
X142059140Y-107098125D01*
X142238125Y-106919140D01*
X142378753Y-106708676D01*
X142475619Y-106474821D01*
X142525000Y-106226561D01*
X142525000Y-105973439D01*
X142475619Y-105725179D01*
X142378753Y-105491324D01*
X142238125Y-105280860D01*
X142059140Y-105101875D01*
X141848676Y-104961247D01*
X141614821Y-104864381D01*
X141366561Y-104815000D01*
X141255000Y-104815000D01*
X141255000Y-104703439D01*
X141205619Y-104455179D01*
X141108753Y-104221324D01*
X140968125Y-104010860D01*
X140789140Y-103831875D01*
X140578676Y-103691247D01*
X140344821Y-103594381D01*
X140096561Y-103545000D01*
X139843439Y-103545000D01*
X139595179Y-103594381D01*
X139361324Y-103691247D01*
X139150860Y-103831875D01*
X138971875Y-104010860D01*
X138831247Y-104221324D01*
X138734381Y-104455179D01*
X138685000Y-104703439D01*
X138685000Y-104815000D01*
X138572998Y-104815000D01*
X138572998Y-104973748D01*
X138414250Y-104815000D01*
X138050000Y-104811928D01*
X137925518Y-104824188D01*
X137805820Y-104860498D01*
X137695506Y-104919463D01*
X137598815Y-104998815D01*
X137519463Y-105095506D01*
X137460498Y-105205820D01*
X137424188Y-105325518D01*
X137411928Y-105450000D01*
X134802741Y-105450000D01*
X134826530Y-99027000D01*
X140372599Y-99027000D01*
X140397375Y-99024560D01*
X140421200Y-99017333D01*
X140443156Y-99005597D01*
X140462402Y-98989803D01*
X140478196Y-98970557D01*
X140489932Y-98948601D01*
X140497159Y-98924776D01*
X140499599Y-98900179D01*
X140512921Y-89467458D01*
X142915700Y-89467458D01*
X142915700Y-89740142D01*
X142968898Y-90007585D01*
X143073249Y-90259512D01*
X143224744Y-90486240D01*
X143417560Y-90679056D01*
X143644288Y-90830551D01*
X143896215Y-90934902D01*
X144163658Y-90988100D01*
X144436342Y-90988100D01*
X144703785Y-90934902D01*
X144955712Y-90830551D01*
X145182440Y-90679056D01*
X145375256Y-90486240D01*
X145526751Y-90259512D01*
X145631102Y-90007585D01*
X145684300Y-89740142D01*
X145684300Y-89467458D01*
X145631102Y-89200015D01*
X145526751Y-88948088D01*
X145375256Y-88721360D01*
X145182440Y-88528544D01*
X144955712Y-88377049D01*
X144703785Y-88272698D01*
X144436342Y-88219500D01*
X144163658Y-88219500D01*
X143896215Y-88272698D01*
X143644288Y-88377049D01*
X143417560Y-88528544D01*
X143224744Y-88721360D01*
X143073249Y-88948088D01*
X142968898Y-89200015D01*
X142915700Y-89467458D01*
X140512921Y-89467458D01*
X140518445Y-85556493D01*
X143523112Y-85556493D01*
X143588552Y-85795290D01*
X143835412Y-85911120D01*
X144100126Y-85976564D01*
X144372521Y-85989107D01*
X144642129Y-85948268D01*
X144898589Y-85855615D01*
X145011448Y-85795290D01*
X145076888Y-85556493D01*
X144300000Y-84779605D01*
X143523112Y-85556493D01*
X140518445Y-85556493D01*
X140519694Y-84672521D01*
X142910893Y-84672521D01*
X142951732Y-84942129D01*
X143044385Y-85198589D01*
X143104710Y-85311448D01*
X143343507Y-85376888D01*
X144120395Y-84600000D01*
X144479605Y-84600000D01*
X145256493Y-85376888D01*
X145495290Y-85311448D01*
X145611120Y-85064588D01*
X145676564Y-84799874D01*
X145689107Y-84527479D01*
X145648268Y-84257871D01*
X145555615Y-84001411D01*
X145495290Y-83888552D01*
X145256493Y-83823112D01*
X144479605Y-84600000D01*
X144120395Y-84600000D01*
X143343507Y-83823112D01*
X143104710Y-83888552D01*
X142988880Y-84135412D01*
X142923436Y-84400126D01*
X142910893Y-84672521D01*
X140519694Y-84672521D01*
X140521147Y-83643507D01*
X143523112Y-83643507D01*
X144300000Y-84420395D01*
X145076888Y-83643507D01*
X145011448Y-83404710D01*
X144764588Y-83288880D01*
X144499874Y-83223436D01*
X144227479Y-83210893D01*
X143957871Y-83251732D01*
X143701411Y-83344385D01*
X143588552Y-83404710D01*
X143523112Y-83643507D01*
X140521147Y-83643507D01*
X140526821Y-79627000D01*
X145787719Y-79627000D01*
X145812495Y-79624560D01*
X145836320Y-79617333D01*
X145858276Y-79605597D01*
X145877522Y-79589803D01*
X145893316Y-79570557D01*
X145905052Y-79548601D01*
X145912279Y-79524776D01*
X145914699Y-79497772D01*
X145829247Y-74627000D01*
X147490000Y-74627000D01*
X147490001Y-77350382D01*
G37*
%TD.AperFunction*%
D29*
X149673000Y-77144646D02*
X149510000Y-76981645D01*
X149510000Y-74627000D01*
X149673000Y-74627000D01*
X149673000Y-77144646D01*
%TA.AperFunction,Conductor*%
D30*
G36*
X149673000Y-77144646D02*
G01*
X149510000Y-76981645D01*
X149510000Y-74627000D01*
X149673000Y-74627000D01*
X149673000Y-77144646D01*
G37*
%TD.AperFunction*%
%TD*%
D29*
%TO.N,GND*%
X152384061Y-71116920D02*
X152304805Y-71235534D01*
X152235178Y-71118645D01*
X152040269Y-70902412D01*
X151806920Y-70728359D01*
X151544099Y-70603175D01*
X151396890Y-70558524D01*
X151167000Y-70679845D01*
X151167000Y-71873000D01*
X151187000Y-71873000D01*
X151187000Y-72127000D01*
X151167000Y-72127000D01*
X151167000Y-73320155D01*
X151396890Y-73441476D01*
X151544099Y-73396825D01*
X151806920Y-73271641D01*
X152040269Y-73097588D01*
X152235178Y-72881355D01*
X152304805Y-72764466D01*
X152392034Y-72895013D01*
X152421667Y-79503000D01*
X152162408Y-79503000D01*
X151892510Y-79556686D01*
X151638273Y-79661995D01*
X151633683Y-79665062D01*
X150110000Y-79651870D01*
X150110000Y-78049604D01*
X150114886Y-77999999D01*
X150110000Y-77950392D01*
X150095385Y-77802006D01*
X150037632Y-77611620D01*
X149943847Y-77436160D01*
X149817633Y-77282367D01*
X149779089Y-77250735D01*
X149510000Y-76981645D01*
X149510000Y-73465038D01*
X149594180Y-73439502D01*
X149704494Y-73380537D01*
X149801185Y-73301185D01*
X149880537Y-73204494D01*
X149939502Y-73094180D01*
X149963966Y-73013534D01*
X150039731Y-73097588D01*
X150273080Y-73271641D01*
X150535901Y-73396825D01*
X150683110Y-73441476D01*
X150913000Y-73320155D01*
X150913000Y-72127000D01*
X150893000Y-72127000D01*
X150893000Y-71873000D01*
X150913000Y-71873000D01*
X150913000Y-70679845D01*
X150683110Y-70558524D01*
X150535901Y-70603175D01*
X150273080Y-70728359D01*
X150039731Y-70902412D01*
X149963966Y-70986466D01*
X149939502Y-70905820D01*
X149880537Y-70795506D01*
X149801185Y-70698815D01*
X149704494Y-70619463D01*
X149594180Y-70560498D01*
X149474482Y-70524188D01*
X149350000Y-70511928D01*
X147650000Y-70511928D01*
X147525518Y-70524188D01*
X147405820Y-70560498D01*
X147295506Y-70619463D01*
X147198815Y-70698815D01*
X147119463Y-70795506D01*
X147060498Y-70905820D01*
X147024188Y-71025518D01*
X147011928Y-71150000D01*
X147011928Y-72850000D01*
X147024188Y-72974482D01*
X147060498Y-73094180D01*
X147119463Y-73204494D01*
X147198815Y-73301185D01*
X147295506Y-73380537D01*
X147405820Y-73439502D01*
X147490000Y-73465038D01*
X147490001Y-77350382D01*
X147485114Y-77400000D01*
X147504615Y-77597994D01*
X147562368Y-77788379D01*
X147590094Y-77840250D01*
X147656154Y-77963840D01*
X147782368Y-78117633D01*
X147820902Y-78149257D01*
X148090000Y-78418355D01*
X148090000Y-79634381D01*
X141127569Y-79574100D01*
X141136514Y-77588204D01*
X141240915Y-77840250D01*
X141458149Y-78165364D01*
X141734636Y-78441851D01*
X142059750Y-78659085D01*
X142420997Y-78808718D01*
X142804495Y-78885000D01*
X143195505Y-78885000D01*
X143579003Y-78808718D01*
X143940250Y-78659085D01*
X144265364Y-78441851D01*
X144541851Y-78165364D01*
X144759085Y-77840250D01*
X144908718Y-77479003D01*
X144985000Y-77095505D01*
X144985000Y-76704495D01*
X144908718Y-76320997D01*
X144759085Y-75959750D01*
X144541851Y-75634636D01*
X144265364Y-75358149D01*
X143940250Y-75140915D01*
X143579003Y-74991282D01*
X143195505Y-74915000D01*
X142804495Y-74915000D01*
X142420997Y-74991282D01*
X142059750Y-75140915D01*
X141734636Y-75358149D01*
X141458149Y-75634636D01*
X141240915Y-75959750D01*
X141142783Y-76196663D01*
X141195470Y-64500000D01*
X146861928Y-64500000D01*
X146861928Y-65700000D01*
X146878992Y-65873254D01*
X146929528Y-66039850D01*
X147011595Y-66193386D01*
X147122038Y-66327962D01*
X147256614Y-66438405D01*
X147410150Y-66520472D01*
X147576746Y-66571008D01*
X147750000Y-66588072D01*
X149250000Y-66588072D01*
X149423254Y-66571008D01*
X149589850Y-66520472D01*
X149743386Y-66438405D01*
X149877962Y-66327962D01*
X149988405Y-66193386D01*
X150070472Y-66039850D01*
X150121008Y-65873254D01*
X150138072Y-65700000D01*
X150138072Y-64500000D01*
X150121008Y-64326746D01*
X150070472Y-64160150D01*
X149988405Y-64006614D01*
X149877962Y-63872038D01*
X149743386Y-63761595D01*
X149641407Y-63707086D01*
X149641795Y-63706802D01*
X149838664Y-63492046D01*
X149989854Y-63243009D01*
X150089554Y-62969261D01*
X150091476Y-62956890D01*
X149970155Y-62727000D01*
X148627000Y-62727000D01*
X148627000Y-62747000D01*
X148373000Y-62747000D01*
X148373000Y-62727000D01*
X147029845Y-62727000D01*
X146908524Y-62956890D01*
X146910446Y-62969261D01*
X147010146Y-63243009D01*
X147161336Y-63492046D01*
X147358205Y-63706802D01*
X147358593Y-63707086D01*
X147256614Y-63761595D01*
X147122038Y-63872038D01*
X147011595Y-64006614D01*
X146929528Y-64160150D01*
X146878992Y-64326746D01*
X146861928Y-64500000D01*
X141195470Y-64500000D01*
X141205636Y-62243110D01*
X146908524Y-62243110D01*
X147029845Y-62473000D01*
X148373000Y-62473000D01*
X148373000Y-61272768D01*
X148627000Y-61272768D01*
X148627000Y-62473000D01*
X149970155Y-62473000D01*
X150091476Y-62243110D01*
X150089554Y-62230739D01*
X149989854Y-61956991D01*
X149838664Y-61707954D01*
X149641795Y-61493198D01*
X149406812Y-61320975D01*
X149142745Y-61197904D01*
X148859742Y-61128715D01*
X148627000Y-61272768D01*
X148373000Y-61272768D01*
X148140258Y-61128715D01*
X147857255Y-61197904D01*
X147593188Y-61320975D01*
X147358205Y-61493198D01*
X147161336Y-61707954D01*
X147010146Y-61956991D01*
X146910446Y-62230739D01*
X146908524Y-62243110D01*
X141205636Y-62243110D01*
X141226281Y-57660000D01*
X152323716Y-57660000D01*
X152384061Y-71116920D01*
%TA.AperFunction,Conductor*%
D30*
G36*
X152384061Y-71116920D02*
G01*
X152304805Y-71235534D01*
X152235178Y-71118645D01*
X152040269Y-70902412D01*
X151806920Y-70728359D01*
X151544099Y-70603175D01*
X151396890Y-70558524D01*
X151167000Y-70679845D01*
X151167000Y-71873000D01*
X151187000Y-71873000D01*
X151187000Y-72127000D01*
X151167000Y-72127000D01*
X151167000Y-73320155D01*
X151396890Y-73441476D01*
X151544099Y-73396825D01*
X151806920Y-73271641D01*
X152040269Y-73097588D01*
X152235178Y-72881355D01*
X152304805Y-72764466D01*
X152392034Y-72895013D01*
X152421667Y-79503000D01*
X152162408Y-79503000D01*
X151892510Y-79556686D01*
X151638273Y-79661995D01*
X151633683Y-79665062D01*
X150110000Y-79651870D01*
X150110000Y-78049604D01*
X150114886Y-77999999D01*
X150110000Y-77950392D01*
X150095385Y-77802006D01*
X150037632Y-77611620D01*
X149943847Y-77436160D01*
X149817633Y-77282367D01*
X149779089Y-77250735D01*
X149510000Y-76981645D01*
X149510000Y-73465038D01*
X149594180Y-73439502D01*
X149704494Y-73380537D01*
X149801185Y-73301185D01*
X149880537Y-73204494D01*
X149939502Y-73094180D01*
X149963966Y-73013534D01*
X150039731Y-73097588D01*
X150273080Y-73271641D01*
X150535901Y-73396825D01*
X150683110Y-73441476D01*
X150913000Y-73320155D01*
X150913000Y-72127000D01*
X150893000Y-72127000D01*
X150893000Y-71873000D01*
X150913000Y-71873000D01*
X150913000Y-70679845D01*
X150683110Y-70558524D01*
X150535901Y-70603175D01*
X150273080Y-70728359D01*
X150039731Y-70902412D01*
X149963966Y-70986466D01*
X149939502Y-70905820D01*
X149880537Y-70795506D01*
X149801185Y-70698815D01*
X149704494Y-70619463D01*
X149594180Y-70560498D01*
X149474482Y-70524188D01*
X149350000Y-70511928D01*
X147650000Y-70511928D01*
X147525518Y-70524188D01*
X147405820Y-70560498D01*
X147295506Y-70619463D01*
X147198815Y-70698815D01*
X147119463Y-70795506D01*
X147060498Y-70905820D01*
X147024188Y-71025518D01*
X147011928Y-71150000D01*
X147011928Y-72850000D01*
X147024188Y-72974482D01*
X147060498Y-73094180D01*
X147119463Y-73204494D01*
X147198815Y-73301185D01*
X147295506Y-73380537D01*
X147405820Y-73439502D01*
X147490000Y-73465038D01*
X147490001Y-77350382D01*
X147485114Y-77400000D01*
X147504615Y-77597994D01*
X147562368Y-77788379D01*
X147590094Y-77840250D01*
X147656154Y-77963840D01*
X147782368Y-78117633D01*
X147820902Y-78149257D01*
X148090000Y-78418355D01*
X148090000Y-79634381D01*
X141127569Y-79574100D01*
X141136514Y-77588204D01*
X141240915Y-77840250D01*
X141458149Y-78165364D01*
X141734636Y-78441851D01*
X142059750Y-78659085D01*
X142420997Y-78808718D01*
X142804495Y-78885000D01*
X143195505Y-78885000D01*
X143579003Y-78808718D01*
X143940250Y-78659085D01*
X144265364Y-78441851D01*
X144541851Y-78165364D01*
X144759085Y-77840250D01*
X144908718Y-77479003D01*
X144985000Y-77095505D01*
X144985000Y-76704495D01*
X144908718Y-76320997D01*
X144759085Y-75959750D01*
X144541851Y-75634636D01*
X144265364Y-75358149D01*
X143940250Y-75140915D01*
X143579003Y-74991282D01*
X143195505Y-74915000D01*
X142804495Y-74915000D01*
X142420997Y-74991282D01*
X142059750Y-75140915D01*
X141734636Y-75358149D01*
X141458149Y-75634636D01*
X141240915Y-75959750D01*
X141142783Y-76196663D01*
X141195470Y-64500000D01*
X146861928Y-64500000D01*
X146861928Y-65700000D01*
X146878992Y-65873254D01*
X146929528Y-66039850D01*
X147011595Y-66193386D01*
X147122038Y-66327962D01*
X147256614Y-66438405D01*
X147410150Y-66520472D01*
X147576746Y-66571008D01*
X147750000Y-66588072D01*
X149250000Y-66588072D01*
X149423254Y-66571008D01*
X149589850Y-66520472D01*
X149743386Y-66438405D01*
X149877962Y-66327962D01*
X149988405Y-66193386D01*
X150070472Y-66039850D01*
X150121008Y-65873254D01*
X150138072Y-65700000D01*
X150138072Y-64500000D01*
X150121008Y-64326746D01*
X150070472Y-64160150D01*
X149988405Y-64006614D01*
X149877962Y-63872038D01*
X149743386Y-63761595D01*
X149641407Y-63707086D01*
X149641795Y-63706802D01*
X149838664Y-63492046D01*
X149989854Y-63243009D01*
X150089554Y-62969261D01*
X150091476Y-62956890D01*
X149970155Y-62727000D01*
X148627000Y-62727000D01*
X148627000Y-62747000D01*
X148373000Y-62747000D01*
X148373000Y-62727000D01*
X147029845Y-62727000D01*
X146908524Y-62956890D01*
X146910446Y-62969261D01*
X147010146Y-63243009D01*
X147161336Y-63492046D01*
X147358205Y-63706802D01*
X147358593Y-63707086D01*
X147256614Y-63761595D01*
X147122038Y-63872038D01*
X147011595Y-64006614D01*
X146929528Y-64160150D01*
X146878992Y-64326746D01*
X146861928Y-64500000D01*
X141195470Y-64500000D01*
X141205636Y-62243110D01*
X146908524Y-62243110D01*
X147029845Y-62473000D01*
X148373000Y-62473000D01*
X148373000Y-61272768D01*
X148627000Y-61272768D01*
X148627000Y-62473000D01*
X149970155Y-62473000D01*
X150091476Y-62243110D01*
X150089554Y-62230739D01*
X149989854Y-61956991D01*
X149838664Y-61707954D01*
X149641795Y-61493198D01*
X149406812Y-61320975D01*
X149142745Y-61197904D01*
X148859742Y-61128715D01*
X148627000Y-61272768D01*
X148373000Y-61272768D01*
X148140258Y-61128715D01*
X147857255Y-61197904D01*
X147593188Y-61320975D01*
X147358205Y-61493198D01*
X147161336Y-61707954D01*
X147010146Y-61956991D01*
X146910446Y-62230739D01*
X146908524Y-62243110D01*
X141205636Y-62243110D01*
X141226281Y-57660000D01*
X152323716Y-57660000D01*
X152384061Y-71116920D01*
G37*
%TD.AperFunction*%
%TD*%
D29*
%TO.N,GND*%
X155473000Y-151464181D02*
X155372038Y-151547038D01*
X155261595Y-151681614D01*
X155207223Y-151783337D01*
X155155134Y-151719866D01*
X154929014Y-151534294D01*
X154671034Y-151396401D01*
X154391111Y-151311487D01*
X154100000Y-151282815D01*
X153808890Y-151311487D01*
X153528967Y-151396401D01*
X153270987Y-151534294D01*
X153044866Y-151719866D01*
X152859294Y-151945986D01*
X152850000Y-151963374D01*
X152840706Y-151945986D01*
X152655134Y-151719866D01*
X152429014Y-151534294D01*
X152171034Y-151396401D01*
X151891111Y-151311487D01*
X151600000Y-151282815D01*
X151308890Y-151311487D01*
X151028967Y-151396401D01*
X150770987Y-151534294D01*
X150544866Y-151719866D01*
X150359294Y-151945986D01*
X150345538Y-151971722D01*
X150189049Y-151765571D01*
X149971193Y-151572504D01*
X149719858Y-151425648D01*
X149456890Y-151333524D01*
X149227000Y-151454845D01*
X149227000Y-152773000D01*
X149247000Y-152773000D01*
X149247000Y-153027000D01*
X149227000Y-153027000D01*
X149227000Y-154345155D01*
X149456890Y-154466476D01*
X149719858Y-154374352D01*
X149971193Y-154227496D01*
X150189049Y-154034429D01*
X150345538Y-153828278D01*
X150359294Y-153854013D01*
X150544866Y-154080134D01*
X150770986Y-154265706D01*
X151028966Y-154403599D01*
X151308889Y-154488513D01*
X151600000Y-154517185D01*
X151891110Y-154488513D01*
X152171033Y-154403599D01*
X152429013Y-154265706D01*
X152655134Y-154080134D01*
X152840706Y-153854014D01*
X152850000Y-153836626D01*
X152859294Y-153854013D01*
X153044866Y-154080134D01*
X153270986Y-154265706D01*
X153528966Y-154403599D01*
X153808889Y-154488513D01*
X154100000Y-154517185D01*
X154391110Y-154488513D01*
X154671033Y-154403599D01*
X154929013Y-154265706D01*
X155155134Y-154080134D01*
X155207223Y-154016663D01*
X155261595Y-154118386D01*
X155372038Y-154252962D01*
X155473000Y-154335819D01*
X155473000Y-155340000D01*
X145627000Y-155340000D01*
X145627000Y-153259267D01*
X147633680Y-153259267D01*
X147707558Y-153540830D01*
X147834947Y-153802570D01*
X148010951Y-154034429D01*
X148228807Y-154227496D01*
X148480142Y-154374352D01*
X148743110Y-154466476D01*
X148973000Y-154345155D01*
X148973000Y-153027000D01*
X147773835Y-153027000D01*
X147633680Y-153259267D01*
X145627000Y-153259267D01*
X145627000Y-152540733D01*
X147633680Y-152540733D01*
X147773835Y-152773000D01*
X148973000Y-152773000D01*
X148973000Y-151454845D01*
X148743110Y-151333524D01*
X148480142Y-151425648D01*
X148228807Y-151572504D01*
X148010951Y-151765571D01*
X147834947Y-151997430D01*
X147707558Y-152259170D01*
X147633680Y-152540733D01*
X145627000Y-152540733D01*
X145627000Y-149827000D01*
X155473000Y-149827000D01*
X155473000Y-151464181D01*
%TA.AperFunction,Conductor*%
D30*
G36*
X155473000Y-151464181D02*
G01*
X155372038Y-151547038D01*
X155261595Y-151681614D01*
X155207223Y-151783337D01*
X155155134Y-151719866D01*
X154929014Y-151534294D01*
X154671034Y-151396401D01*
X154391111Y-151311487D01*
X154100000Y-151282815D01*
X153808890Y-151311487D01*
X153528967Y-151396401D01*
X153270987Y-151534294D01*
X153044866Y-151719866D01*
X152859294Y-151945986D01*
X152850000Y-151963374D01*
X152840706Y-151945986D01*
X152655134Y-151719866D01*
X152429014Y-151534294D01*
X152171034Y-151396401D01*
X151891111Y-151311487D01*
X151600000Y-151282815D01*
X151308890Y-151311487D01*
X151028967Y-151396401D01*
X150770987Y-151534294D01*
X150544866Y-151719866D01*
X150359294Y-151945986D01*
X150345538Y-151971722D01*
X150189049Y-151765571D01*
X149971193Y-151572504D01*
X149719858Y-151425648D01*
X149456890Y-151333524D01*
X149227000Y-151454845D01*
X149227000Y-152773000D01*
X149247000Y-152773000D01*
X149247000Y-153027000D01*
X149227000Y-153027000D01*
X149227000Y-154345155D01*
X149456890Y-154466476D01*
X149719858Y-154374352D01*
X149971193Y-154227496D01*
X150189049Y-154034429D01*
X150345538Y-153828278D01*
X150359294Y-153854013D01*
X150544866Y-154080134D01*
X150770986Y-154265706D01*
X151028966Y-154403599D01*
X151308889Y-154488513D01*
X151600000Y-154517185D01*
X151891110Y-154488513D01*
X152171033Y-154403599D01*
X152429013Y-154265706D01*
X152655134Y-154080134D01*
X152840706Y-153854014D01*
X152850000Y-153836626D01*
X152859294Y-153854013D01*
X153044866Y-154080134D01*
X153270986Y-154265706D01*
X153528966Y-154403599D01*
X153808889Y-154488513D01*
X154100000Y-154517185D01*
X154391110Y-154488513D01*
X154671033Y-154403599D01*
X154929013Y-154265706D01*
X155155134Y-154080134D01*
X155207223Y-154016663D01*
X155261595Y-154118386D01*
X155372038Y-154252962D01*
X155473000Y-154335819D01*
X155473000Y-155340000D01*
X145627000Y-155340000D01*
X145627000Y-153259267D01*
X147633680Y-153259267D01*
X147707558Y-153540830D01*
X147834947Y-153802570D01*
X148010951Y-154034429D01*
X148228807Y-154227496D01*
X148480142Y-154374352D01*
X148743110Y-154466476D01*
X148973000Y-154345155D01*
X148973000Y-153027000D01*
X147773835Y-153027000D01*
X147633680Y-153259267D01*
X145627000Y-153259267D01*
X145627000Y-152540733D01*
X147633680Y-152540733D01*
X147773835Y-152773000D01*
X148973000Y-152773000D01*
X148973000Y-151454845D01*
X148743110Y-151333524D01*
X148480142Y-151425648D01*
X148228807Y-151572504D01*
X148010951Y-151765571D01*
X147834947Y-151997430D01*
X147707558Y-152259170D01*
X147633680Y-152540733D01*
X145627000Y-152540733D01*
X145627000Y-149827000D01*
X155473000Y-149827000D01*
X155473000Y-151464181D01*
G37*
%TD.AperFunction*%
%TD*%
M02*
