%TF.GenerationSoftware,KiCad,Pcbnew,(5.1.8)-1*%
%TF.CreationDate,2022-11-15T12:17:50-08:00*%
%TF.ProjectId,RetroClock,52657472-6f43-46c6-9f63-6b2e6b696361,rev?*%
%TF.SameCoordinates,Original*%
%TF.FileFunction,Soldermask,Bot*%
%TF.FilePolarity,Negative*%
%FSLAX46Y46*%
G04 Gerber Fmt 4.6, Leading zero omitted, Abs format (unit mm)*
G04 Created by KiCad (PCBNEW (5.1.8)-1) date 2022-11-15 12:17:50*
%MOMM*%
%LPD*%
G01*
G04 APERTURE LIST*
%ADD10C,1.524000*%
%ADD11R,3.000000X3.000000*%
%ADD12C,3.000000*%
%ADD13R,0.900000X1.200000*%
%ADD14R,1.300000X1.300000*%
%ADD15C,1.300000*%
%ADD16C,1.498600*%
%ADD17C,1.600000*%
%ADD18R,1.600000X1.600000*%
%ADD19O,2.000000X1.700000*%
%ADD20O,1.700000X2.000000*%
%ADD21O,1.700000X1.950000*%
%ADD22C,2.700000*%
%ADD23O,2.400000X1.600000*%
%ADD24R,2.400000X1.600000*%
%ADD25O,1.700000X1.700000*%
%ADD26R,1.700000X1.700000*%
G04 APERTURE END LIST*
D10*
%TO.C,U2*%
X177700000Y-80900000D03*
X177700000Y-83440000D03*
X177700000Y-85980000D03*
X177700000Y-88520000D03*
X177700000Y-91060000D03*
X177700000Y-93600000D03*
X177700000Y-96140000D03*
X177700000Y-98680000D03*
X177700000Y-101220000D03*
X177700000Y-103760000D03*
X177700000Y-106300000D03*
X177700000Y-108840000D03*
X177700000Y-111380000D03*
X177700000Y-113920000D03*
X177700000Y-116460000D03*
X152300000Y-80900000D03*
X152300000Y-116460000D03*
X152300000Y-113920000D03*
X152300000Y-111380000D03*
X152300000Y-108840000D03*
X152300000Y-106300000D03*
X152300000Y-103760000D03*
X152300000Y-101220000D03*
X152300000Y-98680000D03*
X152300000Y-96140000D03*
X152300000Y-93600000D03*
X152300000Y-91060000D03*
X152300000Y-88520000D03*
X152300000Y-85980000D03*
X152300000Y-83440000D03*
%TD*%
D11*
%TO.C,BT1*%
X192500000Y-138700000D03*
D12*
X172010000Y-138700000D03*
%TD*%
D13*
%TO.C,D1*%
X184550000Y-132900000D03*
X187850000Y-132900000D03*
%TD*%
%TO.C,C4*%
G36*
G01*
X174950000Y-133225000D02*
X174950000Y-134175000D01*
G75*
G02*
X174700000Y-134425000I-250000J0D01*
G01*
X174025000Y-134425000D01*
G75*
G02*
X173775000Y-134175000I0J250000D01*
G01*
X173775000Y-133225000D01*
G75*
G02*
X174025000Y-132975000I250000J0D01*
G01*
X174700000Y-132975000D01*
G75*
G02*
X174950000Y-133225000I0J-250000D01*
G01*
G37*
G36*
G01*
X177025000Y-133225000D02*
X177025000Y-134175000D01*
G75*
G02*
X176775000Y-134425000I-250000J0D01*
G01*
X176100000Y-134425000D01*
G75*
G02*
X175850000Y-134175000I0J250000D01*
G01*
X175850000Y-133225000D01*
G75*
G02*
X176100000Y-132975000I250000J0D01*
G01*
X176775000Y-132975000D01*
G75*
G02*
X177025000Y-133225000I0J-250000D01*
G01*
G37*
%TD*%
%TO.C,C8*%
G36*
G01*
X174850000Y-129625000D02*
X174850000Y-130575000D01*
G75*
G02*
X174600000Y-130825000I-250000J0D01*
G01*
X173925000Y-130825000D01*
G75*
G02*
X173675000Y-130575000I0J250000D01*
G01*
X173675000Y-129625000D01*
G75*
G02*
X173925000Y-129375000I250000J0D01*
G01*
X174600000Y-129375000D01*
G75*
G02*
X174850000Y-129625000I0J-250000D01*
G01*
G37*
G36*
G01*
X176925000Y-129625000D02*
X176925000Y-130575000D01*
G75*
G02*
X176675000Y-130825000I-250000J0D01*
G01*
X176000000Y-130825000D01*
G75*
G02*
X175750000Y-130575000I0J250000D01*
G01*
X175750000Y-129625000D01*
G75*
G02*
X176000000Y-129375000I250000J0D01*
G01*
X176675000Y-129375000D01*
G75*
G02*
X176925000Y-129625000I0J-250000D01*
G01*
G37*
%TD*%
%TO.C,R12*%
G36*
G01*
X181800000Y-129449999D02*
X181800000Y-130350001D01*
G75*
G02*
X181550001Y-130600000I-249999J0D01*
G01*
X180849999Y-130600000D01*
G75*
G02*
X180600000Y-130350001I0J249999D01*
G01*
X180600000Y-129449999D01*
G75*
G02*
X180849999Y-129200000I249999J0D01*
G01*
X181550001Y-129200000D01*
G75*
G02*
X181800000Y-129449999I0J-249999D01*
G01*
G37*
G36*
G01*
X183800000Y-129449999D02*
X183800000Y-130350001D01*
G75*
G02*
X183550001Y-130600000I-249999J0D01*
G01*
X182849999Y-130600000D01*
G75*
G02*
X182600000Y-130350001I0J249999D01*
G01*
X182600000Y-129449999D01*
G75*
G02*
X182849999Y-129200000I249999J0D01*
G01*
X183550001Y-129200000D01*
G75*
G02*
X183800000Y-129449999I0J-249999D01*
G01*
G37*
%TD*%
%TO.C,U3*%
G36*
G01*
X177505000Y-145325000D02*
X177805000Y-145325000D01*
G75*
G02*
X177955000Y-145475000I0J-150000D01*
G01*
X177955000Y-147225000D01*
G75*
G02*
X177805000Y-147375000I-150000J0D01*
G01*
X177505000Y-147375000D01*
G75*
G02*
X177355000Y-147225000I0J150000D01*
G01*
X177355000Y-145475000D01*
G75*
G02*
X177505000Y-145325000I150000J0D01*
G01*
G37*
G36*
G01*
X178775000Y-145325000D02*
X179075000Y-145325000D01*
G75*
G02*
X179225000Y-145475000I0J-150000D01*
G01*
X179225000Y-147225000D01*
G75*
G02*
X179075000Y-147375000I-150000J0D01*
G01*
X178775000Y-147375000D01*
G75*
G02*
X178625000Y-147225000I0J150000D01*
G01*
X178625000Y-145475000D01*
G75*
G02*
X178775000Y-145325000I150000J0D01*
G01*
G37*
G36*
G01*
X180045000Y-145325000D02*
X180345000Y-145325000D01*
G75*
G02*
X180495000Y-145475000I0J-150000D01*
G01*
X180495000Y-147225000D01*
G75*
G02*
X180345000Y-147375000I-150000J0D01*
G01*
X180045000Y-147375000D01*
G75*
G02*
X179895000Y-147225000I0J150000D01*
G01*
X179895000Y-145475000D01*
G75*
G02*
X180045000Y-145325000I150000J0D01*
G01*
G37*
G36*
G01*
X181315000Y-145325000D02*
X181615000Y-145325000D01*
G75*
G02*
X181765000Y-145475000I0J-150000D01*
G01*
X181765000Y-147225000D01*
G75*
G02*
X181615000Y-147375000I-150000J0D01*
G01*
X181315000Y-147375000D01*
G75*
G02*
X181165000Y-147225000I0J150000D01*
G01*
X181165000Y-145475000D01*
G75*
G02*
X181315000Y-145325000I150000J0D01*
G01*
G37*
G36*
G01*
X182585000Y-145325000D02*
X182885000Y-145325000D01*
G75*
G02*
X183035000Y-145475000I0J-150000D01*
G01*
X183035000Y-147225000D01*
G75*
G02*
X182885000Y-147375000I-150000J0D01*
G01*
X182585000Y-147375000D01*
G75*
G02*
X182435000Y-147225000I0J150000D01*
G01*
X182435000Y-145475000D01*
G75*
G02*
X182585000Y-145325000I150000J0D01*
G01*
G37*
G36*
G01*
X183855000Y-145325000D02*
X184155000Y-145325000D01*
G75*
G02*
X184305000Y-145475000I0J-150000D01*
G01*
X184305000Y-147225000D01*
G75*
G02*
X184155000Y-147375000I-150000J0D01*
G01*
X183855000Y-147375000D01*
G75*
G02*
X183705000Y-147225000I0J150000D01*
G01*
X183705000Y-145475000D01*
G75*
G02*
X183855000Y-145325000I150000J0D01*
G01*
G37*
G36*
G01*
X185125000Y-145325000D02*
X185425000Y-145325000D01*
G75*
G02*
X185575000Y-145475000I0J-150000D01*
G01*
X185575000Y-147225000D01*
G75*
G02*
X185425000Y-147375000I-150000J0D01*
G01*
X185125000Y-147375000D01*
G75*
G02*
X184975000Y-147225000I0J150000D01*
G01*
X184975000Y-145475000D01*
G75*
G02*
X185125000Y-145325000I150000J0D01*
G01*
G37*
G36*
G01*
X186395000Y-145325000D02*
X186695000Y-145325000D01*
G75*
G02*
X186845000Y-145475000I0J-150000D01*
G01*
X186845000Y-147225000D01*
G75*
G02*
X186695000Y-147375000I-150000J0D01*
G01*
X186395000Y-147375000D01*
G75*
G02*
X186245000Y-147225000I0J150000D01*
G01*
X186245000Y-145475000D01*
G75*
G02*
X186395000Y-145325000I150000J0D01*
G01*
G37*
G36*
G01*
X186395000Y-136025000D02*
X186695000Y-136025000D01*
G75*
G02*
X186845000Y-136175000I0J-150000D01*
G01*
X186845000Y-137925000D01*
G75*
G02*
X186695000Y-138075000I-150000J0D01*
G01*
X186395000Y-138075000D01*
G75*
G02*
X186245000Y-137925000I0J150000D01*
G01*
X186245000Y-136175000D01*
G75*
G02*
X186395000Y-136025000I150000J0D01*
G01*
G37*
G36*
G01*
X185125000Y-136025000D02*
X185425000Y-136025000D01*
G75*
G02*
X185575000Y-136175000I0J-150000D01*
G01*
X185575000Y-137925000D01*
G75*
G02*
X185425000Y-138075000I-150000J0D01*
G01*
X185125000Y-138075000D01*
G75*
G02*
X184975000Y-137925000I0J150000D01*
G01*
X184975000Y-136175000D01*
G75*
G02*
X185125000Y-136025000I150000J0D01*
G01*
G37*
G36*
G01*
X183855000Y-136025000D02*
X184155000Y-136025000D01*
G75*
G02*
X184305000Y-136175000I0J-150000D01*
G01*
X184305000Y-137925000D01*
G75*
G02*
X184155000Y-138075000I-150000J0D01*
G01*
X183855000Y-138075000D01*
G75*
G02*
X183705000Y-137925000I0J150000D01*
G01*
X183705000Y-136175000D01*
G75*
G02*
X183855000Y-136025000I150000J0D01*
G01*
G37*
G36*
G01*
X182585000Y-136025000D02*
X182885000Y-136025000D01*
G75*
G02*
X183035000Y-136175000I0J-150000D01*
G01*
X183035000Y-137925000D01*
G75*
G02*
X182885000Y-138075000I-150000J0D01*
G01*
X182585000Y-138075000D01*
G75*
G02*
X182435000Y-137925000I0J150000D01*
G01*
X182435000Y-136175000D01*
G75*
G02*
X182585000Y-136025000I150000J0D01*
G01*
G37*
G36*
G01*
X181315000Y-136025000D02*
X181615000Y-136025000D01*
G75*
G02*
X181765000Y-136175000I0J-150000D01*
G01*
X181765000Y-137925000D01*
G75*
G02*
X181615000Y-138075000I-150000J0D01*
G01*
X181315000Y-138075000D01*
G75*
G02*
X181165000Y-137925000I0J150000D01*
G01*
X181165000Y-136175000D01*
G75*
G02*
X181315000Y-136025000I150000J0D01*
G01*
G37*
G36*
G01*
X180045000Y-136025000D02*
X180345000Y-136025000D01*
G75*
G02*
X180495000Y-136175000I0J-150000D01*
G01*
X180495000Y-137925000D01*
G75*
G02*
X180345000Y-138075000I-150000J0D01*
G01*
X180045000Y-138075000D01*
G75*
G02*
X179895000Y-137925000I0J150000D01*
G01*
X179895000Y-136175000D01*
G75*
G02*
X180045000Y-136025000I150000J0D01*
G01*
G37*
G36*
G01*
X178775000Y-136025000D02*
X179075000Y-136025000D01*
G75*
G02*
X179225000Y-136175000I0J-150000D01*
G01*
X179225000Y-137925000D01*
G75*
G02*
X179075000Y-138075000I-150000J0D01*
G01*
X178775000Y-138075000D01*
G75*
G02*
X178625000Y-137925000I0J150000D01*
G01*
X178625000Y-136175000D01*
G75*
G02*
X178775000Y-136025000I150000J0D01*
G01*
G37*
G36*
G01*
X177505000Y-136025000D02*
X177805000Y-136025000D01*
G75*
G02*
X177955000Y-136175000I0J-150000D01*
G01*
X177955000Y-137925000D01*
G75*
G02*
X177805000Y-138075000I-150000J0D01*
G01*
X177505000Y-138075000D01*
G75*
G02*
X177355000Y-137925000I0J150000D01*
G01*
X177355000Y-136175000D01*
G75*
G02*
X177505000Y-136025000I150000J0D01*
G01*
G37*
%TD*%
D14*
%TO.C,Q1*%
X138700000Y-106100000D03*
D15*
X141240000Y-106100000D03*
X139970000Y-104830000D03*
%TD*%
D16*
%TO.C,SW1*%
X144300000Y-89603800D03*
X144300000Y-84600000D03*
%TD*%
D17*
%TO.C,C7*%
X152800000Y-144700000D03*
D18*
X152800000Y-142200000D03*
%TD*%
D19*
%TO.C,J4*%
X148500000Y-62600000D03*
G36*
G01*
X149250000Y-65950000D02*
X147750000Y-65950000D01*
G75*
G02*
X147500000Y-65700000I0J250000D01*
G01*
X147500000Y-64500000D01*
G75*
G02*
X147750000Y-64250000I250000J0D01*
G01*
X149250000Y-64250000D01*
G75*
G02*
X149500000Y-64500000I0J-250000D01*
G01*
X149500000Y-65700000D01*
G75*
G02*
X149250000Y-65950000I-250000J0D01*
G01*
G37*
%TD*%
D20*
%TO.C,J3*%
X162800000Y-152900000D03*
G36*
G01*
X166150000Y-152150000D02*
X166150000Y-153650000D01*
G75*
G02*
X165900000Y-153900000I-250000J0D01*
G01*
X164700000Y-153900000D01*
G75*
G02*
X164450000Y-153650000I0J250000D01*
G01*
X164450000Y-152150000D01*
G75*
G02*
X164700000Y-151900000I250000J0D01*
G01*
X165900000Y-151900000D01*
G75*
G02*
X166150000Y-152150000I0J-250000D01*
G01*
G37*
%TD*%
D21*
%TO.C,J2*%
X149100000Y-152900000D03*
X151600000Y-152900000D03*
X154100000Y-152900000D03*
G36*
G01*
X157450000Y-152175000D02*
X157450000Y-153625000D01*
G75*
G02*
X157200000Y-153875000I-250000J0D01*
G01*
X156000000Y-153875000D01*
G75*
G02*
X155750000Y-153625000I0J250000D01*
G01*
X155750000Y-152175000D01*
G75*
G02*
X156000000Y-151925000I250000J0D01*
G01*
X157200000Y-151925000D01*
G75*
G02*
X157450000Y-152175000I0J-250000D01*
G01*
G37*
%TD*%
D22*
%TO.C,H8*%
X193000000Y-132000000D03*
%TD*%
%TO.C,H7*%
X193000000Y-94000000D03*
%TD*%
%TO.C,H6*%
X137000000Y-132000000D03*
%TD*%
%TO.C,H5*%
X137000000Y-94000000D03*
%TD*%
D23*
%TO.C,U1*%
X151020000Y-128100000D03*
X143400000Y-135720000D03*
X151020000Y-130640000D03*
X143400000Y-133180000D03*
X151020000Y-133180000D03*
X143400000Y-130640000D03*
X151020000Y-135720000D03*
D24*
X143400000Y-128100000D03*
%TD*%
D25*
%TO.C,J1*%
X181520000Y-72000000D03*
X178980000Y-72000000D03*
X176440000Y-72000000D03*
X173900000Y-72000000D03*
X171360000Y-72000000D03*
X168820000Y-72000000D03*
X166280000Y-72000000D03*
X163740000Y-72000000D03*
X161200000Y-72000000D03*
X158660000Y-72000000D03*
X156120000Y-72000000D03*
X153580000Y-72000000D03*
X151040000Y-72000000D03*
D26*
X148500000Y-72000000D03*
%TD*%
D22*
%TO.C,H4*%
X187000000Y-76900000D03*
%TD*%
%TO.C,H3*%
X187000000Y-153000000D03*
%TD*%
%TO.C,H2*%
X143000000Y-76900000D03*
%TD*%
%TO.C,H1*%
X143000000Y-153000000D03*
%TD*%
D17*
%TO.C,C5*%
X159600000Y-130600000D03*
D18*
X154600000Y-130600000D03*
%TD*%
D17*
%TO.C,C3*%
X142300000Y-143300000D03*
D18*
X144800000Y-143300000D03*
%TD*%
M02*
