M48
; DRILL file {KiCad (5.1.8)-1} date 11/15/22 12:17:59
; FORMAT={-:-/ absolute / metric / decimal}
; #@! TF.CreationDate,2022-11-15T12:17:59-08:00
; #@! TF.GenerationSoftware,Kicad,Pcbnew,(5.1.8)-1
; #@! TF.FileFunction,Plated,1,2,PTH
FMAT,2
METRIC
T1C0.400
T2C0.750
T3C0.762
T4C0.800
T5C0.950
T6C0.991
T7C1.000
T8C1.500
%
G90
G05
T1
X142.5Y-120.8
X147.0Y-75.7
X147.0Y-77.0
X147.0Y-78.2
X147.7Y-106.3
X151.0Y-75.7
X151.0Y-77.0
X151.0Y-78.2
X159.8Y-102.4
X166.4Y-96.2
X168.0Y-92.7
X169.6Y-78.9
X173.9Y-93.6
X178.925Y-130.025
X180.195Y-134.895
X180.5Y-142.3
X181.6Y-140.8
X184.0Y-127.3
T2
X138.7Y-106.1
X139.97Y-104.83
X141.24Y-106.1
T3
X152.3Y-80.9
X152.3Y-83.44
X152.3Y-85.98
X152.3Y-88.52
X152.3Y-91.06
X152.3Y-93.6
X152.3Y-96.14
X152.3Y-98.68
X152.3Y-101.22
X152.3Y-103.76
X152.3Y-106.3
X152.3Y-108.84
X152.3Y-111.38
X152.3Y-113.92
X152.3Y-116.46
X177.7Y-80.9
X177.7Y-83.44
X177.7Y-85.98
X177.7Y-88.52
X177.7Y-91.06
X177.7Y-93.6
X177.7Y-96.14
X177.7Y-98.68
X177.7Y-101.22
X177.7Y-103.76
X177.7Y-106.3
X177.7Y-108.84
X177.7Y-111.38
X177.7Y-113.92
X177.7Y-116.46
T4
X143.4Y-128.1
X143.4Y-130.64
X143.4Y-133.18
X143.4Y-135.72
X151.02Y-128.1
X151.02Y-130.64
X151.02Y-133.18
X151.02Y-135.72
X152.8Y-142.2
X152.8Y-144.7
X154.6Y-130.6
X159.6Y-130.6
X142.3Y-143.3
X144.8Y-143.3
T5
X149.1Y-152.9
X151.6Y-152.9
X154.1Y-152.9
X156.6Y-152.9
T6
X144.3Y-84.6
X144.3Y-89.604
T7
X148.5Y-62.6
X148.5Y-65.1
X148.5Y-72.0
X151.04Y-72.0
X153.58Y-72.0
X156.12Y-72.0
X158.66Y-72.0
X161.2Y-72.0
X163.74Y-72.0
X166.28Y-72.0
X168.82Y-72.0
X171.36Y-72.0
X173.9Y-72.0
X176.44Y-72.0
X178.98Y-72.0
X181.52Y-72.0
X162.8Y-152.9
X165.3Y-152.9
T8
X172.01Y-138.7
X192.5Y-138.7
T0
M30
