%FSLAX45Y45*%
G04 Gerber Fmt 4.5, Leading zero omitted, Abs format (unit mm)*
G04 Created by KiCad (PCBNEW (5.1.8)-1) date 2022-11-15 12:18:02*
%MOMM*%
%LPD*%
G01*
G04 APERTURE LIST*
%TA.AperFunction,Profile*%
%ADD10C,0.050000*%
%TD*%
%ADD11C,0.200000*%
%ADD12C,0.300000*%
G04 APERTURE END LIST*
D10*
X14000000Y-5700000D02*
X13400000Y-7200000D01*
X19000000Y-5700000D02*
X19600000Y-7200000D01*
X14000000Y-15600000D02*
X13400000Y-14100000D01*
X19000000Y-15600000D02*
X19600000Y-14100000D01*
X13400000Y-14100000D02*
X13400000Y-7200000D01*
X19000000Y-15600000D02*
X14000000Y-15600000D01*
X19600000Y-7200000D02*
X19600000Y-14100000D01*
X14000000Y-5700000D02*
X19000000Y-5700000D01*
D11*
X14165000Y-7555000D02*
X14435000Y-7825000D01*
X14435000Y-7555000D02*
X14165000Y-7825000D01*
X14165000Y-15165000D02*
X14435000Y-15435000D01*
X14435000Y-15165000D02*
X14165000Y-15435000D01*
X13565000Y-9265000D02*
X13835000Y-9535000D01*
X13835000Y-9265000D02*
X13565000Y-9535000D01*
X18565000Y-15165000D02*
X18835000Y-15435000D01*
X18835000Y-15165000D02*
X18565000Y-15435000D01*
X13565000Y-13065000D02*
X13835000Y-13335000D01*
X13835000Y-13065000D02*
X13565000Y-13335000D01*
X18565000Y-7555000D02*
X18835000Y-7825000D01*
X18835000Y-7555000D02*
X18565000Y-7825000D01*
X19165000Y-9265000D02*
X19435000Y-9535000D01*
X19435000Y-9265000D02*
X19165000Y-9535000D01*
X19165000Y-13065000D02*
X19435000Y-13335000D01*
X19435000Y-13065000D02*
X19165000Y-13335000D01*
D12*
X13683928Y-16068214D02*
X13683928Y-15768214D01*
X13755357Y-15768214D01*
X13798214Y-15782500D01*
X13826786Y-15811071D01*
X13841071Y-15839643D01*
X13855357Y-15896786D01*
X13855357Y-15939643D01*
X13841071Y-15996786D01*
X13826786Y-16025357D01*
X13798214Y-16053929D01*
X13755357Y-16068214D01*
X13683928Y-16068214D01*
X13983928Y-16068214D02*
X13983928Y-15868214D01*
X13983928Y-15925357D02*
X13998214Y-15896786D01*
X14012500Y-15882500D01*
X14041071Y-15868214D01*
X14069643Y-15868214D01*
X14169643Y-16068214D02*
X14169643Y-15868214D01*
X14169643Y-15768214D02*
X14155357Y-15782500D01*
X14169643Y-15796786D01*
X14183928Y-15782500D01*
X14169643Y-15768214D01*
X14169643Y-15796786D01*
X14355357Y-16068214D02*
X14326786Y-16053929D01*
X14312500Y-16025357D01*
X14312500Y-15768214D01*
X14512500Y-16068214D02*
X14483928Y-16053929D01*
X14469643Y-16025357D01*
X14469643Y-15768214D01*
X14855357Y-16068214D02*
X14855357Y-15768214D01*
X14955357Y-15982500D01*
X15055357Y-15768214D01*
X15055357Y-16068214D01*
X15326786Y-16068214D02*
X15326786Y-15911071D01*
X15312500Y-15882500D01*
X15283928Y-15868214D01*
X15226786Y-15868214D01*
X15198214Y-15882500D01*
X15326786Y-16053929D02*
X15298214Y-16068214D01*
X15226786Y-16068214D01*
X15198214Y-16053929D01*
X15183928Y-16025357D01*
X15183928Y-15996786D01*
X15198214Y-15968214D01*
X15226786Y-15953929D01*
X15298214Y-15953929D01*
X15326786Y-15939643D01*
X15469643Y-15868214D02*
X15469643Y-16168214D01*
X15469643Y-15882500D02*
X15498214Y-15868214D01*
X15555357Y-15868214D01*
X15583928Y-15882500D01*
X15598214Y-15896786D01*
X15612500Y-15925357D01*
X15612500Y-16011071D01*
X15598214Y-16039643D01*
X15583928Y-16053929D01*
X15555357Y-16068214D01*
X15498214Y-16068214D01*
X15469643Y-16053929D01*
X15741071Y-16039643D02*
X15755357Y-16053929D01*
X15741071Y-16068214D01*
X15726786Y-16053929D01*
X15741071Y-16039643D01*
X15741071Y-16068214D01*
X15741071Y-15882500D02*
X15755357Y-15896786D01*
X15741071Y-15911071D01*
X15726786Y-15896786D01*
X15741071Y-15882500D01*
X15741071Y-15911071D01*
X13127500Y-16427500D02*
X13397500Y-16697500D01*
X13397500Y-16427500D02*
X13127500Y-16697500D01*
X13669643Y-16426786D02*
X13683928Y-16412500D01*
X13712500Y-16398214D01*
X13783928Y-16398214D01*
X13812500Y-16412500D01*
X13826786Y-16426786D01*
X13841071Y-16455357D01*
X13841071Y-16483929D01*
X13826786Y-16526786D01*
X13655357Y-16698214D01*
X13841071Y-16698214D01*
X13969643Y-16669643D02*
X13983928Y-16683929D01*
X13969643Y-16698214D01*
X13955357Y-16683929D01*
X13969643Y-16669643D01*
X13969643Y-16698214D01*
X14083928Y-16398214D02*
X14283928Y-16398214D01*
X14155357Y-16698214D01*
X14455357Y-16398214D02*
X14483928Y-16398214D01*
X14512500Y-16412500D01*
X14526786Y-16426786D01*
X14541071Y-16455357D01*
X14555357Y-16512500D01*
X14555357Y-16583929D01*
X14541071Y-16641071D01*
X14526786Y-16669643D01*
X14512500Y-16683929D01*
X14483928Y-16698214D01*
X14455357Y-16698214D01*
X14426786Y-16683929D01*
X14412500Y-16669643D01*
X14398214Y-16641071D01*
X14383928Y-16583929D01*
X14383928Y-16512500D01*
X14398214Y-16455357D01*
X14412500Y-16426786D01*
X14426786Y-16412500D01*
X14455357Y-16398214D01*
X14683928Y-16698214D02*
X14683928Y-16498214D01*
X14683928Y-16526786D02*
X14698214Y-16512500D01*
X14726786Y-16498214D01*
X14769643Y-16498214D01*
X14798214Y-16512500D01*
X14812500Y-16541071D01*
X14812500Y-16698214D01*
X14812500Y-16541071D02*
X14826786Y-16512500D01*
X14855357Y-16498214D01*
X14898214Y-16498214D01*
X14926786Y-16512500D01*
X14941071Y-16541071D01*
X14941071Y-16698214D01*
X15083928Y-16698214D02*
X15083928Y-16498214D01*
X15083928Y-16526786D02*
X15098214Y-16512500D01*
X15126786Y-16498214D01*
X15169643Y-16498214D01*
X15198214Y-16512500D01*
X15212500Y-16541071D01*
X15212500Y-16698214D01*
X15212500Y-16541071D02*
X15226786Y-16512500D01*
X15255357Y-16498214D01*
X15298214Y-16498214D01*
X15326786Y-16512500D01*
X15341071Y-16541071D01*
X15341071Y-16698214D01*
X15926786Y-16383929D02*
X15669643Y-16769643D01*
X16312500Y-16398214D02*
X16341071Y-16398214D01*
X16369643Y-16412500D01*
X16383928Y-16426786D01*
X16398214Y-16455357D01*
X16412500Y-16512500D01*
X16412500Y-16583929D01*
X16398214Y-16641071D01*
X16383928Y-16669643D01*
X16369643Y-16683929D01*
X16341071Y-16698214D01*
X16312500Y-16698214D01*
X16283928Y-16683929D01*
X16269643Y-16669643D01*
X16255357Y-16641071D01*
X16241071Y-16583929D01*
X16241071Y-16512500D01*
X16255357Y-16455357D01*
X16269643Y-16426786D01*
X16283928Y-16412500D01*
X16312500Y-16398214D01*
X16541071Y-16669643D02*
X16555357Y-16683929D01*
X16541071Y-16698214D01*
X16526786Y-16683929D01*
X16541071Y-16669643D01*
X16541071Y-16698214D01*
X16841071Y-16698214D02*
X16669643Y-16698214D01*
X16755357Y-16698214D02*
X16755357Y-16398214D01*
X16726786Y-16441071D01*
X16698214Y-16469643D01*
X16669643Y-16483929D01*
X17026786Y-16398214D02*
X17055357Y-16398214D01*
X17083928Y-16412500D01*
X17098214Y-16426786D01*
X17112500Y-16455357D01*
X17126786Y-16512500D01*
X17126786Y-16583929D01*
X17112500Y-16641071D01*
X17098214Y-16669643D01*
X17083928Y-16683929D01*
X17055357Y-16698214D01*
X17026786Y-16698214D01*
X16998214Y-16683929D01*
X16983928Y-16669643D01*
X16969643Y-16641071D01*
X16955357Y-16583929D01*
X16955357Y-16512500D01*
X16969643Y-16455357D01*
X16983928Y-16426786D01*
X16998214Y-16412500D01*
X17026786Y-16398214D01*
X17383928Y-16398214D02*
X17326786Y-16398214D01*
X17298214Y-16412500D01*
X17283928Y-16426786D01*
X17255357Y-16469643D01*
X17241071Y-16526786D01*
X17241071Y-16641071D01*
X17255357Y-16669643D01*
X17269643Y-16683929D01*
X17298214Y-16698214D01*
X17355357Y-16698214D01*
X17383928Y-16683929D01*
X17398214Y-16669643D01*
X17412500Y-16641071D01*
X17412500Y-16569643D01*
X17398214Y-16541071D01*
X17383928Y-16526786D01*
X17355357Y-16512500D01*
X17298214Y-16512500D01*
X17269643Y-16526786D01*
X17255357Y-16541071D01*
X17241071Y-16569643D01*
X17526786Y-16398214D02*
X17526786Y-16455357D01*
X17641071Y-16398214D02*
X17641071Y-16455357D01*
X18083928Y-16812500D02*
X18069643Y-16798214D01*
X18041071Y-16755357D01*
X18026786Y-16726786D01*
X18012500Y-16683929D01*
X17998214Y-16612500D01*
X17998214Y-16555357D01*
X18012500Y-16483929D01*
X18026786Y-16441071D01*
X18041071Y-16412500D01*
X18069643Y-16369643D01*
X18083928Y-16355357D01*
X18241071Y-16526786D02*
X18212500Y-16512500D01*
X18198214Y-16498214D01*
X18183928Y-16469643D01*
X18183928Y-16455357D01*
X18198214Y-16426786D01*
X18212500Y-16412500D01*
X18241071Y-16398214D01*
X18298214Y-16398214D01*
X18326786Y-16412500D01*
X18341071Y-16426786D01*
X18355357Y-16455357D01*
X18355357Y-16469643D01*
X18341071Y-16498214D01*
X18326786Y-16512500D01*
X18298214Y-16526786D01*
X18241071Y-16526786D01*
X18212500Y-16541071D01*
X18198214Y-16555357D01*
X18183928Y-16583929D01*
X18183928Y-16641071D01*
X18198214Y-16669643D01*
X18212500Y-16683929D01*
X18241071Y-16698214D01*
X18298214Y-16698214D01*
X18326786Y-16683929D01*
X18341071Y-16669643D01*
X18355357Y-16641071D01*
X18355357Y-16583929D01*
X18341071Y-16555357D01*
X18326786Y-16541071D01*
X18298214Y-16526786D01*
X18712500Y-16698214D02*
X18712500Y-16398214D01*
X18841071Y-16698214D02*
X18841071Y-16541071D01*
X18826786Y-16512500D01*
X18798214Y-16498214D01*
X18755357Y-16498214D01*
X18726786Y-16512500D01*
X18712500Y-16526786D01*
X19026786Y-16698214D02*
X18998214Y-16683929D01*
X18983928Y-16669643D01*
X18969643Y-16641071D01*
X18969643Y-16555357D01*
X18983928Y-16526786D01*
X18998214Y-16512500D01*
X19026786Y-16498214D01*
X19069643Y-16498214D01*
X19098214Y-16512500D01*
X19112500Y-16526786D01*
X19126786Y-16555357D01*
X19126786Y-16641071D01*
X19112500Y-16669643D01*
X19098214Y-16683929D01*
X19069643Y-16698214D01*
X19026786Y-16698214D01*
X19298214Y-16698214D02*
X19269643Y-16683929D01*
X19255357Y-16655357D01*
X19255357Y-16398214D01*
X19526786Y-16683929D02*
X19498214Y-16698214D01*
X19441071Y-16698214D01*
X19412500Y-16683929D01*
X19398214Y-16655357D01*
X19398214Y-16541071D01*
X19412500Y-16512500D01*
X19441071Y-16498214D01*
X19498214Y-16498214D01*
X19526786Y-16512500D01*
X19541071Y-16541071D01*
X19541071Y-16569643D01*
X19398214Y-16598214D01*
X19655357Y-16683929D02*
X19683928Y-16698214D01*
X19741071Y-16698214D01*
X19769643Y-16683929D01*
X19783928Y-16655357D01*
X19783928Y-16641071D01*
X19769643Y-16612500D01*
X19741071Y-16598214D01*
X19698214Y-16598214D01*
X19669643Y-16583929D01*
X19655357Y-16555357D01*
X19655357Y-16541071D01*
X19669643Y-16512500D01*
X19698214Y-16498214D01*
X19741071Y-16498214D01*
X19769643Y-16512500D01*
X19883928Y-16812500D02*
X19898214Y-16798214D01*
X19926786Y-16755357D01*
X19941071Y-16726786D01*
X19955357Y-16683929D01*
X19969643Y-16612500D01*
X19969643Y-16555357D01*
X19955357Y-16483929D01*
X19941071Y-16441071D01*
X19926786Y-16412500D01*
X19898214Y-16369643D01*
X19883928Y-16355357D01*
X20426786Y-16812500D02*
X20412500Y-16798214D01*
X20383928Y-16755357D01*
X20369643Y-16726786D01*
X20355357Y-16683929D01*
X20341071Y-16612500D01*
X20341071Y-16555357D01*
X20355357Y-16483929D01*
X20369643Y-16441071D01*
X20383928Y-16412500D01*
X20412500Y-16369643D01*
X20426786Y-16355357D01*
X20541071Y-16498214D02*
X20541071Y-16698214D01*
X20541071Y-16526786D02*
X20555357Y-16512500D01*
X20583928Y-16498214D01*
X20626786Y-16498214D01*
X20655357Y-16512500D01*
X20669643Y-16541071D01*
X20669643Y-16698214D01*
X20855357Y-16698214D02*
X20826786Y-16683929D01*
X20812500Y-16669643D01*
X20798214Y-16641071D01*
X20798214Y-16555357D01*
X20812500Y-16526786D01*
X20826786Y-16512500D01*
X20855357Y-16498214D01*
X20898214Y-16498214D01*
X20926786Y-16512500D01*
X20941071Y-16526786D01*
X20955357Y-16555357D01*
X20955357Y-16641071D01*
X20941071Y-16669643D01*
X20926786Y-16683929D01*
X20898214Y-16698214D01*
X20855357Y-16698214D01*
X21041071Y-16498214D02*
X21155357Y-16498214D01*
X21083928Y-16398214D02*
X21083928Y-16655357D01*
X21098214Y-16683929D01*
X21126786Y-16698214D01*
X21155357Y-16698214D01*
X21483928Y-16498214D02*
X21483928Y-16798214D01*
X21483928Y-16512500D02*
X21512500Y-16498214D01*
X21569643Y-16498214D01*
X21598214Y-16512500D01*
X21612500Y-16526786D01*
X21626786Y-16555357D01*
X21626786Y-16641071D01*
X21612500Y-16669643D01*
X21598214Y-16683929D01*
X21569643Y-16698214D01*
X21512500Y-16698214D01*
X21483928Y-16683929D01*
X21798214Y-16698214D02*
X21769643Y-16683929D01*
X21755357Y-16655357D01*
X21755357Y-16398214D01*
X22041071Y-16698214D02*
X22041071Y-16541071D01*
X22026786Y-16512500D01*
X21998214Y-16498214D01*
X21941071Y-16498214D01*
X21912500Y-16512500D01*
X22041071Y-16683929D02*
X22012500Y-16698214D01*
X21941071Y-16698214D01*
X21912500Y-16683929D01*
X21898214Y-16655357D01*
X21898214Y-16626786D01*
X21912500Y-16598214D01*
X21941071Y-16583929D01*
X22012500Y-16583929D01*
X22041071Y-16569643D01*
X22141071Y-16498214D02*
X22255357Y-16498214D01*
X22183928Y-16398214D02*
X22183928Y-16655357D01*
X22198214Y-16683929D01*
X22226786Y-16698214D01*
X22255357Y-16698214D01*
X22469643Y-16683929D02*
X22441071Y-16698214D01*
X22383928Y-16698214D01*
X22355357Y-16683929D01*
X22341071Y-16655357D01*
X22341071Y-16541071D01*
X22355357Y-16512500D01*
X22383928Y-16498214D01*
X22441071Y-16498214D01*
X22469643Y-16512500D01*
X22483928Y-16541071D01*
X22483928Y-16569643D01*
X22341071Y-16598214D01*
X22741071Y-16698214D02*
X22741071Y-16398214D01*
X22741071Y-16683929D02*
X22712500Y-16698214D01*
X22655357Y-16698214D01*
X22626786Y-16683929D01*
X22612500Y-16669643D01*
X22598214Y-16641071D01*
X22598214Y-16555357D01*
X22612500Y-16526786D01*
X22626786Y-16512500D01*
X22655357Y-16498214D01*
X22712500Y-16498214D01*
X22741071Y-16512500D01*
X22855357Y-16812500D02*
X22869643Y-16798214D01*
X22898214Y-16755357D01*
X22912500Y-16726786D01*
X22926786Y-16683929D01*
X22941071Y-16612500D01*
X22941071Y-16555357D01*
X22926786Y-16483929D01*
X22912500Y-16441071D01*
X22898214Y-16412500D01*
X22869643Y-16369643D01*
X22855357Y-16355357D01*
M02*
