%TF.GenerationSoftware,KiCad,Pcbnew,(5.1.8)-1*%
%TF.CreationDate,2022-11-15T12:17:50-08:00*%
%TF.ProjectId,RetroClock,52657472-6f43-46c6-9f63-6b2e6b696361,rev?*%
%TF.SameCoordinates,Original*%
%TF.FileFunction,Other,Fab,Top*%
%FSLAX46Y46*%
G04 Gerber Fmt 4.6, Leading zero omitted, Abs format (unit mm)*
G04 Created by KiCad (PCBNEW (5.1.8)-1) date 2022-11-15 12:17:50*
%MOMM*%
%LPD*%
G01*
G04 APERTURE LIST*
%ADD10C,0.100000*%
%ADD11C,0.150000*%
%ADD12C,0.080000*%
%ADD13C,0.135000*%
G04 APERTURE END LIST*
D10*
%TO.C,BT1*%
X168928800Y-130978400D02*
X169843200Y-131816600D01*
X168928800Y-146421600D02*
X169868600Y-145558000D01*
X188969400Y-141600000D02*
X194200000Y-141600000D01*
X194200000Y-135800000D02*
X188969400Y-135800000D01*
X194600000Y-141200000D02*
X194600000Y-136200000D01*
X192500000Y-137400000D02*
X176300000Y-137400000D01*
X176300000Y-140000000D02*
X192500000Y-140000000D01*
X192500000Y-140000000D02*
X192500000Y-137400000D01*
X194200000Y-141600000D02*
G75*
G03*
X194600000Y-141200000I0J400000D01*
G01*
X194200000Y-135800000D02*
G75*
G02*
X194600000Y-136200000I0J-400000D01*
G01*
X176300000Y-137400000D02*
G75*
G03*
X176300000Y-140000000I0J-1300000D01*
G01*
X188154277Y-142192182D02*
G75*
G02*
X189000000Y-141600000I845723J-307818D01*
G01*
X167300000Y-137400000D02*
G75*
G03*
X187300000Y-140000000I10000000J-1300000D01*
G01*
X170968450Y-138496369D02*
G75*
G03*
X183500000Y-140000000I6331550J-203631D01*
G01*
X175004552Y-138524167D02*
G75*
G03*
X179200000Y-140000000I2295448J-175833D01*
G01*
X175004552Y-138875833D02*
G75*
G02*
X179200000Y-137400000I2295448J175833D01*
G01*
X170968450Y-138903631D02*
G75*
G02*
X183500000Y-137400000I6331550J203631D01*
G01*
X167300000Y-140000000D02*
G75*
G02*
X187300000Y-137400000I10000000J1300000D01*
G01*
X165899701Y-138624649D02*
G75*
G03*
X188150000Y-142200000I11400299J-75351D01*
G01*
X165899701Y-138775351D02*
G75*
G02*
X188150000Y-135200000I11400299J75351D01*
G01*
X188154277Y-135207818D02*
G75*
G03*
X189000000Y-135800000I845723J307818D01*
G01*
%TO.C,C2*%
X146325000Y-121500000D02*
X146325000Y-123500000D01*
X145075000Y-121500000D02*
X146325000Y-121500000D01*
X145075000Y-123500000D02*
X145075000Y-121500000D01*
X146325000Y-123500000D02*
X145075000Y-123500000D01*
%TO.C,C6*%
X155025000Y-135700000D02*
X155025000Y-137700000D01*
X153775000Y-135700000D02*
X155025000Y-135700000D01*
X153775000Y-137700000D02*
X153775000Y-135700000D01*
X155025000Y-137700000D02*
X153775000Y-137700000D01*
%TO.C,C1*%
X143600000Y-117975000D02*
X145600000Y-117975000D01*
X143600000Y-119225000D02*
X143600000Y-117975000D01*
X145600000Y-119225000D02*
X143600000Y-119225000D01*
X145600000Y-117975000D02*
X145600000Y-119225000D01*
%TO.C,R11*%
X187700000Y-125025000D02*
X185700000Y-125025000D01*
X187700000Y-123775000D02*
X187700000Y-125025000D01*
X185700000Y-123775000D02*
X187700000Y-123775000D01*
X185700000Y-125025000D02*
X185700000Y-123775000D01*
%TO.C,R10*%
X145600000Y-114725000D02*
X143600000Y-114725000D01*
X145600000Y-113475000D02*
X145600000Y-114725000D01*
X143600000Y-113475000D02*
X145600000Y-113475000D01*
X143600000Y-114725000D02*
X143600000Y-113475000D01*
%TO.C,R9*%
X147700000Y-103925000D02*
X145700000Y-103925000D01*
X147700000Y-102675000D02*
X147700000Y-103925000D01*
X145700000Y-102675000D02*
X147700000Y-102675000D01*
X145700000Y-103925000D02*
X145700000Y-102675000D01*
%TO.C,R8*%
X145600000Y-98075000D02*
X147600000Y-98075000D01*
X145600000Y-99325000D02*
X145600000Y-98075000D01*
X147600000Y-99325000D02*
X145600000Y-99325000D01*
X147600000Y-98075000D02*
X147600000Y-99325000D01*
%TO.C,R7*%
X159800000Y-87875000D02*
X161800000Y-87875000D01*
X159800000Y-89125000D02*
X159800000Y-87875000D01*
X161800000Y-89125000D02*
X159800000Y-89125000D01*
X161800000Y-87875000D02*
X161800000Y-89125000D01*
%TO.C,R6*%
X181400000Y-123775000D02*
X183400000Y-123775000D01*
X181400000Y-125025000D02*
X181400000Y-123775000D01*
X183400000Y-125025000D02*
X181400000Y-125025000D01*
X183400000Y-123775000D02*
X183400000Y-125025000D01*
%TO.C,R5*%
X159500000Y-136325000D02*
X157500000Y-136325000D01*
X159500000Y-135075000D02*
X159500000Y-136325000D01*
X157500000Y-135075000D02*
X159500000Y-135075000D01*
X157500000Y-136325000D02*
X157500000Y-135075000D01*
%TO.C,R4*%
X138100000Y-98775000D02*
X140100000Y-98775000D01*
X138100000Y-100025000D02*
X138100000Y-98775000D01*
X140100000Y-100025000D02*
X138100000Y-100025000D01*
X140100000Y-98775000D02*
X140100000Y-100025000D01*
%TO.C,R3*%
X147600000Y-94225000D02*
X145600000Y-94225000D01*
X147600000Y-92975000D02*
X147600000Y-94225000D01*
X145600000Y-92975000D02*
X147600000Y-92975000D01*
X145600000Y-94225000D02*
X145600000Y-92975000D01*
%TO.C,R2*%
X156825000Y-63000000D02*
X156825000Y-65000000D01*
X155575000Y-63000000D02*
X156825000Y-63000000D01*
X155575000Y-65000000D02*
X155575000Y-63000000D01*
X156825000Y-65000000D02*
X155575000Y-65000000D01*
%TO.C,R1*%
X159800000Y-85375000D02*
X161800000Y-85375000D01*
X159800000Y-86625000D02*
X159800000Y-85375000D01*
X161800000Y-86625000D02*
X159800000Y-86625000D01*
X161800000Y-85375000D02*
X161800000Y-86625000D01*
%TO.C,Q1*%
X138200000Y-107850000D02*
X141700000Y-107850000D01*
X138216375Y-107853625D02*
G75*
G02*
X139970000Y-103620000I1753625J1753625D01*
G01*
X141723625Y-107853625D02*
G75*
G03*
X139970000Y-103620000I-1753625J1753625D01*
G01*
%TO.C,SW1*%
X147398800Y-90200700D02*
X147398800Y-84003100D01*
X141201200Y-90200700D02*
X147398800Y-90200700D01*
X141201200Y-84003100D02*
X141201200Y-90200700D01*
X147398800Y-84003100D02*
X141201200Y-84003100D01*
%TO.C,C7*%
X156800000Y-143450000D02*
G75*
G03*
X156800000Y-143450000I-4000000J0D01*
G01*
X154547500Y-140023241D02*
X154547500Y-140823241D01*
X154947500Y-140423241D02*
X154147500Y-140423241D01*
%TO.C,J4*%
X147150000Y-65100000D02*
X146150000Y-64475000D01*
X146150000Y-65725000D02*
X147150000Y-65100000D01*
X146150000Y-60150000D02*
X146150000Y-67550000D01*
X151900000Y-60150000D02*
X146150000Y-60150000D01*
X151900000Y-67550000D02*
X151900000Y-60150000D01*
X146150000Y-67550000D02*
X151900000Y-67550000D01*
%TO.C,J3*%
X165300000Y-154250000D02*
X164675000Y-155250000D01*
X165925000Y-155250000D02*
X165300000Y-154250000D01*
X160350000Y-155250000D02*
X167750000Y-155250000D01*
X160350000Y-149500000D02*
X160350000Y-155250000D01*
X167750000Y-149500000D02*
X160350000Y-149500000D01*
X167750000Y-155250000D02*
X167750000Y-149500000D01*
%TO.C,J2*%
X156600000Y-154250000D02*
X155975000Y-155250000D01*
X157225000Y-155250000D02*
X156600000Y-154250000D01*
X146650000Y-155250000D02*
X159050000Y-155250000D01*
X146650000Y-149500000D02*
X146650000Y-155250000D01*
X159050000Y-149500000D02*
X146650000Y-149500000D01*
X159050000Y-155250000D02*
X159050000Y-149500000D01*
%TO.C,U1*%
X145035000Y-126830000D02*
X150385000Y-126830000D01*
X150385000Y-126830000D02*
X150385000Y-136990000D01*
X150385000Y-136990000D02*
X144035000Y-136990000D01*
X144035000Y-136990000D02*
X144035000Y-127830000D01*
X144035000Y-127830000D02*
X145035000Y-126830000D01*
%TO.C,J1*%
X147230000Y-73270000D02*
X147230000Y-71365000D01*
X147230000Y-71365000D02*
X147865000Y-70730000D01*
X147865000Y-70730000D02*
X182790000Y-70730000D01*
X182790000Y-70730000D02*
X182790000Y-73270000D01*
X182790000Y-73270000D02*
X147230000Y-73270000D01*
%TO.C,C5*%
X159350000Y-130600000D02*
G75*
G03*
X159350000Y-130600000I-2250000J0D01*
G01*
X155181920Y-129622500D02*
X155631920Y-129622500D01*
X155406920Y-129397500D02*
X155406920Y-129847500D01*
%TO.C,C3*%
X147550000Y-143300000D02*
G75*
G03*
X147550000Y-143300000I-4000000J0D01*
G01*
X146976759Y-145047500D02*
X146176759Y-145047500D01*
X146576759Y-145447500D02*
X146576759Y-144647500D01*
%TD*%
%TO.C,BT1*%
D11*
X175166666Y-126152380D02*
X174690476Y-126152380D01*
X174690476Y-125152380D01*
X175500000Y-126152380D02*
X175500000Y-125152380D01*
X176547619Y-126152380D02*
X176214285Y-125676190D01*
X175976190Y-126152380D02*
X175976190Y-125152380D01*
X176357142Y-125152380D01*
X176452380Y-125200000D01*
X176500000Y-125247619D01*
X176547619Y-125342857D01*
X176547619Y-125485714D01*
X176500000Y-125580952D01*
X176452380Y-125628571D01*
X176357142Y-125676190D01*
X175976190Y-125676190D01*
X176928571Y-125247619D02*
X176976190Y-125200000D01*
X177071428Y-125152380D01*
X177309523Y-125152380D01*
X177404761Y-125200000D01*
X177452380Y-125247619D01*
X177500000Y-125342857D01*
X177500000Y-125438095D01*
X177452380Y-125580952D01*
X176880952Y-126152380D01*
X177500000Y-126152380D01*
X178119047Y-125152380D02*
X178214285Y-125152380D01*
X178309523Y-125200000D01*
X178357142Y-125247619D01*
X178404761Y-125342857D01*
X178452380Y-125533333D01*
X178452380Y-125771428D01*
X178404761Y-125961904D01*
X178357142Y-126057142D01*
X178309523Y-126104761D01*
X178214285Y-126152380D01*
X178119047Y-126152380D01*
X178023809Y-126104761D01*
X177976190Y-126057142D01*
X177928571Y-125961904D01*
X177880952Y-125771428D01*
X177880952Y-125533333D01*
X177928571Y-125342857D01*
X177976190Y-125247619D01*
X178023809Y-125200000D01*
X178119047Y-125152380D01*
X178785714Y-125152380D02*
X179404761Y-125152380D01*
X179071428Y-125533333D01*
X179214285Y-125533333D01*
X179309523Y-125580952D01*
X179357142Y-125628571D01*
X179404761Y-125723809D01*
X179404761Y-125961904D01*
X179357142Y-126057142D01*
X179309523Y-126104761D01*
X179214285Y-126152380D01*
X178928571Y-126152380D01*
X178833333Y-126104761D01*
X178785714Y-126057142D01*
X179785714Y-125247619D02*
X179833333Y-125200000D01*
X179928571Y-125152380D01*
X180166666Y-125152380D01*
X180261904Y-125200000D01*
X180309523Y-125247619D01*
X180357142Y-125342857D01*
X180357142Y-125438095D01*
X180309523Y-125580952D01*
X179738095Y-126152380D01*
X180357142Y-126152380D01*
X191714285Y-138628571D02*
X191857142Y-138676190D01*
X191904761Y-138723809D01*
X191952380Y-138819047D01*
X191952380Y-138961904D01*
X191904761Y-139057142D01*
X191857142Y-139104761D01*
X191761904Y-139152380D01*
X191380952Y-139152380D01*
X191380952Y-138152380D01*
X191714285Y-138152380D01*
X191809523Y-138200000D01*
X191857142Y-138247619D01*
X191904761Y-138342857D01*
X191904761Y-138438095D01*
X191857142Y-138533333D01*
X191809523Y-138580952D01*
X191714285Y-138628571D01*
X191380952Y-138628571D01*
X192238095Y-138152380D02*
X192809523Y-138152380D01*
X192523809Y-139152380D02*
X192523809Y-138152380D01*
X193666666Y-139152380D02*
X193095238Y-139152380D01*
X193380952Y-139152380D02*
X193380952Y-138152380D01*
X193285714Y-138295238D01*
X193190476Y-138390476D01*
X193095238Y-138438095D01*
%TO.C,C2*%
X147832380Y-123095238D02*
X147832380Y-123666666D01*
X147832380Y-123380952D02*
X146832380Y-123380952D01*
X146975238Y-123476190D01*
X147070476Y-123571428D01*
X147118095Y-123666666D01*
X147165714Y-122238095D02*
X147832380Y-122238095D01*
X147165714Y-122666666D02*
X147689523Y-122666666D01*
X147784761Y-122619047D01*
X147832380Y-122523809D01*
X147832380Y-122380952D01*
X147784761Y-122285714D01*
X147737142Y-122238095D01*
X147308571Y-121428571D02*
X147308571Y-121761904D01*
X147832380Y-121761904D02*
X146832380Y-121761904D01*
X146832380Y-121285714D01*
D12*
X145878571Y-122583333D02*
X145902380Y-122607142D01*
X145926190Y-122678571D01*
X145926190Y-122726190D01*
X145902380Y-122797619D01*
X145854761Y-122845238D01*
X145807142Y-122869047D01*
X145711904Y-122892857D01*
X145640476Y-122892857D01*
X145545238Y-122869047D01*
X145497619Y-122845238D01*
X145450000Y-122797619D01*
X145426190Y-122726190D01*
X145426190Y-122678571D01*
X145450000Y-122607142D01*
X145473809Y-122583333D01*
X145473809Y-122392857D02*
X145450000Y-122369047D01*
X145426190Y-122321428D01*
X145426190Y-122202380D01*
X145450000Y-122154761D01*
X145473809Y-122130952D01*
X145521428Y-122107142D01*
X145569047Y-122107142D01*
X145640476Y-122130952D01*
X145926190Y-122416666D01*
X145926190Y-122107142D01*
%TO.C,C6*%
D11*
X155865714Y-137866666D02*
X156532380Y-137866666D01*
X155484761Y-138104761D02*
X156199047Y-138342857D01*
X156199047Y-137723809D01*
X155532380Y-137438095D02*
X155532380Y-136771428D01*
X156532380Y-137200000D01*
X155865714Y-136390476D02*
X156532380Y-136390476D01*
X155960952Y-136390476D02*
X155913333Y-136342857D01*
X155865714Y-136247619D01*
X155865714Y-136104761D01*
X155913333Y-136009523D01*
X156008571Y-135961904D01*
X156532380Y-135961904D01*
X156008571Y-135152380D02*
X156008571Y-135485714D01*
X156532380Y-135485714D02*
X155532380Y-135485714D01*
X155532380Y-135009523D01*
D12*
X154578571Y-136783333D02*
X154602380Y-136807142D01*
X154626190Y-136878571D01*
X154626190Y-136926190D01*
X154602380Y-136997619D01*
X154554761Y-137045238D01*
X154507142Y-137069047D01*
X154411904Y-137092857D01*
X154340476Y-137092857D01*
X154245238Y-137069047D01*
X154197619Y-137045238D01*
X154150000Y-136997619D01*
X154126190Y-136926190D01*
X154126190Y-136878571D01*
X154150000Y-136807142D01*
X154173809Y-136783333D01*
X154126190Y-136354761D02*
X154126190Y-136450000D01*
X154150000Y-136497619D01*
X154173809Y-136521428D01*
X154245238Y-136569047D01*
X154340476Y-136592857D01*
X154530952Y-136592857D01*
X154578571Y-136569047D01*
X154602380Y-136545238D01*
X154626190Y-136497619D01*
X154626190Y-136402380D01*
X154602380Y-136354761D01*
X154578571Y-136330952D01*
X154530952Y-136307142D01*
X154411904Y-136307142D01*
X154364285Y-136330952D01*
X154340476Y-136354761D01*
X154316666Y-136402380D01*
X154316666Y-136497619D01*
X154340476Y-136545238D01*
X154364285Y-136569047D01*
X154411904Y-136592857D01*
%TO.C,C1*%
D11*
X143052380Y-117372380D02*
X142480952Y-117372380D01*
X142766666Y-117372380D02*
X142766666Y-116372380D01*
X142671428Y-116515238D01*
X142576190Y-116610476D01*
X142480952Y-116658095D01*
X143671428Y-116372380D02*
X143766666Y-116372380D01*
X143861904Y-116420000D01*
X143909523Y-116467619D01*
X143957142Y-116562857D01*
X144004761Y-116753333D01*
X144004761Y-116991428D01*
X143957142Y-117181904D01*
X143909523Y-117277142D01*
X143861904Y-117324761D01*
X143766666Y-117372380D01*
X143671428Y-117372380D01*
X143576190Y-117324761D01*
X143528571Y-117277142D01*
X143480952Y-117181904D01*
X143433333Y-116991428D01*
X143433333Y-116753333D01*
X143480952Y-116562857D01*
X143528571Y-116467619D01*
X143576190Y-116420000D01*
X143671428Y-116372380D01*
X144623809Y-116372380D02*
X144719047Y-116372380D01*
X144814285Y-116420000D01*
X144861904Y-116467619D01*
X144909523Y-116562857D01*
X144957142Y-116753333D01*
X144957142Y-116991428D01*
X144909523Y-117181904D01*
X144861904Y-117277142D01*
X144814285Y-117324761D01*
X144719047Y-117372380D01*
X144623809Y-117372380D01*
X144528571Y-117324761D01*
X144480952Y-117277142D01*
X144433333Y-117181904D01*
X144385714Y-116991428D01*
X144385714Y-116753333D01*
X144433333Y-116562857D01*
X144480952Y-116467619D01*
X144528571Y-116420000D01*
X144623809Y-116372380D01*
X145385714Y-116705714D02*
X145385714Y-117372380D01*
X145385714Y-116800952D02*
X145433333Y-116753333D01*
X145528571Y-116705714D01*
X145671428Y-116705714D01*
X145766666Y-116753333D01*
X145814285Y-116848571D01*
X145814285Y-117372380D01*
X146623809Y-116848571D02*
X146290476Y-116848571D01*
X146290476Y-117372380D02*
X146290476Y-116372380D01*
X146766666Y-116372380D01*
D12*
X144516666Y-118778571D02*
X144492857Y-118802380D01*
X144421428Y-118826190D01*
X144373809Y-118826190D01*
X144302380Y-118802380D01*
X144254761Y-118754761D01*
X144230952Y-118707142D01*
X144207142Y-118611904D01*
X144207142Y-118540476D01*
X144230952Y-118445238D01*
X144254761Y-118397619D01*
X144302380Y-118350000D01*
X144373809Y-118326190D01*
X144421428Y-118326190D01*
X144492857Y-118350000D01*
X144516666Y-118373809D01*
X144992857Y-118826190D02*
X144707142Y-118826190D01*
X144850000Y-118826190D02*
X144850000Y-118326190D01*
X144802380Y-118397619D01*
X144754761Y-118445238D01*
X144707142Y-118469047D01*
%TO.C,R11*%
D11*
X185771428Y-125835714D02*
X185771428Y-126502380D01*
X185533333Y-125454761D02*
X185295238Y-126169047D01*
X185914285Y-126169047D01*
X186295238Y-126407142D02*
X186342857Y-126454761D01*
X186295238Y-126502380D01*
X186247619Y-126454761D01*
X186295238Y-126407142D01*
X186295238Y-126502380D01*
X186676190Y-125502380D02*
X187342857Y-125502380D01*
X186914285Y-126502380D01*
X187723809Y-126502380D02*
X187723809Y-125502380D01*
X187819047Y-126121428D02*
X188104761Y-126502380D01*
X188104761Y-125835714D02*
X187723809Y-126216666D01*
D12*
X186378571Y-124626190D02*
X186211904Y-124388095D01*
X186092857Y-124626190D02*
X186092857Y-124126190D01*
X186283333Y-124126190D01*
X186330952Y-124150000D01*
X186354761Y-124173809D01*
X186378571Y-124221428D01*
X186378571Y-124292857D01*
X186354761Y-124340476D01*
X186330952Y-124364285D01*
X186283333Y-124388095D01*
X186092857Y-124388095D01*
X186854761Y-124626190D02*
X186569047Y-124626190D01*
X186711904Y-124626190D02*
X186711904Y-124126190D01*
X186664285Y-124197619D01*
X186616666Y-124245238D01*
X186569047Y-124269047D01*
X187330952Y-124626190D02*
X187045238Y-124626190D01*
X187188095Y-124626190D02*
X187188095Y-124126190D01*
X187140476Y-124197619D01*
X187092857Y-124245238D01*
X187045238Y-124269047D01*
%TO.C,R10*%
D11*
X144004761Y-116202380D02*
X143433333Y-116202380D01*
X143719047Y-116202380D02*
X143719047Y-115202380D01*
X143623809Y-115345238D01*
X143528571Y-115440476D01*
X143433333Y-115488095D01*
X144623809Y-115202380D02*
X144719047Y-115202380D01*
X144814285Y-115250000D01*
X144861904Y-115297619D01*
X144909523Y-115392857D01*
X144957142Y-115583333D01*
X144957142Y-115821428D01*
X144909523Y-116011904D01*
X144861904Y-116107142D01*
X144814285Y-116154761D01*
X144719047Y-116202380D01*
X144623809Y-116202380D01*
X144528571Y-116154761D01*
X144480952Y-116107142D01*
X144433333Y-116011904D01*
X144385714Y-115821428D01*
X144385714Y-115583333D01*
X144433333Y-115392857D01*
X144480952Y-115297619D01*
X144528571Y-115250000D01*
X144623809Y-115202380D01*
X145385714Y-116202380D02*
X145385714Y-115202380D01*
X145480952Y-115821428D02*
X145766666Y-116202380D01*
X145766666Y-115535714D02*
X145385714Y-115916666D01*
D12*
X144278571Y-114326190D02*
X144111904Y-114088095D01*
X143992857Y-114326190D02*
X143992857Y-113826190D01*
X144183333Y-113826190D01*
X144230952Y-113850000D01*
X144254761Y-113873809D01*
X144278571Y-113921428D01*
X144278571Y-113992857D01*
X144254761Y-114040476D01*
X144230952Y-114064285D01*
X144183333Y-114088095D01*
X143992857Y-114088095D01*
X144754761Y-114326190D02*
X144469047Y-114326190D01*
X144611904Y-114326190D02*
X144611904Y-113826190D01*
X144564285Y-113897619D01*
X144516666Y-113945238D01*
X144469047Y-113969047D01*
X145064285Y-113826190D02*
X145111904Y-113826190D01*
X145159523Y-113850000D01*
X145183333Y-113873809D01*
X145207142Y-113921428D01*
X145230952Y-114016666D01*
X145230952Y-114135714D01*
X145207142Y-114230952D01*
X145183333Y-114278571D01*
X145159523Y-114302380D01*
X145111904Y-114326190D01*
X145064285Y-114326190D01*
X145016666Y-114302380D01*
X144992857Y-114278571D01*
X144969047Y-114230952D01*
X144945238Y-114135714D01*
X144945238Y-114016666D01*
X144969047Y-113921428D01*
X144992857Y-113873809D01*
X145016666Y-113850000D01*
X145064285Y-113826190D01*
%TO.C,R9*%
D11*
X145771428Y-104735714D02*
X145771428Y-105402380D01*
X145533333Y-104354761D02*
X145295238Y-105069047D01*
X145914285Y-105069047D01*
X146295238Y-105307142D02*
X146342857Y-105354761D01*
X146295238Y-105402380D01*
X146247619Y-105354761D01*
X146295238Y-105307142D01*
X146295238Y-105402380D01*
X146676190Y-104402380D02*
X147342857Y-104402380D01*
X146914285Y-105402380D01*
X147723809Y-105402380D02*
X147723809Y-104402380D01*
X147819047Y-105021428D02*
X148104761Y-105402380D01*
X148104761Y-104735714D02*
X147723809Y-105116666D01*
D12*
X146616666Y-103526190D02*
X146450000Y-103288095D01*
X146330952Y-103526190D02*
X146330952Y-103026190D01*
X146521428Y-103026190D01*
X146569047Y-103050000D01*
X146592857Y-103073809D01*
X146616666Y-103121428D01*
X146616666Y-103192857D01*
X146592857Y-103240476D01*
X146569047Y-103264285D01*
X146521428Y-103288095D01*
X146330952Y-103288095D01*
X146854761Y-103526190D02*
X146950000Y-103526190D01*
X146997619Y-103502380D01*
X147021428Y-103478571D01*
X147069047Y-103407142D01*
X147092857Y-103311904D01*
X147092857Y-103121428D01*
X147069047Y-103073809D01*
X147045238Y-103050000D01*
X146997619Y-103026190D01*
X146902380Y-103026190D01*
X146854761Y-103050000D01*
X146830952Y-103073809D01*
X146807142Y-103121428D01*
X146807142Y-103240476D01*
X146830952Y-103288095D01*
X146854761Y-103311904D01*
X146902380Y-103335714D01*
X146997619Y-103335714D01*
X147045238Y-103311904D01*
X147069047Y-103288095D01*
X147092857Y-103240476D01*
%TO.C,R8*%
D11*
X146004761Y-97502380D02*
X145433333Y-97502380D01*
X145719047Y-97502380D02*
X145719047Y-96502380D01*
X145623809Y-96645238D01*
X145528571Y-96740476D01*
X145433333Y-96788095D01*
X146623809Y-96502380D02*
X146719047Y-96502380D01*
X146814285Y-96550000D01*
X146861904Y-96597619D01*
X146909523Y-96692857D01*
X146957142Y-96883333D01*
X146957142Y-97121428D01*
X146909523Y-97311904D01*
X146861904Y-97407142D01*
X146814285Y-97454761D01*
X146719047Y-97502380D01*
X146623809Y-97502380D01*
X146528571Y-97454761D01*
X146480952Y-97407142D01*
X146433333Y-97311904D01*
X146385714Y-97121428D01*
X146385714Y-96883333D01*
X146433333Y-96692857D01*
X146480952Y-96597619D01*
X146528571Y-96550000D01*
X146623809Y-96502380D01*
X147385714Y-97502380D02*
X147385714Y-96502380D01*
X147480952Y-97121428D02*
X147766666Y-97502380D01*
X147766666Y-96835714D02*
X147385714Y-97216666D01*
D12*
X146516666Y-98926190D02*
X146350000Y-98688095D01*
X146230952Y-98926190D02*
X146230952Y-98426190D01*
X146421428Y-98426190D01*
X146469047Y-98450000D01*
X146492857Y-98473809D01*
X146516666Y-98521428D01*
X146516666Y-98592857D01*
X146492857Y-98640476D01*
X146469047Y-98664285D01*
X146421428Y-98688095D01*
X146230952Y-98688095D01*
X146802380Y-98640476D02*
X146754761Y-98616666D01*
X146730952Y-98592857D01*
X146707142Y-98545238D01*
X146707142Y-98521428D01*
X146730952Y-98473809D01*
X146754761Y-98450000D01*
X146802380Y-98426190D01*
X146897619Y-98426190D01*
X146945238Y-98450000D01*
X146969047Y-98473809D01*
X146992857Y-98521428D01*
X146992857Y-98545238D01*
X146969047Y-98592857D01*
X146945238Y-98616666D01*
X146897619Y-98640476D01*
X146802380Y-98640476D01*
X146754761Y-98664285D01*
X146730952Y-98688095D01*
X146707142Y-98735714D01*
X146707142Y-98830952D01*
X146730952Y-98878571D01*
X146754761Y-98902380D01*
X146802380Y-98926190D01*
X146897619Y-98926190D01*
X146945238Y-98902380D01*
X146969047Y-98878571D01*
X146992857Y-98830952D01*
X146992857Y-98735714D01*
X146969047Y-98688095D01*
X146945238Y-98664285D01*
X146897619Y-98640476D01*
%TO.C,R7*%
D11*
X160204761Y-87302380D02*
X159633333Y-87302380D01*
X159919047Y-87302380D02*
X159919047Y-86302380D01*
X159823809Y-86445238D01*
X159728571Y-86540476D01*
X159633333Y-86588095D01*
X160823809Y-86302380D02*
X160919047Y-86302380D01*
X161014285Y-86350000D01*
X161061904Y-86397619D01*
X161109523Y-86492857D01*
X161157142Y-86683333D01*
X161157142Y-86921428D01*
X161109523Y-87111904D01*
X161061904Y-87207142D01*
X161014285Y-87254761D01*
X160919047Y-87302380D01*
X160823809Y-87302380D01*
X160728571Y-87254761D01*
X160680952Y-87207142D01*
X160633333Y-87111904D01*
X160585714Y-86921428D01*
X160585714Y-86683333D01*
X160633333Y-86492857D01*
X160680952Y-86397619D01*
X160728571Y-86350000D01*
X160823809Y-86302380D01*
X161585714Y-87302380D02*
X161585714Y-86302380D01*
X161680952Y-86921428D02*
X161966666Y-87302380D01*
X161966666Y-86635714D02*
X161585714Y-87016666D01*
D12*
X160716666Y-88726190D02*
X160550000Y-88488095D01*
X160430952Y-88726190D02*
X160430952Y-88226190D01*
X160621428Y-88226190D01*
X160669047Y-88250000D01*
X160692857Y-88273809D01*
X160716666Y-88321428D01*
X160716666Y-88392857D01*
X160692857Y-88440476D01*
X160669047Y-88464285D01*
X160621428Y-88488095D01*
X160430952Y-88488095D01*
X160883333Y-88226190D02*
X161216666Y-88226190D01*
X161002380Y-88726190D01*
%TO.C,R6*%
D11*
X181471428Y-122535714D02*
X181471428Y-123202380D01*
X181233333Y-122154761D02*
X180995238Y-122869047D01*
X181614285Y-122869047D01*
X181995238Y-123107142D02*
X182042857Y-123154761D01*
X181995238Y-123202380D01*
X181947619Y-123154761D01*
X181995238Y-123107142D01*
X181995238Y-123202380D01*
X182376190Y-122202380D02*
X183042857Y-122202380D01*
X182614285Y-123202380D01*
X183423809Y-123202380D02*
X183423809Y-122202380D01*
X183519047Y-122821428D02*
X183804761Y-123202380D01*
X183804761Y-122535714D02*
X183423809Y-122916666D01*
D12*
X182316666Y-124626190D02*
X182150000Y-124388095D01*
X182030952Y-124626190D02*
X182030952Y-124126190D01*
X182221428Y-124126190D01*
X182269047Y-124150000D01*
X182292857Y-124173809D01*
X182316666Y-124221428D01*
X182316666Y-124292857D01*
X182292857Y-124340476D01*
X182269047Y-124364285D01*
X182221428Y-124388095D01*
X182030952Y-124388095D01*
X182745238Y-124126190D02*
X182650000Y-124126190D01*
X182602380Y-124150000D01*
X182578571Y-124173809D01*
X182530952Y-124245238D01*
X182507142Y-124340476D01*
X182507142Y-124530952D01*
X182530952Y-124578571D01*
X182554761Y-124602380D01*
X182602380Y-124626190D01*
X182697619Y-124626190D01*
X182745238Y-124602380D01*
X182769047Y-124578571D01*
X182792857Y-124530952D01*
X182792857Y-124411904D01*
X182769047Y-124364285D01*
X182745238Y-124340476D01*
X182697619Y-124316666D01*
X182602380Y-124316666D01*
X182554761Y-124340476D01*
X182530952Y-124364285D01*
X182507142Y-124411904D01*
%TO.C,R5*%
D11*
X158309523Y-137802380D02*
X157738095Y-137802380D01*
X158023809Y-137802380D02*
X158023809Y-136802380D01*
X157928571Y-136945238D01*
X157833333Y-137040476D01*
X157738095Y-137088095D01*
X158928571Y-136802380D02*
X159023809Y-136802380D01*
X159119047Y-136850000D01*
X159166666Y-136897619D01*
X159214285Y-136992857D01*
X159261904Y-137183333D01*
X159261904Y-137421428D01*
X159214285Y-137611904D01*
X159166666Y-137707142D01*
X159119047Y-137754761D01*
X159023809Y-137802380D01*
X158928571Y-137802380D01*
X158833333Y-137754761D01*
X158785714Y-137707142D01*
X158738095Y-137611904D01*
X158690476Y-137421428D01*
X158690476Y-137183333D01*
X158738095Y-136992857D01*
X158785714Y-136897619D01*
X158833333Y-136850000D01*
X158928571Y-136802380D01*
D12*
X158726190Y-135783333D02*
X158488095Y-135950000D01*
X158726190Y-136069047D02*
X158226190Y-136069047D01*
X158226190Y-135878571D01*
X158250000Y-135830952D01*
X158273809Y-135807142D01*
X158321428Y-135783333D01*
X158392857Y-135783333D01*
X158440476Y-135807142D01*
X158464285Y-135830952D01*
X158488095Y-135878571D01*
X158488095Y-136069047D01*
X158226190Y-135330952D02*
X158226190Y-135569047D01*
X158464285Y-135592857D01*
X158440476Y-135569047D01*
X158416666Y-135521428D01*
X158416666Y-135402380D01*
X158440476Y-135354761D01*
X158464285Y-135330952D01*
X158511904Y-135307142D01*
X158630952Y-135307142D01*
X158678571Y-135330952D01*
X158702380Y-135354761D01*
X158726190Y-135402380D01*
X158726190Y-135521428D01*
X158702380Y-135569047D01*
X158678571Y-135592857D01*
%TO.C,R4*%
D11*
X138504761Y-98202380D02*
X137933333Y-98202380D01*
X138219047Y-98202380D02*
X138219047Y-97202380D01*
X138123809Y-97345238D01*
X138028571Y-97440476D01*
X137933333Y-97488095D01*
X139123809Y-97202380D02*
X139219047Y-97202380D01*
X139314285Y-97250000D01*
X139361904Y-97297619D01*
X139409523Y-97392857D01*
X139457142Y-97583333D01*
X139457142Y-97821428D01*
X139409523Y-98011904D01*
X139361904Y-98107142D01*
X139314285Y-98154761D01*
X139219047Y-98202380D01*
X139123809Y-98202380D01*
X139028571Y-98154761D01*
X138980952Y-98107142D01*
X138933333Y-98011904D01*
X138885714Y-97821428D01*
X138885714Y-97583333D01*
X138933333Y-97392857D01*
X138980952Y-97297619D01*
X139028571Y-97250000D01*
X139123809Y-97202380D01*
X139885714Y-98202380D02*
X139885714Y-97202380D01*
X139980952Y-97821428D02*
X140266666Y-98202380D01*
X140266666Y-97535714D02*
X139885714Y-97916666D01*
D12*
X139016666Y-99626190D02*
X138850000Y-99388095D01*
X138730952Y-99626190D02*
X138730952Y-99126190D01*
X138921428Y-99126190D01*
X138969047Y-99150000D01*
X138992857Y-99173809D01*
X139016666Y-99221428D01*
X139016666Y-99292857D01*
X138992857Y-99340476D01*
X138969047Y-99364285D01*
X138921428Y-99388095D01*
X138730952Y-99388095D01*
X139445238Y-99292857D02*
X139445238Y-99626190D01*
X139326190Y-99102380D02*
X139207142Y-99459523D01*
X139516666Y-99459523D01*
%TO.C,R3*%
D11*
X146480952Y-95702380D02*
X145909523Y-95702380D01*
X146195238Y-95702380D02*
X146195238Y-94702380D01*
X146100000Y-94845238D01*
X146004761Y-94940476D01*
X145909523Y-94988095D01*
X146909523Y-95702380D02*
X146909523Y-94702380D01*
X147004761Y-95321428D02*
X147290476Y-95702380D01*
X147290476Y-95035714D02*
X146909523Y-95416666D01*
D12*
X146516666Y-93826190D02*
X146350000Y-93588095D01*
X146230952Y-93826190D02*
X146230952Y-93326190D01*
X146421428Y-93326190D01*
X146469047Y-93350000D01*
X146492857Y-93373809D01*
X146516666Y-93421428D01*
X146516666Y-93492857D01*
X146492857Y-93540476D01*
X146469047Y-93564285D01*
X146421428Y-93588095D01*
X146230952Y-93588095D01*
X146683333Y-93326190D02*
X146992857Y-93326190D01*
X146826190Y-93516666D01*
X146897619Y-93516666D01*
X146945238Y-93540476D01*
X146969047Y-93564285D01*
X146992857Y-93611904D01*
X146992857Y-93730952D01*
X146969047Y-93778571D01*
X146945238Y-93802380D01*
X146897619Y-93826190D01*
X146754761Y-93826190D01*
X146707142Y-93802380D01*
X146683333Y-93778571D01*
%TO.C,R2*%
D11*
X157302380Y-64047619D02*
X157302380Y-63952380D01*
X157350000Y-63857142D01*
X157397619Y-63809523D01*
X157492857Y-63761904D01*
X157683333Y-63714285D01*
X157921428Y-63714285D01*
X158111904Y-63761904D01*
X158207142Y-63809523D01*
X158254761Y-63857142D01*
X158302380Y-63952380D01*
X158302380Y-64047619D01*
X158254761Y-64142857D01*
X158207142Y-64190476D01*
X158111904Y-64238095D01*
X157921428Y-64285714D01*
X157683333Y-64285714D01*
X157492857Y-64238095D01*
X157397619Y-64190476D01*
X157350000Y-64142857D01*
X157302380Y-64047619D01*
D12*
X156426190Y-64083333D02*
X156188095Y-64250000D01*
X156426190Y-64369047D02*
X155926190Y-64369047D01*
X155926190Y-64178571D01*
X155950000Y-64130952D01*
X155973809Y-64107142D01*
X156021428Y-64083333D01*
X156092857Y-64083333D01*
X156140476Y-64107142D01*
X156164285Y-64130952D01*
X156188095Y-64178571D01*
X156188095Y-64369047D01*
X155973809Y-63892857D02*
X155950000Y-63869047D01*
X155926190Y-63821428D01*
X155926190Y-63702380D01*
X155950000Y-63654761D01*
X155973809Y-63630952D01*
X156021428Y-63607142D01*
X156069047Y-63607142D01*
X156140476Y-63630952D01*
X156426190Y-63916666D01*
X156426190Y-63607142D01*
%TO.C,R1*%
D11*
X159633333Y-83897619D02*
X159680952Y-83850000D01*
X159776190Y-83802380D01*
X160014285Y-83802380D01*
X160109523Y-83850000D01*
X160157142Y-83897619D01*
X160204761Y-83992857D01*
X160204761Y-84088095D01*
X160157142Y-84230952D01*
X159585714Y-84802380D01*
X160204761Y-84802380D01*
X160823809Y-83802380D02*
X160919047Y-83802380D01*
X161014285Y-83850000D01*
X161061904Y-83897619D01*
X161109523Y-83992857D01*
X161157142Y-84183333D01*
X161157142Y-84421428D01*
X161109523Y-84611904D01*
X161061904Y-84707142D01*
X161014285Y-84754761D01*
X160919047Y-84802380D01*
X160823809Y-84802380D01*
X160728571Y-84754761D01*
X160680952Y-84707142D01*
X160633333Y-84611904D01*
X160585714Y-84421428D01*
X160585714Y-84183333D01*
X160633333Y-83992857D01*
X160680952Y-83897619D01*
X160728571Y-83850000D01*
X160823809Y-83802380D01*
X161585714Y-84802380D02*
X161585714Y-83802380D01*
X161680952Y-84421428D02*
X161966666Y-84802380D01*
X161966666Y-84135714D02*
X161585714Y-84516666D01*
D12*
X160716666Y-86226190D02*
X160550000Y-85988095D01*
X160430952Y-86226190D02*
X160430952Y-85726190D01*
X160621428Y-85726190D01*
X160669047Y-85750000D01*
X160692857Y-85773809D01*
X160716666Y-85821428D01*
X160716666Y-85892857D01*
X160692857Y-85940476D01*
X160669047Y-85964285D01*
X160621428Y-85988095D01*
X160430952Y-85988095D01*
X161192857Y-86226190D02*
X160907142Y-86226190D01*
X161050000Y-86226190D02*
X161050000Y-85726190D01*
X161002380Y-85797619D01*
X160954761Y-85845238D01*
X160907142Y-85869047D01*
%TO.C,Q1*%
D11*
X137255714Y-108437619D02*
X137303333Y-108390000D01*
X137398571Y-108342380D01*
X137636666Y-108342380D01*
X137731904Y-108390000D01*
X137779523Y-108437619D01*
X137827142Y-108532857D01*
X137827142Y-108628095D01*
X137779523Y-108770952D01*
X137208095Y-109342380D01*
X137827142Y-109342380D01*
X138255714Y-109342380D02*
X138255714Y-108342380D01*
X138827142Y-109342380D01*
X138827142Y-108342380D01*
X139208095Y-108342380D02*
X139874761Y-108342380D01*
X139446190Y-109342380D01*
X140446190Y-108342380D02*
X140541428Y-108342380D01*
X140636666Y-108390000D01*
X140684285Y-108437619D01*
X140731904Y-108532857D01*
X140779523Y-108723333D01*
X140779523Y-108961428D01*
X140731904Y-109151904D01*
X140684285Y-109247142D01*
X140636666Y-109294761D01*
X140541428Y-109342380D01*
X140446190Y-109342380D01*
X140350952Y-109294761D01*
X140303333Y-109247142D01*
X140255714Y-109151904D01*
X140208095Y-108961428D01*
X140208095Y-108723333D01*
X140255714Y-108532857D01*
X140303333Y-108437619D01*
X140350952Y-108390000D01*
X140446190Y-108342380D01*
X141398571Y-108342380D02*
X141493809Y-108342380D01*
X141589047Y-108390000D01*
X141636666Y-108437619D01*
X141684285Y-108532857D01*
X141731904Y-108723333D01*
X141731904Y-108961428D01*
X141684285Y-109151904D01*
X141636666Y-109247142D01*
X141589047Y-109294761D01*
X141493809Y-109342380D01*
X141398571Y-109342380D01*
X141303333Y-109294761D01*
X141255714Y-109247142D01*
X141208095Y-109151904D01*
X141160476Y-108961428D01*
X141160476Y-108723333D01*
X141208095Y-108532857D01*
X141255714Y-108437619D01*
X141303333Y-108390000D01*
X141398571Y-108342380D01*
X142350952Y-108342380D02*
X142446190Y-108342380D01*
X142541428Y-108390000D01*
X142589047Y-108437619D01*
X142636666Y-108532857D01*
X142684285Y-108723333D01*
X142684285Y-108961428D01*
X142636666Y-109151904D01*
X142589047Y-109247142D01*
X142541428Y-109294761D01*
X142446190Y-109342380D01*
X142350952Y-109342380D01*
X142255714Y-109294761D01*
X142208095Y-109247142D01*
X142160476Y-109151904D01*
X142112857Y-108961428D01*
X142112857Y-108723333D01*
X142160476Y-108532857D01*
X142208095Y-108437619D01*
X142255714Y-108390000D01*
X142350952Y-108342380D01*
X139874761Y-106647619D02*
X139779523Y-106600000D01*
X139684285Y-106504761D01*
X139541428Y-106361904D01*
X139446190Y-106314285D01*
X139350952Y-106314285D01*
X139398571Y-106552380D02*
X139303333Y-106504761D01*
X139208095Y-106409523D01*
X139160476Y-106219047D01*
X139160476Y-105885714D01*
X139208095Y-105695238D01*
X139303333Y-105600000D01*
X139398571Y-105552380D01*
X139589047Y-105552380D01*
X139684285Y-105600000D01*
X139779523Y-105695238D01*
X139827142Y-105885714D01*
X139827142Y-106219047D01*
X139779523Y-106409523D01*
X139684285Y-106504761D01*
X139589047Y-106552380D01*
X139398571Y-106552380D01*
X140779523Y-106552380D02*
X140208095Y-106552380D01*
X140493809Y-106552380D02*
X140493809Y-105552380D01*
X140398571Y-105695238D01*
X140303333Y-105790476D01*
X140208095Y-105838095D01*
%TO.C,C7*%
X153157142Y-143616666D02*
X153204761Y-143664285D01*
X153252380Y-143807142D01*
X153252380Y-143902380D01*
X153204761Y-144045238D01*
X153109523Y-144140476D01*
X153014285Y-144188095D01*
X152823809Y-144235714D01*
X152680952Y-144235714D01*
X152490476Y-144188095D01*
X152395238Y-144140476D01*
X152300000Y-144045238D01*
X152252380Y-143902380D01*
X152252380Y-143807142D01*
X152300000Y-143664285D01*
X152347619Y-143616666D01*
X152252380Y-143283333D02*
X152252380Y-142616666D01*
X153252380Y-143045238D01*
%TO.C,J4*%
X150652380Y-64183333D02*
X151366666Y-64183333D01*
X151509523Y-64230952D01*
X151604761Y-64326190D01*
X151652380Y-64469047D01*
X151652380Y-64564285D01*
X150985714Y-63278571D02*
X151652380Y-63278571D01*
X150604761Y-63516666D02*
X151319047Y-63754761D01*
X151319047Y-63135714D01*
%TO.C,J3*%
X163716666Y-149652380D02*
X163716666Y-150366666D01*
X163669047Y-150509523D01*
X163573809Y-150604761D01*
X163430952Y-150652380D01*
X163335714Y-150652380D01*
X164097619Y-149652380D02*
X164716666Y-149652380D01*
X164383333Y-150033333D01*
X164526190Y-150033333D01*
X164621428Y-150080952D01*
X164669047Y-150128571D01*
X164716666Y-150223809D01*
X164716666Y-150461904D01*
X164669047Y-150557142D01*
X164621428Y-150604761D01*
X164526190Y-150652380D01*
X164240476Y-150652380D01*
X164145238Y-150604761D01*
X164097619Y-150557142D01*
%TO.C,J2*%
X152516666Y-149652380D02*
X152516666Y-150366666D01*
X152469047Y-150509523D01*
X152373809Y-150604761D01*
X152230952Y-150652380D01*
X152135714Y-150652380D01*
X152945238Y-149747619D02*
X152992857Y-149700000D01*
X153088095Y-149652380D01*
X153326190Y-149652380D01*
X153421428Y-149700000D01*
X153469047Y-149747619D01*
X153516666Y-149842857D01*
X153516666Y-149938095D01*
X153469047Y-150080952D01*
X152897619Y-150652380D01*
X153516666Y-150652380D01*
%TO.C,H8*%
X188214285Y-135802380D02*
X188214285Y-134802380D01*
X188547619Y-135516666D01*
X188880952Y-134802380D01*
X188880952Y-135802380D01*
X189500000Y-135802380D02*
X189404761Y-135754761D01*
X189357142Y-135707142D01*
X189309523Y-135611904D01*
X189309523Y-135326190D01*
X189357142Y-135230952D01*
X189404761Y-135183333D01*
X189500000Y-135135714D01*
X189642857Y-135135714D01*
X189738095Y-135183333D01*
X189785714Y-135230952D01*
X189833333Y-135326190D01*
X189833333Y-135611904D01*
X189785714Y-135707142D01*
X189738095Y-135754761D01*
X189642857Y-135802380D01*
X189500000Y-135802380D01*
X190690476Y-135135714D02*
X190690476Y-135802380D01*
X190261904Y-135135714D02*
X190261904Y-135659523D01*
X190309523Y-135754761D01*
X190404761Y-135802380D01*
X190547619Y-135802380D01*
X190642857Y-135754761D01*
X190690476Y-135707142D01*
X191166666Y-135135714D02*
X191166666Y-135802380D01*
X191166666Y-135230952D02*
X191214285Y-135183333D01*
X191309523Y-135135714D01*
X191452380Y-135135714D01*
X191547619Y-135183333D01*
X191595238Y-135278571D01*
X191595238Y-135802380D01*
X191928571Y-135135714D02*
X192309523Y-135135714D01*
X192071428Y-134802380D02*
X192071428Y-135659523D01*
X192119047Y-135754761D01*
X192214285Y-135802380D01*
X192309523Y-135802380D01*
X192642857Y-135802380D02*
X192642857Y-135135714D01*
X192642857Y-134802380D02*
X192595238Y-134850000D01*
X192642857Y-134897619D01*
X192690476Y-134850000D01*
X192642857Y-134802380D01*
X192642857Y-134897619D01*
X193119047Y-135135714D02*
X193119047Y-135802380D01*
X193119047Y-135230952D02*
X193166666Y-135183333D01*
X193261904Y-135135714D01*
X193404761Y-135135714D01*
X193500000Y-135183333D01*
X193547619Y-135278571D01*
X193547619Y-135802380D01*
X194452380Y-135135714D02*
X194452380Y-135945238D01*
X194404761Y-136040476D01*
X194357142Y-136088095D01*
X194261904Y-136135714D01*
X194119047Y-136135714D01*
X194023809Y-136088095D01*
X194452380Y-135754761D02*
X194357142Y-135802380D01*
X194166666Y-135802380D01*
X194071428Y-135754761D01*
X194023809Y-135707142D01*
X193976190Y-135611904D01*
X193976190Y-135326190D01*
X194023809Y-135230952D01*
X194071428Y-135183333D01*
X194166666Y-135135714D01*
X194357142Y-135135714D01*
X194452380Y-135183333D01*
X194928571Y-135802380D02*
X194928571Y-134802380D01*
X194928571Y-135278571D02*
X195500000Y-135278571D01*
X195500000Y-135802380D02*
X195500000Y-134802380D01*
X196119047Y-135802380D02*
X196023809Y-135754761D01*
X195976190Y-135707142D01*
X195928571Y-135611904D01*
X195928571Y-135326190D01*
X195976190Y-135230952D01*
X196023809Y-135183333D01*
X196119047Y-135135714D01*
X196261904Y-135135714D01*
X196357142Y-135183333D01*
X196404761Y-135230952D01*
X196452380Y-135326190D01*
X196452380Y-135611904D01*
X196404761Y-135707142D01*
X196357142Y-135754761D01*
X196261904Y-135802380D01*
X196119047Y-135802380D01*
X197023809Y-135802380D02*
X196928571Y-135754761D01*
X196880952Y-135659523D01*
X196880952Y-134802380D01*
X197785714Y-135754761D02*
X197690476Y-135802380D01*
X197500000Y-135802380D01*
X197404761Y-135754761D01*
X197357142Y-135659523D01*
X197357142Y-135278571D01*
X197404761Y-135183333D01*
X197500000Y-135135714D01*
X197690476Y-135135714D01*
X197785714Y-135183333D01*
X197833333Y-135278571D01*
X197833333Y-135373809D01*
X197357142Y-135469047D01*
X192538095Y-132452380D02*
X192538095Y-131452380D01*
X192538095Y-131928571D02*
X193109523Y-131928571D01*
X193109523Y-132452380D02*
X193109523Y-131452380D01*
X193728571Y-131880952D02*
X193633333Y-131833333D01*
X193585714Y-131785714D01*
X193538095Y-131690476D01*
X193538095Y-131642857D01*
X193585714Y-131547619D01*
X193633333Y-131500000D01*
X193728571Y-131452380D01*
X193919047Y-131452380D01*
X194014285Y-131500000D01*
X194061904Y-131547619D01*
X194109523Y-131642857D01*
X194109523Y-131690476D01*
X194061904Y-131785714D01*
X194014285Y-131833333D01*
X193919047Y-131880952D01*
X193728571Y-131880952D01*
X193633333Y-131928571D01*
X193585714Y-131976190D01*
X193538095Y-132071428D01*
X193538095Y-132261904D01*
X193585714Y-132357142D01*
X193633333Y-132404761D01*
X193728571Y-132452380D01*
X193919047Y-132452380D01*
X194014285Y-132404761D01*
X194061904Y-132357142D01*
X194109523Y-132261904D01*
X194109523Y-132071428D01*
X194061904Y-131976190D01*
X194014285Y-131928571D01*
X193919047Y-131880952D01*
%TO.C,H7*%
X188214285Y-97802380D02*
X188214285Y-96802380D01*
X188547619Y-97516666D01*
X188880952Y-96802380D01*
X188880952Y-97802380D01*
X189500000Y-97802380D02*
X189404761Y-97754761D01*
X189357142Y-97707142D01*
X189309523Y-97611904D01*
X189309523Y-97326190D01*
X189357142Y-97230952D01*
X189404761Y-97183333D01*
X189500000Y-97135714D01*
X189642857Y-97135714D01*
X189738095Y-97183333D01*
X189785714Y-97230952D01*
X189833333Y-97326190D01*
X189833333Y-97611904D01*
X189785714Y-97707142D01*
X189738095Y-97754761D01*
X189642857Y-97802380D01*
X189500000Y-97802380D01*
X190690476Y-97135714D02*
X190690476Y-97802380D01*
X190261904Y-97135714D02*
X190261904Y-97659523D01*
X190309523Y-97754761D01*
X190404761Y-97802380D01*
X190547619Y-97802380D01*
X190642857Y-97754761D01*
X190690476Y-97707142D01*
X191166666Y-97135714D02*
X191166666Y-97802380D01*
X191166666Y-97230952D02*
X191214285Y-97183333D01*
X191309523Y-97135714D01*
X191452380Y-97135714D01*
X191547619Y-97183333D01*
X191595238Y-97278571D01*
X191595238Y-97802380D01*
X191928571Y-97135714D02*
X192309523Y-97135714D01*
X192071428Y-96802380D02*
X192071428Y-97659523D01*
X192119047Y-97754761D01*
X192214285Y-97802380D01*
X192309523Y-97802380D01*
X192642857Y-97802380D02*
X192642857Y-97135714D01*
X192642857Y-96802380D02*
X192595238Y-96850000D01*
X192642857Y-96897619D01*
X192690476Y-96850000D01*
X192642857Y-96802380D01*
X192642857Y-96897619D01*
X193119047Y-97135714D02*
X193119047Y-97802380D01*
X193119047Y-97230952D02*
X193166666Y-97183333D01*
X193261904Y-97135714D01*
X193404761Y-97135714D01*
X193500000Y-97183333D01*
X193547619Y-97278571D01*
X193547619Y-97802380D01*
X194452380Y-97135714D02*
X194452380Y-97945238D01*
X194404761Y-98040476D01*
X194357142Y-98088095D01*
X194261904Y-98135714D01*
X194119047Y-98135714D01*
X194023809Y-98088095D01*
X194452380Y-97754761D02*
X194357142Y-97802380D01*
X194166666Y-97802380D01*
X194071428Y-97754761D01*
X194023809Y-97707142D01*
X193976190Y-97611904D01*
X193976190Y-97326190D01*
X194023809Y-97230952D01*
X194071428Y-97183333D01*
X194166666Y-97135714D01*
X194357142Y-97135714D01*
X194452380Y-97183333D01*
X194928571Y-97802380D02*
X194928571Y-96802380D01*
X194928571Y-97278571D02*
X195500000Y-97278571D01*
X195500000Y-97802380D02*
X195500000Y-96802380D01*
X196119047Y-97802380D02*
X196023809Y-97754761D01*
X195976190Y-97707142D01*
X195928571Y-97611904D01*
X195928571Y-97326190D01*
X195976190Y-97230952D01*
X196023809Y-97183333D01*
X196119047Y-97135714D01*
X196261904Y-97135714D01*
X196357142Y-97183333D01*
X196404761Y-97230952D01*
X196452380Y-97326190D01*
X196452380Y-97611904D01*
X196404761Y-97707142D01*
X196357142Y-97754761D01*
X196261904Y-97802380D01*
X196119047Y-97802380D01*
X197023809Y-97802380D02*
X196928571Y-97754761D01*
X196880952Y-97659523D01*
X196880952Y-96802380D01*
X197785714Y-97754761D02*
X197690476Y-97802380D01*
X197500000Y-97802380D01*
X197404761Y-97754761D01*
X197357142Y-97659523D01*
X197357142Y-97278571D01*
X197404761Y-97183333D01*
X197500000Y-97135714D01*
X197690476Y-97135714D01*
X197785714Y-97183333D01*
X197833333Y-97278571D01*
X197833333Y-97373809D01*
X197357142Y-97469047D01*
X192538095Y-94452380D02*
X192538095Y-93452380D01*
X192538095Y-93928571D02*
X193109523Y-93928571D01*
X193109523Y-94452380D02*
X193109523Y-93452380D01*
X193490476Y-93452380D02*
X194157142Y-93452380D01*
X193728571Y-94452380D01*
%TO.C,H6*%
X132214285Y-135802380D02*
X132214285Y-134802380D01*
X132547619Y-135516666D01*
X132880952Y-134802380D01*
X132880952Y-135802380D01*
X133500000Y-135802380D02*
X133404761Y-135754761D01*
X133357142Y-135707142D01*
X133309523Y-135611904D01*
X133309523Y-135326190D01*
X133357142Y-135230952D01*
X133404761Y-135183333D01*
X133500000Y-135135714D01*
X133642857Y-135135714D01*
X133738095Y-135183333D01*
X133785714Y-135230952D01*
X133833333Y-135326190D01*
X133833333Y-135611904D01*
X133785714Y-135707142D01*
X133738095Y-135754761D01*
X133642857Y-135802380D01*
X133500000Y-135802380D01*
X134690476Y-135135714D02*
X134690476Y-135802380D01*
X134261904Y-135135714D02*
X134261904Y-135659523D01*
X134309523Y-135754761D01*
X134404761Y-135802380D01*
X134547619Y-135802380D01*
X134642857Y-135754761D01*
X134690476Y-135707142D01*
X135166666Y-135135714D02*
X135166666Y-135802380D01*
X135166666Y-135230952D02*
X135214285Y-135183333D01*
X135309523Y-135135714D01*
X135452380Y-135135714D01*
X135547619Y-135183333D01*
X135595238Y-135278571D01*
X135595238Y-135802380D01*
X135928571Y-135135714D02*
X136309523Y-135135714D01*
X136071428Y-134802380D02*
X136071428Y-135659523D01*
X136119047Y-135754761D01*
X136214285Y-135802380D01*
X136309523Y-135802380D01*
X136642857Y-135802380D02*
X136642857Y-135135714D01*
X136642857Y-134802380D02*
X136595238Y-134850000D01*
X136642857Y-134897619D01*
X136690476Y-134850000D01*
X136642857Y-134802380D01*
X136642857Y-134897619D01*
X137119047Y-135135714D02*
X137119047Y-135802380D01*
X137119047Y-135230952D02*
X137166666Y-135183333D01*
X137261904Y-135135714D01*
X137404761Y-135135714D01*
X137500000Y-135183333D01*
X137547619Y-135278571D01*
X137547619Y-135802380D01*
X138452380Y-135135714D02*
X138452380Y-135945238D01*
X138404761Y-136040476D01*
X138357142Y-136088095D01*
X138261904Y-136135714D01*
X138119047Y-136135714D01*
X138023809Y-136088095D01*
X138452380Y-135754761D02*
X138357142Y-135802380D01*
X138166666Y-135802380D01*
X138071428Y-135754761D01*
X138023809Y-135707142D01*
X137976190Y-135611904D01*
X137976190Y-135326190D01*
X138023809Y-135230952D01*
X138071428Y-135183333D01*
X138166666Y-135135714D01*
X138357142Y-135135714D01*
X138452380Y-135183333D01*
X138928571Y-135802380D02*
X138928571Y-134802380D01*
X138928571Y-135278571D02*
X139500000Y-135278571D01*
X139500000Y-135802380D02*
X139500000Y-134802380D01*
X140119047Y-135802380D02*
X140023809Y-135754761D01*
X139976190Y-135707142D01*
X139928571Y-135611904D01*
X139928571Y-135326190D01*
X139976190Y-135230952D01*
X140023809Y-135183333D01*
X140119047Y-135135714D01*
X140261904Y-135135714D01*
X140357142Y-135183333D01*
X140404761Y-135230952D01*
X140452380Y-135326190D01*
X140452380Y-135611904D01*
X140404761Y-135707142D01*
X140357142Y-135754761D01*
X140261904Y-135802380D01*
X140119047Y-135802380D01*
X141023809Y-135802380D02*
X140928571Y-135754761D01*
X140880952Y-135659523D01*
X140880952Y-134802380D01*
X141785714Y-135754761D02*
X141690476Y-135802380D01*
X141500000Y-135802380D01*
X141404761Y-135754761D01*
X141357142Y-135659523D01*
X141357142Y-135278571D01*
X141404761Y-135183333D01*
X141500000Y-135135714D01*
X141690476Y-135135714D01*
X141785714Y-135183333D01*
X141833333Y-135278571D01*
X141833333Y-135373809D01*
X141357142Y-135469047D01*
X136538095Y-132452380D02*
X136538095Y-131452380D01*
X136538095Y-131928571D02*
X137109523Y-131928571D01*
X137109523Y-132452380D02*
X137109523Y-131452380D01*
X138014285Y-131452380D02*
X137823809Y-131452380D01*
X137728571Y-131500000D01*
X137680952Y-131547619D01*
X137585714Y-131690476D01*
X137538095Y-131880952D01*
X137538095Y-132261904D01*
X137585714Y-132357142D01*
X137633333Y-132404761D01*
X137728571Y-132452380D01*
X137919047Y-132452380D01*
X138014285Y-132404761D01*
X138061904Y-132357142D01*
X138109523Y-132261904D01*
X138109523Y-132023809D01*
X138061904Y-131928571D01*
X138014285Y-131880952D01*
X137919047Y-131833333D01*
X137728571Y-131833333D01*
X137633333Y-131880952D01*
X137585714Y-131928571D01*
X137538095Y-132023809D01*
%TO.C,H5*%
X132214285Y-97802380D02*
X132214285Y-96802380D01*
X132547619Y-97516666D01*
X132880952Y-96802380D01*
X132880952Y-97802380D01*
X133500000Y-97802380D02*
X133404761Y-97754761D01*
X133357142Y-97707142D01*
X133309523Y-97611904D01*
X133309523Y-97326190D01*
X133357142Y-97230952D01*
X133404761Y-97183333D01*
X133500000Y-97135714D01*
X133642857Y-97135714D01*
X133738095Y-97183333D01*
X133785714Y-97230952D01*
X133833333Y-97326190D01*
X133833333Y-97611904D01*
X133785714Y-97707142D01*
X133738095Y-97754761D01*
X133642857Y-97802380D01*
X133500000Y-97802380D01*
X134690476Y-97135714D02*
X134690476Y-97802380D01*
X134261904Y-97135714D02*
X134261904Y-97659523D01*
X134309523Y-97754761D01*
X134404761Y-97802380D01*
X134547619Y-97802380D01*
X134642857Y-97754761D01*
X134690476Y-97707142D01*
X135166666Y-97135714D02*
X135166666Y-97802380D01*
X135166666Y-97230952D02*
X135214285Y-97183333D01*
X135309523Y-97135714D01*
X135452380Y-97135714D01*
X135547619Y-97183333D01*
X135595238Y-97278571D01*
X135595238Y-97802380D01*
X135928571Y-97135714D02*
X136309523Y-97135714D01*
X136071428Y-96802380D02*
X136071428Y-97659523D01*
X136119047Y-97754761D01*
X136214285Y-97802380D01*
X136309523Y-97802380D01*
X136642857Y-97802380D02*
X136642857Y-97135714D01*
X136642857Y-96802380D02*
X136595238Y-96850000D01*
X136642857Y-96897619D01*
X136690476Y-96850000D01*
X136642857Y-96802380D01*
X136642857Y-96897619D01*
X137119047Y-97135714D02*
X137119047Y-97802380D01*
X137119047Y-97230952D02*
X137166666Y-97183333D01*
X137261904Y-97135714D01*
X137404761Y-97135714D01*
X137500000Y-97183333D01*
X137547619Y-97278571D01*
X137547619Y-97802380D01*
X138452380Y-97135714D02*
X138452380Y-97945238D01*
X138404761Y-98040476D01*
X138357142Y-98088095D01*
X138261904Y-98135714D01*
X138119047Y-98135714D01*
X138023809Y-98088095D01*
X138452380Y-97754761D02*
X138357142Y-97802380D01*
X138166666Y-97802380D01*
X138071428Y-97754761D01*
X138023809Y-97707142D01*
X137976190Y-97611904D01*
X137976190Y-97326190D01*
X138023809Y-97230952D01*
X138071428Y-97183333D01*
X138166666Y-97135714D01*
X138357142Y-97135714D01*
X138452380Y-97183333D01*
X138928571Y-97802380D02*
X138928571Y-96802380D01*
X138928571Y-97278571D02*
X139500000Y-97278571D01*
X139500000Y-97802380D02*
X139500000Y-96802380D01*
X140119047Y-97802380D02*
X140023809Y-97754761D01*
X139976190Y-97707142D01*
X139928571Y-97611904D01*
X139928571Y-97326190D01*
X139976190Y-97230952D01*
X140023809Y-97183333D01*
X140119047Y-97135714D01*
X140261904Y-97135714D01*
X140357142Y-97183333D01*
X140404761Y-97230952D01*
X140452380Y-97326190D01*
X140452380Y-97611904D01*
X140404761Y-97707142D01*
X140357142Y-97754761D01*
X140261904Y-97802380D01*
X140119047Y-97802380D01*
X141023809Y-97802380D02*
X140928571Y-97754761D01*
X140880952Y-97659523D01*
X140880952Y-96802380D01*
X141785714Y-97754761D02*
X141690476Y-97802380D01*
X141500000Y-97802380D01*
X141404761Y-97754761D01*
X141357142Y-97659523D01*
X141357142Y-97278571D01*
X141404761Y-97183333D01*
X141500000Y-97135714D01*
X141690476Y-97135714D01*
X141785714Y-97183333D01*
X141833333Y-97278571D01*
X141833333Y-97373809D01*
X141357142Y-97469047D01*
X136538095Y-94452380D02*
X136538095Y-93452380D01*
X136538095Y-93928571D02*
X137109523Y-93928571D01*
X137109523Y-94452380D02*
X137109523Y-93452380D01*
X138061904Y-93452380D02*
X137585714Y-93452380D01*
X137538095Y-93928571D01*
X137585714Y-93880952D01*
X137680952Y-93833333D01*
X137919047Y-93833333D01*
X138014285Y-93880952D01*
X138061904Y-93928571D01*
X138109523Y-94023809D01*
X138109523Y-94261904D01*
X138061904Y-94357142D01*
X138014285Y-94404761D01*
X137919047Y-94452380D01*
X137680952Y-94452380D01*
X137585714Y-94404761D01*
X137538095Y-94357142D01*
%TO.C,U1*%
X146448095Y-131362380D02*
X146448095Y-132171904D01*
X146495714Y-132267142D01*
X146543333Y-132314761D01*
X146638571Y-132362380D01*
X146829047Y-132362380D01*
X146924285Y-132314761D01*
X146971904Y-132267142D01*
X147019523Y-132171904D01*
X147019523Y-131362380D01*
X148019523Y-132362380D02*
X147448095Y-132362380D01*
X147733809Y-132362380D02*
X147733809Y-131362380D01*
X147638571Y-131505238D01*
X147543333Y-131600476D01*
X147448095Y-131648095D01*
%TO.C,J1*%
X164676666Y-71452380D02*
X164676666Y-72166666D01*
X164629047Y-72309523D01*
X164533809Y-72404761D01*
X164390952Y-72452380D01*
X164295714Y-72452380D01*
X165676666Y-72452380D02*
X165105238Y-72452380D01*
X165390952Y-72452380D02*
X165390952Y-71452380D01*
X165295714Y-71595238D01*
X165200476Y-71690476D01*
X165105238Y-71738095D01*
%TO.C,H4*%
X186238095Y-74002380D02*
X186238095Y-73002380D01*
X186238095Y-73478571D02*
X186809523Y-73478571D01*
X186809523Y-74002380D02*
X186809523Y-73002380D01*
X187714285Y-73335714D02*
X187714285Y-74002380D01*
X187476190Y-72954761D02*
X187238095Y-73669047D01*
X187857142Y-73669047D01*
X182214285Y-80702380D02*
X182214285Y-79702380D01*
X182547619Y-80416666D01*
X182880952Y-79702380D01*
X182880952Y-80702380D01*
X183500000Y-80702380D02*
X183404761Y-80654761D01*
X183357142Y-80607142D01*
X183309523Y-80511904D01*
X183309523Y-80226190D01*
X183357142Y-80130952D01*
X183404761Y-80083333D01*
X183500000Y-80035714D01*
X183642857Y-80035714D01*
X183738095Y-80083333D01*
X183785714Y-80130952D01*
X183833333Y-80226190D01*
X183833333Y-80511904D01*
X183785714Y-80607142D01*
X183738095Y-80654761D01*
X183642857Y-80702380D01*
X183500000Y-80702380D01*
X184690476Y-80035714D02*
X184690476Y-80702380D01*
X184261904Y-80035714D02*
X184261904Y-80559523D01*
X184309523Y-80654761D01*
X184404761Y-80702380D01*
X184547619Y-80702380D01*
X184642857Y-80654761D01*
X184690476Y-80607142D01*
X185166666Y-80035714D02*
X185166666Y-80702380D01*
X185166666Y-80130952D02*
X185214285Y-80083333D01*
X185309523Y-80035714D01*
X185452380Y-80035714D01*
X185547619Y-80083333D01*
X185595238Y-80178571D01*
X185595238Y-80702380D01*
X185928571Y-80035714D02*
X186309523Y-80035714D01*
X186071428Y-79702380D02*
X186071428Y-80559523D01*
X186119047Y-80654761D01*
X186214285Y-80702380D01*
X186309523Y-80702380D01*
X186642857Y-80702380D02*
X186642857Y-80035714D01*
X186642857Y-79702380D02*
X186595238Y-79750000D01*
X186642857Y-79797619D01*
X186690476Y-79750000D01*
X186642857Y-79702380D01*
X186642857Y-79797619D01*
X187119047Y-80035714D02*
X187119047Y-80702380D01*
X187119047Y-80130952D02*
X187166666Y-80083333D01*
X187261904Y-80035714D01*
X187404761Y-80035714D01*
X187500000Y-80083333D01*
X187547619Y-80178571D01*
X187547619Y-80702380D01*
X188452380Y-80035714D02*
X188452380Y-80845238D01*
X188404761Y-80940476D01*
X188357142Y-80988095D01*
X188261904Y-81035714D01*
X188119047Y-81035714D01*
X188023809Y-80988095D01*
X188452380Y-80654761D02*
X188357142Y-80702380D01*
X188166666Y-80702380D01*
X188071428Y-80654761D01*
X188023809Y-80607142D01*
X187976190Y-80511904D01*
X187976190Y-80226190D01*
X188023809Y-80130952D01*
X188071428Y-80083333D01*
X188166666Y-80035714D01*
X188357142Y-80035714D01*
X188452380Y-80083333D01*
X188928571Y-80702380D02*
X188928571Y-79702380D01*
X188928571Y-80178571D02*
X189500000Y-80178571D01*
X189500000Y-80702380D02*
X189500000Y-79702380D01*
X190119047Y-80702380D02*
X190023809Y-80654761D01*
X189976190Y-80607142D01*
X189928571Y-80511904D01*
X189928571Y-80226190D01*
X189976190Y-80130952D01*
X190023809Y-80083333D01*
X190119047Y-80035714D01*
X190261904Y-80035714D01*
X190357142Y-80083333D01*
X190404761Y-80130952D01*
X190452380Y-80226190D01*
X190452380Y-80511904D01*
X190404761Y-80607142D01*
X190357142Y-80654761D01*
X190261904Y-80702380D01*
X190119047Y-80702380D01*
X191023809Y-80702380D02*
X190928571Y-80654761D01*
X190880952Y-80559523D01*
X190880952Y-79702380D01*
X191785714Y-80654761D02*
X191690476Y-80702380D01*
X191500000Y-80702380D01*
X191404761Y-80654761D01*
X191357142Y-80559523D01*
X191357142Y-80178571D01*
X191404761Y-80083333D01*
X191500000Y-80035714D01*
X191690476Y-80035714D01*
X191785714Y-80083333D01*
X191833333Y-80178571D01*
X191833333Y-80273809D01*
X191357142Y-80369047D01*
X186538095Y-77352380D02*
X186538095Y-76352380D01*
X186538095Y-76828571D02*
X187109523Y-76828571D01*
X187109523Y-77352380D02*
X187109523Y-76352380D01*
X188014285Y-76685714D02*
X188014285Y-77352380D01*
X187776190Y-76304761D02*
X187538095Y-77019047D01*
X188157142Y-77019047D01*
%TO.C,H3*%
X183038095Y-152152380D02*
X183038095Y-151152380D01*
X183038095Y-151628571D02*
X183609523Y-151628571D01*
X183609523Y-152152380D02*
X183609523Y-151152380D01*
X183990476Y-151152380D02*
X184609523Y-151152380D01*
X184276190Y-151533333D01*
X184419047Y-151533333D01*
X184514285Y-151580952D01*
X184561904Y-151628571D01*
X184609523Y-151723809D01*
X184609523Y-151961904D01*
X184561904Y-152057142D01*
X184514285Y-152104761D01*
X184419047Y-152152380D01*
X184133333Y-152152380D01*
X184038095Y-152104761D01*
X183990476Y-152057142D01*
X182214285Y-156802380D02*
X182214285Y-155802380D01*
X182547619Y-156516666D01*
X182880952Y-155802380D01*
X182880952Y-156802380D01*
X183500000Y-156802380D02*
X183404761Y-156754761D01*
X183357142Y-156707142D01*
X183309523Y-156611904D01*
X183309523Y-156326190D01*
X183357142Y-156230952D01*
X183404761Y-156183333D01*
X183500000Y-156135714D01*
X183642857Y-156135714D01*
X183738095Y-156183333D01*
X183785714Y-156230952D01*
X183833333Y-156326190D01*
X183833333Y-156611904D01*
X183785714Y-156707142D01*
X183738095Y-156754761D01*
X183642857Y-156802380D01*
X183500000Y-156802380D01*
X184690476Y-156135714D02*
X184690476Y-156802380D01*
X184261904Y-156135714D02*
X184261904Y-156659523D01*
X184309523Y-156754761D01*
X184404761Y-156802380D01*
X184547619Y-156802380D01*
X184642857Y-156754761D01*
X184690476Y-156707142D01*
X185166666Y-156135714D02*
X185166666Y-156802380D01*
X185166666Y-156230952D02*
X185214285Y-156183333D01*
X185309523Y-156135714D01*
X185452380Y-156135714D01*
X185547619Y-156183333D01*
X185595238Y-156278571D01*
X185595238Y-156802380D01*
X185928571Y-156135714D02*
X186309523Y-156135714D01*
X186071428Y-155802380D02*
X186071428Y-156659523D01*
X186119047Y-156754761D01*
X186214285Y-156802380D01*
X186309523Y-156802380D01*
X186642857Y-156802380D02*
X186642857Y-156135714D01*
X186642857Y-155802380D02*
X186595238Y-155850000D01*
X186642857Y-155897619D01*
X186690476Y-155850000D01*
X186642857Y-155802380D01*
X186642857Y-155897619D01*
X187119047Y-156135714D02*
X187119047Y-156802380D01*
X187119047Y-156230952D02*
X187166666Y-156183333D01*
X187261904Y-156135714D01*
X187404761Y-156135714D01*
X187500000Y-156183333D01*
X187547619Y-156278571D01*
X187547619Y-156802380D01*
X188452380Y-156135714D02*
X188452380Y-156945238D01*
X188404761Y-157040476D01*
X188357142Y-157088095D01*
X188261904Y-157135714D01*
X188119047Y-157135714D01*
X188023809Y-157088095D01*
X188452380Y-156754761D02*
X188357142Y-156802380D01*
X188166666Y-156802380D01*
X188071428Y-156754761D01*
X188023809Y-156707142D01*
X187976190Y-156611904D01*
X187976190Y-156326190D01*
X188023809Y-156230952D01*
X188071428Y-156183333D01*
X188166666Y-156135714D01*
X188357142Y-156135714D01*
X188452380Y-156183333D01*
X188928571Y-156802380D02*
X188928571Y-155802380D01*
X188928571Y-156278571D02*
X189500000Y-156278571D01*
X189500000Y-156802380D02*
X189500000Y-155802380D01*
X190119047Y-156802380D02*
X190023809Y-156754761D01*
X189976190Y-156707142D01*
X189928571Y-156611904D01*
X189928571Y-156326190D01*
X189976190Y-156230952D01*
X190023809Y-156183333D01*
X190119047Y-156135714D01*
X190261904Y-156135714D01*
X190357142Y-156183333D01*
X190404761Y-156230952D01*
X190452380Y-156326190D01*
X190452380Y-156611904D01*
X190404761Y-156707142D01*
X190357142Y-156754761D01*
X190261904Y-156802380D01*
X190119047Y-156802380D01*
X191023809Y-156802380D02*
X190928571Y-156754761D01*
X190880952Y-156659523D01*
X190880952Y-155802380D01*
X191785714Y-156754761D02*
X191690476Y-156802380D01*
X191500000Y-156802380D01*
X191404761Y-156754761D01*
X191357142Y-156659523D01*
X191357142Y-156278571D01*
X191404761Y-156183333D01*
X191500000Y-156135714D01*
X191690476Y-156135714D01*
X191785714Y-156183333D01*
X191833333Y-156278571D01*
X191833333Y-156373809D01*
X191357142Y-156469047D01*
X186538095Y-153452380D02*
X186538095Y-152452380D01*
X186538095Y-152928571D02*
X187109523Y-152928571D01*
X187109523Y-153452380D02*
X187109523Y-152452380D01*
X187490476Y-152452380D02*
X188109523Y-152452380D01*
X187776190Y-152833333D01*
X187919047Y-152833333D01*
X188014285Y-152880952D01*
X188061904Y-152928571D01*
X188109523Y-153023809D01*
X188109523Y-153261904D01*
X188061904Y-153357142D01*
X188014285Y-153404761D01*
X187919047Y-153452380D01*
X187633333Y-153452380D01*
X187538095Y-153404761D01*
X187490476Y-153357142D01*
%TO.C,H2*%
X142238095Y-74002380D02*
X142238095Y-73002380D01*
X142238095Y-73478571D02*
X142809523Y-73478571D01*
X142809523Y-74002380D02*
X142809523Y-73002380D01*
X143238095Y-73097619D02*
X143285714Y-73050000D01*
X143380952Y-73002380D01*
X143619047Y-73002380D01*
X143714285Y-73050000D01*
X143761904Y-73097619D01*
X143809523Y-73192857D01*
X143809523Y-73288095D01*
X143761904Y-73430952D01*
X143190476Y-74002380D01*
X143809523Y-74002380D01*
X138214285Y-80702380D02*
X138214285Y-79702380D01*
X138547619Y-80416666D01*
X138880952Y-79702380D01*
X138880952Y-80702380D01*
X139500000Y-80702380D02*
X139404761Y-80654761D01*
X139357142Y-80607142D01*
X139309523Y-80511904D01*
X139309523Y-80226190D01*
X139357142Y-80130952D01*
X139404761Y-80083333D01*
X139500000Y-80035714D01*
X139642857Y-80035714D01*
X139738095Y-80083333D01*
X139785714Y-80130952D01*
X139833333Y-80226190D01*
X139833333Y-80511904D01*
X139785714Y-80607142D01*
X139738095Y-80654761D01*
X139642857Y-80702380D01*
X139500000Y-80702380D01*
X140690476Y-80035714D02*
X140690476Y-80702380D01*
X140261904Y-80035714D02*
X140261904Y-80559523D01*
X140309523Y-80654761D01*
X140404761Y-80702380D01*
X140547619Y-80702380D01*
X140642857Y-80654761D01*
X140690476Y-80607142D01*
X141166666Y-80035714D02*
X141166666Y-80702380D01*
X141166666Y-80130952D02*
X141214285Y-80083333D01*
X141309523Y-80035714D01*
X141452380Y-80035714D01*
X141547619Y-80083333D01*
X141595238Y-80178571D01*
X141595238Y-80702380D01*
X141928571Y-80035714D02*
X142309523Y-80035714D01*
X142071428Y-79702380D02*
X142071428Y-80559523D01*
X142119047Y-80654761D01*
X142214285Y-80702380D01*
X142309523Y-80702380D01*
X142642857Y-80702380D02*
X142642857Y-80035714D01*
X142642857Y-79702380D02*
X142595238Y-79750000D01*
X142642857Y-79797619D01*
X142690476Y-79750000D01*
X142642857Y-79702380D01*
X142642857Y-79797619D01*
X143119047Y-80035714D02*
X143119047Y-80702380D01*
X143119047Y-80130952D02*
X143166666Y-80083333D01*
X143261904Y-80035714D01*
X143404761Y-80035714D01*
X143500000Y-80083333D01*
X143547619Y-80178571D01*
X143547619Y-80702380D01*
X144452380Y-80035714D02*
X144452380Y-80845238D01*
X144404761Y-80940476D01*
X144357142Y-80988095D01*
X144261904Y-81035714D01*
X144119047Y-81035714D01*
X144023809Y-80988095D01*
X144452380Y-80654761D02*
X144357142Y-80702380D01*
X144166666Y-80702380D01*
X144071428Y-80654761D01*
X144023809Y-80607142D01*
X143976190Y-80511904D01*
X143976190Y-80226190D01*
X144023809Y-80130952D01*
X144071428Y-80083333D01*
X144166666Y-80035714D01*
X144357142Y-80035714D01*
X144452380Y-80083333D01*
X144928571Y-80702380D02*
X144928571Y-79702380D01*
X144928571Y-80178571D02*
X145500000Y-80178571D01*
X145500000Y-80702380D02*
X145500000Y-79702380D01*
X146119047Y-80702380D02*
X146023809Y-80654761D01*
X145976190Y-80607142D01*
X145928571Y-80511904D01*
X145928571Y-80226190D01*
X145976190Y-80130952D01*
X146023809Y-80083333D01*
X146119047Y-80035714D01*
X146261904Y-80035714D01*
X146357142Y-80083333D01*
X146404761Y-80130952D01*
X146452380Y-80226190D01*
X146452380Y-80511904D01*
X146404761Y-80607142D01*
X146357142Y-80654761D01*
X146261904Y-80702380D01*
X146119047Y-80702380D01*
X147023809Y-80702380D02*
X146928571Y-80654761D01*
X146880952Y-80559523D01*
X146880952Y-79702380D01*
X147785714Y-80654761D02*
X147690476Y-80702380D01*
X147500000Y-80702380D01*
X147404761Y-80654761D01*
X147357142Y-80559523D01*
X147357142Y-80178571D01*
X147404761Y-80083333D01*
X147500000Y-80035714D01*
X147690476Y-80035714D01*
X147785714Y-80083333D01*
X147833333Y-80178571D01*
X147833333Y-80273809D01*
X147357142Y-80369047D01*
X142538095Y-77352380D02*
X142538095Y-76352380D01*
X142538095Y-76828571D02*
X143109523Y-76828571D01*
X143109523Y-77352380D02*
X143109523Y-76352380D01*
X143538095Y-76447619D02*
X143585714Y-76400000D01*
X143680952Y-76352380D01*
X143919047Y-76352380D01*
X144014285Y-76400000D01*
X144061904Y-76447619D01*
X144109523Y-76542857D01*
X144109523Y-76638095D01*
X144061904Y-76780952D01*
X143490476Y-77352380D01*
X144109523Y-77352380D01*
%TO.C,H1*%
X142238095Y-150102380D02*
X142238095Y-149102380D01*
X142238095Y-149578571D02*
X142809523Y-149578571D01*
X142809523Y-150102380D02*
X142809523Y-149102380D01*
X143809523Y-150102380D02*
X143238095Y-150102380D01*
X143523809Y-150102380D02*
X143523809Y-149102380D01*
X143428571Y-149245238D01*
X143333333Y-149340476D01*
X143238095Y-149388095D01*
X138214285Y-156802380D02*
X138214285Y-155802380D01*
X138547619Y-156516666D01*
X138880952Y-155802380D01*
X138880952Y-156802380D01*
X139500000Y-156802380D02*
X139404761Y-156754761D01*
X139357142Y-156707142D01*
X139309523Y-156611904D01*
X139309523Y-156326190D01*
X139357142Y-156230952D01*
X139404761Y-156183333D01*
X139500000Y-156135714D01*
X139642857Y-156135714D01*
X139738095Y-156183333D01*
X139785714Y-156230952D01*
X139833333Y-156326190D01*
X139833333Y-156611904D01*
X139785714Y-156707142D01*
X139738095Y-156754761D01*
X139642857Y-156802380D01*
X139500000Y-156802380D01*
X140690476Y-156135714D02*
X140690476Y-156802380D01*
X140261904Y-156135714D02*
X140261904Y-156659523D01*
X140309523Y-156754761D01*
X140404761Y-156802380D01*
X140547619Y-156802380D01*
X140642857Y-156754761D01*
X140690476Y-156707142D01*
X141166666Y-156135714D02*
X141166666Y-156802380D01*
X141166666Y-156230952D02*
X141214285Y-156183333D01*
X141309523Y-156135714D01*
X141452380Y-156135714D01*
X141547619Y-156183333D01*
X141595238Y-156278571D01*
X141595238Y-156802380D01*
X141928571Y-156135714D02*
X142309523Y-156135714D01*
X142071428Y-155802380D02*
X142071428Y-156659523D01*
X142119047Y-156754761D01*
X142214285Y-156802380D01*
X142309523Y-156802380D01*
X142642857Y-156802380D02*
X142642857Y-156135714D01*
X142642857Y-155802380D02*
X142595238Y-155850000D01*
X142642857Y-155897619D01*
X142690476Y-155850000D01*
X142642857Y-155802380D01*
X142642857Y-155897619D01*
X143119047Y-156135714D02*
X143119047Y-156802380D01*
X143119047Y-156230952D02*
X143166666Y-156183333D01*
X143261904Y-156135714D01*
X143404761Y-156135714D01*
X143500000Y-156183333D01*
X143547619Y-156278571D01*
X143547619Y-156802380D01*
X144452380Y-156135714D02*
X144452380Y-156945238D01*
X144404761Y-157040476D01*
X144357142Y-157088095D01*
X144261904Y-157135714D01*
X144119047Y-157135714D01*
X144023809Y-157088095D01*
X144452380Y-156754761D02*
X144357142Y-156802380D01*
X144166666Y-156802380D01*
X144071428Y-156754761D01*
X144023809Y-156707142D01*
X143976190Y-156611904D01*
X143976190Y-156326190D01*
X144023809Y-156230952D01*
X144071428Y-156183333D01*
X144166666Y-156135714D01*
X144357142Y-156135714D01*
X144452380Y-156183333D01*
X144928571Y-156802380D02*
X144928571Y-155802380D01*
X144928571Y-156278571D02*
X145500000Y-156278571D01*
X145500000Y-156802380D02*
X145500000Y-155802380D01*
X146119047Y-156802380D02*
X146023809Y-156754761D01*
X145976190Y-156707142D01*
X145928571Y-156611904D01*
X145928571Y-156326190D01*
X145976190Y-156230952D01*
X146023809Y-156183333D01*
X146119047Y-156135714D01*
X146261904Y-156135714D01*
X146357142Y-156183333D01*
X146404761Y-156230952D01*
X146452380Y-156326190D01*
X146452380Y-156611904D01*
X146404761Y-156707142D01*
X146357142Y-156754761D01*
X146261904Y-156802380D01*
X146119047Y-156802380D01*
X147023809Y-156802380D02*
X146928571Y-156754761D01*
X146880952Y-156659523D01*
X146880952Y-155802380D01*
X147785714Y-156754761D02*
X147690476Y-156802380D01*
X147500000Y-156802380D01*
X147404761Y-156754761D01*
X147357142Y-156659523D01*
X147357142Y-156278571D01*
X147404761Y-156183333D01*
X147500000Y-156135714D01*
X147690476Y-156135714D01*
X147785714Y-156183333D01*
X147833333Y-156278571D01*
X147833333Y-156373809D01*
X147357142Y-156469047D01*
X142538095Y-153452380D02*
X142538095Y-152452380D01*
X142538095Y-152928571D02*
X143109523Y-152928571D01*
X143109523Y-153452380D02*
X143109523Y-152452380D01*
X144109523Y-153452380D02*
X143538095Y-153452380D01*
X143823809Y-153452380D02*
X143823809Y-152452380D01*
X143728571Y-152595238D01*
X143633333Y-152690476D01*
X143538095Y-152738095D01*
%TO.C,C5*%
D13*
X156950000Y-130921428D02*
X156907142Y-130964285D01*
X156778571Y-131007142D01*
X156692857Y-131007142D01*
X156564285Y-130964285D01*
X156478571Y-130878571D01*
X156435714Y-130792857D01*
X156392857Y-130621428D01*
X156392857Y-130492857D01*
X156435714Y-130321428D01*
X156478571Y-130235714D01*
X156564285Y-130150000D01*
X156692857Y-130107142D01*
X156778571Y-130107142D01*
X156907142Y-130150000D01*
X156950000Y-130192857D01*
X157764285Y-130107142D02*
X157335714Y-130107142D01*
X157292857Y-130535714D01*
X157335714Y-130492857D01*
X157421428Y-130450000D01*
X157635714Y-130450000D01*
X157721428Y-130492857D01*
X157764285Y-130535714D01*
X157807142Y-130621428D01*
X157807142Y-130835714D01*
X157764285Y-130921428D01*
X157721428Y-130964285D01*
X157635714Y-131007142D01*
X157421428Y-131007142D01*
X157335714Y-130964285D01*
X157292857Y-130921428D01*
%TO.C,C3*%
D11*
X143383333Y-143657142D02*
X143335714Y-143704761D01*
X143192857Y-143752380D01*
X143097619Y-143752380D01*
X142954761Y-143704761D01*
X142859523Y-143609523D01*
X142811904Y-143514285D01*
X142764285Y-143323809D01*
X142764285Y-143180952D01*
X142811904Y-142990476D01*
X142859523Y-142895238D01*
X142954761Y-142800000D01*
X143097619Y-142752380D01*
X143192857Y-142752380D01*
X143335714Y-142800000D01*
X143383333Y-142847619D01*
X143716666Y-142752380D02*
X144335714Y-142752380D01*
X144002380Y-143133333D01*
X144145238Y-143133333D01*
X144240476Y-143180952D01*
X144288095Y-143228571D01*
X144335714Y-143323809D01*
X144335714Y-143561904D01*
X144288095Y-143657142D01*
X144240476Y-143704761D01*
X144145238Y-143752380D01*
X143859523Y-143752380D01*
X143764285Y-143704761D01*
X143716666Y-143657142D01*
%TD*%
M02*
