%FSLAX45Y45*%
G04 Gerber Fmt 4.5, Leading zero omitted, Abs format (unit mm)*
G04 Created by KiCad (PCBNEW (5.1.8)-1) date 2022-11-15 12:18:02*
%MOMM*%
%LPD*%
G01*
G04 APERTURE LIST*
%TA.AperFunction,Profile*%
%ADD10C,0.050000*%
%TD*%
%ADD11C,0.200000*%
%ADD12C,0.300000*%
G04 APERTURE END LIST*
D10*
X14000000Y-5700000D02*
X13400000Y-7200000D01*
X19000000Y-5700000D02*
X19600000Y-7200000D01*
X14000000Y-15600000D02*
X13400000Y-14100000D01*
X19000000Y-15600000D02*
X19600000Y-14100000D01*
X13400000Y-14100000D02*
X13400000Y-7200000D01*
X19000000Y-15600000D02*
X14000000Y-15600000D01*
X19600000Y-7200000D02*
X19600000Y-14100000D01*
X14000000Y-5700000D02*
X19000000Y-5700000D01*
D11*
X14230000Y-12060000D02*
X14270000Y-12100000D01*
X14270000Y-12060000D02*
X14230000Y-12100000D01*
X14680000Y-7550000D02*
X14720000Y-7590000D01*
X14720000Y-7550000D02*
X14680000Y-7590000D01*
X14680000Y-7680000D02*
X14720000Y-7720000D01*
X14720000Y-7680000D02*
X14680000Y-7720000D01*
X14680000Y-7800000D02*
X14720000Y-7840000D01*
X14720000Y-7800000D02*
X14680000Y-7840000D01*
X14750000Y-10610000D02*
X14790000Y-10650000D01*
X14790000Y-10610000D02*
X14750000Y-10650000D01*
X15080000Y-7550000D02*
X15120000Y-7590000D01*
X15120000Y-7550000D02*
X15080000Y-7590000D01*
X15080000Y-7680000D02*
X15120000Y-7720000D01*
X15120000Y-7680000D02*
X15080000Y-7720000D01*
X15080000Y-7800000D02*
X15120000Y-7840000D01*
X15120000Y-7800000D02*
X15080000Y-7840000D01*
X15960000Y-10220000D02*
X16000000Y-10260000D01*
X16000000Y-10220000D02*
X15960000Y-10260000D01*
X16620000Y-9600000D02*
X16660000Y-9640000D01*
X16660000Y-9600000D02*
X16620000Y-9640000D01*
X16780000Y-9250000D02*
X16820000Y-9290000D01*
X16820000Y-9250000D02*
X16780000Y-9290000D01*
X16940000Y-7870000D02*
X16980000Y-7910000D01*
X16980000Y-7870000D02*
X16940000Y-7910000D01*
X17370000Y-9340000D02*
X17410000Y-9380000D01*
X17410000Y-9340000D02*
X17370000Y-9380000D01*
X17872500Y-12982500D02*
X17912500Y-13022500D01*
X17912500Y-12982500D02*
X17872500Y-13022500D01*
X17999500Y-13469500D02*
X18039500Y-13509500D01*
X18039500Y-13469500D02*
X17999500Y-13509500D01*
X18030000Y-14210000D02*
X18070000Y-14250000D01*
X18070000Y-14210000D02*
X18030000Y-14250000D01*
X18140000Y-14060000D02*
X18180000Y-14100000D01*
X18180000Y-14060000D02*
X18140000Y-14100000D01*
X18380000Y-12710000D02*
X18420000Y-12750000D01*
X18420000Y-12710000D02*
X18380000Y-12750000D01*
X13907500Y-10610000D02*
G75*
G03*
X13907500Y-10610000I-37500J0D01*
G01*
X14034500Y-10483000D02*
G75*
G03*
X14034500Y-10483000I-37500J0D01*
G01*
X14161500Y-10610000D02*
G75*
G03*
X14161500Y-10610000I-37500J0D01*
G01*
X15230000Y-8051900D02*
X15230000Y-8128100D01*
X15191900Y-8090000D02*
X15268100Y-8090000D01*
X15230000Y-8305900D02*
X15230000Y-8382100D01*
X15191900Y-8344000D02*
X15268100Y-8344000D01*
X15230000Y-8559900D02*
X15230000Y-8636100D01*
X15191900Y-8598000D02*
X15268100Y-8598000D01*
X15230000Y-8813900D02*
X15230000Y-8890100D01*
X15191900Y-8852000D02*
X15268100Y-8852000D01*
X15230000Y-9067900D02*
X15230000Y-9144100D01*
X15191900Y-9106000D02*
X15268100Y-9106000D01*
X15230000Y-9321900D02*
X15230000Y-9398100D01*
X15191900Y-9360000D02*
X15268100Y-9360000D01*
X15230000Y-9575900D02*
X15230000Y-9652100D01*
X15191900Y-9614000D02*
X15268100Y-9614000D01*
X15230000Y-9829900D02*
X15230000Y-9906100D01*
X15191900Y-9868000D02*
X15268100Y-9868000D01*
X15230000Y-10083900D02*
X15230000Y-10160100D01*
X15191900Y-10122000D02*
X15268100Y-10122000D01*
X15230000Y-10337900D02*
X15230000Y-10414100D01*
X15191900Y-10376000D02*
X15268100Y-10376000D01*
X15230000Y-10591900D02*
X15230000Y-10668100D01*
X15191900Y-10630000D02*
X15268100Y-10630000D01*
X15230000Y-10845900D02*
X15230000Y-10922100D01*
X15191900Y-10884000D02*
X15268100Y-10884000D01*
X15230000Y-11099900D02*
X15230000Y-11176100D01*
X15191900Y-11138000D02*
X15268100Y-11138000D01*
X15230000Y-11353900D02*
X15230000Y-11430100D01*
X15191900Y-11392000D02*
X15268100Y-11392000D01*
X15230000Y-11607900D02*
X15230000Y-11684100D01*
X15191900Y-11646000D02*
X15268100Y-11646000D01*
X17770000Y-8051900D02*
X17770000Y-8128100D01*
X17731900Y-8090000D02*
X17808100Y-8090000D01*
X17770000Y-8305900D02*
X17770000Y-8382100D01*
X17731900Y-8344000D02*
X17808100Y-8344000D01*
X17770000Y-8559900D02*
X17770000Y-8636100D01*
X17731900Y-8598000D02*
X17808100Y-8598000D01*
X17770000Y-8813900D02*
X17770000Y-8890100D01*
X17731900Y-8852000D02*
X17808100Y-8852000D01*
X17770000Y-9067900D02*
X17770000Y-9144100D01*
X17731900Y-9106000D02*
X17808100Y-9106000D01*
X17770000Y-9321900D02*
X17770000Y-9398100D01*
X17731900Y-9360000D02*
X17808100Y-9360000D01*
X17770000Y-9575900D02*
X17770000Y-9652100D01*
X17731900Y-9614000D02*
X17808100Y-9614000D01*
X17770000Y-9829900D02*
X17770000Y-9906100D01*
X17731900Y-9868000D02*
X17808100Y-9868000D01*
X17770000Y-10083900D02*
X17770000Y-10160100D01*
X17731900Y-10122000D02*
X17808100Y-10122000D01*
X17770000Y-10337900D02*
X17770000Y-10414100D01*
X17731900Y-10376000D02*
X17808100Y-10376000D01*
X17770000Y-10591900D02*
X17770000Y-10668100D01*
X17731900Y-10630000D02*
X17808100Y-10630000D01*
X17770000Y-10845900D02*
X17770000Y-10922100D01*
X17731900Y-10884000D02*
X17808100Y-10884000D01*
X17770000Y-11099900D02*
X17770000Y-11176100D01*
X17731900Y-11138000D02*
X17808100Y-11138000D01*
X17770000Y-11353900D02*
X17770000Y-11430100D01*
X17731900Y-11392000D02*
X17808100Y-11392000D01*
X17770000Y-11607900D02*
X17770000Y-11684100D01*
X17731900Y-11646000D02*
X17808100Y-11646000D01*
X14368284Y-12838284D02*
X14368284Y-12781715D01*
X14311715Y-12781715D01*
X14311715Y-12838284D01*
X14368284Y-12838284D01*
X14368284Y-13092284D02*
X14368284Y-13035715D01*
X14311715Y-13035715D01*
X14311715Y-13092284D01*
X14368284Y-13092284D01*
X14368284Y-13346284D02*
X14368284Y-13289715D01*
X14311715Y-13289715D01*
X14311715Y-13346284D01*
X14368284Y-13346284D01*
X14368284Y-13600284D02*
X14368284Y-13543715D01*
X14311715Y-13543715D01*
X14311715Y-13600284D01*
X14368284Y-13600284D01*
X15130284Y-12838284D02*
X15130284Y-12781715D01*
X15073715Y-12781715D01*
X15073715Y-12838284D01*
X15130284Y-12838284D01*
X15130284Y-13092284D02*
X15130284Y-13035715D01*
X15073715Y-13035715D01*
X15073715Y-13092284D01*
X15130284Y-13092284D01*
X15130284Y-13346284D02*
X15130284Y-13289715D01*
X15073715Y-13289715D01*
X15073715Y-13346284D01*
X15130284Y-13346284D01*
X15130284Y-13600284D02*
X15130284Y-13543715D01*
X15073715Y-13543715D01*
X15073715Y-13600284D01*
X15130284Y-13600284D01*
X15308284Y-14248284D02*
X15308284Y-14191715D01*
X15251715Y-14191715D01*
X15251715Y-14248284D01*
X15308284Y-14248284D01*
X15308284Y-14498284D02*
X15308284Y-14441715D01*
X15251715Y-14441715D01*
X15251715Y-14498284D01*
X15308284Y-14498284D01*
X15488284Y-13088284D02*
X15488284Y-13031715D01*
X15431715Y-13031715D01*
X15431715Y-13088284D01*
X15488284Y-13088284D01*
X15988284Y-13088284D02*
X15988284Y-13031715D01*
X15931715Y-13031715D01*
X15931715Y-13088284D01*
X15988284Y-13088284D01*
X14258284Y-14358284D02*
X14258284Y-14301715D01*
X14201715Y-14301715D01*
X14201715Y-14358284D01*
X14258284Y-14358284D01*
X14508284Y-14358284D02*
X14508284Y-14301715D01*
X14451715Y-14301715D01*
X14451715Y-14358284D01*
X14508284Y-14358284D01*
X14910000Y-15337500D02*
X14957500Y-15290000D01*
X14910000Y-15242500D01*
X14862500Y-15290000D01*
X14910000Y-15337500D01*
X15160000Y-15337500D02*
X15207500Y-15290000D01*
X15160000Y-15242500D01*
X15112500Y-15290000D01*
X15160000Y-15337500D01*
X15410000Y-15337500D02*
X15457500Y-15290000D01*
X15410000Y-15242500D01*
X15362500Y-15290000D01*
X15410000Y-15337500D01*
X15660000Y-15337500D02*
X15707500Y-15290000D01*
X15660000Y-15242500D01*
X15612500Y-15290000D01*
X15660000Y-15337500D01*
X14380470Y-8410470D02*
X14479530Y-8509530D01*
X14479530Y-8410470D02*
X14380470Y-8509530D01*
X14479530Y-8460000D02*
G75*
G03*
X14479530Y-8460000I-49530J0D01*
G01*
X14380470Y-8910850D02*
X14479530Y-9009910D01*
X14479530Y-8910850D02*
X14380470Y-9009910D01*
X14479530Y-8960380D02*
G75*
G03*
X14479530Y-8960380I-49530J0D01*
G01*
X14800000Y-6210000D02*
X14900000Y-6310000D01*
X14900000Y-6210000D02*
X14800000Y-6310000D01*
X14850000Y-6210000D02*
X14850000Y-6310000D01*
X14800000Y-6260000D02*
X14900000Y-6260000D01*
X14800000Y-6460000D02*
X14900000Y-6560000D01*
X14900000Y-6460000D02*
X14800000Y-6560000D01*
X14850000Y-6460000D02*
X14850000Y-6560000D01*
X14800000Y-6510000D02*
X14900000Y-6510000D01*
X14800000Y-7150000D02*
X14900000Y-7250000D01*
X14900000Y-7150000D02*
X14800000Y-7250000D01*
X14850000Y-7150000D02*
X14850000Y-7250000D01*
X14800000Y-7200000D02*
X14900000Y-7200000D01*
X15054000Y-7150000D02*
X15154000Y-7250000D01*
X15154000Y-7150000D02*
X15054000Y-7250000D01*
X15104000Y-7150000D02*
X15104000Y-7250000D01*
X15054000Y-7200000D02*
X15154000Y-7200000D01*
X15308000Y-7150000D02*
X15408000Y-7250000D01*
X15408000Y-7150000D02*
X15308000Y-7250000D01*
X15358000Y-7150000D02*
X15358000Y-7250000D01*
X15308000Y-7200000D02*
X15408000Y-7200000D01*
X15562000Y-7150000D02*
X15662000Y-7250000D01*
X15662000Y-7150000D02*
X15562000Y-7250000D01*
X15612000Y-7150000D02*
X15612000Y-7250000D01*
X15562000Y-7200000D02*
X15662000Y-7200000D01*
X15816000Y-7150000D02*
X15916000Y-7250000D01*
X15916000Y-7150000D02*
X15816000Y-7250000D01*
X15866000Y-7150000D02*
X15866000Y-7250000D01*
X15816000Y-7200000D02*
X15916000Y-7200000D01*
X16070000Y-7150000D02*
X16170000Y-7250000D01*
X16170000Y-7150000D02*
X16070000Y-7250000D01*
X16120000Y-7150000D02*
X16120000Y-7250000D01*
X16070000Y-7200000D02*
X16170000Y-7200000D01*
X16324000Y-7150000D02*
X16424000Y-7250000D01*
X16424000Y-7150000D02*
X16324000Y-7250000D01*
X16374000Y-7150000D02*
X16374000Y-7250000D01*
X16324000Y-7200000D02*
X16424000Y-7200000D01*
X16578000Y-7150000D02*
X16678000Y-7250000D01*
X16678000Y-7150000D02*
X16578000Y-7250000D01*
X16628000Y-7150000D02*
X16628000Y-7250000D01*
X16578000Y-7200000D02*
X16678000Y-7200000D01*
X16832000Y-7150000D02*
X16932000Y-7250000D01*
X16932000Y-7150000D02*
X16832000Y-7250000D01*
X16882000Y-7150000D02*
X16882000Y-7250000D01*
X16832000Y-7200000D02*
X16932000Y-7200000D01*
X17086000Y-7150000D02*
X17186000Y-7250000D01*
X17186000Y-7150000D02*
X17086000Y-7250000D01*
X17136000Y-7150000D02*
X17136000Y-7250000D01*
X17086000Y-7200000D02*
X17186000Y-7200000D01*
X17340000Y-7150000D02*
X17440000Y-7250000D01*
X17440000Y-7150000D02*
X17340000Y-7250000D01*
X17390000Y-7150000D02*
X17390000Y-7250000D01*
X17340000Y-7200000D02*
X17440000Y-7200000D01*
X17594000Y-7150000D02*
X17694000Y-7250000D01*
X17694000Y-7150000D02*
X17594000Y-7250000D01*
X17644000Y-7150000D02*
X17644000Y-7250000D01*
X17594000Y-7200000D02*
X17694000Y-7200000D01*
X17848000Y-7150000D02*
X17948000Y-7250000D01*
X17948000Y-7150000D02*
X17848000Y-7250000D01*
X17898000Y-7150000D02*
X17898000Y-7250000D01*
X17848000Y-7200000D02*
X17948000Y-7200000D01*
X18102000Y-7150000D02*
X18202000Y-7250000D01*
X18202000Y-7150000D02*
X18102000Y-7250000D01*
X18152000Y-7150000D02*
X18152000Y-7250000D01*
X18102000Y-7200000D02*
X18202000Y-7200000D01*
X16230000Y-15240000D02*
X16330000Y-15340000D01*
X16330000Y-15240000D02*
X16230000Y-15340000D01*
X16280000Y-15240000D02*
X16280000Y-15340000D01*
X16230000Y-15290000D02*
X16330000Y-15290000D01*
X16480000Y-15240000D02*
X16580000Y-15340000D01*
X16580000Y-15240000D02*
X16480000Y-15340000D01*
X16530000Y-15240000D02*
X16530000Y-15340000D01*
X16480000Y-15290000D02*
X16580000Y-15290000D01*
X17126000Y-13795000D02*
X17276000Y-13945000D01*
X17276000Y-13795000D02*
X17126000Y-13945000D01*
X17254034Y-13923033D02*
X17254034Y-13816966D01*
X17147967Y-13816966D01*
X17147967Y-13923033D01*
X17254034Y-13923033D01*
X19175000Y-13795000D02*
X19325000Y-13945000D01*
X19325000Y-13795000D02*
X19175000Y-13945000D01*
X19303034Y-13923033D02*
X19303034Y-13816966D01*
X19196967Y-13816966D01*
X19196967Y-13923033D01*
X19303034Y-13923033D01*
D12*
X13683928Y-16068214D02*
X13683928Y-15768214D01*
X13755357Y-15768214D01*
X13798214Y-15782500D01*
X13826786Y-15811071D01*
X13841071Y-15839643D01*
X13855357Y-15896786D01*
X13855357Y-15939643D01*
X13841071Y-15996786D01*
X13826786Y-16025357D01*
X13798214Y-16053929D01*
X13755357Y-16068214D01*
X13683928Y-16068214D01*
X13983928Y-16068214D02*
X13983928Y-15868214D01*
X13983928Y-15925357D02*
X13998214Y-15896786D01*
X14012500Y-15882500D01*
X14041071Y-15868214D01*
X14069643Y-15868214D01*
X14169643Y-16068214D02*
X14169643Y-15868214D01*
X14169643Y-15768214D02*
X14155357Y-15782500D01*
X14169643Y-15796786D01*
X14183928Y-15782500D01*
X14169643Y-15768214D01*
X14169643Y-15796786D01*
X14355357Y-16068214D02*
X14326786Y-16053929D01*
X14312500Y-16025357D01*
X14312500Y-15768214D01*
X14512500Y-16068214D02*
X14483928Y-16053929D01*
X14469643Y-16025357D01*
X14469643Y-15768214D01*
X14855357Y-16068214D02*
X14855357Y-15768214D01*
X14955357Y-15982500D01*
X15055357Y-15768214D01*
X15055357Y-16068214D01*
X15326786Y-16068214D02*
X15326786Y-15911071D01*
X15312500Y-15882500D01*
X15283928Y-15868214D01*
X15226786Y-15868214D01*
X15198214Y-15882500D01*
X15326786Y-16053929D02*
X15298214Y-16068214D01*
X15226786Y-16068214D01*
X15198214Y-16053929D01*
X15183928Y-16025357D01*
X15183928Y-15996786D01*
X15198214Y-15968214D01*
X15226786Y-15953929D01*
X15298214Y-15953929D01*
X15326786Y-15939643D01*
X15469643Y-15868214D02*
X15469643Y-16168214D01*
X15469643Y-15882500D02*
X15498214Y-15868214D01*
X15555357Y-15868214D01*
X15583928Y-15882500D01*
X15598214Y-15896786D01*
X15612500Y-15925357D01*
X15612500Y-16011071D01*
X15598214Y-16039643D01*
X15583928Y-16053929D01*
X15555357Y-16068214D01*
X15498214Y-16068214D01*
X15469643Y-16053929D01*
X15741071Y-16039643D02*
X15755357Y-16053929D01*
X15741071Y-16068214D01*
X15726786Y-16053929D01*
X15741071Y-16039643D01*
X15741071Y-16068214D01*
X15741071Y-15882500D02*
X15755357Y-15896786D01*
X15741071Y-15911071D01*
X15726786Y-15896786D01*
X15741071Y-15882500D01*
X15741071Y-15911071D01*
X13357500Y-16542500D02*
X13397500Y-16582500D01*
X13397500Y-16542500D02*
X13357500Y-16582500D01*
X13741071Y-16398214D02*
X13769643Y-16398214D01*
X13798214Y-16412500D01*
X13812500Y-16426786D01*
X13826786Y-16455357D01*
X13841071Y-16512500D01*
X13841071Y-16583929D01*
X13826786Y-16641071D01*
X13812500Y-16669643D01*
X13798214Y-16683929D01*
X13769643Y-16698214D01*
X13741071Y-16698214D01*
X13712500Y-16683929D01*
X13698214Y-16669643D01*
X13683928Y-16641071D01*
X13669643Y-16583929D01*
X13669643Y-16512500D01*
X13683928Y-16455357D01*
X13698214Y-16426786D01*
X13712500Y-16412500D01*
X13741071Y-16398214D01*
X13969643Y-16669643D02*
X13983928Y-16683929D01*
X13969643Y-16698214D01*
X13955357Y-16683929D01*
X13969643Y-16669643D01*
X13969643Y-16698214D01*
X14241071Y-16498214D02*
X14241071Y-16698214D01*
X14169643Y-16383929D02*
X14098214Y-16598214D01*
X14283928Y-16598214D01*
X14455357Y-16398214D02*
X14483928Y-16398214D01*
X14512500Y-16412500D01*
X14526786Y-16426786D01*
X14541071Y-16455357D01*
X14555357Y-16512500D01*
X14555357Y-16583929D01*
X14541071Y-16641071D01*
X14526786Y-16669643D01*
X14512500Y-16683929D01*
X14483928Y-16698214D01*
X14455357Y-16698214D01*
X14426786Y-16683929D01*
X14412500Y-16669643D01*
X14398214Y-16641071D01*
X14383928Y-16583929D01*
X14383928Y-16512500D01*
X14398214Y-16455357D01*
X14412500Y-16426786D01*
X14426786Y-16412500D01*
X14455357Y-16398214D01*
X14683928Y-16698214D02*
X14683928Y-16498214D01*
X14683928Y-16526786D02*
X14698214Y-16512500D01*
X14726786Y-16498214D01*
X14769643Y-16498214D01*
X14798214Y-16512500D01*
X14812500Y-16541071D01*
X14812500Y-16698214D01*
X14812500Y-16541071D02*
X14826786Y-16512500D01*
X14855357Y-16498214D01*
X14898214Y-16498214D01*
X14926786Y-16512500D01*
X14941071Y-16541071D01*
X14941071Y-16698214D01*
X15083928Y-16698214D02*
X15083928Y-16498214D01*
X15083928Y-16526786D02*
X15098214Y-16512500D01*
X15126786Y-16498214D01*
X15169643Y-16498214D01*
X15198214Y-16512500D01*
X15212500Y-16541071D01*
X15212500Y-16698214D01*
X15212500Y-16541071D02*
X15226786Y-16512500D01*
X15255357Y-16498214D01*
X15298214Y-16498214D01*
X15326786Y-16512500D01*
X15341071Y-16541071D01*
X15341071Y-16698214D01*
X15926786Y-16383929D02*
X15669643Y-16769643D01*
X16312500Y-16398214D02*
X16341071Y-16398214D01*
X16369643Y-16412500D01*
X16383928Y-16426786D01*
X16398214Y-16455357D01*
X16412500Y-16512500D01*
X16412500Y-16583929D01*
X16398214Y-16641071D01*
X16383928Y-16669643D01*
X16369643Y-16683929D01*
X16341071Y-16698214D01*
X16312500Y-16698214D01*
X16283928Y-16683929D01*
X16269643Y-16669643D01*
X16255357Y-16641071D01*
X16241071Y-16583929D01*
X16241071Y-16512500D01*
X16255357Y-16455357D01*
X16269643Y-16426786D01*
X16283928Y-16412500D01*
X16312500Y-16398214D01*
X16541071Y-16669643D02*
X16555357Y-16683929D01*
X16541071Y-16698214D01*
X16526786Y-16683929D01*
X16541071Y-16669643D01*
X16541071Y-16698214D01*
X16741071Y-16398214D02*
X16769643Y-16398214D01*
X16798214Y-16412500D01*
X16812500Y-16426786D01*
X16826786Y-16455357D01*
X16841071Y-16512500D01*
X16841071Y-16583929D01*
X16826786Y-16641071D01*
X16812500Y-16669643D01*
X16798214Y-16683929D01*
X16769643Y-16698214D01*
X16741071Y-16698214D01*
X16712500Y-16683929D01*
X16698214Y-16669643D01*
X16683928Y-16641071D01*
X16669643Y-16583929D01*
X16669643Y-16512500D01*
X16683928Y-16455357D01*
X16698214Y-16426786D01*
X16712500Y-16412500D01*
X16741071Y-16398214D01*
X17126786Y-16698214D02*
X16955357Y-16698214D01*
X17041071Y-16698214D02*
X17041071Y-16398214D01*
X17012500Y-16441071D01*
X16983928Y-16469643D01*
X16955357Y-16483929D01*
X17383928Y-16398214D02*
X17326786Y-16398214D01*
X17298214Y-16412500D01*
X17283928Y-16426786D01*
X17255357Y-16469643D01*
X17241071Y-16526786D01*
X17241071Y-16641071D01*
X17255357Y-16669643D01*
X17269643Y-16683929D01*
X17298214Y-16698214D01*
X17355357Y-16698214D01*
X17383928Y-16683929D01*
X17398214Y-16669643D01*
X17412500Y-16641071D01*
X17412500Y-16569643D01*
X17398214Y-16541071D01*
X17383928Y-16526786D01*
X17355357Y-16512500D01*
X17298214Y-16512500D01*
X17269643Y-16526786D01*
X17255357Y-16541071D01*
X17241071Y-16569643D01*
X17526786Y-16398214D02*
X17526786Y-16455357D01*
X17641071Y-16398214D02*
X17641071Y-16455357D01*
X18083928Y-16812500D02*
X18069643Y-16798214D01*
X18041071Y-16755357D01*
X18026786Y-16726786D01*
X18012500Y-16683929D01*
X17998214Y-16612500D01*
X17998214Y-16555357D01*
X18012500Y-16483929D01*
X18026786Y-16441071D01*
X18041071Y-16412500D01*
X18069643Y-16369643D01*
X18083928Y-16355357D01*
X18355357Y-16698214D02*
X18183928Y-16698214D01*
X18269643Y-16698214D02*
X18269643Y-16398214D01*
X18241071Y-16441071D01*
X18212500Y-16469643D01*
X18183928Y-16483929D01*
X18526786Y-16526786D02*
X18498214Y-16512500D01*
X18483928Y-16498214D01*
X18469643Y-16469643D01*
X18469643Y-16455357D01*
X18483928Y-16426786D01*
X18498214Y-16412500D01*
X18526786Y-16398214D01*
X18583928Y-16398214D01*
X18612500Y-16412500D01*
X18626786Y-16426786D01*
X18641071Y-16455357D01*
X18641071Y-16469643D01*
X18626786Y-16498214D01*
X18612500Y-16512500D01*
X18583928Y-16526786D01*
X18526786Y-16526786D01*
X18498214Y-16541071D01*
X18483928Y-16555357D01*
X18469643Y-16583929D01*
X18469643Y-16641071D01*
X18483928Y-16669643D01*
X18498214Y-16683929D01*
X18526786Y-16698214D01*
X18583928Y-16698214D01*
X18612500Y-16683929D01*
X18626786Y-16669643D01*
X18641071Y-16641071D01*
X18641071Y-16583929D01*
X18626786Y-16555357D01*
X18612500Y-16541071D01*
X18583928Y-16526786D01*
X18998214Y-16698214D02*
X18998214Y-16398214D01*
X19126786Y-16698214D02*
X19126786Y-16541071D01*
X19112500Y-16512500D01*
X19083928Y-16498214D01*
X19041071Y-16498214D01*
X19012500Y-16512500D01*
X18998214Y-16526786D01*
X19312500Y-16698214D02*
X19283928Y-16683929D01*
X19269643Y-16669643D01*
X19255357Y-16641071D01*
X19255357Y-16555357D01*
X19269643Y-16526786D01*
X19283928Y-16512500D01*
X19312500Y-16498214D01*
X19355357Y-16498214D01*
X19383928Y-16512500D01*
X19398214Y-16526786D01*
X19412500Y-16555357D01*
X19412500Y-16641071D01*
X19398214Y-16669643D01*
X19383928Y-16683929D01*
X19355357Y-16698214D01*
X19312500Y-16698214D01*
X19583928Y-16698214D02*
X19555357Y-16683929D01*
X19541071Y-16655357D01*
X19541071Y-16398214D01*
X19812500Y-16683929D02*
X19783928Y-16698214D01*
X19726786Y-16698214D01*
X19698214Y-16683929D01*
X19683928Y-16655357D01*
X19683928Y-16541071D01*
X19698214Y-16512500D01*
X19726786Y-16498214D01*
X19783928Y-16498214D01*
X19812500Y-16512500D01*
X19826786Y-16541071D01*
X19826786Y-16569643D01*
X19683928Y-16598214D01*
X19941071Y-16683929D02*
X19969643Y-16698214D01*
X20026786Y-16698214D01*
X20055357Y-16683929D01*
X20069643Y-16655357D01*
X20069643Y-16641071D01*
X20055357Y-16612500D01*
X20026786Y-16598214D01*
X19983928Y-16598214D01*
X19955357Y-16583929D01*
X19941071Y-16555357D01*
X19941071Y-16541071D01*
X19955357Y-16512500D01*
X19983928Y-16498214D01*
X20026786Y-16498214D01*
X20055357Y-16512500D01*
X20169643Y-16812500D02*
X20183928Y-16798214D01*
X20212500Y-16755357D01*
X20226786Y-16726786D01*
X20241071Y-16683929D01*
X20255357Y-16612500D01*
X20255357Y-16555357D01*
X20241071Y-16483929D01*
X20226786Y-16441071D01*
X20212500Y-16412500D01*
X20183928Y-16369643D01*
X20169643Y-16355357D01*
X13397500Y-16958500D02*
G75*
G03*
X13397500Y-16958500I-37500J0D01*
G01*
X13741071Y-16794214D02*
X13769643Y-16794214D01*
X13798214Y-16808500D01*
X13812500Y-16822786D01*
X13826786Y-16851357D01*
X13841071Y-16908500D01*
X13841071Y-16979929D01*
X13826786Y-17037072D01*
X13812500Y-17065643D01*
X13798214Y-17079929D01*
X13769643Y-17094214D01*
X13741071Y-17094214D01*
X13712500Y-17079929D01*
X13698214Y-17065643D01*
X13683928Y-17037072D01*
X13669643Y-16979929D01*
X13669643Y-16908500D01*
X13683928Y-16851357D01*
X13698214Y-16822786D01*
X13712500Y-16808500D01*
X13741071Y-16794214D01*
X13969643Y-17065643D02*
X13983928Y-17079929D01*
X13969643Y-17094214D01*
X13955357Y-17079929D01*
X13969643Y-17065643D01*
X13969643Y-17094214D01*
X14083928Y-16794214D02*
X14283928Y-16794214D01*
X14155357Y-17094214D01*
X14541071Y-16794214D02*
X14398214Y-16794214D01*
X14383928Y-16937072D01*
X14398214Y-16922786D01*
X14426786Y-16908500D01*
X14498214Y-16908500D01*
X14526786Y-16922786D01*
X14541071Y-16937072D01*
X14555357Y-16965643D01*
X14555357Y-17037072D01*
X14541071Y-17065643D01*
X14526786Y-17079929D01*
X14498214Y-17094214D01*
X14426786Y-17094214D01*
X14398214Y-17079929D01*
X14383928Y-17065643D01*
X14683928Y-17094214D02*
X14683928Y-16894214D01*
X14683928Y-16922786D02*
X14698214Y-16908500D01*
X14726786Y-16894214D01*
X14769643Y-16894214D01*
X14798214Y-16908500D01*
X14812500Y-16937072D01*
X14812500Y-17094214D01*
X14812500Y-16937072D02*
X14826786Y-16908500D01*
X14855357Y-16894214D01*
X14898214Y-16894214D01*
X14926786Y-16908500D01*
X14941071Y-16937072D01*
X14941071Y-17094214D01*
X15083928Y-17094214D02*
X15083928Y-16894214D01*
X15083928Y-16922786D02*
X15098214Y-16908500D01*
X15126786Y-16894214D01*
X15169643Y-16894214D01*
X15198214Y-16908500D01*
X15212500Y-16937072D01*
X15212500Y-17094214D01*
X15212500Y-16937072D02*
X15226786Y-16908500D01*
X15255357Y-16894214D01*
X15298214Y-16894214D01*
X15326786Y-16908500D01*
X15341071Y-16937072D01*
X15341071Y-17094214D01*
X15926786Y-16779929D02*
X15669643Y-17165643D01*
X16312500Y-16794214D02*
X16341071Y-16794214D01*
X16369643Y-16808500D01*
X16383928Y-16822786D01*
X16398214Y-16851357D01*
X16412500Y-16908500D01*
X16412500Y-16979929D01*
X16398214Y-17037072D01*
X16383928Y-17065643D01*
X16369643Y-17079929D01*
X16341071Y-17094214D01*
X16312500Y-17094214D01*
X16283928Y-17079929D01*
X16269643Y-17065643D01*
X16255357Y-17037072D01*
X16241071Y-16979929D01*
X16241071Y-16908500D01*
X16255357Y-16851357D01*
X16269643Y-16822786D01*
X16283928Y-16808500D01*
X16312500Y-16794214D01*
X16541071Y-17065643D02*
X16555357Y-17079929D01*
X16541071Y-17094214D01*
X16526786Y-17079929D01*
X16541071Y-17065643D01*
X16541071Y-17094214D01*
X16741071Y-16794214D02*
X16769643Y-16794214D01*
X16798214Y-16808500D01*
X16812500Y-16822786D01*
X16826786Y-16851357D01*
X16841071Y-16908500D01*
X16841071Y-16979929D01*
X16826786Y-17037072D01*
X16812500Y-17065643D01*
X16798214Y-17079929D01*
X16769643Y-17094214D01*
X16741071Y-17094214D01*
X16712500Y-17079929D01*
X16698214Y-17065643D01*
X16683928Y-17037072D01*
X16669643Y-16979929D01*
X16669643Y-16908500D01*
X16683928Y-16851357D01*
X16698214Y-16822786D01*
X16712500Y-16808500D01*
X16741071Y-16794214D01*
X16941071Y-16794214D02*
X17126786Y-16794214D01*
X17026786Y-16908500D01*
X17069643Y-16908500D01*
X17098214Y-16922786D01*
X17112500Y-16937072D01*
X17126786Y-16965643D01*
X17126786Y-17037072D01*
X17112500Y-17065643D01*
X17098214Y-17079929D01*
X17069643Y-17094214D01*
X16983928Y-17094214D01*
X16955357Y-17079929D01*
X16941071Y-17065643D01*
X17312500Y-16794214D02*
X17341071Y-16794214D01*
X17369643Y-16808500D01*
X17383928Y-16822786D01*
X17398214Y-16851357D01*
X17412500Y-16908500D01*
X17412500Y-16979929D01*
X17398214Y-17037072D01*
X17383928Y-17065643D01*
X17369643Y-17079929D01*
X17341071Y-17094214D01*
X17312500Y-17094214D01*
X17283928Y-17079929D01*
X17269643Y-17065643D01*
X17255357Y-17037072D01*
X17241071Y-16979929D01*
X17241071Y-16908500D01*
X17255357Y-16851357D01*
X17269643Y-16822786D01*
X17283928Y-16808500D01*
X17312500Y-16794214D01*
X17526786Y-16794214D02*
X17526786Y-16851357D01*
X17641071Y-16794214D02*
X17641071Y-16851357D01*
X18083928Y-17208500D02*
X18069643Y-17194214D01*
X18041071Y-17151357D01*
X18026786Y-17122786D01*
X18012500Y-17079929D01*
X17998214Y-17008500D01*
X17998214Y-16951357D01*
X18012500Y-16879929D01*
X18026786Y-16837072D01*
X18041071Y-16808500D01*
X18069643Y-16765643D01*
X18083928Y-16751357D01*
X18169643Y-16794214D02*
X18355357Y-16794214D01*
X18255357Y-16908500D01*
X18298214Y-16908500D01*
X18326786Y-16922786D01*
X18341071Y-16937072D01*
X18355357Y-16965643D01*
X18355357Y-17037072D01*
X18341071Y-17065643D01*
X18326786Y-17079929D01*
X18298214Y-17094214D01*
X18212500Y-17094214D01*
X18183928Y-17079929D01*
X18169643Y-17065643D01*
X18712500Y-17094214D02*
X18712500Y-16794214D01*
X18841071Y-17094214D02*
X18841071Y-16937072D01*
X18826786Y-16908500D01*
X18798214Y-16894214D01*
X18755357Y-16894214D01*
X18726786Y-16908500D01*
X18712500Y-16922786D01*
X19026786Y-17094214D02*
X18998214Y-17079929D01*
X18983928Y-17065643D01*
X18969643Y-17037072D01*
X18969643Y-16951357D01*
X18983928Y-16922786D01*
X18998214Y-16908500D01*
X19026786Y-16894214D01*
X19069643Y-16894214D01*
X19098214Y-16908500D01*
X19112500Y-16922786D01*
X19126786Y-16951357D01*
X19126786Y-17037072D01*
X19112500Y-17065643D01*
X19098214Y-17079929D01*
X19069643Y-17094214D01*
X19026786Y-17094214D01*
X19298214Y-17094214D02*
X19269643Y-17079929D01*
X19255357Y-17051357D01*
X19255357Y-16794214D01*
X19526786Y-17079929D02*
X19498214Y-17094214D01*
X19441071Y-17094214D01*
X19412500Y-17079929D01*
X19398214Y-17051357D01*
X19398214Y-16937072D01*
X19412500Y-16908500D01*
X19441071Y-16894214D01*
X19498214Y-16894214D01*
X19526786Y-16908500D01*
X19541071Y-16937072D01*
X19541071Y-16965643D01*
X19398214Y-16994214D01*
X19655357Y-17079929D02*
X19683928Y-17094214D01*
X19741071Y-17094214D01*
X19769643Y-17079929D01*
X19783928Y-17051357D01*
X19783928Y-17037072D01*
X19769643Y-17008500D01*
X19741071Y-16994214D01*
X19698214Y-16994214D01*
X19669643Y-16979929D01*
X19655357Y-16951357D01*
X19655357Y-16937072D01*
X19669643Y-16908500D01*
X19698214Y-16894214D01*
X19741071Y-16894214D01*
X19769643Y-16908500D01*
X19883928Y-17208500D02*
X19898214Y-17194214D01*
X19926786Y-17151357D01*
X19941071Y-17122786D01*
X19955357Y-17079929D01*
X19969643Y-17008500D01*
X19969643Y-16951357D01*
X19955357Y-16879929D01*
X19941071Y-16837072D01*
X19926786Y-16808500D01*
X19898214Y-16765643D01*
X19883928Y-16751357D01*
X13359400Y-17316400D02*
X13359400Y-17392600D01*
X13321300Y-17354500D02*
X13397500Y-17354500D01*
X13741071Y-17190214D02*
X13769643Y-17190214D01*
X13798214Y-17204500D01*
X13812500Y-17218786D01*
X13826786Y-17247357D01*
X13841071Y-17304500D01*
X13841071Y-17375929D01*
X13826786Y-17433072D01*
X13812500Y-17461643D01*
X13798214Y-17475929D01*
X13769643Y-17490214D01*
X13741071Y-17490214D01*
X13712500Y-17475929D01*
X13698214Y-17461643D01*
X13683928Y-17433072D01*
X13669643Y-17375929D01*
X13669643Y-17304500D01*
X13683928Y-17247357D01*
X13698214Y-17218786D01*
X13712500Y-17204500D01*
X13741071Y-17190214D01*
X13969643Y-17461643D02*
X13983928Y-17475929D01*
X13969643Y-17490214D01*
X13955357Y-17475929D01*
X13969643Y-17461643D01*
X13969643Y-17490214D01*
X14083928Y-17190214D02*
X14283928Y-17190214D01*
X14155357Y-17490214D01*
X14526786Y-17190214D02*
X14469643Y-17190214D01*
X14441071Y-17204500D01*
X14426786Y-17218786D01*
X14398214Y-17261643D01*
X14383928Y-17318786D01*
X14383928Y-17433072D01*
X14398214Y-17461643D01*
X14412500Y-17475929D01*
X14441071Y-17490214D01*
X14498214Y-17490214D01*
X14526786Y-17475929D01*
X14541071Y-17461643D01*
X14555357Y-17433072D01*
X14555357Y-17361643D01*
X14541071Y-17333072D01*
X14526786Y-17318786D01*
X14498214Y-17304500D01*
X14441071Y-17304500D01*
X14412500Y-17318786D01*
X14398214Y-17333072D01*
X14383928Y-17361643D01*
X14683928Y-17490214D02*
X14683928Y-17290214D01*
X14683928Y-17318786D02*
X14698214Y-17304500D01*
X14726786Y-17290214D01*
X14769643Y-17290214D01*
X14798214Y-17304500D01*
X14812500Y-17333072D01*
X14812500Y-17490214D01*
X14812500Y-17333072D02*
X14826786Y-17304500D01*
X14855357Y-17290214D01*
X14898214Y-17290214D01*
X14926786Y-17304500D01*
X14941071Y-17333072D01*
X14941071Y-17490214D01*
X15083928Y-17490214D02*
X15083928Y-17290214D01*
X15083928Y-17318786D02*
X15098214Y-17304500D01*
X15126786Y-17290214D01*
X15169643Y-17290214D01*
X15198214Y-17304500D01*
X15212500Y-17333072D01*
X15212500Y-17490214D01*
X15212500Y-17333072D02*
X15226786Y-17304500D01*
X15255357Y-17290214D01*
X15298214Y-17290214D01*
X15326786Y-17304500D01*
X15341071Y-17333072D01*
X15341071Y-17490214D01*
X15926786Y-17175929D02*
X15669643Y-17561643D01*
X16312500Y-17190214D02*
X16341071Y-17190214D01*
X16369643Y-17204500D01*
X16383928Y-17218786D01*
X16398214Y-17247357D01*
X16412500Y-17304500D01*
X16412500Y-17375929D01*
X16398214Y-17433072D01*
X16383928Y-17461643D01*
X16369643Y-17475929D01*
X16341071Y-17490214D01*
X16312500Y-17490214D01*
X16283928Y-17475929D01*
X16269643Y-17461643D01*
X16255357Y-17433072D01*
X16241071Y-17375929D01*
X16241071Y-17304500D01*
X16255357Y-17247357D01*
X16269643Y-17218786D01*
X16283928Y-17204500D01*
X16312500Y-17190214D01*
X16541071Y-17461643D02*
X16555357Y-17475929D01*
X16541071Y-17490214D01*
X16526786Y-17475929D01*
X16541071Y-17461643D01*
X16541071Y-17490214D01*
X16741071Y-17190214D02*
X16769643Y-17190214D01*
X16798214Y-17204500D01*
X16812500Y-17218786D01*
X16826786Y-17247357D01*
X16841071Y-17304500D01*
X16841071Y-17375929D01*
X16826786Y-17433072D01*
X16812500Y-17461643D01*
X16798214Y-17475929D01*
X16769643Y-17490214D01*
X16741071Y-17490214D01*
X16712500Y-17475929D01*
X16698214Y-17461643D01*
X16683928Y-17433072D01*
X16669643Y-17375929D01*
X16669643Y-17304500D01*
X16683928Y-17247357D01*
X16698214Y-17218786D01*
X16712500Y-17204500D01*
X16741071Y-17190214D01*
X16941071Y-17190214D02*
X17126786Y-17190214D01*
X17026786Y-17304500D01*
X17069643Y-17304500D01*
X17098214Y-17318786D01*
X17112500Y-17333072D01*
X17126786Y-17361643D01*
X17126786Y-17433072D01*
X17112500Y-17461643D01*
X17098214Y-17475929D01*
X17069643Y-17490214D01*
X16983928Y-17490214D01*
X16955357Y-17475929D01*
X16941071Y-17461643D01*
X17312500Y-17190214D02*
X17341071Y-17190214D01*
X17369643Y-17204500D01*
X17383928Y-17218786D01*
X17398214Y-17247357D01*
X17412500Y-17304500D01*
X17412500Y-17375929D01*
X17398214Y-17433072D01*
X17383928Y-17461643D01*
X17369643Y-17475929D01*
X17341071Y-17490214D01*
X17312500Y-17490214D01*
X17283928Y-17475929D01*
X17269643Y-17461643D01*
X17255357Y-17433072D01*
X17241071Y-17375929D01*
X17241071Y-17304500D01*
X17255357Y-17247357D01*
X17269643Y-17218786D01*
X17283928Y-17204500D01*
X17312500Y-17190214D01*
X17526786Y-17190214D02*
X17526786Y-17247357D01*
X17641071Y-17190214D02*
X17641071Y-17247357D01*
X18083928Y-17604500D02*
X18069643Y-17590214D01*
X18041071Y-17547357D01*
X18026786Y-17518786D01*
X18012500Y-17475929D01*
X17998214Y-17404500D01*
X17998214Y-17347357D01*
X18012500Y-17275929D01*
X18026786Y-17233072D01*
X18041071Y-17204500D01*
X18069643Y-17161643D01*
X18083928Y-17147357D01*
X18169643Y-17190214D02*
X18355357Y-17190214D01*
X18255357Y-17304500D01*
X18298214Y-17304500D01*
X18326786Y-17318786D01*
X18341071Y-17333072D01*
X18355357Y-17361643D01*
X18355357Y-17433072D01*
X18341071Y-17461643D01*
X18326786Y-17475929D01*
X18298214Y-17490214D01*
X18212500Y-17490214D01*
X18183928Y-17475929D01*
X18169643Y-17461643D01*
X18541071Y-17190214D02*
X18569643Y-17190214D01*
X18598214Y-17204500D01*
X18612500Y-17218786D01*
X18626786Y-17247357D01*
X18641071Y-17304500D01*
X18641071Y-17375929D01*
X18626786Y-17433072D01*
X18612500Y-17461643D01*
X18598214Y-17475929D01*
X18569643Y-17490214D01*
X18541071Y-17490214D01*
X18512500Y-17475929D01*
X18498214Y-17461643D01*
X18483928Y-17433072D01*
X18469643Y-17375929D01*
X18469643Y-17304500D01*
X18483928Y-17247357D01*
X18498214Y-17218786D01*
X18512500Y-17204500D01*
X18541071Y-17190214D01*
X18998214Y-17490214D02*
X18998214Y-17190214D01*
X19126786Y-17490214D02*
X19126786Y-17333072D01*
X19112500Y-17304500D01*
X19083928Y-17290214D01*
X19041071Y-17290214D01*
X19012500Y-17304500D01*
X18998214Y-17318786D01*
X19312500Y-17490214D02*
X19283928Y-17475929D01*
X19269643Y-17461643D01*
X19255357Y-17433072D01*
X19255357Y-17347357D01*
X19269643Y-17318786D01*
X19283928Y-17304500D01*
X19312500Y-17290214D01*
X19355357Y-17290214D01*
X19383928Y-17304500D01*
X19398214Y-17318786D01*
X19412500Y-17347357D01*
X19412500Y-17433072D01*
X19398214Y-17461643D01*
X19383928Y-17475929D01*
X19355357Y-17490214D01*
X19312500Y-17490214D01*
X19583928Y-17490214D02*
X19555357Y-17475929D01*
X19541071Y-17447357D01*
X19541071Y-17190214D01*
X19812500Y-17475929D02*
X19783928Y-17490214D01*
X19726786Y-17490214D01*
X19698214Y-17475929D01*
X19683928Y-17447357D01*
X19683928Y-17333072D01*
X19698214Y-17304500D01*
X19726786Y-17290214D01*
X19783928Y-17290214D01*
X19812500Y-17304500D01*
X19826786Y-17333072D01*
X19826786Y-17361643D01*
X19683928Y-17390214D01*
X19941071Y-17475929D02*
X19969643Y-17490214D01*
X20026786Y-17490214D01*
X20055357Y-17475929D01*
X20069643Y-17447357D01*
X20069643Y-17433072D01*
X20055357Y-17404500D01*
X20026786Y-17390214D01*
X19983928Y-17390214D01*
X19955357Y-17375929D01*
X19941071Y-17347357D01*
X19941071Y-17333072D01*
X19955357Y-17304500D01*
X19983928Y-17290214D01*
X20026786Y-17290214D01*
X20055357Y-17304500D01*
X20169643Y-17604500D02*
X20183928Y-17590214D01*
X20212500Y-17547357D01*
X20226786Y-17518786D01*
X20241071Y-17475929D01*
X20255357Y-17404500D01*
X20255357Y-17347357D01*
X20241071Y-17275929D01*
X20226786Y-17233072D01*
X20212500Y-17204500D01*
X20183928Y-17161643D01*
X20169643Y-17147357D01*
X13385784Y-17778785D02*
X13385784Y-17722216D01*
X13329215Y-17722216D01*
X13329215Y-17778785D01*
X13385784Y-17778785D01*
X13741071Y-17586214D02*
X13769643Y-17586214D01*
X13798214Y-17600500D01*
X13812500Y-17614786D01*
X13826786Y-17643357D01*
X13841071Y-17700500D01*
X13841071Y-17771929D01*
X13826786Y-17829072D01*
X13812500Y-17857643D01*
X13798214Y-17871929D01*
X13769643Y-17886214D01*
X13741071Y-17886214D01*
X13712500Y-17871929D01*
X13698214Y-17857643D01*
X13683928Y-17829072D01*
X13669643Y-17771929D01*
X13669643Y-17700500D01*
X13683928Y-17643357D01*
X13698214Y-17614786D01*
X13712500Y-17600500D01*
X13741071Y-17586214D01*
X13969643Y-17857643D02*
X13983928Y-17871929D01*
X13969643Y-17886214D01*
X13955357Y-17871929D01*
X13969643Y-17857643D01*
X13969643Y-17886214D01*
X14155357Y-17714786D02*
X14126786Y-17700500D01*
X14112500Y-17686214D01*
X14098214Y-17657643D01*
X14098214Y-17643357D01*
X14112500Y-17614786D01*
X14126786Y-17600500D01*
X14155357Y-17586214D01*
X14212500Y-17586214D01*
X14241071Y-17600500D01*
X14255357Y-17614786D01*
X14269643Y-17643357D01*
X14269643Y-17657643D01*
X14255357Y-17686214D01*
X14241071Y-17700500D01*
X14212500Y-17714786D01*
X14155357Y-17714786D01*
X14126786Y-17729072D01*
X14112500Y-17743357D01*
X14098214Y-17771929D01*
X14098214Y-17829072D01*
X14112500Y-17857643D01*
X14126786Y-17871929D01*
X14155357Y-17886214D01*
X14212500Y-17886214D01*
X14241071Y-17871929D01*
X14255357Y-17857643D01*
X14269643Y-17829072D01*
X14269643Y-17771929D01*
X14255357Y-17743357D01*
X14241071Y-17729072D01*
X14212500Y-17714786D01*
X14455357Y-17586214D02*
X14483928Y-17586214D01*
X14512500Y-17600500D01*
X14526786Y-17614786D01*
X14541071Y-17643357D01*
X14555357Y-17700500D01*
X14555357Y-17771929D01*
X14541071Y-17829072D01*
X14526786Y-17857643D01*
X14512500Y-17871929D01*
X14483928Y-17886214D01*
X14455357Y-17886214D01*
X14426786Y-17871929D01*
X14412500Y-17857643D01*
X14398214Y-17829072D01*
X14383928Y-17771929D01*
X14383928Y-17700500D01*
X14398214Y-17643357D01*
X14412500Y-17614786D01*
X14426786Y-17600500D01*
X14455357Y-17586214D01*
X14683928Y-17886214D02*
X14683928Y-17686214D01*
X14683928Y-17714786D02*
X14698214Y-17700500D01*
X14726786Y-17686214D01*
X14769643Y-17686214D01*
X14798214Y-17700500D01*
X14812500Y-17729072D01*
X14812500Y-17886214D01*
X14812500Y-17729072D02*
X14826786Y-17700500D01*
X14855357Y-17686214D01*
X14898214Y-17686214D01*
X14926786Y-17700500D01*
X14941071Y-17729072D01*
X14941071Y-17886214D01*
X15083928Y-17886214D02*
X15083928Y-17686214D01*
X15083928Y-17714786D02*
X15098214Y-17700500D01*
X15126786Y-17686214D01*
X15169643Y-17686214D01*
X15198214Y-17700500D01*
X15212500Y-17729072D01*
X15212500Y-17886214D01*
X15212500Y-17729072D02*
X15226786Y-17700500D01*
X15255357Y-17686214D01*
X15298214Y-17686214D01*
X15326786Y-17700500D01*
X15341071Y-17729072D01*
X15341071Y-17886214D01*
X15926786Y-17571929D02*
X15669643Y-17957643D01*
X16312500Y-17586214D02*
X16341071Y-17586214D01*
X16369643Y-17600500D01*
X16383928Y-17614786D01*
X16398214Y-17643357D01*
X16412500Y-17700500D01*
X16412500Y-17771929D01*
X16398214Y-17829072D01*
X16383928Y-17857643D01*
X16369643Y-17871929D01*
X16341071Y-17886214D01*
X16312500Y-17886214D01*
X16283928Y-17871929D01*
X16269643Y-17857643D01*
X16255357Y-17829072D01*
X16241071Y-17771929D01*
X16241071Y-17700500D01*
X16255357Y-17643357D01*
X16269643Y-17614786D01*
X16283928Y-17600500D01*
X16312500Y-17586214D01*
X16541071Y-17857643D02*
X16555357Y-17871929D01*
X16541071Y-17886214D01*
X16526786Y-17871929D01*
X16541071Y-17857643D01*
X16541071Y-17886214D01*
X16741071Y-17586214D02*
X16769643Y-17586214D01*
X16798214Y-17600500D01*
X16812500Y-17614786D01*
X16826786Y-17643357D01*
X16841071Y-17700500D01*
X16841071Y-17771929D01*
X16826786Y-17829072D01*
X16812500Y-17857643D01*
X16798214Y-17871929D01*
X16769643Y-17886214D01*
X16741071Y-17886214D01*
X16712500Y-17871929D01*
X16698214Y-17857643D01*
X16683928Y-17829072D01*
X16669643Y-17771929D01*
X16669643Y-17700500D01*
X16683928Y-17643357D01*
X16698214Y-17614786D01*
X16712500Y-17600500D01*
X16741071Y-17586214D01*
X16941071Y-17586214D02*
X17126786Y-17586214D01*
X17026786Y-17700500D01*
X17069643Y-17700500D01*
X17098214Y-17714786D01*
X17112500Y-17729072D01*
X17126786Y-17757643D01*
X17126786Y-17829072D01*
X17112500Y-17857643D01*
X17098214Y-17871929D01*
X17069643Y-17886214D01*
X16983928Y-17886214D01*
X16955357Y-17871929D01*
X16941071Y-17857643D01*
X17412500Y-17886214D02*
X17241071Y-17886214D01*
X17326786Y-17886214D02*
X17326786Y-17586214D01*
X17298214Y-17629072D01*
X17269643Y-17657643D01*
X17241071Y-17671929D01*
X17526786Y-17586214D02*
X17526786Y-17643357D01*
X17641071Y-17586214D02*
X17641071Y-17643357D01*
X18083928Y-18000500D02*
X18069643Y-17986214D01*
X18041071Y-17943357D01*
X18026786Y-17914786D01*
X18012500Y-17871929D01*
X17998214Y-17800500D01*
X17998214Y-17743357D01*
X18012500Y-17671929D01*
X18026786Y-17629072D01*
X18041071Y-17600500D01*
X18069643Y-17557643D01*
X18083928Y-17543357D01*
X18355357Y-17886214D02*
X18183928Y-17886214D01*
X18269643Y-17886214D02*
X18269643Y-17586214D01*
X18241071Y-17629072D01*
X18212500Y-17657643D01*
X18183928Y-17671929D01*
X18612500Y-17686214D02*
X18612500Y-17886214D01*
X18541071Y-17571929D02*
X18469643Y-17786214D01*
X18655357Y-17786214D01*
X18998214Y-17886214D02*
X18998214Y-17586214D01*
X19126786Y-17886214D02*
X19126786Y-17729072D01*
X19112500Y-17700500D01*
X19083928Y-17686214D01*
X19041071Y-17686214D01*
X19012500Y-17700500D01*
X18998214Y-17714786D01*
X19312500Y-17886214D02*
X19283928Y-17871929D01*
X19269643Y-17857643D01*
X19255357Y-17829072D01*
X19255357Y-17743357D01*
X19269643Y-17714786D01*
X19283928Y-17700500D01*
X19312500Y-17686214D01*
X19355357Y-17686214D01*
X19383928Y-17700500D01*
X19398214Y-17714786D01*
X19412500Y-17743357D01*
X19412500Y-17829072D01*
X19398214Y-17857643D01*
X19383928Y-17871929D01*
X19355357Y-17886214D01*
X19312500Y-17886214D01*
X19583928Y-17886214D02*
X19555357Y-17871929D01*
X19541071Y-17843357D01*
X19541071Y-17586214D01*
X19812500Y-17871929D02*
X19783928Y-17886214D01*
X19726786Y-17886214D01*
X19698214Y-17871929D01*
X19683928Y-17843357D01*
X19683928Y-17729072D01*
X19698214Y-17700500D01*
X19726786Y-17686214D01*
X19783928Y-17686214D01*
X19812500Y-17700500D01*
X19826786Y-17729072D01*
X19826786Y-17757643D01*
X19683928Y-17786214D01*
X19941071Y-17871929D02*
X19969643Y-17886214D01*
X20026786Y-17886214D01*
X20055357Y-17871929D01*
X20069643Y-17843357D01*
X20069643Y-17829072D01*
X20055357Y-17800500D01*
X20026786Y-17786214D01*
X19983928Y-17786214D01*
X19955357Y-17771929D01*
X19941071Y-17743357D01*
X19941071Y-17729072D01*
X19955357Y-17700500D01*
X19983928Y-17686214D01*
X20026786Y-17686214D01*
X20055357Y-17700500D01*
X20169643Y-18000500D02*
X20183928Y-17986214D01*
X20212500Y-17943357D01*
X20226786Y-17914786D01*
X20241071Y-17871929D01*
X20255357Y-17800500D01*
X20255357Y-17743357D01*
X20241071Y-17671929D01*
X20226786Y-17629072D01*
X20212500Y-17600500D01*
X20183928Y-17557643D01*
X20169643Y-17543357D01*
X13350000Y-18194000D02*
X13397500Y-18146500D01*
X13350000Y-18099000D01*
X13302500Y-18146500D01*
X13350000Y-18194000D01*
X13741071Y-17982214D02*
X13769643Y-17982214D01*
X13798214Y-17996500D01*
X13812500Y-18010786D01*
X13826786Y-18039357D01*
X13841071Y-18096500D01*
X13841071Y-18167929D01*
X13826786Y-18225072D01*
X13812500Y-18253643D01*
X13798214Y-18267929D01*
X13769643Y-18282214D01*
X13741071Y-18282214D01*
X13712500Y-18267929D01*
X13698214Y-18253643D01*
X13683928Y-18225072D01*
X13669643Y-18167929D01*
X13669643Y-18096500D01*
X13683928Y-18039357D01*
X13698214Y-18010786D01*
X13712500Y-17996500D01*
X13741071Y-17982214D01*
X13969643Y-18253643D02*
X13983928Y-18267929D01*
X13969643Y-18282214D01*
X13955357Y-18267929D01*
X13969643Y-18253643D01*
X13969643Y-18282214D01*
X14126786Y-18282214D02*
X14183928Y-18282214D01*
X14212500Y-18267929D01*
X14226786Y-18253643D01*
X14255357Y-18210786D01*
X14269643Y-18153643D01*
X14269643Y-18039357D01*
X14255357Y-18010786D01*
X14241071Y-17996500D01*
X14212500Y-17982214D01*
X14155357Y-17982214D01*
X14126786Y-17996500D01*
X14112500Y-18010786D01*
X14098214Y-18039357D01*
X14098214Y-18110786D01*
X14112500Y-18139357D01*
X14126786Y-18153643D01*
X14155357Y-18167929D01*
X14212500Y-18167929D01*
X14241071Y-18153643D01*
X14255357Y-18139357D01*
X14269643Y-18110786D01*
X14541071Y-17982214D02*
X14398214Y-17982214D01*
X14383928Y-18125072D01*
X14398214Y-18110786D01*
X14426786Y-18096500D01*
X14498214Y-18096500D01*
X14526786Y-18110786D01*
X14541071Y-18125072D01*
X14555357Y-18153643D01*
X14555357Y-18225072D01*
X14541071Y-18253643D01*
X14526786Y-18267929D01*
X14498214Y-18282214D01*
X14426786Y-18282214D01*
X14398214Y-18267929D01*
X14383928Y-18253643D01*
X14683928Y-18282214D02*
X14683928Y-18082214D01*
X14683928Y-18110786D02*
X14698214Y-18096500D01*
X14726786Y-18082214D01*
X14769643Y-18082214D01*
X14798214Y-18096500D01*
X14812500Y-18125072D01*
X14812500Y-18282214D01*
X14812500Y-18125072D02*
X14826786Y-18096500D01*
X14855357Y-18082214D01*
X14898214Y-18082214D01*
X14926786Y-18096500D01*
X14941071Y-18125072D01*
X14941071Y-18282214D01*
X15083928Y-18282214D02*
X15083928Y-18082214D01*
X15083928Y-18110786D02*
X15098214Y-18096500D01*
X15126786Y-18082214D01*
X15169643Y-18082214D01*
X15198214Y-18096500D01*
X15212500Y-18125072D01*
X15212500Y-18282214D01*
X15212500Y-18125072D02*
X15226786Y-18096500D01*
X15255357Y-18082214D01*
X15298214Y-18082214D01*
X15326786Y-18096500D01*
X15341071Y-18125072D01*
X15341071Y-18282214D01*
X15926786Y-17967929D02*
X15669643Y-18353643D01*
X16312500Y-17982214D02*
X16341071Y-17982214D01*
X16369643Y-17996500D01*
X16383928Y-18010786D01*
X16398214Y-18039357D01*
X16412500Y-18096500D01*
X16412500Y-18167929D01*
X16398214Y-18225072D01*
X16383928Y-18253643D01*
X16369643Y-18267929D01*
X16341071Y-18282214D01*
X16312500Y-18282214D01*
X16283928Y-18267929D01*
X16269643Y-18253643D01*
X16255357Y-18225072D01*
X16241071Y-18167929D01*
X16241071Y-18096500D01*
X16255357Y-18039357D01*
X16269643Y-18010786D01*
X16283928Y-17996500D01*
X16312500Y-17982214D01*
X16541071Y-18253643D02*
X16555357Y-18267929D01*
X16541071Y-18282214D01*
X16526786Y-18267929D01*
X16541071Y-18253643D01*
X16541071Y-18282214D01*
X16741071Y-17982214D02*
X16769643Y-17982214D01*
X16798214Y-17996500D01*
X16812500Y-18010786D01*
X16826786Y-18039357D01*
X16841071Y-18096500D01*
X16841071Y-18167929D01*
X16826786Y-18225072D01*
X16812500Y-18253643D01*
X16798214Y-18267929D01*
X16769643Y-18282214D01*
X16741071Y-18282214D01*
X16712500Y-18267929D01*
X16698214Y-18253643D01*
X16683928Y-18225072D01*
X16669643Y-18167929D01*
X16669643Y-18096500D01*
X16683928Y-18039357D01*
X16698214Y-18010786D01*
X16712500Y-17996500D01*
X16741071Y-17982214D01*
X16941071Y-17982214D02*
X17126786Y-17982214D01*
X17026786Y-18096500D01*
X17069643Y-18096500D01*
X17098214Y-18110786D01*
X17112500Y-18125072D01*
X17126786Y-18153643D01*
X17126786Y-18225072D01*
X17112500Y-18253643D01*
X17098214Y-18267929D01*
X17069643Y-18282214D01*
X16983928Y-18282214D01*
X16955357Y-18267929D01*
X16941071Y-18253643D01*
X17226786Y-17982214D02*
X17426786Y-17982214D01*
X17298214Y-18282214D01*
X17526786Y-17982214D02*
X17526786Y-18039357D01*
X17641071Y-17982214D02*
X17641071Y-18039357D01*
X18083928Y-18396500D02*
X18069643Y-18382214D01*
X18041071Y-18339357D01*
X18026786Y-18310786D01*
X18012500Y-18267929D01*
X17998214Y-18196500D01*
X17998214Y-18139357D01*
X18012500Y-18067929D01*
X18026786Y-18025072D01*
X18041071Y-17996500D01*
X18069643Y-17953643D01*
X18083928Y-17939357D01*
X18326786Y-18082214D02*
X18326786Y-18282214D01*
X18255357Y-17967929D02*
X18183928Y-18182214D01*
X18369643Y-18182214D01*
X18712500Y-18282214D02*
X18712500Y-17982214D01*
X18841071Y-18282214D02*
X18841071Y-18125072D01*
X18826786Y-18096500D01*
X18798214Y-18082214D01*
X18755357Y-18082214D01*
X18726786Y-18096500D01*
X18712500Y-18110786D01*
X19026786Y-18282214D02*
X18998214Y-18267929D01*
X18983928Y-18253643D01*
X18969643Y-18225072D01*
X18969643Y-18139357D01*
X18983928Y-18110786D01*
X18998214Y-18096500D01*
X19026786Y-18082214D01*
X19069643Y-18082214D01*
X19098214Y-18096500D01*
X19112500Y-18110786D01*
X19126786Y-18139357D01*
X19126786Y-18225072D01*
X19112500Y-18253643D01*
X19098214Y-18267929D01*
X19069643Y-18282214D01*
X19026786Y-18282214D01*
X19298214Y-18282214D02*
X19269643Y-18267929D01*
X19255357Y-18239357D01*
X19255357Y-17982214D01*
X19526786Y-18267929D02*
X19498214Y-18282214D01*
X19441071Y-18282214D01*
X19412500Y-18267929D01*
X19398214Y-18239357D01*
X19398214Y-18125072D01*
X19412500Y-18096500D01*
X19441071Y-18082214D01*
X19498214Y-18082214D01*
X19526786Y-18096500D01*
X19541071Y-18125072D01*
X19541071Y-18153643D01*
X19398214Y-18182214D01*
X19655357Y-18267929D02*
X19683928Y-18282214D01*
X19741071Y-18282214D01*
X19769643Y-18267929D01*
X19783928Y-18239357D01*
X19783928Y-18225072D01*
X19769643Y-18196500D01*
X19741071Y-18182214D01*
X19698214Y-18182214D01*
X19669643Y-18167929D01*
X19655357Y-18139357D01*
X19655357Y-18125072D01*
X19669643Y-18096500D01*
X19698214Y-18082214D01*
X19741071Y-18082214D01*
X19769643Y-18096500D01*
X19883928Y-18396500D02*
X19898214Y-18382214D01*
X19926786Y-18339357D01*
X19941071Y-18310786D01*
X19955357Y-18267929D01*
X19969643Y-18196500D01*
X19969643Y-18139357D01*
X19955357Y-18067929D01*
X19941071Y-18025072D01*
X19926786Y-17996500D01*
X19898214Y-17953643D01*
X19883928Y-17939357D01*
X13298440Y-18492970D02*
X13397500Y-18592030D01*
X13397500Y-18492970D02*
X13298440Y-18592030D01*
X13397500Y-18542500D02*
G75*
G03*
X13397500Y-18542500I-49530J0D01*
G01*
X13741071Y-18378214D02*
X13769643Y-18378214D01*
X13798214Y-18392500D01*
X13812500Y-18406786D01*
X13826786Y-18435357D01*
X13841071Y-18492500D01*
X13841071Y-18563929D01*
X13826786Y-18621072D01*
X13812500Y-18649643D01*
X13798214Y-18663929D01*
X13769643Y-18678214D01*
X13741071Y-18678214D01*
X13712500Y-18663929D01*
X13698214Y-18649643D01*
X13683928Y-18621072D01*
X13669643Y-18563929D01*
X13669643Y-18492500D01*
X13683928Y-18435357D01*
X13698214Y-18406786D01*
X13712500Y-18392500D01*
X13741071Y-18378214D01*
X13969643Y-18649643D02*
X13983928Y-18663929D01*
X13969643Y-18678214D01*
X13955357Y-18663929D01*
X13969643Y-18649643D01*
X13969643Y-18678214D01*
X14126786Y-18678214D02*
X14183928Y-18678214D01*
X14212500Y-18663929D01*
X14226786Y-18649643D01*
X14255357Y-18606786D01*
X14269643Y-18549643D01*
X14269643Y-18435357D01*
X14255357Y-18406786D01*
X14241071Y-18392500D01*
X14212500Y-18378214D01*
X14155357Y-18378214D01*
X14126786Y-18392500D01*
X14112500Y-18406786D01*
X14098214Y-18435357D01*
X14098214Y-18506786D01*
X14112500Y-18535357D01*
X14126786Y-18549643D01*
X14155357Y-18563929D01*
X14212500Y-18563929D01*
X14241071Y-18549643D01*
X14255357Y-18535357D01*
X14269643Y-18506786D01*
X14412500Y-18678214D02*
X14469643Y-18678214D01*
X14498214Y-18663929D01*
X14512500Y-18649643D01*
X14541071Y-18606786D01*
X14555357Y-18549643D01*
X14555357Y-18435357D01*
X14541071Y-18406786D01*
X14526786Y-18392500D01*
X14498214Y-18378214D01*
X14441071Y-18378214D01*
X14412500Y-18392500D01*
X14398214Y-18406786D01*
X14383928Y-18435357D01*
X14383928Y-18506786D01*
X14398214Y-18535357D01*
X14412500Y-18549643D01*
X14441071Y-18563929D01*
X14498214Y-18563929D01*
X14526786Y-18549643D01*
X14541071Y-18535357D01*
X14555357Y-18506786D01*
X14683928Y-18678214D02*
X14683928Y-18478214D01*
X14683928Y-18506786D02*
X14698214Y-18492500D01*
X14726786Y-18478214D01*
X14769643Y-18478214D01*
X14798214Y-18492500D01*
X14812500Y-18521072D01*
X14812500Y-18678214D01*
X14812500Y-18521072D02*
X14826786Y-18492500D01*
X14855357Y-18478214D01*
X14898214Y-18478214D01*
X14926786Y-18492500D01*
X14941071Y-18521072D01*
X14941071Y-18678214D01*
X15083928Y-18678214D02*
X15083928Y-18478214D01*
X15083928Y-18506786D02*
X15098214Y-18492500D01*
X15126786Y-18478214D01*
X15169643Y-18478214D01*
X15198214Y-18492500D01*
X15212500Y-18521072D01*
X15212500Y-18678214D01*
X15212500Y-18521072D02*
X15226786Y-18492500D01*
X15255357Y-18478214D01*
X15298214Y-18478214D01*
X15326786Y-18492500D01*
X15341071Y-18521072D01*
X15341071Y-18678214D01*
X15926786Y-18363929D02*
X15669643Y-18749643D01*
X16312500Y-18378214D02*
X16341071Y-18378214D01*
X16369643Y-18392500D01*
X16383928Y-18406786D01*
X16398214Y-18435357D01*
X16412500Y-18492500D01*
X16412500Y-18563929D01*
X16398214Y-18621072D01*
X16383928Y-18649643D01*
X16369643Y-18663929D01*
X16341071Y-18678214D01*
X16312500Y-18678214D01*
X16283928Y-18663929D01*
X16269643Y-18649643D01*
X16255357Y-18621072D01*
X16241071Y-18563929D01*
X16241071Y-18492500D01*
X16255357Y-18435357D01*
X16269643Y-18406786D01*
X16283928Y-18392500D01*
X16312500Y-18378214D01*
X16541071Y-18649643D02*
X16555357Y-18663929D01*
X16541071Y-18678214D01*
X16526786Y-18663929D01*
X16541071Y-18649643D01*
X16541071Y-18678214D01*
X16741071Y-18378214D02*
X16769643Y-18378214D01*
X16798214Y-18392500D01*
X16812500Y-18406786D01*
X16826786Y-18435357D01*
X16841071Y-18492500D01*
X16841071Y-18563929D01*
X16826786Y-18621072D01*
X16812500Y-18649643D01*
X16798214Y-18663929D01*
X16769643Y-18678214D01*
X16741071Y-18678214D01*
X16712500Y-18663929D01*
X16698214Y-18649643D01*
X16683928Y-18621072D01*
X16669643Y-18563929D01*
X16669643Y-18492500D01*
X16683928Y-18435357D01*
X16698214Y-18406786D01*
X16712500Y-18392500D01*
X16741071Y-18378214D01*
X16941071Y-18378214D02*
X17126786Y-18378214D01*
X17026786Y-18492500D01*
X17069643Y-18492500D01*
X17098214Y-18506786D01*
X17112500Y-18521072D01*
X17126786Y-18549643D01*
X17126786Y-18621072D01*
X17112500Y-18649643D01*
X17098214Y-18663929D01*
X17069643Y-18678214D01*
X16983928Y-18678214D01*
X16955357Y-18663929D01*
X16941071Y-18649643D01*
X17269643Y-18678214D02*
X17326786Y-18678214D01*
X17355357Y-18663929D01*
X17369643Y-18649643D01*
X17398214Y-18606786D01*
X17412500Y-18549643D01*
X17412500Y-18435357D01*
X17398214Y-18406786D01*
X17383928Y-18392500D01*
X17355357Y-18378214D01*
X17298214Y-18378214D01*
X17269643Y-18392500D01*
X17255357Y-18406786D01*
X17241071Y-18435357D01*
X17241071Y-18506786D01*
X17255357Y-18535357D01*
X17269643Y-18549643D01*
X17298214Y-18563929D01*
X17355357Y-18563929D01*
X17383928Y-18549643D01*
X17398214Y-18535357D01*
X17412500Y-18506786D01*
X17526786Y-18378214D02*
X17526786Y-18435357D01*
X17641071Y-18378214D02*
X17641071Y-18435357D01*
X18083928Y-18792500D02*
X18069643Y-18778214D01*
X18041071Y-18735357D01*
X18026786Y-18706786D01*
X18012500Y-18663929D01*
X17998214Y-18592500D01*
X17998214Y-18535357D01*
X18012500Y-18463929D01*
X18026786Y-18421072D01*
X18041071Y-18392500D01*
X18069643Y-18349643D01*
X18083928Y-18335357D01*
X18183928Y-18406786D02*
X18198214Y-18392500D01*
X18226786Y-18378214D01*
X18298214Y-18378214D01*
X18326786Y-18392500D01*
X18341071Y-18406786D01*
X18355357Y-18435357D01*
X18355357Y-18463929D01*
X18341071Y-18506786D01*
X18169643Y-18678214D01*
X18355357Y-18678214D01*
X18712500Y-18678214D02*
X18712500Y-18378214D01*
X18841071Y-18678214D02*
X18841071Y-18521072D01*
X18826786Y-18492500D01*
X18798214Y-18478214D01*
X18755357Y-18478214D01*
X18726786Y-18492500D01*
X18712500Y-18506786D01*
X19026786Y-18678214D02*
X18998214Y-18663929D01*
X18983928Y-18649643D01*
X18969643Y-18621072D01*
X18969643Y-18535357D01*
X18983928Y-18506786D01*
X18998214Y-18492500D01*
X19026786Y-18478214D01*
X19069643Y-18478214D01*
X19098214Y-18492500D01*
X19112500Y-18506786D01*
X19126786Y-18535357D01*
X19126786Y-18621072D01*
X19112500Y-18649643D01*
X19098214Y-18663929D01*
X19069643Y-18678214D01*
X19026786Y-18678214D01*
X19298214Y-18678214D02*
X19269643Y-18663929D01*
X19255357Y-18635357D01*
X19255357Y-18378214D01*
X19526786Y-18663929D02*
X19498214Y-18678214D01*
X19441071Y-18678214D01*
X19412500Y-18663929D01*
X19398214Y-18635357D01*
X19398214Y-18521072D01*
X19412500Y-18492500D01*
X19441071Y-18478214D01*
X19498214Y-18478214D01*
X19526786Y-18492500D01*
X19541071Y-18521072D01*
X19541071Y-18549643D01*
X19398214Y-18578214D01*
X19655357Y-18663929D02*
X19683928Y-18678214D01*
X19741071Y-18678214D01*
X19769643Y-18663929D01*
X19783928Y-18635357D01*
X19783928Y-18621072D01*
X19769643Y-18592500D01*
X19741071Y-18578214D01*
X19698214Y-18578214D01*
X19669643Y-18563929D01*
X19655357Y-18535357D01*
X19655357Y-18521072D01*
X19669643Y-18492500D01*
X19698214Y-18478214D01*
X19741071Y-18478214D01*
X19769643Y-18492500D01*
X19883928Y-18792500D02*
X19898214Y-18778214D01*
X19926786Y-18735357D01*
X19941071Y-18706786D01*
X19955357Y-18663929D01*
X19969643Y-18592500D01*
X19969643Y-18535357D01*
X19955357Y-18463929D01*
X19941071Y-18421072D01*
X19926786Y-18392500D01*
X19898214Y-18349643D01*
X19883928Y-18335357D01*
X13297500Y-18888500D02*
X13397500Y-18988500D01*
X13397500Y-18888500D02*
X13297500Y-18988500D01*
X13347500Y-18888500D02*
X13347500Y-18988500D01*
X13297500Y-18938500D02*
X13397500Y-18938500D01*
X13841071Y-19074214D02*
X13669643Y-19074214D01*
X13755357Y-19074214D02*
X13755357Y-18774214D01*
X13726786Y-18817072D01*
X13698214Y-18845643D01*
X13669643Y-18859929D01*
X13969643Y-19045643D02*
X13983928Y-19059929D01*
X13969643Y-19074214D01*
X13955357Y-19059929D01*
X13969643Y-19045643D01*
X13969643Y-19074214D01*
X14169643Y-18774214D02*
X14198214Y-18774214D01*
X14226786Y-18788500D01*
X14241071Y-18802786D01*
X14255357Y-18831357D01*
X14269643Y-18888500D01*
X14269643Y-18959929D01*
X14255357Y-19017072D01*
X14241071Y-19045643D01*
X14226786Y-19059929D01*
X14198214Y-19074214D01*
X14169643Y-19074214D01*
X14141071Y-19059929D01*
X14126786Y-19045643D01*
X14112500Y-19017072D01*
X14098214Y-18959929D01*
X14098214Y-18888500D01*
X14112500Y-18831357D01*
X14126786Y-18802786D01*
X14141071Y-18788500D01*
X14169643Y-18774214D01*
X14455357Y-18774214D02*
X14483928Y-18774214D01*
X14512500Y-18788500D01*
X14526786Y-18802786D01*
X14541071Y-18831357D01*
X14555357Y-18888500D01*
X14555357Y-18959929D01*
X14541071Y-19017072D01*
X14526786Y-19045643D01*
X14512500Y-19059929D01*
X14483928Y-19074214D01*
X14455357Y-19074214D01*
X14426786Y-19059929D01*
X14412500Y-19045643D01*
X14398214Y-19017072D01*
X14383928Y-18959929D01*
X14383928Y-18888500D01*
X14398214Y-18831357D01*
X14412500Y-18802786D01*
X14426786Y-18788500D01*
X14455357Y-18774214D01*
X14683928Y-19074214D02*
X14683928Y-18874214D01*
X14683928Y-18902786D02*
X14698214Y-18888500D01*
X14726786Y-18874214D01*
X14769643Y-18874214D01*
X14798214Y-18888500D01*
X14812500Y-18917072D01*
X14812500Y-19074214D01*
X14812500Y-18917072D02*
X14826786Y-18888500D01*
X14855357Y-18874214D01*
X14898214Y-18874214D01*
X14926786Y-18888500D01*
X14941071Y-18917072D01*
X14941071Y-19074214D01*
X15083928Y-19074214D02*
X15083928Y-18874214D01*
X15083928Y-18902786D02*
X15098214Y-18888500D01*
X15126786Y-18874214D01*
X15169643Y-18874214D01*
X15198214Y-18888500D01*
X15212500Y-18917072D01*
X15212500Y-19074214D01*
X15212500Y-18917072D02*
X15226786Y-18888500D01*
X15255357Y-18874214D01*
X15298214Y-18874214D01*
X15326786Y-18888500D01*
X15341071Y-18917072D01*
X15341071Y-19074214D01*
X15926786Y-18759929D02*
X15669643Y-19145643D01*
X16312500Y-18774214D02*
X16341071Y-18774214D01*
X16369643Y-18788500D01*
X16383928Y-18802786D01*
X16398214Y-18831357D01*
X16412500Y-18888500D01*
X16412500Y-18959929D01*
X16398214Y-19017072D01*
X16383928Y-19045643D01*
X16369643Y-19059929D01*
X16341071Y-19074214D01*
X16312500Y-19074214D01*
X16283928Y-19059929D01*
X16269643Y-19045643D01*
X16255357Y-19017072D01*
X16241071Y-18959929D01*
X16241071Y-18888500D01*
X16255357Y-18831357D01*
X16269643Y-18802786D01*
X16283928Y-18788500D01*
X16312500Y-18774214D01*
X16541071Y-19045643D02*
X16555357Y-19059929D01*
X16541071Y-19074214D01*
X16526786Y-19059929D01*
X16541071Y-19045643D01*
X16541071Y-19074214D01*
X16741071Y-18774214D02*
X16769643Y-18774214D01*
X16798214Y-18788500D01*
X16812500Y-18802786D01*
X16826786Y-18831357D01*
X16841071Y-18888500D01*
X16841071Y-18959929D01*
X16826786Y-19017072D01*
X16812500Y-19045643D01*
X16798214Y-19059929D01*
X16769643Y-19074214D01*
X16741071Y-19074214D01*
X16712500Y-19059929D01*
X16698214Y-19045643D01*
X16683928Y-19017072D01*
X16669643Y-18959929D01*
X16669643Y-18888500D01*
X16683928Y-18831357D01*
X16698214Y-18802786D01*
X16712500Y-18788500D01*
X16741071Y-18774214D01*
X16941071Y-18774214D02*
X17126786Y-18774214D01*
X17026786Y-18888500D01*
X17069643Y-18888500D01*
X17098214Y-18902786D01*
X17112500Y-18917072D01*
X17126786Y-18945643D01*
X17126786Y-19017072D01*
X17112500Y-19045643D01*
X17098214Y-19059929D01*
X17069643Y-19074214D01*
X16983928Y-19074214D01*
X16955357Y-19059929D01*
X16941071Y-19045643D01*
X17269643Y-19074214D02*
X17326786Y-19074214D01*
X17355357Y-19059929D01*
X17369643Y-19045643D01*
X17398214Y-19002786D01*
X17412500Y-18945643D01*
X17412500Y-18831357D01*
X17398214Y-18802786D01*
X17383928Y-18788500D01*
X17355357Y-18774214D01*
X17298214Y-18774214D01*
X17269643Y-18788500D01*
X17255357Y-18802786D01*
X17241071Y-18831357D01*
X17241071Y-18902786D01*
X17255357Y-18931357D01*
X17269643Y-18945643D01*
X17298214Y-18959929D01*
X17355357Y-18959929D01*
X17383928Y-18945643D01*
X17398214Y-18931357D01*
X17412500Y-18902786D01*
X17526786Y-18774214D02*
X17526786Y-18831357D01*
X17641071Y-18774214D02*
X17641071Y-18831357D01*
X18083928Y-19188500D02*
X18069643Y-19174214D01*
X18041071Y-19131357D01*
X18026786Y-19102786D01*
X18012500Y-19059929D01*
X17998214Y-18988500D01*
X17998214Y-18931357D01*
X18012500Y-18859929D01*
X18026786Y-18817072D01*
X18041071Y-18788500D01*
X18069643Y-18745643D01*
X18083928Y-18731357D01*
X18355357Y-19074214D02*
X18183928Y-19074214D01*
X18269643Y-19074214D02*
X18269643Y-18774214D01*
X18241071Y-18817072D01*
X18212500Y-18845643D01*
X18183928Y-18859929D01*
X18526786Y-18902786D02*
X18498214Y-18888500D01*
X18483928Y-18874214D01*
X18469643Y-18845643D01*
X18469643Y-18831357D01*
X18483928Y-18802786D01*
X18498214Y-18788500D01*
X18526786Y-18774214D01*
X18583928Y-18774214D01*
X18612500Y-18788500D01*
X18626786Y-18802786D01*
X18641071Y-18831357D01*
X18641071Y-18845643D01*
X18626786Y-18874214D01*
X18612500Y-18888500D01*
X18583928Y-18902786D01*
X18526786Y-18902786D01*
X18498214Y-18917072D01*
X18483928Y-18931357D01*
X18469643Y-18959929D01*
X18469643Y-19017072D01*
X18483928Y-19045643D01*
X18498214Y-19059929D01*
X18526786Y-19074214D01*
X18583928Y-19074214D01*
X18612500Y-19059929D01*
X18626786Y-19045643D01*
X18641071Y-19017072D01*
X18641071Y-18959929D01*
X18626786Y-18931357D01*
X18612500Y-18917072D01*
X18583928Y-18902786D01*
X18998214Y-19074214D02*
X18998214Y-18774214D01*
X19126786Y-19074214D02*
X19126786Y-18917072D01*
X19112500Y-18888500D01*
X19083928Y-18874214D01*
X19041071Y-18874214D01*
X19012500Y-18888500D01*
X18998214Y-18902786D01*
X19312500Y-19074214D02*
X19283928Y-19059929D01*
X19269643Y-19045643D01*
X19255357Y-19017072D01*
X19255357Y-18931357D01*
X19269643Y-18902786D01*
X19283928Y-18888500D01*
X19312500Y-18874214D01*
X19355357Y-18874214D01*
X19383928Y-18888500D01*
X19398214Y-18902786D01*
X19412500Y-18931357D01*
X19412500Y-19017072D01*
X19398214Y-19045643D01*
X19383928Y-19059929D01*
X19355357Y-19074214D01*
X19312500Y-19074214D01*
X19583928Y-19074214D02*
X19555357Y-19059929D01*
X19541071Y-19031357D01*
X19541071Y-18774214D01*
X19812500Y-19059929D02*
X19783928Y-19074214D01*
X19726786Y-19074214D01*
X19698214Y-19059929D01*
X19683928Y-19031357D01*
X19683928Y-18917072D01*
X19698214Y-18888500D01*
X19726786Y-18874214D01*
X19783928Y-18874214D01*
X19812500Y-18888500D01*
X19826786Y-18917072D01*
X19826786Y-18945643D01*
X19683928Y-18974214D01*
X19941071Y-19059929D02*
X19969643Y-19074214D01*
X20026786Y-19074214D01*
X20055357Y-19059929D01*
X20069643Y-19031357D01*
X20069643Y-19017072D01*
X20055357Y-18988500D01*
X20026786Y-18974214D01*
X19983928Y-18974214D01*
X19955357Y-18959929D01*
X19941071Y-18931357D01*
X19941071Y-18917072D01*
X19955357Y-18888500D01*
X19983928Y-18874214D01*
X20026786Y-18874214D01*
X20055357Y-18888500D01*
X20169643Y-19188500D02*
X20183928Y-19174214D01*
X20212500Y-19131357D01*
X20226786Y-19102786D01*
X20241071Y-19059929D01*
X20255357Y-18988500D01*
X20255357Y-18931357D01*
X20241071Y-18859929D01*
X20226786Y-18817072D01*
X20212500Y-18788500D01*
X20183928Y-18745643D01*
X20169643Y-18731357D01*
X13247500Y-19259500D02*
X13397500Y-19409500D01*
X13397500Y-19259500D02*
X13247500Y-19409500D01*
X13375533Y-19387534D02*
X13375533Y-19281467D01*
X13269466Y-19281467D01*
X13269466Y-19387534D01*
X13375533Y-19387534D01*
X13841071Y-19470214D02*
X13669643Y-19470214D01*
X13755357Y-19470214D02*
X13755357Y-19170214D01*
X13726786Y-19213072D01*
X13698214Y-19241643D01*
X13669643Y-19255929D01*
X13969643Y-19441643D02*
X13983928Y-19455929D01*
X13969643Y-19470214D01*
X13955357Y-19455929D01*
X13969643Y-19441643D01*
X13969643Y-19470214D01*
X14255357Y-19170214D02*
X14112500Y-19170214D01*
X14098214Y-19313072D01*
X14112500Y-19298786D01*
X14141071Y-19284500D01*
X14212500Y-19284500D01*
X14241071Y-19298786D01*
X14255357Y-19313072D01*
X14269643Y-19341643D01*
X14269643Y-19413072D01*
X14255357Y-19441643D01*
X14241071Y-19455929D01*
X14212500Y-19470214D01*
X14141071Y-19470214D01*
X14112500Y-19455929D01*
X14098214Y-19441643D01*
X14455357Y-19170214D02*
X14483928Y-19170214D01*
X14512500Y-19184500D01*
X14526786Y-19198786D01*
X14541071Y-19227357D01*
X14555357Y-19284500D01*
X14555357Y-19355929D01*
X14541071Y-19413072D01*
X14526786Y-19441643D01*
X14512500Y-19455929D01*
X14483928Y-19470214D01*
X14455357Y-19470214D01*
X14426786Y-19455929D01*
X14412500Y-19441643D01*
X14398214Y-19413072D01*
X14383928Y-19355929D01*
X14383928Y-19284500D01*
X14398214Y-19227357D01*
X14412500Y-19198786D01*
X14426786Y-19184500D01*
X14455357Y-19170214D01*
X14683928Y-19470214D02*
X14683928Y-19270214D01*
X14683928Y-19298786D02*
X14698214Y-19284500D01*
X14726786Y-19270214D01*
X14769643Y-19270214D01*
X14798214Y-19284500D01*
X14812500Y-19313072D01*
X14812500Y-19470214D01*
X14812500Y-19313072D02*
X14826786Y-19284500D01*
X14855357Y-19270214D01*
X14898214Y-19270214D01*
X14926786Y-19284500D01*
X14941071Y-19313072D01*
X14941071Y-19470214D01*
X15083928Y-19470214D02*
X15083928Y-19270214D01*
X15083928Y-19298786D02*
X15098214Y-19284500D01*
X15126786Y-19270214D01*
X15169643Y-19270214D01*
X15198214Y-19284500D01*
X15212500Y-19313072D01*
X15212500Y-19470214D01*
X15212500Y-19313072D02*
X15226786Y-19284500D01*
X15255357Y-19270214D01*
X15298214Y-19270214D01*
X15326786Y-19284500D01*
X15341071Y-19313072D01*
X15341071Y-19470214D01*
X15926786Y-19155929D02*
X15669643Y-19541643D01*
X16312500Y-19170214D02*
X16341071Y-19170214D01*
X16369643Y-19184500D01*
X16383928Y-19198786D01*
X16398214Y-19227357D01*
X16412500Y-19284500D01*
X16412500Y-19355929D01*
X16398214Y-19413072D01*
X16383928Y-19441643D01*
X16369643Y-19455929D01*
X16341071Y-19470214D01*
X16312500Y-19470214D01*
X16283928Y-19455929D01*
X16269643Y-19441643D01*
X16255357Y-19413072D01*
X16241071Y-19355929D01*
X16241071Y-19284500D01*
X16255357Y-19227357D01*
X16269643Y-19198786D01*
X16283928Y-19184500D01*
X16312500Y-19170214D01*
X16541071Y-19441643D02*
X16555357Y-19455929D01*
X16541071Y-19470214D01*
X16526786Y-19455929D01*
X16541071Y-19441643D01*
X16541071Y-19470214D01*
X16741071Y-19170214D02*
X16769643Y-19170214D01*
X16798214Y-19184500D01*
X16812500Y-19198786D01*
X16826786Y-19227357D01*
X16841071Y-19284500D01*
X16841071Y-19355929D01*
X16826786Y-19413072D01*
X16812500Y-19441643D01*
X16798214Y-19455929D01*
X16769643Y-19470214D01*
X16741071Y-19470214D01*
X16712500Y-19455929D01*
X16698214Y-19441643D01*
X16683928Y-19413072D01*
X16669643Y-19355929D01*
X16669643Y-19284500D01*
X16683928Y-19227357D01*
X16698214Y-19198786D01*
X16712500Y-19184500D01*
X16741071Y-19170214D01*
X17112500Y-19170214D02*
X16969643Y-19170214D01*
X16955357Y-19313072D01*
X16969643Y-19298786D01*
X16998214Y-19284500D01*
X17069643Y-19284500D01*
X17098214Y-19298786D01*
X17112500Y-19313072D01*
X17126786Y-19341643D01*
X17126786Y-19413072D01*
X17112500Y-19441643D01*
X17098214Y-19455929D01*
X17069643Y-19470214D01*
X16998214Y-19470214D01*
X16969643Y-19455929D01*
X16955357Y-19441643D01*
X17269643Y-19470214D02*
X17326786Y-19470214D01*
X17355357Y-19455929D01*
X17369643Y-19441643D01*
X17398214Y-19398786D01*
X17412500Y-19341643D01*
X17412500Y-19227357D01*
X17398214Y-19198786D01*
X17383928Y-19184500D01*
X17355357Y-19170214D01*
X17298214Y-19170214D01*
X17269643Y-19184500D01*
X17255357Y-19198786D01*
X17241071Y-19227357D01*
X17241071Y-19298786D01*
X17255357Y-19327357D01*
X17269643Y-19341643D01*
X17298214Y-19355929D01*
X17355357Y-19355929D01*
X17383928Y-19341643D01*
X17398214Y-19327357D01*
X17412500Y-19298786D01*
X17526786Y-19170214D02*
X17526786Y-19227357D01*
X17641071Y-19170214D02*
X17641071Y-19227357D01*
X18083928Y-19584500D02*
X18069643Y-19570214D01*
X18041071Y-19527357D01*
X18026786Y-19498786D01*
X18012500Y-19455929D01*
X17998214Y-19384500D01*
X17998214Y-19327357D01*
X18012500Y-19255929D01*
X18026786Y-19213072D01*
X18041071Y-19184500D01*
X18069643Y-19141643D01*
X18083928Y-19127357D01*
X18183928Y-19198786D02*
X18198214Y-19184500D01*
X18226786Y-19170214D01*
X18298214Y-19170214D01*
X18326786Y-19184500D01*
X18341071Y-19198786D01*
X18355357Y-19227357D01*
X18355357Y-19255929D01*
X18341071Y-19298786D01*
X18169643Y-19470214D01*
X18355357Y-19470214D01*
X18712500Y-19470214D02*
X18712500Y-19170214D01*
X18841071Y-19470214D02*
X18841071Y-19313072D01*
X18826786Y-19284500D01*
X18798214Y-19270214D01*
X18755357Y-19270214D01*
X18726786Y-19284500D01*
X18712500Y-19298786D01*
X19026786Y-19470214D02*
X18998214Y-19455929D01*
X18983928Y-19441643D01*
X18969643Y-19413072D01*
X18969643Y-19327357D01*
X18983928Y-19298786D01*
X18998214Y-19284500D01*
X19026786Y-19270214D01*
X19069643Y-19270214D01*
X19098214Y-19284500D01*
X19112500Y-19298786D01*
X19126786Y-19327357D01*
X19126786Y-19413072D01*
X19112500Y-19441643D01*
X19098214Y-19455929D01*
X19069643Y-19470214D01*
X19026786Y-19470214D01*
X19298214Y-19470214D02*
X19269643Y-19455929D01*
X19255357Y-19427357D01*
X19255357Y-19170214D01*
X19526786Y-19455929D02*
X19498214Y-19470214D01*
X19441071Y-19470214D01*
X19412500Y-19455929D01*
X19398214Y-19427357D01*
X19398214Y-19313072D01*
X19412500Y-19284500D01*
X19441071Y-19270214D01*
X19498214Y-19270214D01*
X19526786Y-19284500D01*
X19541071Y-19313072D01*
X19541071Y-19341643D01*
X19398214Y-19370214D01*
X19655357Y-19455929D02*
X19683928Y-19470214D01*
X19741071Y-19470214D01*
X19769643Y-19455929D01*
X19783928Y-19427357D01*
X19783928Y-19413072D01*
X19769643Y-19384500D01*
X19741071Y-19370214D01*
X19698214Y-19370214D01*
X19669643Y-19355929D01*
X19655357Y-19327357D01*
X19655357Y-19313072D01*
X19669643Y-19284500D01*
X19698214Y-19270214D01*
X19741071Y-19270214D01*
X19769643Y-19284500D01*
X19883928Y-19584500D02*
X19898214Y-19570214D01*
X19926786Y-19527357D01*
X19941071Y-19498786D01*
X19955357Y-19455929D01*
X19969643Y-19384500D01*
X19969643Y-19327357D01*
X19955357Y-19255929D01*
X19941071Y-19213072D01*
X19926786Y-19184500D01*
X19898214Y-19141643D01*
X19883928Y-19127357D01*
M02*
