%TF.GenerationSoftware,KiCad,Pcbnew,(5.1.8)-1*%
%TF.CreationDate,2022-11-15T12:17:50-08:00*%
%TF.ProjectId,RetroClock,52657472-6f43-46c6-9f63-6b2e6b696361,rev?*%
%TF.SameCoordinates,Original*%
%TF.FileFunction,Other,User*%
%FSLAX46Y46*%
G04 Gerber Fmt 4.6, Leading zero omitted, Abs format (unit mm)*
G04 Created by KiCad (PCBNEW (5.1.8)-1) date 2022-11-15 12:17:50*
%MOMM*%
%LPD*%
G01*
G04 APERTURE LIST*
%ADD10C,0.050000*%
%ADD11C,0.120000*%
G04 APERTURE END LIST*
D10*
%TO.C,BT1*%
X194950000Y-141950000D02*
X189000000Y-141950000D01*
X194950000Y-135450000D02*
X189000000Y-135450000D01*
X194950000Y-135450000D02*
X194950000Y-141950000D01*
X188483169Y-142311889D02*
G75*
G02*
X189000000Y-141950000I516831J-188111D01*
G01*
X188483169Y-135088111D02*
G75*
G03*
X189000000Y-135450000I516831J188111D01*
G01*
X165548021Y-138700000D02*
G75*
G03*
X188483169Y-142311889I11751979J0D01*
G01*
X165548021Y-138700000D02*
G75*
G02*
X188483169Y-135088111I11751979J0D01*
G01*
%TO.C,C2*%
X146680000Y-120620000D02*
X146680000Y-124380000D01*
X144720000Y-120620000D02*
X146680000Y-120620000D01*
X144720000Y-124380000D02*
X144720000Y-120620000D01*
X146680000Y-124380000D02*
X144720000Y-124380000D01*
%TO.C,C6*%
X155380000Y-134820000D02*
X155380000Y-138580000D01*
X153420000Y-134820000D02*
X155380000Y-134820000D01*
X153420000Y-138580000D02*
X153420000Y-134820000D01*
X155380000Y-138580000D02*
X153420000Y-138580000D01*
%TO.C,C1*%
X142720000Y-117620000D02*
X146480000Y-117620000D01*
X142720000Y-119580000D02*
X142720000Y-117620000D01*
X146480000Y-119580000D02*
X142720000Y-119580000D01*
X146480000Y-117620000D02*
X146480000Y-119580000D01*
%TO.C,R11*%
X188550000Y-125350000D02*
X184850000Y-125350000D01*
X188550000Y-123450000D02*
X188550000Y-125350000D01*
X184850000Y-123450000D02*
X188550000Y-123450000D01*
X184850000Y-125350000D02*
X184850000Y-123450000D01*
%TO.C,R10*%
X146450000Y-115050000D02*
X142750000Y-115050000D01*
X146450000Y-113150000D02*
X146450000Y-115050000D01*
X142750000Y-113150000D02*
X146450000Y-113150000D01*
X142750000Y-115050000D02*
X142750000Y-113150000D01*
%TO.C,R9*%
X148550000Y-104250000D02*
X144850000Y-104250000D01*
X148550000Y-102350000D02*
X148550000Y-104250000D01*
X144850000Y-102350000D02*
X148550000Y-102350000D01*
X144850000Y-104250000D02*
X144850000Y-102350000D01*
%TO.C,R8*%
X144750000Y-97750000D02*
X148450000Y-97750000D01*
X144750000Y-99650000D02*
X144750000Y-97750000D01*
X148450000Y-99650000D02*
X144750000Y-99650000D01*
X148450000Y-97750000D02*
X148450000Y-99650000D01*
%TO.C,R7*%
X158950000Y-87550000D02*
X162650000Y-87550000D01*
X158950000Y-89450000D02*
X158950000Y-87550000D01*
X162650000Y-89450000D02*
X158950000Y-89450000D01*
X162650000Y-87550000D02*
X162650000Y-89450000D01*
%TO.C,R6*%
X180550000Y-123450000D02*
X184250000Y-123450000D01*
X180550000Y-125350000D02*
X180550000Y-123450000D01*
X184250000Y-125350000D02*
X180550000Y-125350000D01*
X184250000Y-123450000D02*
X184250000Y-125350000D01*
%TO.C,R5*%
X160350000Y-136650000D02*
X156650000Y-136650000D01*
X160350000Y-134750000D02*
X160350000Y-136650000D01*
X156650000Y-134750000D02*
X160350000Y-134750000D01*
X156650000Y-136650000D02*
X156650000Y-134750000D01*
%TO.C,R4*%
X137250000Y-98450000D02*
X140950000Y-98450000D01*
X137250000Y-100350000D02*
X137250000Y-98450000D01*
X140950000Y-100350000D02*
X137250000Y-100350000D01*
X140950000Y-98450000D02*
X140950000Y-100350000D01*
%TO.C,R3*%
X148450000Y-94550000D02*
X144750000Y-94550000D01*
X148450000Y-92650000D02*
X148450000Y-94550000D01*
X144750000Y-92650000D02*
X148450000Y-92650000D01*
X144750000Y-94550000D02*
X144750000Y-92650000D01*
%TO.C,R2*%
X157150000Y-62150000D02*
X157150000Y-65850000D01*
X155250000Y-62150000D02*
X157150000Y-62150000D01*
X155250000Y-65850000D02*
X155250000Y-62150000D01*
X157150000Y-65850000D02*
X155250000Y-65850000D01*
%TO.C,R1*%
X158950000Y-85050000D02*
X162650000Y-85050000D01*
X158950000Y-86950000D02*
X158950000Y-85050000D01*
X162650000Y-86950000D02*
X158950000Y-86950000D01*
X162650000Y-85050000D02*
X162650000Y-86950000D01*
%TO.C,Q1*%
X142700000Y-108110000D02*
X137240000Y-108110000D01*
X142700000Y-108110000D02*
X142700000Y-103370000D01*
X137240000Y-103370000D02*
X137240000Y-108110000D01*
X137240000Y-103370000D02*
X142700000Y-103370000D01*
D11*
%TO.C,SW1*%
X140744000Y-90696000D02*
X140744000Y-83584000D01*
X147856000Y-90696000D02*
X140744000Y-90696000D01*
X147856000Y-83584000D02*
X147856000Y-90696000D01*
X140744000Y-83584000D02*
X147856000Y-83584000D01*
D10*
%TO.C,C7*%
X157050000Y-143450000D02*
G75*
G03*
X157050000Y-143450000I-4250000J0D01*
G01*
%TO.C,J4*%
X145650000Y-59650000D02*
X145650000Y-68050000D01*
X152400000Y-59650000D02*
X145650000Y-59650000D01*
X152400000Y-68050000D02*
X152400000Y-59650000D01*
X145650000Y-68050000D02*
X152400000Y-68050000D01*
%TO.C,J3*%
X159850000Y-155750000D02*
X168250000Y-155750000D01*
X159850000Y-149000000D02*
X159850000Y-155750000D01*
X168250000Y-149000000D02*
X159850000Y-149000000D01*
X168250000Y-155750000D02*
X168250000Y-149000000D01*
%TO.C,J2*%
X146150000Y-155750000D02*
X159550000Y-155750000D01*
X146150000Y-149000000D02*
X146150000Y-155750000D01*
X159550000Y-149000000D02*
X146150000Y-149000000D01*
X159550000Y-155750000D02*
X159550000Y-149000000D01*
%TO.C,H8*%
X195600000Y-132000000D02*
G75*
G03*
X195600000Y-132000000I-2600000J0D01*
G01*
%TO.C,H7*%
X195600000Y-94000000D02*
G75*
G03*
X195600000Y-94000000I-2600000J0D01*
G01*
%TO.C,H6*%
X139600000Y-132000000D02*
G75*
G03*
X139600000Y-132000000I-2600000J0D01*
G01*
%TO.C,H5*%
X139600000Y-94000000D02*
G75*
G03*
X139600000Y-94000000I-2600000J0D01*
G01*
%TO.C,U1*%
X141950000Y-126550000D02*
X141950000Y-137250000D01*
X141950000Y-137250000D02*
X152500000Y-137250000D01*
X152500000Y-137250000D02*
X152500000Y-126550000D01*
X152500000Y-126550000D02*
X141950000Y-126550000D01*
%TO.C,J1*%
X146700000Y-73800000D02*
X146700000Y-70250000D01*
X146700000Y-70250000D02*
X183300000Y-70250000D01*
X183300000Y-70250000D02*
X183300000Y-73800000D01*
X183300000Y-73800000D02*
X146700000Y-73800000D01*
%TO.C,H4*%
X189600000Y-76900000D02*
G75*
G03*
X189600000Y-76900000I-2600000J0D01*
G01*
%TO.C,H3*%
X189600000Y-153000000D02*
G75*
G03*
X189600000Y-153000000I-2600000J0D01*
G01*
%TO.C,H2*%
X145600000Y-76900000D02*
G75*
G03*
X145600000Y-76900000I-2600000J0D01*
G01*
%TO.C,H1*%
X145600000Y-153000000D02*
G75*
G03*
X145600000Y-153000000I-2600000J0D01*
G01*
%TO.C,C5*%
X160820000Y-130600000D02*
G75*
G03*
X160820000Y-130600000I-3720000J0D01*
G01*
%TO.C,C3*%
X147800000Y-143300000D02*
G75*
G03*
X147800000Y-143300000I-4250000J0D01*
G01*
%TD*%
M02*
