%TF.GenerationSoftware,KiCad,Pcbnew,(5.1.8)-1*%
%TF.CreationDate,2022-11-15T12:17:50-08:00*%
%TF.ProjectId,RetroClock,52657472-6f43-46c6-9f63-6b2e6b696361,rev?*%
%TF.SameCoordinates,Original*%
%TF.FileFunction,Soldermask,Top*%
%TF.FilePolarity,Negative*%
%FSLAX46Y46*%
G04 Gerber Fmt 4.6, Leading zero omitted, Abs format (unit mm)*
G04 Created by KiCad (PCBNEW (5.1.8)-1) date 2022-11-15 12:17:50*
%MOMM*%
%LPD*%
G01*
G04 APERTURE LIST*
%ADD10C,1.524000*%
%ADD11R,3.000000X3.000000*%
%ADD12C,3.000000*%
%ADD13R,1.300000X1.300000*%
%ADD14C,1.300000*%
%ADD15C,1.498600*%
%ADD16C,1.600000*%
%ADD17R,1.600000X1.600000*%
%ADD18O,2.000000X1.700000*%
%ADD19O,1.700000X2.000000*%
%ADD20O,1.700000X1.950000*%
%ADD21C,2.700000*%
%ADD22O,2.400000X1.600000*%
%ADD23R,2.400000X1.600000*%
%ADD24O,1.700000X1.700000*%
%ADD25R,1.700000X1.700000*%
G04 APERTURE END LIST*
D10*
%TO.C,U2*%
X177700000Y-80900000D03*
X177700000Y-83440000D03*
X177700000Y-85980000D03*
X177700000Y-88520000D03*
X177700000Y-91060000D03*
X177700000Y-93600000D03*
X177700000Y-96140000D03*
X177700000Y-98680000D03*
X177700000Y-101220000D03*
X177700000Y-103760000D03*
X177700000Y-106300000D03*
X177700000Y-108840000D03*
X177700000Y-111380000D03*
X177700000Y-113920000D03*
X177700000Y-116460000D03*
X152300000Y-80900000D03*
X152300000Y-116460000D03*
X152300000Y-113920000D03*
X152300000Y-111380000D03*
X152300000Y-108840000D03*
X152300000Y-106300000D03*
X152300000Y-103760000D03*
X152300000Y-101220000D03*
X152300000Y-98680000D03*
X152300000Y-96140000D03*
X152300000Y-93600000D03*
X152300000Y-91060000D03*
X152300000Y-88520000D03*
X152300000Y-85980000D03*
X152300000Y-83440000D03*
%TD*%
D11*
%TO.C,BT1*%
X192500000Y-138700000D03*
D12*
X172010000Y-138700000D03*
%TD*%
%TO.C,C2*%
G36*
G01*
X146175000Y-122050000D02*
X145225000Y-122050000D01*
G75*
G02*
X144975000Y-121800000I0J250000D01*
G01*
X144975000Y-121125000D01*
G75*
G02*
X145225000Y-120875000I250000J0D01*
G01*
X146175000Y-120875000D01*
G75*
G02*
X146425000Y-121125000I0J-250000D01*
G01*
X146425000Y-121800000D01*
G75*
G02*
X146175000Y-122050000I-250000J0D01*
G01*
G37*
G36*
G01*
X146175000Y-124125000D02*
X145225000Y-124125000D01*
G75*
G02*
X144975000Y-123875000I0J250000D01*
G01*
X144975000Y-123200000D01*
G75*
G02*
X145225000Y-122950000I250000J0D01*
G01*
X146175000Y-122950000D01*
G75*
G02*
X146425000Y-123200000I0J-250000D01*
G01*
X146425000Y-123875000D01*
G75*
G02*
X146175000Y-124125000I-250000J0D01*
G01*
G37*
%TD*%
%TO.C,C6*%
G36*
G01*
X154875000Y-136250000D02*
X153925000Y-136250000D01*
G75*
G02*
X153675000Y-136000000I0J250000D01*
G01*
X153675000Y-135325000D01*
G75*
G02*
X153925000Y-135075000I250000J0D01*
G01*
X154875000Y-135075000D01*
G75*
G02*
X155125000Y-135325000I0J-250000D01*
G01*
X155125000Y-136000000D01*
G75*
G02*
X154875000Y-136250000I-250000J0D01*
G01*
G37*
G36*
G01*
X154875000Y-138325000D02*
X153925000Y-138325000D01*
G75*
G02*
X153675000Y-138075000I0J250000D01*
G01*
X153675000Y-137400000D01*
G75*
G02*
X153925000Y-137150000I250000J0D01*
G01*
X154875000Y-137150000D01*
G75*
G02*
X155125000Y-137400000I0J-250000D01*
G01*
X155125000Y-138075000D01*
G75*
G02*
X154875000Y-138325000I-250000J0D01*
G01*
G37*
%TD*%
%TO.C,C1*%
G36*
G01*
X144150000Y-118125000D02*
X144150000Y-119075000D01*
G75*
G02*
X143900000Y-119325000I-250000J0D01*
G01*
X143225000Y-119325000D01*
G75*
G02*
X142975000Y-119075000I0J250000D01*
G01*
X142975000Y-118125000D01*
G75*
G02*
X143225000Y-117875000I250000J0D01*
G01*
X143900000Y-117875000D01*
G75*
G02*
X144150000Y-118125000I0J-250000D01*
G01*
G37*
G36*
G01*
X146225000Y-118125000D02*
X146225000Y-119075000D01*
G75*
G02*
X145975000Y-119325000I-250000J0D01*
G01*
X145300000Y-119325000D01*
G75*
G02*
X145050000Y-119075000I0J250000D01*
G01*
X145050000Y-118125000D01*
G75*
G02*
X145300000Y-117875000I250000J0D01*
G01*
X145975000Y-117875000D01*
G75*
G02*
X146225000Y-118125000I0J-250000D01*
G01*
G37*
%TD*%
%TO.C,R11*%
G36*
G01*
X187100000Y-124850001D02*
X187100000Y-123949999D01*
G75*
G02*
X187349999Y-123700000I249999J0D01*
G01*
X188050001Y-123700000D01*
G75*
G02*
X188300000Y-123949999I0J-249999D01*
G01*
X188300000Y-124850001D01*
G75*
G02*
X188050001Y-125100000I-249999J0D01*
G01*
X187349999Y-125100000D01*
G75*
G02*
X187100000Y-124850001I0J249999D01*
G01*
G37*
G36*
G01*
X185100000Y-124850001D02*
X185100000Y-123949999D01*
G75*
G02*
X185349999Y-123700000I249999J0D01*
G01*
X186050001Y-123700000D01*
G75*
G02*
X186300000Y-123949999I0J-249999D01*
G01*
X186300000Y-124850001D01*
G75*
G02*
X186050001Y-125100000I-249999J0D01*
G01*
X185349999Y-125100000D01*
G75*
G02*
X185100000Y-124850001I0J249999D01*
G01*
G37*
%TD*%
%TO.C,R10*%
G36*
G01*
X145000000Y-114550001D02*
X145000000Y-113649999D01*
G75*
G02*
X145249999Y-113400000I249999J0D01*
G01*
X145950001Y-113400000D01*
G75*
G02*
X146200000Y-113649999I0J-249999D01*
G01*
X146200000Y-114550001D01*
G75*
G02*
X145950001Y-114800000I-249999J0D01*
G01*
X145249999Y-114800000D01*
G75*
G02*
X145000000Y-114550001I0J249999D01*
G01*
G37*
G36*
G01*
X143000000Y-114550001D02*
X143000000Y-113649999D01*
G75*
G02*
X143249999Y-113400000I249999J0D01*
G01*
X143950001Y-113400000D01*
G75*
G02*
X144200000Y-113649999I0J-249999D01*
G01*
X144200000Y-114550001D01*
G75*
G02*
X143950001Y-114800000I-249999J0D01*
G01*
X143249999Y-114800000D01*
G75*
G02*
X143000000Y-114550001I0J249999D01*
G01*
G37*
%TD*%
%TO.C,R9*%
G36*
G01*
X147100000Y-103750001D02*
X147100000Y-102849999D01*
G75*
G02*
X147349999Y-102600000I249999J0D01*
G01*
X148050001Y-102600000D01*
G75*
G02*
X148300000Y-102849999I0J-249999D01*
G01*
X148300000Y-103750001D01*
G75*
G02*
X148050001Y-104000000I-249999J0D01*
G01*
X147349999Y-104000000D01*
G75*
G02*
X147100000Y-103750001I0J249999D01*
G01*
G37*
G36*
G01*
X145100000Y-103750001D02*
X145100000Y-102849999D01*
G75*
G02*
X145349999Y-102600000I249999J0D01*
G01*
X146050001Y-102600000D01*
G75*
G02*
X146300000Y-102849999I0J-249999D01*
G01*
X146300000Y-103750001D01*
G75*
G02*
X146050001Y-104000000I-249999J0D01*
G01*
X145349999Y-104000000D01*
G75*
G02*
X145100000Y-103750001I0J249999D01*
G01*
G37*
%TD*%
%TO.C,R8*%
G36*
G01*
X146200000Y-98249999D02*
X146200000Y-99150001D01*
G75*
G02*
X145950001Y-99400000I-249999J0D01*
G01*
X145249999Y-99400000D01*
G75*
G02*
X145000000Y-99150001I0J249999D01*
G01*
X145000000Y-98249999D01*
G75*
G02*
X145249999Y-98000000I249999J0D01*
G01*
X145950001Y-98000000D01*
G75*
G02*
X146200000Y-98249999I0J-249999D01*
G01*
G37*
G36*
G01*
X148200000Y-98249999D02*
X148200000Y-99150001D01*
G75*
G02*
X147950001Y-99400000I-249999J0D01*
G01*
X147249999Y-99400000D01*
G75*
G02*
X147000000Y-99150001I0J249999D01*
G01*
X147000000Y-98249999D01*
G75*
G02*
X147249999Y-98000000I249999J0D01*
G01*
X147950001Y-98000000D01*
G75*
G02*
X148200000Y-98249999I0J-249999D01*
G01*
G37*
%TD*%
%TO.C,R7*%
G36*
G01*
X160400000Y-88049999D02*
X160400000Y-88950001D01*
G75*
G02*
X160150001Y-89200000I-249999J0D01*
G01*
X159449999Y-89200000D01*
G75*
G02*
X159200000Y-88950001I0J249999D01*
G01*
X159200000Y-88049999D01*
G75*
G02*
X159449999Y-87800000I249999J0D01*
G01*
X160150001Y-87800000D01*
G75*
G02*
X160400000Y-88049999I0J-249999D01*
G01*
G37*
G36*
G01*
X162400000Y-88049999D02*
X162400000Y-88950001D01*
G75*
G02*
X162150001Y-89200000I-249999J0D01*
G01*
X161449999Y-89200000D01*
G75*
G02*
X161200000Y-88950001I0J249999D01*
G01*
X161200000Y-88049999D01*
G75*
G02*
X161449999Y-87800000I249999J0D01*
G01*
X162150001Y-87800000D01*
G75*
G02*
X162400000Y-88049999I0J-249999D01*
G01*
G37*
%TD*%
%TO.C,R6*%
G36*
G01*
X182000000Y-123949999D02*
X182000000Y-124850001D01*
G75*
G02*
X181750001Y-125100000I-249999J0D01*
G01*
X181049999Y-125100000D01*
G75*
G02*
X180800000Y-124850001I0J249999D01*
G01*
X180800000Y-123949999D01*
G75*
G02*
X181049999Y-123700000I249999J0D01*
G01*
X181750001Y-123700000D01*
G75*
G02*
X182000000Y-123949999I0J-249999D01*
G01*
G37*
G36*
G01*
X184000000Y-123949999D02*
X184000000Y-124850001D01*
G75*
G02*
X183750001Y-125100000I-249999J0D01*
G01*
X183049999Y-125100000D01*
G75*
G02*
X182800000Y-124850001I0J249999D01*
G01*
X182800000Y-123949999D01*
G75*
G02*
X183049999Y-123700000I249999J0D01*
G01*
X183750001Y-123700000D01*
G75*
G02*
X184000000Y-123949999I0J-249999D01*
G01*
G37*
%TD*%
%TO.C,R5*%
G36*
G01*
X158900000Y-136150001D02*
X158900000Y-135249999D01*
G75*
G02*
X159149999Y-135000000I249999J0D01*
G01*
X159850001Y-135000000D01*
G75*
G02*
X160100000Y-135249999I0J-249999D01*
G01*
X160100000Y-136150001D01*
G75*
G02*
X159850001Y-136400000I-249999J0D01*
G01*
X159149999Y-136400000D01*
G75*
G02*
X158900000Y-136150001I0J249999D01*
G01*
G37*
G36*
G01*
X156900000Y-136150001D02*
X156900000Y-135249999D01*
G75*
G02*
X157149999Y-135000000I249999J0D01*
G01*
X157850001Y-135000000D01*
G75*
G02*
X158100000Y-135249999I0J-249999D01*
G01*
X158100000Y-136150001D01*
G75*
G02*
X157850001Y-136400000I-249999J0D01*
G01*
X157149999Y-136400000D01*
G75*
G02*
X156900000Y-136150001I0J249999D01*
G01*
G37*
%TD*%
%TO.C,R4*%
G36*
G01*
X138700000Y-98949999D02*
X138700000Y-99850001D01*
G75*
G02*
X138450001Y-100100000I-249999J0D01*
G01*
X137749999Y-100100000D01*
G75*
G02*
X137500000Y-99850001I0J249999D01*
G01*
X137500000Y-98949999D01*
G75*
G02*
X137749999Y-98700000I249999J0D01*
G01*
X138450001Y-98700000D01*
G75*
G02*
X138700000Y-98949999I0J-249999D01*
G01*
G37*
G36*
G01*
X140700000Y-98949999D02*
X140700000Y-99850001D01*
G75*
G02*
X140450001Y-100100000I-249999J0D01*
G01*
X139749999Y-100100000D01*
G75*
G02*
X139500000Y-99850001I0J249999D01*
G01*
X139500000Y-98949999D01*
G75*
G02*
X139749999Y-98700000I249999J0D01*
G01*
X140450001Y-98700000D01*
G75*
G02*
X140700000Y-98949999I0J-249999D01*
G01*
G37*
%TD*%
%TO.C,R3*%
G36*
G01*
X147000000Y-94050001D02*
X147000000Y-93149999D01*
G75*
G02*
X147249999Y-92900000I249999J0D01*
G01*
X147950001Y-92900000D01*
G75*
G02*
X148200000Y-93149999I0J-249999D01*
G01*
X148200000Y-94050001D01*
G75*
G02*
X147950001Y-94300000I-249999J0D01*
G01*
X147249999Y-94300000D01*
G75*
G02*
X147000000Y-94050001I0J249999D01*
G01*
G37*
G36*
G01*
X145000000Y-94050001D02*
X145000000Y-93149999D01*
G75*
G02*
X145249999Y-92900000I249999J0D01*
G01*
X145950001Y-92900000D01*
G75*
G02*
X146200000Y-93149999I0J-249999D01*
G01*
X146200000Y-94050001D01*
G75*
G02*
X145950001Y-94300000I-249999J0D01*
G01*
X145249999Y-94300000D01*
G75*
G02*
X145000000Y-94050001I0J249999D01*
G01*
G37*
%TD*%
%TO.C,R2*%
G36*
G01*
X156650001Y-63600000D02*
X155749999Y-63600000D01*
G75*
G02*
X155500000Y-63350001I0J249999D01*
G01*
X155500000Y-62649999D01*
G75*
G02*
X155749999Y-62400000I249999J0D01*
G01*
X156650001Y-62400000D01*
G75*
G02*
X156900000Y-62649999I0J-249999D01*
G01*
X156900000Y-63350001D01*
G75*
G02*
X156650001Y-63600000I-249999J0D01*
G01*
G37*
G36*
G01*
X156650001Y-65600000D02*
X155749999Y-65600000D01*
G75*
G02*
X155500000Y-65350001I0J249999D01*
G01*
X155500000Y-64649999D01*
G75*
G02*
X155749999Y-64400000I249999J0D01*
G01*
X156650001Y-64400000D01*
G75*
G02*
X156900000Y-64649999I0J-249999D01*
G01*
X156900000Y-65350001D01*
G75*
G02*
X156650001Y-65600000I-249999J0D01*
G01*
G37*
%TD*%
%TO.C,R1*%
G36*
G01*
X160400000Y-85549999D02*
X160400000Y-86450001D01*
G75*
G02*
X160150001Y-86700000I-249999J0D01*
G01*
X159449999Y-86700000D01*
G75*
G02*
X159200000Y-86450001I0J249999D01*
G01*
X159200000Y-85549999D01*
G75*
G02*
X159449999Y-85300000I249999J0D01*
G01*
X160150001Y-85300000D01*
G75*
G02*
X160400000Y-85549999I0J-249999D01*
G01*
G37*
G36*
G01*
X162400000Y-85549999D02*
X162400000Y-86450001D01*
G75*
G02*
X162150001Y-86700000I-249999J0D01*
G01*
X161449999Y-86700000D01*
G75*
G02*
X161200000Y-86450001I0J249999D01*
G01*
X161200000Y-85549999D01*
G75*
G02*
X161449999Y-85300000I249999J0D01*
G01*
X162150001Y-85300000D01*
G75*
G02*
X162400000Y-85549999I0J-249999D01*
G01*
G37*
%TD*%
D13*
%TO.C,Q1*%
X138700000Y-106100000D03*
D14*
X141240000Y-106100000D03*
X139970000Y-104830000D03*
%TD*%
D15*
%TO.C,SW1*%
X144300000Y-89603800D03*
X144300000Y-84600000D03*
%TD*%
D16*
%TO.C,C7*%
X152800000Y-144700000D03*
D17*
X152800000Y-142200000D03*
%TD*%
D18*
%TO.C,J4*%
X148500000Y-62600000D03*
G36*
G01*
X149250000Y-65950000D02*
X147750000Y-65950000D01*
G75*
G02*
X147500000Y-65700000I0J250000D01*
G01*
X147500000Y-64500000D01*
G75*
G02*
X147750000Y-64250000I250000J0D01*
G01*
X149250000Y-64250000D01*
G75*
G02*
X149500000Y-64500000I0J-250000D01*
G01*
X149500000Y-65700000D01*
G75*
G02*
X149250000Y-65950000I-250000J0D01*
G01*
G37*
%TD*%
D19*
%TO.C,J3*%
X162800000Y-152900000D03*
G36*
G01*
X166150000Y-152150000D02*
X166150000Y-153650000D01*
G75*
G02*
X165900000Y-153900000I-250000J0D01*
G01*
X164700000Y-153900000D01*
G75*
G02*
X164450000Y-153650000I0J250000D01*
G01*
X164450000Y-152150000D01*
G75*
G02*
X164700000Y-151900000I250000J0D01*
G01*
X165900000Y-151900000D01*
G75*
G02*
X166150000Y-152150000I0J-250000D01*
G01*
G37*
%TD*%
D20*
%TO.C,J2*%
X149100000Y-152900000D03*
X151600000Y-152900000D03*
X154100000Y-152900000D03*
G36*
G01*
X157450000Y-152175000D02*
X157450000Y-153625000D01*
G75*
G02*
X157200000Y-153875000I-250000J0D01*
G01*
X156000000Y-153875000D01*
G75*
G02*
X155750000Y-153625000I0J250000D01*
G01*
X155750000Y-152175000D01*
G75*
G02*
X156000000Y-151925000I250000J0D01*
G01*
X157200000Y-151925000D01*
G75*
G02*
X157450000Y-152175000I0J-250000D01*
G01*
G37*
%TD*%
D21*
%TO.C,H8*%
X193000000Y-132000000D03*
%TD*%
%TO.C,H7*%
X193000000Y-94000000D03*
%TD*%
%TO.C,H6*%
X137000000Y-132000000D03*
%TD*%
%TO.C,H5*%
X137000000Y-94000000D03*
%TD*%
D22*
%TO.C,U1*%
X151020000Y-128100000D03*
X143400000Y-135720000D03*
X151020000Y-130640000D03*
X143400000Y-133180000D03*
X151020000Y-133180000D03*
X143400000Y-130640000D03*
X151020000Y-135720000D03*
D23*
X143400000Y-128100000D03*
%TD*%
D24*
%TO.C,J1*%
X181520000Y-72000000D03*
X178980000Y-72000000D03*
X176440000Y-72000000D03*
X173900000Y-72000000D03*
X171360000Y-72000000D03*
X168820000Y-72000000D03*
X166280000Y-72000000D03*
X163740000Y-72000000D03*
X161200000Y-72000000D03*
X158660000Y-72000000D03*
X156120000Y-72000000D03*
X153580000Y-72000000D03*
X151040000Y-72000000D03*
D25*
X148500000Y-72000000D03*
%TD*%
D21*
%TO.C,H4*%
X187000000Y-76900000D03*
%TD*%
%TO.C,H3*%
X187000000Y-153000000D03*
%TD*%
%TO.C,H2*%
X143000000Y-76900000D03*
%TD*%
%TO.C,H1*%
X143000000Y-153000000D03*
%TD*%
D16*
%TO.C,C5*%
X159600000Y-130600000D03*
D17*
X154600000Y-130600000D03*
%TD*%
D16*
%TO.C,C3*%
X142300000Y-143300000D03*
D17*
X144800000Y-143300000D03*
%TD*%
M02*
